<?xml version="1.0" encoding="utf-8"?>
<!-- Generator: Adobe Illustrator 19.1.0, SVG Export Plug-In . SVG Version: 6.00 Build 0)  -->
<!DOCTYPE svg PUBLIC "-//W3C//DTD SVG 1.1//EN" "http://www.w3.org/Graphics/SVG/1.1/DTD/svg11.dtd">
<svg version="1.1" xmlns="http://www.w3.org/2000/svg" xmlns:xlink="http://www.w3.org/1999/xlink" x="0px" y="0px" width="144px"
	 height="76px" viewBox="0 0 144 76" style="enable-background:new 0 0 144 76;" xml:space="preserve">
<style type="text/css">
	.st0{display:none;}
	.st1{display:inline;}
	.st2{display:inline;fill:#10151C;}
	.st3{display:inline;fill:#171F29;}
	.st4{display:inline;fill:#161F29;}
	.st5{display:inline;fill:#17202A;}
	.st6{fill:#631700;}
	.st7{fill:#FF4E15;}
	.st8{fill:#E13700;}
	.st9{fill:none;}
	.st10{fill:#FF4D00;}
	.st11{fill:#3398E5;}
	.st12{fill:#FFFFFF;}
	.st13{fill:none;stroke:#FFFFFF;stroke-width:5;stroke-miterlimit:10;}
	.st14{fill:none;stroke:#FF4E15;stroke-width:5;stroke-miterlimit:10;}
	.st15{fill:url(#SVGID_1_);}
	.st16{fill:url(#SVGID_2_);}
	.st17{fill:url(#SVGID_3_);}
	.st18{fill:none;stroke:#FF4E15;stroke-width:5;stroke-linecap:square;stroke-miterlimit:10;}
	.st19{opacity:0.5;}
	.st20{fill:#FF7C52;}
	.st21{opacity:0.5;fill:#FF7C52;}
	.st22{fill:none;stroke:#631700;stroke-width:10;stroke-miterlimit:10;}
	.st23{fill:none;stroke:#631700;stroke-width:5;stroke-miterlimit:10;}
	.st24{fill:none;stroke:#FF4E15;stroke-width:5;stroke-linejoin:bevel;stroke-miterlimit:10;}
</style>
<g id="Layer_1" class="st0">
</g>
<g id="Layer_3" class="st0">
	<g class="st1">
		
			<image style="overflow:visible;" width="2036" height="1024" id="B8gxfP_1_" xlink:href="3BA32CC98EFAECEF.png"  transform="matrix(0.5 0 0 0.5 -94 -76)">
		</image>
	</g>
	<rect y="28" class="st5" width="132" height="44"/>
</g>
<g id="Layer_4">
	<path class="st6" d="M138.8,70.8c0.7-0.7,1.2-1.7,1.2-2.8c0-2.2-1.8-4-4-4c-0.4,0-0.8,0.1-1.2,0.2c0.8-1.2,1.2-2.7,1.2-4.2
		c0-4.4-3.6-8-8-8c0-2.2-1.8-4-4-4s-4,1.8-4,4l-8-32h4v-4h-4v-4h4L104,0c0,0-11.4,11.4-12,12h4v4h-4v4h4l-8,32V40H28v28H8l-8,8h144
		L138.8,70.8z"/>
	<circle class="st6" cx="34" cy="18" r="6"/>
	<g>
		<path class="st6" d="M34,16C18.1,16,5.1,28.4,4.1,44h59.9C62.9,28.4,49.9,16,34,16z"/>
	</g>
	<polygon class="st7" points="8,76 16,72 132,72 136,76 	"/>
	<polygon class="st8" points="28,72 24,76 8,76 12,72 	"/>
	<g>
		<path class="st8" d="M32.9,20c-11.8,0.5-21.6,8.8-24.2,20h7.6C17.6,29.1,26.7,25.9,32.9,20z"/>
		<path class="st9" d="M32.9,20c0.4,0,0.7,0,1.1,0C33.6,20,33.3,20,32.9,20z"/>
		<path class="st7" d="M36,20.1V20v-2c0-1.1-0.9-2-2-2s-2,0.9-2,2v2v0.2c-8,1.2-14.4,9.3-15.7,19.8H24h8v32h4V40h8h7.8h7.6
			C56.7,29.2,47.4,21,36,20.1z"/>
	</g>
	<rect x="60" y="52" class="st7" width="24" height="4"/>
	<polygon class="st7" points="52,72 60,56 60,44 64,44 64,56 56,72 	"/>
	<g>
		<polygon class="st7" points="52,56 56,64 60,64 56,56 		"/>
		<polygon class="st8" points="60,72 64,72 60,64 56,64 		"/>
		<polygon class="st8" points="84,64 80,72 84,72 88,64 		"/>
		<polygon class="st7" points="92,56 88,56 84,64 88,64 		"/>
	</g>
	<polygon class="st7" points="92,72 84,56 84,44 80,44 80,56 88,72 	"/>
	<path class="st8" d="M88,68H56c-2.2,0-4-1.8-4-4v0h40v0C92,66.2,90.2,68,88,68z"/>
	<path class="st7" d="M92,64H52v0c0-2.2,1.8-4,4-4h32C90.2,60,92,61.8,92,64L92,64z"/>
	<polygon class="st8" points="80,52 76,56 80,56 	"/>
	<polygon class="st8" points="64,52 64,56 68,52 	"/>
	<rect x="60" y="44" class="st7" width="24" height="4"/>
	<polygon class="st8" points="80,44 76,48 80,48 	"/>
	<polygon class="st8" points="64,44 64,48 68,44 	"/>
</g>
<g id="Layer_2">
</g>
</svg>
