<?xml version="1.0" encoding="utf-8"?>
<!-- Generator: Adobe Illustrator 19.1.0, SVG Export Plug-In . SVG Version: 6.00 Build 0)  -->
<!DOCTYPE svg PUBLIC "-//W3C//DTD SVG 1.1//EN" "http://www.w3.org/Graphics/SVG/1.1/DTD/svg11.dtd">
<svg version="1.1" xmlns="http://www.w3.org/2000/svg" xmlns:xlink="http://www.w3.org/1999/xlink" x="0px" y="0px" width="144px"
	 height="76px" viewBox="0 0 144 76" style="enable-background:new 0 0 144 76;" xml:space="preserve">
<style type="text/css">
	.st0{display:none;}
	.st1{display:inline;}
	.st2{display:inline;fill:#10151C;}
	.st3{display:inline;fill:#171F29;}
	.st4{display:inline;fill:#161F29;}
	.st5{display:inline;fill:#17202A;}
	.st6{fill:#631700;}
	.st7{fill:#FF4E15;}
	.st8{fill:#E13700;}
	.st9{fill:none;}
	.st10{fill:#FF4D00;}
	.st11{fill:#3398E5;}
	.st12{fill:#FFFFFF;}
	.st13{fill:none;stroke:#FFFFFF;stroke-width:5;stroke-miterlimit:10;}
	.st14{fill:none;stroke:#FF4E15;stroke-width:5;stroke-miterlimit:10;}
	.st15{fill:url(#SVGID_1_);}
	.st16{fill:url(#SVGID_2_);}
	.st17{fill:url(#SVGID_3_);}
	.st18{fill:none;stroke:#FF4E15;stroke-width:5;stroke-linecap:square;stroke-miterlimit:10;}
	.st19{opacity:0.5;}
	.st20{fill:#FF7C52;}
	.st21{opacity:0.5;fill:#FF7C52;}
	.st22{fill:none;stroke:#631700;stroke-width:10;stroke-miterlimit:10;}
	.st23{fill:none;stroke:#631700;stroke-width:5;stroke-miterlimit:10;}
	.st24{fill:none;stroke:#FF4E15;stroke-width:5;stroke-linejoin:bevel;stroke-miterlimit:10;}
</style>
<g id="Layer_1" class="st0">
</g>
<g id="Layer_3" class="st0">
	<g class="st1">
		
			<image style="overflow:visible;" width="1788" height="1124" id="Mql4qz_1_" xlink:href="3BAB97D649094136.png"  transform="matrix(0.5 0 0 0.5 -40 -120)">
		</image>
	</g>
	<rect x="-20" y="-108" class="st4" width="792" height="184"/>
</g>
<g id="Layer_4">
	<polygon class="st6" points="0,76 8,68 12,68 16,60 12,60 20,44 16,44 32,16 48,44 44,44 52,60 76,36 80,32 96,48 100,44 104,40 
		112,48 116,48 144,76 	"/>
	<polygon class="st7" points="8,76 12,72 132,72 136,76 	"/>
	<polygon class="st8" points="28,72 24,76 8,76 12,72 	"/>
	<polygon class="st7" points="16,72 20,64 24,56 20,56 24,48 32,44 40,48 44,56 40,56 48,72 	"/>
	<polygon class="st7" points="24,48 32,44 40,48 32,32 	"/>
	<polygon class="st8" points="20,56 32,52 32,72 16,72 24,56 	"/>
	<polygon class="st8" points="28,40 24,40 32,24 32,32 	"/>
	<polygon class="st7" points="32,24 40,40 36,40 32,32 	"/>
	<polygon class="st8" points="20,56 32,48 32,36 28,40 	"/>
	<polygon class="st7" points="104,72 76,44 48,72 72,72 76,48 80,72 	"/>
	<polygon class="st8" points="72,72 76,48 56,72 	"/>
	<polygon class="st8" points="76,48 96,72 80,72 	"/>
	<path class="st7" d="M50,64L50,64c1.1,0,2,0.9,2,2v2v6c0,1.1-0.9,2-2,2h0c-1.1,0-2-0.9-2-2v-8C48,64.9,48.9,64,50,64z"/>
	<path class="st7" d="M102,64L102,64c1.1,0,2,0.9,2,2v8c0,1.1-0.9,2-2,2l0,0c-1.1,0-2-0.9-2-2v-8C100,64.9,100.9,64,102,64z"/>
	<polygon class="st6" points="48,56 52,48 48,48 56,32 60,40 64,48 64,52 64,56 52,60 	"/>
	<polygon class="st6" points="60,44 64,36 68,44 64,48 	"/>
	<polygon class="st6" points="52,44 48,36 44,44 48,56 52,52 	"/>
</g>
<g id="Layer_2">
</g>
</svg>
