<?xml version="1.0" encoding="utf-8"?>
<!-- Generator: Adobe Illustrator 19.1.0, SVG Export Plug-In . SVG Version: 6.00 Build 0)  -->
<!DOCTYPE svg PUBLIC "-//W3C//DTD SVG 1.1//EN" "http://www.w3.org/Graphics/SVG/1.1/DTD/svg11.dtd">
<svg version="1.1" id="Layer_1" xmlns="http://www.w3.org/2000/svg" xmlns:xlink="http://www.w3.org/1999/xlink" x="0px" y="0px"
	 width="50px" height="50px" viewBox="0 0 50 50" style="enable-background:new 0 0 50 50;" xml:space="preserve">
<style type="text/css">
	.st0{fill:#FFFFFF;}
</style>
<path class="st0" d="M49.8,10.6C48,11.4,46,11.9,44,12.2c2.1-1.3,3.7-3.3,4.5-5.6c-2,1.2-4.1,2-6.5,2.5c-1.9-2-4.5-3.2-7.4-3.2
	C29,5.8,24.4,10.3,24.4,16c0,0.8,0.1,1.6,0.3,2.3c-8.5-0.4-15.9-4.5-21-10.6c-0.9,1.5-1.4,3.2-1.4,5.1c0,3.5,1.8,6.6,4.5,8.5
	c-1.7-0.1-3.2-0.5-4.6-1.3c0,0,0,0.1,0,0.1c0,4.9,3.5,9,8.2,10c-0.9,0.2-1.8,0.4-2.7,0.4c-0.7,0-1.3-0.1-1.9-0.2
	c1.3,4,5.1,7,9.5,7.1c-3.5,2.7-7.9,4.4-12.6,4.4c-0.8,0-1.6,0-2.4-0.1c4.5,2.9,9.8,4.6,15.6,4.6c18.7,0,28.9-15.5,28.9-28.9
	c0-0.4,0-0.9,0-1.3C46.7,14.4,48.5,12.6,49.8,10.6z"/>
</svg>
