<?xml version="1.0" encoding="utf-8"?>
<!-- Generator: Adobe Illustrator 19.1.0, SVG Export Plug-In . SVG Version: 6.00 Build 0)  -->
<!DOCTYPE svg PUBLIC "-//W3C//DTD SVG 1.1//EN" "http://www.w3.org/Graphics/SVG/1.1/DTD/svg11.dtd">
<svg version="1.1" xmlns="http://www.w3.org/2000/svg" xmlns:xlink="http://www.w3.org/1999/xlink" x="0px" y="0px" width="170px"
	 height="170px" viewBox="0 0 170 170" style="enable-background:new 0 0 170 170;" xml:space="preserve">
<style type="text/css">
	.st0{fill:#FF4D00;}
	.st1{fill:none;}
	.st2{fill:#3398E5;}
	.st3{fill:#FFFFFF;}
	.st4{fill:none;stroke:#FFFFFF;stroke-width:5;stroke-miterlimit:10;}
	.st5{fill:none;stroke:#FF4E15;stroke-width:5;stroke-miterlimit:10;}
	.st6{fill:url(#SVGID_1_);}
	.st7{fill:url(#SVGID_2_);}
	.st8{fill:url(#SVGID_3_);}
	.st9{fill:none;stroke:#FF4E15;stroke-width:5;stroke-linecap:square;stroke-miterlimit:10;}
	.st10{opacity:0.5;}
	.st11{fill:#FF7C52;}
	.st12{fill:#631700;}
	.st13{opacity:0.5;fill:#FF7C52;}
	.st14{fill:#FF4E15;}
	.st15{fill:none;stroke:#631700;stroke-width:10;stroke-miterlimit:10;}
	.st16{fill:none;stroke:#631700;stroke-width:5;stroke-miterlimit:10;}
	.st17{fill:none;stroke:#FF4E15;stroke-width:5;stroke-linejoin:bevel;stroke-miterlimit:10;}
</style>
<g id="Layer_3">
</g>
<g id="Layer_2">
	<g>
		<radialGradient id="SVGID_1_" cx="85" cy="85" r="80" gradientUnits="userSpaceOnUse">
			<stop  offset="0.85" style="stop-color:#FF4E15"/>
			<stop  offset="1" style="stop-color:#E13700"/>
		</radialGradient>
		<circle class="st6" cx="85" cy="85" r="80"/>
	</g>
	<g class="st10">
		<path class="st11" d="M105,82.5c-5.5,0-10,4.5-10,10s4.5,10,10,10s10-4.5,10-10S110.5,82.5,105,82.5z"/>
		<rect x="35" y="125" class="st11" width="100" height="5"/>
		<path class="st11" d="M102.9,122.5H115v-10h-7.9l-15-15H75c-2.9,0-5.4,1.7-6.5,4.4c-1.1,2.7-0.5,5.7,1.5,7.7l2.9,2.9H55v10h25
			c2.9,0,5.4-1.7,6.5-4.4c1.1-2.7,0.5-5.7-1.5-7.7l-2.9-2.9h5.9L102.9,122.5z"/>
		<polygon class="st11" points="47.5,122.5 52.5,122.5 52.5,77.5 117.5,77.5 117.5,122.5 122.5,122.5 122.5,77.5 125,77.5 125,67.5 
			45,67.5 45,77.5 47.5,77.5 		"/>
	</g>
	<g>
		<path class="st12" d="M105,80c-5.5,0-10,4.5-10,10s4.5,10,10,10s10-4.5,10-10S110.5,80,105,80z"/>
		<rect x="35" y="122.5" class="st12" width="100" height="5"/>
		<path class="st12" d="M102.9,120H115v-10h-7.9l-15-15H75c-2.9,0-5.4,1.7-6.5,4.4c-1.1,2.7-0.5,5.7,1.5,7.7l2.9,2.9H55v10h25
			c2.9,0,5.4-1.7,6.5-4.4c1.1-2.7,0.5-5.7-1.5-7.7l-2.9-2.9h5.9L102.9,120z"/>
		<polygon class="st12" points="47.5,120 52.5,120 52.5,75 117.5,75 117.5,120 122.5,120 122.5,75 125,75 125,65 45,65 45,75 
			47.5,75 		"/>
	</g>
	<g class="st10">
		<path class="st11" d="M85,35c-6.9,0-12.5,5.6-12.5,12.5S78.1,60,85,60s12.5-5.6,12.5-12.5S91.9,35,85,35z M85,40
			c3.3,0,6,2.1,7.1,5H77.9C79,42.1,81.7,40,85,40z M85,55c-3.3,0-6-2.1-7.1-5h14.1C91,52.9,88.3,55,85,55z"/>
	</g>
	<g>
		<path class="st1" d="M77.9,47.5c1,2.9,3.8,5,7.1,5s6-2.1,7.1-5H77.9z"/>
		<path class="st1" d="M92.1,42.5c-1-2.9-3.8-5-7.1-5s-6,2.1-7.1,5H92.1z"/>
		<path class="st12" d="M85,32.5c-6.9,0-12.5,5.6-12.5,12.5S78.1,57.5,85,57.5S97.5,51.9,97.5,45S91.9,32.5,85,32.5z M85,37.5
			c3.3,0,6,2.1,7.1,5H77.9C79,39.6,81.7,37.5,85,37.5z M85,52.5c-3.3,0-6-2.1-7.1-5h14.1C91,50.4,88.3,52.5,85,52.5z"/>
	</g>
</g>
</svg>
