<?xml version="1.0" encoding="utf-8"?>
<!-- Generator: Adobe Illustrator 19.1.0, SVG Export Plug-In . SVG Version: 6.00 Build 0)  -->
<!DOCTYPE svg PUBLIC "-//W3C//DTD SVG 1.1//EN" "http://www.w3.org/Graphics/SVG/1.1/DTD/svg11.dtd">
<svg version="1.1" xmlns="http://www.w3.org/2000/svg" xmlns:xlink="http://www.w3.org/1999/xlink" x="0px" y="0px" width="360px"
	 height="325px" viewBox="0 0 360 325" style="enable-background:new 0 0 360 325;" xml:space="preserve">
   <script type="text/ecmascript" xlink:href="/assets/javascripts/vendor/smil.user.js"></script>
<style type="text/css">
	.st0{fill:#10151C;}
	.st1{fill:#ff4e15;}
	.st2{fill:#ff4e15;}
	.st3{fill:#ff4e15;}
</style>
<g id="Layer_2">
  <g id="glitch">
  	<g id="blue">
  		<polygon class="st1" points="180,267.5 195,252.5 195,142.5 220,117.5 215,117.5 190,142.5 190,252.5 175,267.5 		"/>
  		<polygon class="st1" points="230,147.5 230,102.5 225,102.5 225,128.4 220,123.6 213.9,123.6 225,134.7 225,147.5 225,149.6
  			226.5,151 235,159.6 235,187.5 240,187.5 240,157.5 		"/>
  		<path class="st1" d="M125,239.5l-8.6-8.7c-10.6-10.8-16.4-25-16.4-40.1v-73.1h-5v73.1c0,15.1,5.8,29.4,16.4,40.1l8.6,8.7H125z"/>
  		<rect x="305" y="157.5" class="st1" width="5" height="10"/>
  		<rect x="275" y="152.5" class="st1" width="5" height="35"/>
  		<rect x="260" y="147.5" class="st1" width="5" height="45"/>
  		<polygon class="st1" points="175,279.6 175,267.5 175,114.6 161.5,101 160,99.6 160,97.5 160,62.5 155,62.5 155,97.5 155,99.6
  			156.5,101 170,114.6 170,267.5 170,279.6 		"/>
  		<path class="st1" d="M120,227.2v-89.8c8.3,0,15-6.7,15-15v-65h-5v65c0,8.3-6.7,15-15,15v89.8H120z"/>
  		<path class="st1" d="M70,187.5l-5-5.5v-24.2c5.5,0,10-4.5,10-10v-5.2h5v-30h5v30h-5v5.2c0,5.5-4.5,10-10,10V187.5z"/>
  		<polygon class="st1" points="45,164 45,142.4 50,142.5 50,162.5 		"/>
  		<path class="st1" d="M175,325c-89.6,0-162.5-72.9-162.5-162.5S85.4,0,175,0s162.5,72.9,162.5,162.5S264.6,325,175,325z M175,5
  			C88.2,5,17.5,75.7,17.5,162.5S88.2,320,175,320s157.5-70.7,157.5-157.5S261.8,5,175,5z"/>

      <animateTransform attributeName="transform"
        type="translate"
        values="5 0;0 0;2 0;5 0;0 0;2 0;0 0;5 0;0 0;4 0;0 0;1 0;0 0"
        begin="0"
        dur="4"
        repeatCount="indefinite"
        calcMode="spline"
        keySplines="0.5 0 1 1;
                    0.5 0 1 1;
                    0.5 0 1 1;
                    0.5 0 1 1;
                    0.5 0 1 1;
                    0.5 0 1 1;
                    0.5 0 1 1;
                    0.5 0 1 1;
                    0.5 0 1 1;
                    0.5 0 1 1;
                    0.5 0 1 1;
                    0.5 0 1 1"
        />
  	</g>
  	<g id="yellow">
  		<rect x="65" y="136.8" class="st2" width="5" height="50.8"/>
  		<path class="st2" d="M120,227.5c-9.6-9.8-15-22.9-15-36.6v-78.4h5v78.4c0,13.7,5.4,26.9,15,36.6H120z"/>
  		<path class="st2" d="M130,239.5v-12.2v-85.4c8.6-2.2,15-10.1,15-19.4v-60h-5v60c0,9.3-6.4,17.1-15,19.4v85.4v12.2H130z"/>
  		<path class="st2" d="M80,199.8v-12.5v-25.6c5.8-2.1,10-7.6,10-14.1h5v-5v-25h-5v25v5h-5c0,6.5-4.2,12.1-10,14.1v25.6v12.5H80z"/>
  		<polygon class="st2" points="235,102.5 240,102.5 240,147.5 250,157.5 250,182.5 245,182.5 245,157.5 235,147.5 		"/>
  		<rect x="270" y="142.5" class="st2" width="5" height="45"/>
  		<rect x="315" y="152.5" class="st2" width="5" height="10"/>
  		<polygon class="st2" points="165,57.5 170,57.5 170,97.5 185,112.5 185,262.5 180,267.5 180,112.5 165,97.5 		"/>
  		<rect x="255" y="147.5" class="st2" width="5" height="40"/>
  		<rect x="285" y="157.5" class="st2" width="5" height="35"/>
  		<polygon class="st2" points="223.7,125.8 205,144.6 205,254.6 180,279.6 175,279.6 200,254.6 200,144.6 218.7,125.8 		"/>
  		<rect x="55" y="147.5" class="st2" width="5" height="20"/>
  		<path class="st2" d="M184.9,325c-89.6,0-162.5-72.9-162.5-162.5S95.3,0,184.9,0s162.5,72.9,162.5,162.5S274.5,325,184.9,325z
  			 M184.9,5C98.1,5,27.4,75.7,27.4,162.5S98.1,320,184.9,320s157.5-70.7,157.5-157.5S271.8,5,184.9,5z"/>

      <animateTransform attributeName="transform"
        type="translate"
        values="-5 0;0 0;-2 0;-5 0;0 0;-2 0;0 0;-5 0;0 0;-4 0;0 0;-1 0;0 0"
        begin="0"
        dur="4"
        repeatCount="indefinite"
        calcMode="spline"
        keySplines="0.5 0 1 1;
                    0.5 0 1 1;
                    0.5 0 1 1;
                    0.5 0 1 1;
                    0.5 0 1 1;
                    0.5 0 1 1;
                    0.5 0 1 1;
                    0.5 0 1 1;
                    0.5 0 1 1;
                    0.5 0 1 1;
                    0.5 0 1 1;
                    0.5 0 1 1"
        />
  	</g>

    <animate attributeName="opacity"
      from="0"
      to="0"
      begin="0"
      dur="4"
      repeatCount="indefinite"
      values="0;1;0;0.5;0;0.2;0;1;1;0.5;0;0.1;0;0.1;0;0.3;0;0;0;0;0;0;0;0.9;0;0.2;0;1;0;0;0;0;0;0;0;0;0;1;0;1;0;0;0;0;0;0.5;0;0;0;0.2;0;0.6;0;0;0;0;0;0;0.8;0;1;0;1;0;1;0;0;0;0;0;0;0;0;0;0;0.4;0;0;0.2;0;0;0;1;0;0;1;0;1;0;0;0;0;0;0;0;0;0;0;0"
      />
  </g>
  <g>
    <path class="st3" d="M60,147.5V182v2l1.4,1.4l5,5.2l8.6,9.1v-12.5v-25.6c5.8-2.1,10-7.6,10-14.1h5v-5v-25h10v73.1
      c0,15.1,5.8,29.4,16.4,40.1l8.6,8.7v-12.2v-85.4c8.6-2.2,15-10.1,15-19.4v-60h20v35v2.1l1.5,1.5l13.5,13.5v152.9v12.1l8.5-8.5
      l15-15l1.5-1.5v-2.1V144.6l20-20c1.7,1.7,4,4,6.4,6.4l3.6,3.7v12.8v2.1l1.5,1.5l8.5,8.5v22.9v5h5h5h5v-5v-35h10v40v5h5h10h5v-5
      v-30h25v5v5h5h45v-5h-45v-10h-35v35h-10v-45h-20v40h-5v-25l-10-10v-45h-5v20v5c-5.5-5.6-10-10-10-10l-25,25v110l-15,15v-155
      l-15-15v-40h-30v65c0,8.3-6.7,15-15,15v89.8c-9.6-9.8-15-22.9-15-36.6v-78.1H85v30h-5v5c0,5.5-4.5,10-10,10v29.8l-5-5.2v-45.2
      l-15,5.8v20H0v5h45h10v-20H60z"/>
    <g>
      <path class="st3" d="M180,325c-89.6,0-162.5-72.9-162.5-162.5S90.4,0,180,0s162.5,72.9,162.5,162.5S269.6,325,180,325z M180,5
        C93.2,5,22.5,75.7,22.5,162.5S93.2,320,180,320s157.5-70.7,157.5-157.5S266.8,5,180,5z"/>
    </g>
  </g>
</g>
</svg>
