<?xml version="1.0" encoding="utf-8"?>
<!-- Generator: Adobe Illustrator 19.1.0, SVG Export Plug-In . SVG Version: 6.00 Build 0)  -->
<!DOCTYPE svg PUBLIC "-//W3C//DTD SVG 1.1//EN" "http://www.w3.org/Graphics/SVG/1.1/DTD/svg11.dtd">
<svg version="1.1" xmlns="http://www.w3.org/2000/svg" xmlns:xlink="http://www.w3.org/1999/xlink" x="0px" y="0px" width="170px"
	 height="170px" viewBox="0 0 170 170" style="enable-background:new 0 0 170 170;" xml:space="preserve">
<style type="text/css">
	.st0{fill:#FF4D00;}
	.st1{fill:none;}
	.st2{fill:#3398E5;}
	.st3{fill:#FFFFFF;}
	.st4{fill:none;stroke:#FFFFFF;stroke-width:5;stroke-miterlimit:10;}
	.st5{fill:none;stroke:#FF4E15;stroke-width:5;stroke-miterlimit:10;}
	.st6{fill:url(#SVGID_1_);}
	.st7{fill:url(#SVGID_2_);}
	.st8{fill:url(#SVGID_3_);}
	.st9{fill:none;stroke:#FF4E15;stroke-width:5;stroke-linecap:square;stroke-miterlimit:10;}
	.st10{opacity:0.5;}
	.st11{fill:#FF7C52;}
	.st12{fill:#631700;}
	.st13{opacity:0.5;fill:#FF7C52;}
	.st14{fill:#FF4E15;}
	.st15{fill:none;stroke:#631700;stroke-width:10;stroke-miterlimit:10;}
	.st16{fill:none;stroke:#631700;stroke-width:5;stroke-miterlimit:10;}
	.st17{fill:none;stroke:#FF4E15;stroke-width:5;stroke-linejoin:bevel;stroke-miterlimit:10;}
</style>
<g id="Layer_3">
</g>
<g id="Layer_2">
	<circle class="st5" cx="85" cy="85" r="80"/>
	<path class="st5" d="M20,130L20,130c42.8-9.9,87.2-9.9,130,0l0,0"/>
	<path class="st17" d="M35,115l10,10V65c0-13.8,11.2-25,25-25h0h30h0c13.8,0,25,11.2,25,25v60l10-10"/>
	<line class="st5" x1="85" y1="80" x2="85" y2="57.5"/>
	<path class="st5" d="M95,70h5c2.8,0,5-2.2,5-5v0v0c0-2.8-2.2-5-5-5h-5v20"/>
	<path class="st5" d="M65,70h5c2.8,0,5-2.2,5-5v0v0c0-2.8-2.2-5-5-5h-5v20"/>
	<path class="st5" d="M70,70l1.5,1.5c2.3,2.3,3.5,5.3,3.5,8.5v0"/>
	<path class="st5" d="M45,140L45,140c26.6-3.3,53.4-3.3,80,0h0"/>
</g>
</svg>
