<?xml version="1.0" encoding="utf-8"?>
<!-- Generator: Adobe Illustrator 19.1.0, SVG Export Plug-In . SVG Version: 6.00 Build 0)  -->
<!DOCTYPE svg PUBLIC "-//W3C//DTD SVG 1.1//EN" "http://www.w3.org/Graphics/SVG/1.1/DTD/svg11.dtd">
<svg version="1.1" xmlns="http://www.w3.org/2000/svg" xmlns:xlink="http://www.w3.org/1999/xlink" x="0px" y="0px" width="170px"
	 height="170px" viewBox="0 0 170 170" style="enable-background:new 0 0 170 170;" xml:space="preserve">
<style type="text/css">
	.st0{fill:#FF4D00;}
	.st1{fill:none;}
	.st2{fill:#3398E5;}
	.st3{fill:#FFFFFF;}
	.st4{fill:none;stroke:#FFFFFF;stroke-width:5;stroke-miterlimit:10;}
	.st5{fill:none;stroke:#FF4E15;stroke-width:5;stroke-miterlimit:10;}
	.st6{fill:url(#SVGID_1_);}
	.st7{fill:url(#SVGID_2_);}
	.st8{fill:url(#SVGID_3_);}
	.st9{fill:none;stroke:#FF4E15;stroke-width:5;stroke-linecap:square;stroke-miterlimit:10;}
	.st10{opacity:0.5;}
	.st11{fill:#FF7C52;}
	.st12{fill:#631700;}
	.st13{opacity:0.5;fill:#FF7C52;}
	.st14{fill:#FF4E15;}
	.st15{fill:none;stroke:#631700;stroke-width:10;stroke-miterlimit:10;}
	.st16{fill:none;stroke:#631700;stroke-width:5;stroke-miterlimit:10;}
	.st17{fill:none;stroke:#FF4E15;stroke-width:5;stroke-linejoin:bevel;stroke-miterlimit:10;}
</style>
<g id="Layer_3">
</g>
<g id="Layer_2">
	<circle class="st5" cx="85" cy="85" r="80"/>
	<path class="st5" d="M20,130L20,130c42.8-9.9,87.2-9.9,130,0l0,0"/>
	<polyline class="st9" points="85,125 80,130 90,140 80,150 	"/>
	<polyline class="st5" points="75,75 40,75 40,125 	"/>
	<polyline class="st9" points="75,120 70,110 75,105 70,100 75,90 70,85 75,75 65,75 80,50 70,30 25,75 40,75 	"/>
	<line class="st9" x1="130" y1="125" x2="130" y2="75"/>
	<polyline class="st9" points="105,75 125,75 145,75 100,30 110,50 95,75 105,75 100,85 105,90 100,100 105,105 100,110 105,120 	
		"/>
</g>
</svg>
