<?xml version="1.0" encoding="utf-8"?>
<!-- Generator: Adobe Illustrator 19.1.0, SVG Export Plug-In . SVG Version: 6.00 Build 0)  -->
<!DOCTYPE svg PUBLIC "-//W3C//DTD SVG 1.1//EN" "http://www.w3.org/Graphics/SVG/1.1/DTD/svg11.dtd">
<svg version="1.1" xmlns="http://www.w3.org/2000/svg" xmlns:xlink="http://www.w3.org/1999/xlink" x="0px" y="0px" width="170px"
	 height="170px" viewBox="0 0 170 170" style="enable-background:new 0 0 170 170;" xml:space="preserve">
<style type="text/css">
	.st0{fill:#FF4D00;}
	.st1{fill:none;}
	.st2{fill:#3398E5;}
	.st3{fill:#FFFFFF;}
	.st4{fill:none;stroke:#FFFFFF;stroke-width:5;stroke-miterlimit:10;}
	.st5{fill:none;stroke:#FF4E15;stroke-width:5;stroke-miterlimit:10;}
	.st6{fill:url(#SVGID_1_);}
	.st7{fill:url(#SVGID_2_);}
	.st8{fill:url(#SVGID_3_);}
	.st9{fill:none;stroke:#FF4E15;stroke-width:5;stroke-linecap:square;stroke-miterlimit:10;}
	.st10{opacity:0.5;}
	.st11{fill:#FF7C52;}
	.st12{fill:#631700;}
	.st13{opacity:0.5;fill:#FF7C52;}
	.st14{fill:#FF4E15;}
	.st15{fill:none;stroke:#631700;stroke-width:10;stroke-miterlimit:10;}
	.st16{fill:none;stroke:#631700;stroke-width:5;stroke-miterlimit:10;}
	.st17{fill:none;stroke:#FF4E15;stroke-width:5;stroke-linejoin:bevel;stroke-miterlimit:10;}
</style>
<g id="Layer_3">
</g>
<g id="Layer_2">
	<circle class="st5" cx="85" cy="85" r="80"/>
	<path class="st5" d="M102.9,97.1l-9.4,9.4c-2.3,2.3-3.5,5.3-3.5,8.5v0l0,10H80l0-10v0c0-3.2-1.3-6.3-3.5-8.5l-9.4-9.4
		C62.5,92.5,60,86.4,60,80v0V30c0-2.8,2.2-5,5-5l0,0h40h0c2.8,0,5,2.2,5,5v50v0C110,86.4,107.5,92.5,102.9,97.1z"/>
	<line class="st5" x1="70" y1="150" x2="100" y2="150"/>
	<line class="st5" x1="60" y1="74.7" x2="110" y2="74.7"/>
	<line class="st5" x1="60" y1="45" x2="110" y2="45"/>
	<polyline class="st5" points="100,90 95,95 90,100 	"/>
	<line class="st5" x1="70" y1="60" x2="100" y2="60"/>
</g>
</svg>
