<?xml version="1.0" encoding="UTF-8" standalone="no"?>
<svg width="17px" height="13px" viewBox="0 0 17 13" version="1.1" xmlns="http://www.w3.org/2000/svg" xmlns:xlink="http://www.w3.org/1999/xlink" xmlns:sketch="http://www.bohemiancoding.com/sketch/ns">
    <!-- Generator: Sketch 3.4.4 (17249) - http://www.bohemiancoding.com/sketch -->
    <title>Slice 1</title>
    <desc>Created with Sketch.</desc>
    <defs></defs>
    <g id="Page-1" stroke="none" stroke-width="1" fill="none" fill-rule="evenodd" sketch:type="MSPage">
        <path d="M16.005659,1.49702929 L14.5051284,2.99405858 C14.5051284,2.99405858 14.5051284,2.85801048 14.5051284,3.24364682 C14.5051284,3.51674338 14.4608628,3.77808578 14.3970902,4.03192553 C14.3620779,6.09140368 13.7045954,8.82186906 11.0038905,10.9773812 C5.69151229,15.21663 0,11.4758074 0,11.4758074 C4.50159158,11.4758074 4.50159158,9.97927827 4.50159158,9.97927827 C3.5012379,9.97927827 1.50053053,7.98357267 1.50053053,7.98357267 C2.00070737,8.48224898 3.00106105,7.98357267 3.00106105,7.98357267 C0.500176842,6.48679347 0.500176842,4.98951409 0.500176842,4.98951409 C1.00035368,5.48844049 2.00070737,4.98951409 2.00070737,4.98951409 C-0.500176842,2.99405858 1.00035368,0.499176489 1.00035368,0.499176489 C1.50053053,2.99405858 8.00282948,3.99191138 8.00282948,3.99191138 L8.08560875,3.9503967 C8.03459071,3.72206597 8.00282948,3.23739461 8.00282948,2.99405858 C8.00282948,1.20267522 9.45834409,0 11.253979,0 C12.2423284,0 13.1166375,0.449408893 13.7130984,1.14365435 L14.0049516,0.997602712 L15.5054821,0 L14.5051284,1.9957056 L16.005659,1.49702929 L16.005659,1.49702929 Z" id="Shape" fill="#FFCCA6" sketch:type="MSShapeGroup"></path>
    </g>
</svg>