<?xml version="1.0" encoding="utf-8"?>
<!-- Generator: Adobe Illustrator 19.1.0, SVG Export Plug-In . SVG Version: 6.00 Build 0)  -->
<!DOCTYPE svg PUBLIC "-//W3C//DTD SVG 1.1//EN" "http://www.w3.org/Graphics/SVG/1.1/DTD/svg11.dtd">
<svg version="1.1" xmlns="http://www.w3.org/2000/svg" xmlns:xlink="http://www.w3.org/1999/xlink" x="0px" y="0px" width="177.2px"
	 height="65.9px" viewBox="0 0 177.2 65.9" style="enable-background:new 0 0 177.2 65.9;" xml:space="preserve">
<style type="text/css">
	.st0{fill:#FFFFFF;}
	.st1{fill:#ED1C2E;}
</style>
<circle class="st0" cx="33" cy="33" r="33"/>
<polygon class="st1" points="26,12.1 26,26 12.1,26 12.1,39.9 26,39.9 26,53.8 39.9,53.8 39.9,39.9 53.8,39.9 53.8,26 39.9,26 
	39.9,12.1 "/>
<path class="st0" d="M84.7,21.4l1.5,4.9h-3L84.7,21.4z M82.2,17.4l-5.3,14h4.7l0.6-1.9h4.9l0.6,1.9h4.7l-5.2-14H82.2"/>
<path class="st0" d="M104.4,22.8c-0.3-0.5-0.7-1.3-2-1.7c-0.6-0.2-1.2-0.2-1.6-0.2c-2.2,0-2.9,1.2-3.2,1.7v-1.5h-3.9v10.2h4.1v-5.6
	c0-0.4,0-0.8,0.4-1.1c0.3-0.3,0.7-0.4,1.1-0.4c0.5,0,1.2,0.2,1.4,1c0,0.2,0.1,0.4,0.1,0.6v5.5h4.1v-5.5c0-0.5,0-1.7,1.5-1.7
	c1.4,0,1.4,1.1,1.4,1.8v5.4h4.1v-6.5c0-1,0-2.1-1-3c-0.7-0.7-1.7-1-2.8-1C105.7,20.9,104.7,22.2,104.4,22.8"/>
<path class="st0" d="M119.1,23.3c0.6,0,1.2,0.3,1.4,1c0,0.2,0,0.3,0.1,0.5h-3C117.7,24.4,117.9,23.3,119.1,23.3 M113.4,26.2
	c0,2.9,1.9,5.6,5.7,5.6c2.5,0,4.2-1,5.4-2.8l-3.4-1.4c-0.4,0.8-0.9,1.3-1.9,1.3c-0.8,0-1.1-0.4-1.2-0.5c-0.5-0.5-0.5-1-0.5-1.4h7.2
	c0-1.6-0.1-3.3-1.6-4.7c-1.2-1.2-2.9-1.5-4.1-1.5C115.7,20.7,113.4,22.9,113.4,26.2"/>
<path class="st0" d="M130.1,22v-1h-3.9v10.3h4.1v-4.8c0-0.7,0.1-2.2,2.5-2.2c0.3,0,0.6,0,0.8,0v-3.4C132,20.9,131.2,21.1,130.1,22"
	/>
<path class="st0" d="M134.8,31.4h4.1V21.2h-4.1V31.4z M134.8,20.1h4.1v-2.7h-4.1V20.1z"/>
<path class="st0" d="M142,22.2c-0.8,0.9-1.5,2.3-1.5,4c0,3.3,2.1,5.6,5.5,5.6c2.4,0,3.7-1.1,4.3-1.6c0.5-0.5,0.7-0.9,1-1.5l-3.1-1.7
	c-0.2,0.5-0.6,1.7-1.8,1.7c-1.6,0-1.8-1.5-1.8-2.4c0-1.5,0.6-2.8,1.9-2.8c1,0,1.5,0.6,1.7,1.6l3.1-1.8c-0.2-0.4-0.4-0.7-0.8-1.1
	c-1.6-1.6-3.5-1.6-4.2-1.6C145.4,20.7,143.4,20.8,142,22.2"/>
<path class="st0" d="M155.9,28.2c0-0.1,0-0.6,0.8-0.9c0.4-0.1,0.7-0.2,1-0.3c0.4-0.1,0.8-0.3,1.2-0.4c0,0.4,0,0.8-0.2,1.2
	c-0.4,0.8-1.3,1.2-1.9,1.2C156.1,29,155.9,28.5,155.9,28.2 M154.3,21.5c-1.5,0.8-1.7,1.9-1.8,2.7l3.8-0.1c0.1-0.7,0.4-0.9,1.3-0.9
	c1.2,0,1.4,0.5,1.4,1.2c-0.6,0.2-1.1,0.3-2.2,0.4c-1.8,0.2-2.9,0.4-3.8,1.3c-0.7,0.7-0.9,1.6-0.9,2.2c0,1.7,1.1,3.3,3.7,3.3
	c1.9,0,2.9-0.7,3.4-1v0.8h4c-0.3-0.4-0.4-0.6-0.4-1.3v-5.6c0-1.2,0-3.7-4.9-3.7C156.9,20.8,155.4,20.9,154.3,21.5"/>
<path class="st0" d="M168.7,22.5v-1.4h-3.9v10.2h4.1v-5.5c0-0.6,0-1.7,1.5-1.7c1.4,0,1.4,1,1.4,1.5v5.6h4.1v-6.5
	c0-0.8-0.1-2.1-1-3.1c-0.3-0.3-1.1-0.9-2.8-0.9C169.8,20.9,169,22,168.7,22.5"/>
<path class="st0" d="M81.4,38h1.8c0.8,0,2.2,0,2.2,1.6c0,1.6-1.4,1.6-2.1,1.6h-1.8V38 M77,35.1v14h4.4v-4.9h1.3l2.7,4.9h4.9
	l-3.4-5.6c0.7-0.3,1.2-0.5,1.8-1.1c1-1,1.1-2.3,1.1-2.8c0-1.3-0.6-3.2-2.4-4c-0.9-0.4-2.1-0.4-3.4-0.4H77"/>
<path class="st0" d="M96,41c0.5,0,1.2,0.3,1.4,1c0,0.2,0,0.3,0.1,0.5h-3C94.5,42.1,94.8,41,96,41 M90.3,43.9c0,2.8,1.9,5.6,5.7,5.6
	c2.5,0,4.2-1,5.4-2.8L98,45.3c-0.4,0.8-0.9,1.3-1.9,1.3c-0.7,0-1.1-0.4-1.2-0.5c-0.5-0.5-0.5-1-0.5-1.4h7.2c0-1.6-0.1-3.3-1.6-4.7
	c-1.2-1.2-2.9-1.5-4.1-1.5C92.6,38.4,90.3,40.6,90.3,43.9"/>
<path class="st0" d="M107.1,45.9c-0.3-0.3-0.6-0.9-0.6-2c0-0.5,0-0.8,0.1-1.2c0.4-1.3,1.3-1.3,1.5-1.3c0.4,0,1.1,0.2,1.4,1.2
	c0.1,0.4,0.2,0.9,0.2,1.3c0,0.5,0,1.5-0.5,2c-0.3,0.3-0.6,0.5-1,0.5C107.7,46.4,107.3,46.2,107.1,45.9 M109.6,35.1v4.4
	c-0.4-0.4-1.1-1-2.6-1c-2.2,0-4.5,1.6-4.5,5.2c0,3.2,1.7,5.6,4.6,5.6c0.4,0,1,0,1.5-0.3c0.6-0.2,0.8-0.4,1-0.7v0.7h4v-14H109.6"/>
<path class="st0" d="M120.2,42.2c0,3.6,2.3,7.3,7.2,7.3c2,0,4-0.7,5.4-2.1c0.7-0.7,1-1.3,1.4-2l-3.8-1.8c-0.2,0.5-0.8,2.3-2.8,2.3
	c-2.2,0-2.9-2-2.9-4c0-0.6,0-2.1,1-3.1c0.3-0.3,0.9-0.8,1.9-0.8c1.9,0,2.5,1.5,2.9,2.3l3.7-1.8c-0.3-0.6-0.6-1-1.2-1.6
	c-1.5-1.5-3.5-2.3-5.6-2.3C122.7,34.6,120.2,38.4,120.2,42.2"/>
<path class="st0" d="M139.1,39.7v-1h-3.9v10.3h4.1v-4.8c0-0.7,0.1-2.2,2.4-2.2c0.3,0,0.6,0,0.8,0v-3.4
	C141,38.6,140.2,38.7,139.1,39.7"/>
<path class="st0" d="M147.3,43.9c0-1.1,0.3-2.6,1.9-2.6c1.9-0.1,1.9,2,1.9,2.6c0,1.5-0.5,2.7-1.9,2.7
	C147.6,46.6,147.3,44.9,147.3,43.9 M143.3,44c0,2.8,1.7,5.4,5.8,5.4c3.9,0,6.1-2.3,6.1-5.5c0-1.6-0.6-3.2-1.6-4.1
	c-0.8-0.8-2.2-1.5-4.3-1.5c0,0,0,0,0,0C145.5,38.4,143.3,40.7,143.3,44"/>
<path class="st0" d="M157.4,39.6c-0.6,0.6-1,1.4-1,2.3c0,2.2,1.9,2.7,2.8,3c0.9,0.3,1.8,0.4,2.1,0.5c0.4,0.1,1,0.2,1,0.7
	c0,0.5-0.6,0.6-1.1,0.6c-0.3,0-0.9,0-1.6-0.3c-0.8-0.3-1.2-0.7-1.5-1l-2.3,2.1c0.9,0.7,2.5,2.1,5.5,2.1c3.2,0,4.9-1.8,4.9-3.8
	c0-1.2-0.6-2.1-1.6-2.7c-0.5-0.3-0.9-0.4-2.8-0.8c-1.4-0.3-1.6-0.4-1.6-0.8c0-0.5,0.7-0.5,0.9-0.5c1.1,0,1.9,0.5,2.6,1l2.2-2
	c-0.6-0.4-1.2-0.9-2.6-1.2c-0.8-0.2-1.5-0.3-2.3-0.3C160.4,38.4,158.6,38.4,157.4,39.6"/>
<path class="st0" d="M168.4,39.6c-0.6,0.6-1,1.4-1,2.3c0,2.2,1.9,2.7,2.8,3c0.9,0.3,1.8,0.4,2.1,0.5c0.4,0.1,1,0.2,1,0.7
	c0,0.5-0.6,0.6-1.1,0.6c-0.3,0-0.9,0-1.6-0.3c-0.8-0.3-1.2-0.7-1.5-1l-2.3,2.1c0.9,0.7,2.6,2.1,5.5,2.1c3.2,0,4.9-1.8,4.9-3.8
	c0-1.2-0.6-2.1-1.6-2.7c-0.5-0.3-0.9-0.4-2.8-0.8c-1.4-0.3-1.6-0.4-1.6-0.8c0-0.5,0.7-0.5,0.9-0.5c1.1,0,1.9,0.5,2.6,1l2.2-2
	c-0.6-0.4-1.2-0.9-2.6-1.2c-0.8-0.2-1.5-0.3-2.3-0.3C171.3,38.4,169.6,38.4,168.4,39.6"/>
</svg>
