<?xml version="1.0" encoding="utf-8"?>
<!-- Generator: Adobe Illustrator 18.1.1, SVG Export Plug-In . SVG Version: 6.00 Build 0)  -->
<!DOCTYPE svg PUBLIC "-//W3C//DTD SVG 1.1//EN" "http://www.w3.org/Graphics/SVG/1.1/DTD/svg11.dtd" [
	<!ENTITY ns_extend "http://ns.adobe.com/Extensibility/1.0/">
	<!ENTITY ns_ai "http://ns.adobe.com/AdobeIllustrator/10.0/">
	<!ENTITY ns_graphs "http://ns.adobe.com/Graphs/1.0/">
	<!ENTITY ns_vars "http://ns.adobe.com/Variables/1.0/">
	<!ENTITY ns_imrep "http://ns.adobe.com/ImageReplacement/1.0/">
	<!ENTITY ns_sfw "http://ns.adobe.com/SaveForWeb/1.0/">
	<!ENTITY ns_custom "http://ns.adobe.com/GenericCustomNamespace/1.0/">
	<!ENTITY ns_adobe_xpath "http://ns.adobe.com/XPath/1.0/">
]>
<svg version="1.1" xmlns:x="&ns_extend;" xmlns:i="&ns_ai;" xmlns:graph="&ns_graphs;"
xmlns="http://www.w3.org/2000/svg" xmlns:xlink="http://www.w3.org/1999/xlink" x="0px" y="0px" viewBox="0 0 1052.1 1048"
enable-background="new 0 0 1052.1 1048" xml:space="preserve">
	<g id="Background">
		<rect x="0" y="10" fill="#080D12" width="1052.1" height="1038"/>
	</g>
	<g id="Pacific_plates_1_">
		<polygon id="Pacific_plate" fill="#171D23" points="458.3,799.1 328.7,791 270.7,795 219.7,791 92.7,799.1 76.7,791 0,793.8
			0,10 383.3,10 348.8,134.6 444.8,165.9 315.8,441.4 526.2,559.1 				"/>
		<polygon id="Juan_de_Fuca" fill="#171D23" points="383.3,10 348.8,134.6 444.8,165.9 315.8,441.4 526.2,559.1 458.3,799.1
			539.4,806.6 565.9,819.1 594.8,835.1 630.9,819 706.8,835.1 738.6,853.1 797.5,853.1 867,907.1 897.7,907.1 918.2,914.6
			971.1,914.6 999.2,932.6 1052.1,943.3 1052.1,10 				"/>
	</g>

		<linearGradient id="Norh_America_plate_1_" gradientUnits="userSpaceOnUse" x1="773.3792" y1="784.9209" x2="773.3792" y2="253.8951">
		<stop  offset="0" style="stop-color:#000000;stop-opacity:0.9"/>
		<stop  offset="1" style="stop-color:#000000;stop-opacity:0"/>
	</linearGradient>
	<path id="Norh_America_plate" opacity="0.66" fill="url(#Norh_America_plate_1_)" d="M1052.1,471.9l-47.2-347.1H535h-11.1h-29.3
		l2.8,7.5l-2.8,11c1.3,0.8,2.8,7.3,2.8,7.3s0,0.5,0.2,1.4c0.1,0.8,0.4,2,0.8,3.3c0.4,1.3,0.9,2.7,1.7,4c0.8,1.3,1.7,2.6,2.9,3.6
		c0.9,0.7,1.8,1.2,2.7,1.6c0.9,0.4,1.8,0.7,2.7,0.9c0.9,0.2,1.7,0.4,2.4,0.4c0.7,0.1,1.4,0.1,1.9,0.1c0.2,0,0.4,0,0.6,0
		s0.3,0,0.5,0c0.1,0,0.2,0,0.3,0s0.1,0,0.1,0c-0.1,1.1-0.3,2-0.5,2.8c-0.2,0.8-0.4,1.5-0.7,2c-0.2,0.5-0.4,1-0.6,1.2
		c-0.1,0.3-0.2,0.4-0.2,0.4c0.2,0,0.3,0.1,0.5,0.1c0.2,0,0.3,0,0.5,0.1c0.1,0,0.3,0,0.4,0c0.1,0,0.3,0,0.4,0c0.3,0,0.5,0,0.8,0
		c0.2,0,0.4,0,0.6-0.1c0.2,0,0.3-0.1,0.4-0.1s0.1,0,0.1,0c-0.1,1.1,0,1.9,0.2,2.6c0.2,0.7,0.6,1.1,1,1.4c0.4,0.3,0.8,0.5,1.3,0.6
		c0.4,0.1,0.8,0.1,1.1,0.1c0.1,0,0.2,0,0.2,0c0.1,0,0.1,0,0.2,0c0,0,0.1,0,0.1,0c0,0,0,0,0,0l-7.1,6l2.9,2.8l8.8-4.3l6.4,2.3
		l-1,1.9c0,0,0.1,0.2,0.2,0.5c0.2,0.3,0.4,0.7,0.8,1.1c0.4,0.4,0.8,0.8,1.4,1.1c0.6,0.3,1.3,0.5,2.1,0.5c0,0,0.1,0,0.1,0
		s0.1,0,0.1,0c0,0,0.1,0,0.1,0s0.1,0,0.1,0c1-0.1,1.7-0.5,2.2-1.1c0.5-0.6,0.9-1.3,1.1-2c0.2-0.7,0.3-1.4,0.4-1.9
		c0-0.5,0-0.8,0-0.8c0.4,0.3,0.7,0.5,1.1,0.7c0.4,0.2,0.7,0.3,1,0.4c0.3,0.1,0.7,0.2,1,0.2c0.3,0,0.6,0.1,0.9,0.1
		c0.3,0,0.6,0,0.9-0.1c0.3,0,0.5-0.1,0.7-0.1s0.3-0.1,0.4-0.1c0.1,0,0.2-0.1,0.2-0.1s-0.4,0.2-0.9,0.6c-0.5,0.4-1.2,0.9-1.9,1.7
		c-0.6,0.7-1.2,1.6-1.5,2.6c-0.3,1-0.3,2.2,0.2,3.4c0.5,1.3,1.1,2.2,1.7,2.8c0.7,0.7,1.4,1.1,2.2,1.4c0.8,0.3,1.7,0.5,2.7,0.6
		c1,0.1,2,0.2,3.1,0.4c1.1,0.2,1.8,0.6,2.2,1c0.4,0.4,0.5,1,0.5,1.5c0,0.5-0.1,1-0.3,1.3c-0.1,0.4-0.3,0.6-0.3,0.6
		s-0.2,0.2-0.4,0.5c-0.2,0.3-0.5,0.8-0.7,1.5c-0.1,0.6-0.2,1.4,0.1,2.3c0.3,0.9,0.8,1.9,1.8,3c0.5,0.5,0.9,0.9,1.4,1.2
		c0.5,0.3,0.9,0.6,1.4,0.8c0.5,0.2,0.9,0.3,1.3,0.4c0.4,0.1,0.8,0.1,1.2,0.1c0.5,0,0.9-0.1,1.3-0.1c0.4-0.1,0.8-0.2,1-0.3
		c0.3-0.1,0.5-0.2,0.7-0.3s0.2-0.1,0.2-0.1c-0.1-0.4-0.1-0.9-0.1-1.4c0-0.5,0.1-1,0.2-1.4c0.1-0.4,0.1-0.8,0.2-1.1
		c0.1-0.3,0.1-0.4,0.1-0.4c1.4-0.2,2.5-0.4,3.4-0.7c0.9-0.3,1.6-0.6,2-0.9c0.5-0.3,0.8-0.6,1-0.8c0.2-0.2,0.3-0.3,0.3-0.3
		c-0.5,1-0.6,1.8-0.6,2.4c0.1,0.7,0.3,1.2,0.6,1.5c0.3,0.4,0.7,0.6,1,0.8c0.3,0.2,0.5,0.2,0.5,0.2c-1.3,0.6-2.5,1.3-3.4,2.1
		c-1,0.8-1.7,1.7-2.4,2.6c-0.6,0.9-1.1,1.9-1.4,2.9c-0.3,1-0.4,2-0.4,3c0,0.9,0.3,1.6,0.6,2.2c0.3,0.5,0.8,0.9,1.3,1.1
		c0.5,0.2,0.9,0.4,1.3,0.4c0.4,0.1,0.7,0.1,0.7,0.1c0,0,0,0,0,0c0,0,0,0,0,0c0,0,0,0,0,0s0,0,0,0s0-0.2-0.1-0.6
		c0-0.4-0.1-0.8,0-1.3c0-0.5,0.1-1,0.2-1.3c0.2-0.4,0.4-0.6,0.8-0.6c0,0,0,0,0,0c0,0,0,0,0,0s0,0,0,0c0,0,0,0,0,0
		c0.4,0,1,0.3,1.7,0.8c0.7,0.4,1.5,0.9,2.2,1.5c0.7,0.5,1.4,1,1.9,1.4c0.5,0.4,0.8,0.6,0.8,0.6l1.9-2.6l0.9,8
		c0.3,0.2,0.7,0.4,1,0.5c0.3,0.1,0.7,0.2,1,0.3c0.3,0.1,0.7,0.1,1,0.2c0.3,0,0.6,0,0.9,0c0.2,0,0.4,0,0.6,0s0.3,0,0.5,0
		c0.1,0,0.2,0,0.3,0c0.1,0,0.1,0,0.1,0l-0.6-7.9l3.2,4.1l3.5-4.1l-1,5.4c0,0,0,0,0,0c0,0,0,0,0,0c0,0,0,0,0,0c0,0,0,0,0,0
		c-0.5,0-0.9,0.1-1.3,0.2c-0.3,0.1-0.6,0.3-0.8,0.5c-0.2,0.2-0.3,0.4-0.4,0.7c-0.1,0.2-0.1,0.5-0.1,0.8c0,0.3,0.1,0.5,0.2,0.8
		c0.1,0.2,0.2,0.5,0.4,0.7s0.3,0.4,0.5,0.5c0.2,0.1,0.4,0.2,0.6,0.2c0.1,0,0.1,0,0.2,0c0.1,0,0.1,0,0.2-0.1c0.1,0,0.1-0.1,0.2-0.1
		s0.1-0.1,0.2-0.2c0.4-0.5,1.1-1,1.7-1.5c0.7-0.5,1.4-1,2.1-1.4c0.7-0.4,1.3-0.8,1.8-1.1c0.5-0.3,0.7-0.4,0.7-0.4l-0.1,3.8
		c0,0,0,0-0.1,0c0,0,0,0,0,0c0,0,0,0,0,0s0,0,0,0c-1.2,0-2,0.2-2.4,0.6c-0.5,0.4-0.6,0.9-0.6,1.4c0,0.6,0.2,1.2,0.4,1.8
		c0.2,0.6,0.5,1.2,0.7,1.6c0.2,0.5,0.2,0.9,0.1,1.2c-0.1,0.3-0.3,0.6-0.6,0.8c-0.2,0.2-0.5,0.3-0.7,0.4c-0.2,0.1-0.4,0.1-0.4,0.1
		s0.3,0.1,0.8,0.2c0.5,0.1,1.2,0.3,1.9,0.6c0.7,0.3,1.5,0.6,2.2,1c0.7,0.4,1.3,0.9,1.7,1.5c0.4,0.6,1.1,1.3,1.8,1.9
		c0.7,0.7,1.5,1.3,2.3,1.9c0.8,0.6,1.5,1.1,2,1.5c0.5,0.4,0.9,0.6,0.9,0.6c2.2-0.5,3.7-1.1,4.7-1.7c1-0.6,1.5-1.2,1.9-1.8
		c0.3-0.6,0.4-1.1,0.6-1.6c0.2-0.4,0.4-0.7,0.9-0.9c0,0,0,0,0.1,0c0,0,0,0,0.1,0c0,0,0,0,0.1,0c0,0,0,0,0.1,0c0.5,0,1,0.3,1.5,0.8
		c0.5,0.5,1,1.1,1.4,1.7c0.4,0.6,0.8,1.2,1,1.7c0.3,0.5,0.4,0.8,0.4,0.8l12.6-2.7c-1,0.6-1.8,1.3-2.4,1.9c-0.6,0.7-0.9,1.4-1.1,2
		c-0.2,0.6-0.3,1.2-0.3,1.6c0,0.4,0,0.6,0,0.6l-3.6,0.8c-1,0.8-1.7,1.6-2,2.5c-0.3,0.8-0.4,1.6-0.4,2.4c0.1,0.7,0.2,1.3,0.4,1.8
		c0.2,0.4,0.3,0.7,0.3,0.7l12.1,4.7l-2.7,8.1l6.3,7.6c0.9,0.8,1.3,1.6,1.5,2.5c0.2,0.9,0.1,1.7-0.1,2.5c-0.2,0.8-0.5,1.4-0.8,1.9
		c-0.3,0.5-0.5,0.8-0.5,0.8s0,0.8,0,2.2c0,1.3,0,3.2,0.1,5.1c0.1,2,0.2,4.1,0.5,5.9c0.2,1.9,0.6,3.5,1.1,4.6
		c0.5,1.1,1.1,1.8,1.8,2.5c0.7,0.6,1.5,1.2,2.4,1.8c0.8,0.6,1.7,1.3,2.5,2.3c0.8,1,1.6,2.3,2.3,4.1c0.7,1.8,1.2,3.9,1.6,6.1
		c0.4,2.1,0.6,4.3,0.8,6.3c0.2,2,0.2,3.7,0.3,4.9c0,1.2,0,2,0,2l4.9,8.8l0.4,13.7l7-0.5l3.7,3.5l2.1-0.4l2.2,0.9l-9.3,4.4
		l-1.9-1.4l-1.9,0.8l1.1,9.3l4.6,2.1l5.3-1.7l2.2,1.8l-3.7,0.9l-1.2,2.7l1.2,6.6l-3.2,2.1l-0.3,7.2l-2-1.7l-0.1-14.8l-1.8,0.5
		l-0.5,20.1l8.3,4l3.5-2.5l14.4,0.5c0.7,1.2,1.7,2.3,2.8,3.4c1.1,1,2.4,1.9,3.6,2.6c1.2,0.7,2.3,1.3,3.1,1.7
		c0.8,0.4,1.3,0.6,1.3,0.6l-7,0.5l-4.9-6.2l-10.3,4l-1.6-2.7c0,0-0.1,0-0.4,0.1s-0.6,0.1-0.9,0.2c-0.4,0.1-0.8,0.2-1.3,0.3
		c-0.5,0.1-1,0.2-1.5,0.2c0,0-0.1,0-0.1,0c0,0-0.1,0-0.1,0c0,0-0.1,0-0.1,0s-0.1,0-0.1,0c-0.5,0-1-0.1-1.4-0.2
		c-0.4-0.1-0.8-0.3-1.2-0.4s-0.6-0.3-0.8-0.4c-0.2-0.1-0.3-0.2-0.3-0.2l-1.4,0.8c0.4,1.4,0.7,2.8,1,4.2c0.3,1.4,0.6,2.8,0.8,3.9
		c0.2,1.2,0.4,2.2,0.5,2.9c0.1,0.7,0.2,1.1,0.2,1.1l-3.5,3.9c-0.2,2.5-0.1,4.7,0.1,6.5c0.2,1.8,0.6,3.4,1,4.6
		c0.4,1.2,0.8,2.1,1.2,2.7c0.3,0.6,0.6,0.9,0.6,0.9l-1.8,8.2l2.6,4.7l-3.9-0.8l-0.2,5.4l-2.7,4.3l2.9,4.7l-3.8,17.1l-3.8,21.3
		l1.9,3.3l-1.2,1.4l-3.1,19l-3.9,31.5l-6.9,28.1h3.5l-9.1,6.8l-3.8,20.7l-6.1,10.7l7.7,18.5c-0.9,2.2-1.5,4.4-2.1,6.5
		c-0.5,2.1-0.9,4.2-1.2,6c-0.3,1.8-0.4,3.3-0.5,4.4c-0.1,1.1-0.1,1.7-0.1,1.7l3.5,6.9l-0.1,8.7l6.5,7.1l0.3,10.3l-2.8,6l4,2.3
		l4.8,19.3l-4,23.6l-1.3,2.5l0.6,12.2l-4.4,16.3l-3.3,1.5c0,0-0.6,1.3-1.4,3.2c-0.8,2-1.9,4.7-3,7.5c-1.1,2.9-2.1,5.9-2.8,8.6
		c-0.7,2.7-1,5-0.6,6.5c0.4,1.4,0.5,2.7,0.5,3.8c0,1.1-0.1,2.1-0.3,2.9c-0.2,0.8-0.4,1.4-0.6,1.8c-0.2,0.4-0.3,0.6-0.3,0.6
		l7.5,7.5c0.3-0.2,1.2-0.8,2.3-1.7c1.2-0.9,2.6-2,4.1-3.1c1.5-1.1,3-2.3,4.2-3.2c1.3-0.9,2.3-1.7,2.9-2c0.2-0.1,0.4-0.2,0.5-0.3
		c0.2-0.1,0.3-0.1,0.5-0.2c0.2,0,0.3-0.1,0.5-0.1s0.3,0,0.4,0c0.1,0,0.3,0,0.4,0s0.3,0,0.4,0.1c0.1,0,0.2,0.1,0.4,0.1
		c0.1,0,0.2,0.1,0.4,0.1c0.1,0,0.2,0.1,0.3,0.1c0.1,0,0.2,0.1,0.3,0.1s0.2,0,0.3,0.1c0.1,0,0.2,0,0.4,0c0,0,0,0,0.1,0s0,0,0.1,0
		c0,0,0,0,0.1,0c0,0,0,0,0.1,0c0,0,0,0,0,0c0,0,0,0,0,0c0,0,0,0,0,0c0,0,0,0,0,0c0.2,0,0.4,0.1,0.6,0.1c0.2,0.1,0.4,0.2,0.6,0.4
		c0.2,0.2,0.5,0.3,0.7,0.5s0.5,0.4,0.8,0.6c0.3,0.2,0.5,0.4,0.8,0.6s0.6,0.4,0.9,0.5c0.3,0.2,0.6,0.3,1,0.4s0.7,0.1,1,0.1
		c0.1,0,0.2,0,0.3,0c0.1,0,0.2,0,0.3,0c0.1,0,0.2,0,0.3-0.1c0.1,0,0.2-0.1,0.3-0.1c0.9-0.3,1.8-1,2.6-1.9c0.9-0.9,1.7-1.9,2.4-2.9
		c0.8-1,1.4-2,2-2.7c0.6-0.7,1-1.2,1.4-1.2c0,0,0,0,0,0c0,0,0,0,0,0c0,0,0,0,0,0c0,0,0,0,0,0c0.3,0.1,0.7,0.3,1.2,0.5
		s1.1,0.4,1.7,0.7c0.6,0.2,1.2,0.4,1.8,0.6c0.6,0.1,1.1,0.2,1.5,0.2c0.4,0,1-0.2,1.8-0.6c0.8-0.3,1.8-0.8,2.7-1.2
		c1-0.5,2-0.9,2.8-1.2c0.9-0.3,1.6-0.6,2.1-0.6c0.1,0,0.1,0,0.2,0c0.1,0,0.1,0,0.1,0c0,0,0.1,0,0.1,0c0,0,0.1,0,0.1,0.1
		c0.1,0.1,0.2,0.1,0.4,0.2c0.2,0.1,0.3,0.1,0.6,0.1s0.5,0.1,0.7,0.1c0.3,0,0.6,0,0.9,0c0.8,0,1.7,0,2.6-0.1s1.9-0.2,2.8-0.3
		s1.7-0.3,2.4-0.5c0.7-0.2,1.3-0.4,1.6-0.6c0.2-0.1,0.5-0.3,0.8-0.4c0.3-0.1,0.6-0.2,0.9-0.3c0.3-0.1,0.6-0.1,0.9-0.2
		c0.3,0,0.6-0.1,0.9-0.1c0.3,0,0.6,0,0.8,0.1c0.3,0,0.5,0.1,0.8,0.2c0.2,0.1,0.5,0.2,0.7,0.3c0.2,0.1,0.4,0.2,0.6,0.4
		c0.3,0.3,0.8,0.6,1.3,0.8c0.5,0.2,1,0.5,1.5,0.6c0.5,0.2,0.9,0.3,1.2,0.4c0.3,0.1,0.5,0.1,0.5,0.1l4.4-1.5c0,0,0.1,0,0.3-0.1
		s0.5-0.1,0.9-0.2s0.8-0.3,1.2-0.6c0.5-0.3,1-0.6,1.5-1c0.5-0.4,0.9-0.7,1.2-1.1c0.3-0.3,0.6-0.6,0.8-0.8s0.4-0.4,0.5-0.5
		c0.1-0.1,0.2-0.2,0.3-0.2c0,0,0,0,0,0c0,0,0,0,0,0s0,0,0,0c0,0,0,0,0,0c0,0,0,0,0,0s0,0,0,0c0,0,0,0,0,0c0,0,0,0,0,0
		c0.1,0,0.1,0,0.3-0.1s0.3-0.1,0.4-0.2s0.3-0.2,0.5-0.3s0.4-0.2,0.6-0.4c0.2-0.1,0.4-0.3,0.6-0.4c0.2-0.1,0.4-0.2,0.7-0.3
		c0.2-0.1,0.4-0.2,0.6-0.2s0.4-0.1,0.6-0.1c0,0,0.1,0,0.1,0c0,0,0.1,0,0.1,0c0,0,0.1,0,0.1,0c0,0,0.1,0,0.1,0
		c0.3,0.1,0.7,0.4,1,0.7c0.4,0.3,0.8,0.7,1.2,1.1c0.4,0.4,0.8,0.7,1.2,1c0.4,0.3,0.8,0.4,1.1,0.4s0.8,0.5,1.4,1.2
		c0.6,0.7,1.3,1.7,2,2.7c0.7,1,1.4,2,2.1,2.8c0.7,0.8,1.3,1.4,1.8,1.6c0.3,0.1,0.7,0.2,1.2,0.3s1.1,0.2,1.7,0.3
		c0.6,0.1,1.3,0.1,2.1,0.2s1.5,0.1,2.3,0.1c0.7,0,1.4,0,2.1-0.1s1.4-0.1,2-0.2s1.2-0.3,1.8-0.4c0.5-0.2,1-0.4,1.4-0.7
		c0.3-0.2,0.7-0.4,1.2-0.6s0.9-0.3,1.4-0.4c0.5-0.1,1-0.2,1.5-0.2c0.5,0,1.1-0.1,1.6-0.1c0.7,0,1.5,0,2.1,0.1s1.3,0.1,1.8,0.2
		c0.5,0.1,1,0.1,1.3,0.2c0.3,0,0.5,0.1,0.5,0.1l4.1-2.2c0,0,0,0,0.1,0c0.1,0,0.2-0.1,0.3-0.1c0.1,0,0.3-0.1,0.5-0.1
		c0.2,0,0.4,0,0.7,0c0.4,0,0.9,0.1,1.5,0.2c0.6,0.1,1.3,0.4,2,0.8c0.7,0.4,1.6,0.9,2.4,1.6c0.9,0.7,1.8,1.6,2.9,2.7
		c1,1,1.9,1.9,2.7,2.6c0.9,0.7,1.7,1.2,2.5,1.6c0.8,0.4,1.5,0.7,2.2,0.8c0.7,0.2,1.3,0.2,1.8,0.2c0.4,0,0.7,0,1.1-0.1
		s0.6-0.1,0.8-0.2c0.2-0.1,0.4-0.2,0.6-0.3s0.3-0.2,0.4-0.3c0.1-0.1,0.3-0.2,0.7-0.4c0.4-0.1,0.8-0.3,1.4-0.4s1.2-0.2,1.9-0.3
		s1.5-0.1,2.2-0.1c0.8,0,1.6,0,2.4,0.1c0.8,0.1,1.6,0.3,2.3,0.5c0.8,0.2,1.5,0.6,2.1,1c0.6,0.4,1.2,0.9,1.7,1.5
		c0.3,0.4,0.7,0.8,1,1.1c0.3,0.3,0.7,0.5,1,0.7c0.3,0.2,0.7,0.3,1,0.4c0.3,0.1,0.6,0.1,1,0.1c0.6,0,1.1-0.1,1.6-0.3
		c0.5-0.2,1-0.4,1.4-0.7c0.4-0.3,0.8-0.6,1-0.8c0.3-0.2,0.5-0.4,0.6-0.5c0.1-0.1,0.3-0.2,0.5-0.3c0.2-0.1,0.5-0.2,0.8-0.3
		c0.3-0.1,0.7-0.1,1-0.2s0.7-0.1,1.1-0.1c0.2,0,0.5,0,0.7,0c0.2,0,0.4,0.1,0.6,0.1c0.2,0.1,0.4,0.1,0.5,0.2
		c0.2,0.1,0.3,0.2,0.4,0.3c0.2,0.2,0.4,0.4,0.7,0.6c0.3,0.2,0.6,0.3,1,0.5s0.7,0.2,1.1,0.3c0.4,0.1,0.7,0.1,1,0.1
		c0.2,0,0.3,0,0.4,0c0.1,0,0.3,0,0.4-0.1c0.1,0,0.2-0.1,0.3-0.1c0.1-0.1,0.2-0.1,0.2-0.2c0.1-0.2,0.8-0.5,1.9-0.9
		c1.1-0.4,2.5-0.9,4.2-1.4c1.7-0.5,3.6-1,5.5-1.3c1.9-0.4,3.9-0.6,5.8-0.6c0.7,0,1.4,0,2.1,0.1s1.3,0.2,1.9,0.3
		c0.6,0.1,1.2,0.3,1.7,0.6c0.5,0.2,1,0.5,1.5,0.9c0.9,0.7,1.8,1.2,2.8,1.7c1,0.5,2.1,0.8,3.1,1.1c1.1,0.3,2.2,0.5,3.3,0.6
		c1.1,0.1,2.2,0.2,3.2,0.2c0.9,0,1.9,0,2.7-0.1s1.7-0.2,2.5-0.3s1.5-0.3,2.1-0.5c0.6-0.2,1.2-0.4,1.6-0.6c0.9-0.4,2-0.8,3.4-1.1
		c1.4-0.3,3.1-0.5,5-0.7c1.9-0.2,3.9-0.3,6.1-0.4c2.2-0.1,4.6-0.1,7-0.1c4,0,8.2,0.1,12.5,0.3c4.2,0.2,8.5,0.4,12.4,0.6
		c4,0.2,7.7,0.5,10.9,0.8c3.2,0.3,5.9,0.5,7.9,0.7c1.3,0.1,2.5,0.2,3.6,0.3c1.1,0.1,2.1,0.2,3.1,0.2c1,0.1,1.8,0.1,2.7,0.1
		c0.8,0,1.6,0,2.3,0c1.1,0,2,0,2.8-0.1s1.6-0.1,2.3-0.2c0.7-0.1,1.3-0.2,1.9-0.3s1.2-0.3,1.7-0.4c0.6-0.2,1.2-0.4,1.7-0.7
		c0.5-0.3,1-0.5,1.5-0.8s1-0.5,1.5-0.7c0.6-0.2,1.2-0.3,1.9-0.3c0.3,0,0.7,0,1.1,0.1c0.4,0.1,0.8,0.1,1.3,0.2
		c0.5,0.1,1,0.3,1.5,0.4c0.5,0.2,1.1,0.4,1.8,0.7c0.8,0.3,1.9,0.6,3.1,0.9c1.2,0.2,2.6,0.4,4.2,0.6c1.6,0.2,3.2,0.3,5,0.3
		c1.8,0.1,3.7,0.1,5.6,0.1c2.8,0,5.6-0.1,8.5-0.2c2.8-0.1,5.6-0.3,8.3-0.6c2.7-0.3,5.1-0.6,7.4-0.9c2.2-0.4,4.1-0.8,5.7-1.2
		c0.8-0.2,1.5-0.4,2.2-0.6c0.7-0.2,1.4-0.3,2.1-0.4c0.7-0.1,1.4-0.2,2.1-0.2s1.3-0.1,2-0.1c1.6,0,3.1,0.1,4.6,0.4
		c1.5,0.2,3,0.6,4.4,0.9c1.5,0.4,2.9,0.8,4.4,1.3c1.5,0.5,2.9,1,4.5,1.5c1,0.3,2.1,0.6,3.4,0.9c1.2,0.2,2.5,0.4,3.9,0.6
		c1.4,0.2,2.8,0.3,4.2,0.3c1.1,0.1,2.2,0.1,3.3,0.1L1052.1,471.9z"/>
	<linearGradient id="North_America_1_" gradientUnits="userSpaceOnUse" x1="808.9871" y1="112.1036" x2="808.9871" y2="750.6208">
		<stop  offset="0" style="stop-color:#3A261E;stop-opacity:0.2"/>
		<stop  offset="6.469228e-02" style="stop-color:#3A261E"/>
		<stop  offset="1" style="stop-color:#1F2429"/>
	</linearGradient>
	<path id="North_America" fill="url(#North_America_1_)" d="M1046.9,82.7h-481c-0.2,1.6,0.3,3.1,1.2,4.4c0.9,1.3,2.2,2.4,3.5,3.3
		c1.3,0.9,2.6,1.6,3.6,2.1c1,0.5,1.7,0.8,1.7,0.8l4.9,7l12.3,4.7l5.7-0.4l1.3,2.9l7.1-0.6l7.1-3.5l5.5,1l-0.8,2.1l-8.6,2.4
		c0,0,0,0.2,0,0.5c0,0.3,0,0.7,0,1.2c0,0.4,0,0.9,0,1.3c0,0.4,0,0.8,0,1c0,0.2,0.3,0.5,0.6,0.8c0.4,0.3,0.8,0.5,1.3,0.8
		s0.9,0.4,1.3,0.6c0.3,0.1,0.6,0.2,0.6,0.2l-5.3,2l2.9,3.1l10.7,0.5l2.9,1.9l6.5-1.9l4,5.2c0.5,0.3,1.2,0.6,1.8,0.8
		c0.7,0.2,1.4,0.4,2.2,0.5c0.8,0.1,1.6,0.2,2.4,0.3c0.8,0.1,1.6,0.1,2.4,0.1c0.9,0,1.7,0,2.4-0.1c0.7,0,1.4-0.1,2-0.1
		c0.6-0.1,1-0.1,1.4-0.1c0.3,0,0.5-0.1,0.5-0.1l5.6,2.2l2,9.4l5.6,3.3l2.7-3.3l5.2-2.4l-1.4,6.4l1,4.8l7.3-1.9l3.5,5.3l6.2,3.8
		l0.7,3.1l5.9,2.9l11.2-1.2l5.9-1.8l2,3.2l-3.9-0.6l-5.7,2.4l-0.9,2.6l3.8,2.1c0,0,0.1,0.1,0.3,0.4c0.2,0.3,0.5,0.7,0.9,1.2
		c0.4,0.5,0.8,1.1,1.2,1.8c0.4,0.7,0.9,1.5,1.4,2.4c0.3,0.6,0.8,1.1,1.3,1.5c0.5,0.4,1.1,0.7,1.7,0.9s1.2,0.3,1.8,0.4
		c0.6,0.1,1.2,0.1,1.6,0.1c0.2,0,0.4,0,0.6,0c0.2,0,0.3,0,0.4,0c0.1,0,0.2,0,0.3,0c0.1,0,0.1,0,0.1,0l0.3,2.2l12.2,3.7l1-9
		l6.2-1.8l-0.3,10.8l4.1,4.2l-2.7,0.5l2.6,3.7l-0.7,3.6l4.2,2.3l-2.6,1.6l2.9,5.9l3.4,0.1l0.4-4.7l5.4-1.3l-1,3.3l6.4,1.6
		l-1.3,5.8l6.2,7.8l3.6-2.3l4.1,10.6l-3,2.2l1.3,4.7l-3.6,2.1c0.3,1.2,0.9,2.1,1.7,3c0.8,0.8,1.6,1.5,2.5,2
		c0.8,0.5,1.7,0.9,2.3,1.2c0.6,0.3,1,0.4,1,0.4c-0.3,1.9-0.4,3.5-0.4,4.8c0,1.3,0.1,2.4,0.3,3.2c0.2,0.8,0.4,1.4,0.5,1.7
		c0.2,0.4,0.3,0.5,0.3,0.5l3.6,5.9h2.8l-0.9,4.3l-3.2,0.7l-3.5,7l0.2,5.6l-2,3.4c0,0,0.1,0.1,0.2,0.3c0.1,0.2,0.3,0.6,0.5,1.1
		c0.2,0.5,0.5,1.3,0.8,2.3c0.3,1,0.7,2.3,1.1,3.9c0.4,1.6,0.7,3.1,0.9,4.4c0.2,1.3,0.4,2.5,0.5,3.4c0.1,1,0.1,1.7,0.2,2.2
		c0,0.5,0,0.8,0,0.8l-5.8,4.6l-2.5-2.6c-0.2,2.1-0.6,3.7-1,4.9c-0.4,1.2-0.9,2-1.4,2.5c-0.5,0.5-0.9,0.8-1.3,1
		c-0.3,0.1-0.6,0.2-0.6,0.2c0,0,0,0,0,0c0,0,0,0,0,0h0h0l-3,3.9l-6.5-3.4l0-2.1h8.5c-1.8-0.7-3-1.5-3.6-2.4
		c-0.7-0.9-0.9-1.8-0.8-2.6c0-0.8,0.3-1.6,0.6-2.1c0.3-0.5,0.5-0.9,0.5-0.9l1.9-1.1l-0.6,3.7l3.9,1.1l1.7-2.1
		c-0.4-1.1-0.2-2,0.5-2.8c0.6-0.7,1.7-1.3,2.8-1.6c1.1-0.4,2.2-0.6,3.1-0.8s1.5-0.2,1.5-0.2c-0.8-0.5-1.5-1.1-2.1-1.7
		c-0.6-0.6-1.1-1.3-1.4-1.9c-0.4-0.6-0.7-1.1-0.8-1.5c-0.2-0.4-0.3-0.6-0.3-0.6l-1.9-5.2l1.9-0.4l-0.7-5.8c0,0-0.1-0.1-0.4-0.3
		c-0.2-0.2-0.5-0.5-0.8-0.8c-0.3-0.3-0.6-0.7-0.8-1c-0.2-0.3-0.3-0.6-0.3-0.8c0-0.2,0.3-0.3,0.7-0.4c0.4-0.1,0.9-0.2,1.4-0.2
		c0.5-0.1,1-0.2,1.3-0.3s0.5-0.4,0.4-0.7c-0.1-0.3-0.2-1-0.5-1.8c-0.2-0.8-0.5-1.8-0.7-2.7c-0.3-0.9-0.5-1.8-0.7-2.4
		c-0.2-0.6-0.3-1.1-0.3-1.1l-3.2-1.4l-1.3,2.8c-0.9-0.4-1.7-1.2-2.4-2c-0.7-0.9-1.3-1.9-1.8-2.9c-0.5-1-0.9-1.9-1.2-2.6
		c-0.3-0.7-0.4-1.1-0.4-1.1l0.1-6.6l-3.1,0.4l-1.4,2.9l0.6,3.1l-3.3-3.3l-3.3,1.2l-4.2-4.7c0,0-0.2,0.1-0.6,0.3s-1,0.5-1.8,0.7
		c-0.8,0.3-1.8,0.6-2.9,0.8c-1.1,0.2-2.4,0.4-3.8,0.5c-0.1,0-0.2,0-0.2,0c-0.1,0-0.2,0-0.3,0c-0.1,0-0.2,0-0.3,0s-0.2,0-0.3,0
		c-1.4,0-2.9-0.2-4.3-0.4c-1.5-0.2-2.9-0.5-4.2-0.9c-1.3-0.3-2.4-0.6-3.1-0.9c-0.8-0.2-1.2-0.4-1.2-0.4s-0.3,0-0.8,0.1
		c-0.5,0-1.2,0.1-2,0.2s-1.8,0.1-2.8,0.2c-1,0-2.1,0.1-3.2,0.1c-0.9,0-1.8,0-2.6-0.1c-0.8-0.1-1.7-0.1-2.4-0.3s-1.3-0.3-1.8-0.5
		c-0.5-0.2-0.9-0.5-1-0.8c-0.4-0.7-1.1-1.3-1.8-1.9c-0.8-0.6-1.6-1-2.4-1.4c-0.8-0.4-1.5-0.7-2.1-0.9c-0.5-0.2-0.9-0.3-0.9-0.3
		l-3.3,0.1l-14.8-8.2l-2.3,1.5c0.9,0.8,1.3,1.6,1.5,2.5c0.2,0.9,0.1,1.7-0.1,2.5c-0.2,0.8-0.5,1.4-0.8,1.9
		c-0.3,0.5-0.5,0.8-0.5,0.8s0,0.8,0,2.2c0,1.3,0,3.2,0.1,5.1c0.1,2,0.2,4.1,0.5,5.9c0.2,1.9,0.6,3.5,1.1,4.6
		c0.5,1.1,1.1,1.8,1.8,2.5c0.7,0.6,1.5,1.2,2.4,1.8c0.8,0.6,1.7,1.3,2.5,2.3c0.8,1,1.6,2.3,2.3,4.1c0.7,1.8,1.2,3.9,1.6,6.1
		c0.4,2.1,0.6,4.3,0.8,6.3c0.2,2,0.2,3.7,0.3,4.9c0,1.2,0,2,0,2l4.9,8.8l0.4,13.7l7-0.5l3.7,3.5l2.1-0.4l2.2,0.9l-9.3,4.4
		l-1.9-1.4l-1.9,0.8l1.1,9.3l4.6,2.1l5.3-1.7l2.2,1.8l-3.7,0.9l-1.2,2.7l1.2,6.6l-3.2,2.1l-0.3,7.2l-2-1.7l-0.1-14.8l-1.8,0.5
		l-0.5,20.1l8.3,4l3.5-2.5l14.4,0.5c0.7,1.2,1.7,2.3,2.8,3.4c1.1,1,2.4,1.9,3.6,2.6c1.2,0.7,2.3,1.3,3.1,1.7
		c0.8,0.4,1.3,0.6,1.3,0.6l-7,0.5l-4.9-6.2l-10.3,4l-1.6-2.7c0,0-0.1,0-0.4,0.1s-0.6,0.1-0.9,0.2c-0.4,0.1-0.8,0.2-1.3,0.3
		c-0.5,0.1-1,0.2-1.5,0.2c0,0-0.1,0-0.1,0c0,0-0.1,0-0.1,0c0,0-0.1,0-0.1,0s-0.1,0-0.1,0c-0.5,0-1-0.1-1.4-0.2
		c-0.4-0.1-0.8-0.3-1.2-0.4s-0.6-0.3-0.8-0.4c-0.2-0.1-0.3-0.2-0.3-0.2l-1.4,0.8c0.4,1.4,0.7,2.8,1,4.2c0.3,1.4,0.6,2.8,0.8,3.9
		c0.2,1.2,0.4,2.2,0.5,2.9c0.1,0.7,0.2,1.1,0.2,1.1l-3.5,3.9c-0.2,2.5-0.1,4.7,0.1,6.5c0.2,1.8,0.6,3.4,1,4.6
		c0.4,1.2,0.8,2.1,1.2,2.7c0.3,0.6,0.6,0.9,0.6,0.9l-1.8,8.2l2.6,4.7l-3.9-0.8l-0.2,5.4l-2.7,4.3l2.9,4.7l-3.8,17.1l-3.8,21.3
		l1.9,3.3l-1.2,1.4l-3.1,19l-3.9,31.5l-6.9,28.1h3.5l-9.1,6.8l-3.8,20.7l-6.1,10.7l7.7,18.5c-0.9,2.2-1.5,4.4-2.1,6.5
		c-0.5,2.1-0.9,4.2-1.2,6c-0.3,1.8-0.4,3.3-0.5,4.4c-0.1,1.1-0.1,1.7-0.1,1.7l3.5,6.9l-0.1,8.7l6.5,7.1l0.3,10.3l-2.8,6l4,2.3
		l4.8,19.3l-4,23.6l-1.3,2.5l0.6,12.2l-4.4,16.3l-3.3,1.5c0,0-0.6,1.3-1.4,3.2c-0.8,2-1.9,4.7-3,7.5c-1.1,2.9-2.1,5.9-2.8,8.6
		c-0.7,2.7-1,5-0.6,6.5c0.4,1.4,0.5,2.7,0.5,3.8c0,1.1-0.1,2.1-0.3,2.9c-0.2,0.8-0.4,1.4-0.6,1.8c-0.2,0.4-0.3,0.6-0.3,0.6
		l7.5,7.5c0.3-0.2,1.2-0.8,2.3-1.7c1.2-0.9,2.6-2,4.1-3.1c1.5-1.1,3-2.3,4.2-3.2c1.3-0.9,2.3-1.7,2.9-2c0.2-0.1,0.4-0.2,0.5-0.3
		c0.2-0.1,0.3-0.1,0.5-0.2c0.2,0,0.3-0.1,0.5-0.1s0.3,0,0.4,0c0.1,0,0.3,0,0.4,0s0.3,0,0.4,0.1c0.1,0,0.2,0.1,0.4,0.1
		c0.1,0,0.2,0.1,0.4,0.1c0.1,0,0.2,0.1,0.3,0.1c0.1,0,0.2,0.1,0.3,0.1s0.2,0,0.3,0.1c0.1,0,0.2,0,0.4,0c0,0,0,0,0.1,0s0,0,0.1,0
		c0,0,0,0,0.1,0c0,0,0,0,0.1,0c0,0,0,0,0,0c0,0,0,0,0,0c0,0,0,0,0,0c0,0,0,0,0,0c0.2,0,0.4,0.1,0.6,0.1c0.2,0.1,0.4,0.2,0.6,0.4
		c0.2,0.2,0.5,0.3,0.7,0.5s0.5,0.4,0.8,0.6c0.3,0.2,0.5,0.4,0.8,0.6s0.6,0.4,0.9,0.5c0.3,0.2,0.6,0.3,1,0.4s0.7,0.1,1,0.1
		c0.1,0,0.2,0,0.3,0c0.1,0,0.2,0,0.3,0c0.1,0,0.2,0,0.3-0.1c0.1,0,0.2-0.1,0.3-0.1c0.9-0.3,1.8-1,2.6-1.9c0.9-0.9,1.7-1.9,2.4-2.9
		c0.8-1,1.4-2,2-2.7c0.6-0.7,1-1.2,1.4-1.2c0,0,0,0,0,0c0,0,0,0,0,0c0,0,0,0,0,0c0,0,0,0,0,0c0.3,0.1,0.7,0.3,1.2,0.5
		s1.1,0.4,1.7,0.7c0.6,0.2,1.2,0.4,1.8,0.6c0.6,0.1,1.1,0.2,1.5,0.2c0.4,0,1-0.2,1.8-0.6c0.8-0.3,1.8-0.8,2.7-1.2
		c1-0.5,2-0.9,2.8-1.2c0.9-0.3,1.6-0.6,2.1-0.6c0.1,0,0.1,0,0.2,0c0.1,0,0.1,0,0.1,0c0,0,0.1,0,0.1,0c0,0,0.1,0,0.1,0.1
		c0.1,0.1,0.2,0.1,0.4,0.2c0.2,0.1,0.3,0.1,0.6,0.1s0.5,0.1,0.7,0.1c0.3,0,0.6,0,0.9,0c0.8,0,1.7,0,2.6-0.1s1.9-0.2,2.8-0.3
		s1.7-0.3,2.4-0.5c0.7-0.2,1.3-0.4,1.6-0.6c0.2-0.1,0.5-0.3,0.8-0.4c0.3-0.1,0.6-0.2,0.9-0.3c0.3-0.1,0.6-0.1,0.9-0.2
		c0.3,0,0.6-0.1,0.9-0.1c0.3,0,0.6,0,0.8,0.1c0.3,0,0.5,0.1,0.8,0.2c0.2,0.1,0.5,0.2,0.7,0.3c0.2,0.1,0.4,0.2,0.6,0.4
		c0.3,0.3,0.8,0.6,1.3,0.8c0.5,0.2,1,0.5,1.5,0.6c0.5,0.2,0.9,0.3,1.2,0.4c0.3,0.1,0.5,0.1,0.5,0.1l4.4-1.5c0,0,0.1,0,0.3-0.1
		s0.5-0.1,0.9-0.2s0.8-0.3,1.2-0.6c0.5-0.3,1-0.6,1.5-1c0.5-0.4,0.9-0.7,1.2-1.1c0.3-0.3,0.6-0.6,0.8-0.8s0.4-0.4,0.5-0.5
		c0.1-0.1,0.2-0.2,0.3-0.2c0,0,0,0,0,0c0,0,0,0,0,0s0,0,0,0c0,0,0,0,0,0c0,0,0,0,0,0s0,0,0,0c0,0,0,0,0,0c0,0,0,0,0,0
		c0.1,0,0.1,0,0.3-0.1s0.3-0.1,0.4-0.2s0.3-0.2,0.5-0.3s0.4-0.2,0.6-0.4c0.2-0.1,0.4-0.3,0.6-0.4c0.2-0.1,0.4-0.2,0.7-0.3
		c0.2-0.1,0.4-0.2,0.6-0.2s0.4-0.1,0.6-0.1c0,0,0.1,0,0.1,0c0,0,0.1,0,0.1,0c0,0,0.1,0,0.1,0c0,0,0.1,0,0.1,0
		c0.3,0.1,0.7,0.4,1,0.7c0.4,0.3,0.8,0.7,1.2,1.1c0.4,0.4,0.8,0.7,1.2,1c0.4,0.3,0.8,0.4,1.1,0.4s0.8,0.5,1.4,1.2
		c0.6,0.7,1.3,1.7,2,2.7c0.7,1,1.4,2,2.1,2.8c0.7,0.8,1.3,1.4,1.8,1.6c0.3,0.1,0.7,0.2,1.2,0.3s1.1,0.2,1.7,0.3
		c0.6,0.1,1.3,0.1,2.1,0.2s1.5,0.1,2.3,0.1c0.7,0,1.4,0,2.1-0.1s1.4-0.1,2-0.2s1.2-0.3,1.8-0.4c0.5-0.2,1-0.4,1.4-0.7
		c0.3-0.2,0.7-0.4,1.2-0.6s0.9-0.3,1.4-0.4c0.5-0.1,1-0.2,1.5-0.2c0.5,0,1.1-0.1,1.6-0.1c0.7,0,1.5,0,2.1,0.1s1.3,0.1,1.8,0.2
		c0.5,0.1,1,0.1,1.3,0.2c0.3,0,0.5,0.1,0.5,0.1l4.1-2.2c0,0,0,0,0.1,0c0.1,0,0.2-0.1,0.3-0.1c0.1,0,0.3-0.1,0.5-0.1
		c0.2,0,0.4,0,0.7,0c0.4,0,0.9,0.1,1.5,0.2c0.6,0.1,1.3,0.4,2,0.8c0.7,0.4,1.6,0.9,2.4,1.6c0.9,0.7,1.8,1.6,2.9,2.7
		c1,1,1.9,1.9,2.7,2.6c0.9,0.7,1.7,1.2,2.5,1.6c0.8,0.4,1.5,0.7,2.2,0.8c0.7,0.2,1.3,0.2,1.8,0.2c0.4,0,0.7,0,1.1-0.1
		s0.6-0.1,0.8-0.2c0.2-0.1,0.4-0.2,0.6-0.3s0.3-0.2,0.4-0.3c0.1-0.1,0.3-0.2,0.7-0.4c0.4-0.1,0.8-0.3,1.4-0.4s1.2-0.2,1.9-0.3
		s1.5-0.1,2.2-0.1c0.8,0,1.6,0,2.4,0.1c0.8,0.1,1.6,0.3,2.3,0.5c0.8,0.2,1.5,0.6,2.1,1c0.6,0.4,1.2,0.9,1.7,1.5
		c0.3,0.4,0.7,0.8,1,1.1c0.3,0.3,0.7,0.5,1,0.7c0.3,0.2,0.7,0.3,1,0.4c0.3,0.1,0.6,0.1,1,0.1c0.6,0,1.1-0.1,1.6-0.3
		c0.5-0.2,1-0.4,1.4-0.7c0.4-0.3,0.8-0.6,1-0.8c0.3-0.2,0.5-0.4,0.6-0.5c0.1-0.1,0.3-0.2,0.5-0.3c0.2-0.1,0.5-0.2,0.8-0.3
		c0.3-0.1,0.7-0.1,1-0.2s0.7-0.1,1.1-0.1c0.2,0,0.5,0,0.7,0c0.2,0,0.4,0.1,0.6,0.1c0.2,0.1,0.4,0.1,0.5,0.2
		c0.2,0.1,0.3,0.2,0.4,0.3c0.2,0.2,0.4,0.4,0.7,0.6c0.3,0.2,0.6,0.3,1,0.5s0.7,0.2,1.1,0.3c0.4,0.1,0.7,0.1,1,0.1
		c0.2,0,0.3,0,0.4,0c0.1,0,0.3,0,0.4-0.1c0.1,0,0.2-0.1,0.3-0.1c0.1-0.1,0.2-0.1,0.2-0.2c0.1-0.2,0.8-0.5,1.9-0.9
		c1.1-0.4,2.5-0.9,4.2-1.4c1.7-0.5,3.6-1,5.5-1.3c1.9-0.4,3.9-0.6,5.8-0.6c0.7,0,1.4,0,2.1,0.1s1.3,0.2,1.9,0.3
		c0.6,0.1,1.2,0.3,1.7,0.6c0.5,0.2,1,0.5,1.5,0.9c0.9,0.7,1.8,1.2,2.8,1.7c1,0.5,2.1,0.8,3.1,1.1c1.1,0.3,2.2,0.5,3.3,0.6
		c1.1,0.1,2.2,0.2,3.2,0.2c0.9,0,1.9,0,2.7-0.1s1.7-0.2,2.5-0.3s1.5-0.3,2.1-0.5c0.6-0.2,1.2-0.4,1.6-0.6c0.9-0.4,2-0.8,3.4-1.1
		c1.4-0.3,3.1-0.5,5-0.7c1.9-0.2,3.9-0.3,6.1-0.4c2.2-0.1,4.6-0.1,7-0.1c4,0,8.2,0.1,12.5,0.3c4.2,0.2,8.5,0.4,12.4,0.6
		c4,0.2,7.7,0.5,10.9,0.8c3.2,0.3,5.9,0.5,7.9,0.7c1.3,0.1,2.5,0.2,3.6,0.3c1.1,0.1,2.1,0.2,3.1,0.2c1,0.1,1.8,0.1,2.7,0.1
		c0.8,0,1.6,0,2.3,0c1.1,0,2,0,2.8-0.1s1.6-0.1,2.3-0.2c0.7-0.1,1.3-0.2,1.9-0.3s1.2-0.3,1.7-0.4c0.6-0.2,1.2-0.4,1.7-0.7
		c0.5-0.3,1-0.5,1.5-0.8s1-0.5,1.5-0.7c0.6-0.2,1.2-0.3,1.9-0.3c0.3,0,0.7,0,1.1,0.1c0.4,0.1,0.8,0.1,1.3,0.2
		c0.5,0.1,1,0.3,1.5,0.4c0.5,0.2,1.1,0.4,1.8,0.7c0.8,0.3,1.9,0.6,3.1,0.9c1.2,0.2,2.6,0.4,4.2,0.6c1.6,0.2,3.2,0.3,5,0.3
		c1.8,0.1,3.7,0.1,5.6,0.1c2.8,0,5.6-0.1,8.5-0.2c2.8-0.1,5.6-0.3,8.3-0.6c2.7-0.3,5.1-0.6,7.4-0.9c1.8-0.3,3.4-0.6,4.7-0.9V121.7
		L1046.9,82.7z"/>

		<linearGradient id="Vancouver_island_1_" gradientUnits="userSpaceOnUse" x1="638.7587" y1="112.1036" x2="638.7587" y2="750.6208">
		<stop  offset="0" style="stop-color:#3A261E;stop-opacity:0.2"/>
		<stop  offset="6.469228e-02" style="stop-color:#3A261E"/>
		<stop  offset="1" style="stop-color:#1F2429"/>
	</linearGradient>
	<path id="Vancouver_island" fill="url(#Vancouver_island_1_)" d="M554.5,102.1c-1.6,1.2-3.4,2.1-5.1,2.9c-1.7,0.8-3.4,1.5-4.9,2
		c-1.5,0.5-2.7,0.9-3.6,1.1c-0.9,0.2-1.4,0.3-1.4,0.3s0,0.5,0.2,1.4c0.1,0.8,0.4,2,0.8,3.3c0.4,1.3,0.9,2.7,1.7,4
		c0.8,1.3,1.7,2.6,2.9,3.6c0.9,0.7,1.8,1.2,2.7,1.6c0.9,0.4,1.8,0.7,2.7,0.9c0.9,0.2,1.7,0.4,2.4,0.4c0.7,0.1,1.4,0.1,1.9,0.1
		c0.2,0,0.4,0,0.6,0c0.2,0,0.3,0,0.5,0c0.1,0,0.2,0,0.3,0c0.1,0,0.1,0,0.1,0c-0.1,1.1-0.3,2-0.5,2.8c-0.2,0.8-0.4,1.5-0.7,2
		c-0.2,0.5-0.4,1-0.6,1.2c-0.1,0.3-0.2,0.4-0.2,0.4c0.2,0,0.3,0.1,0.5,0.1c0.2,0,0.3,0,0.5,0.1c0.1,0,0.3,0,0.4,0
		c0.1,0,0.3,0,0.4,0c0.3,0,0.5,0,0.8,0c0.2,0,0.4,0,0.6-0.1c0.2,0,0.3-0.1,0.4-0.1s0.1,0,0.1,0c-0.1,1.1,0,1.9,0.2,2.6
		c0.2,0.7,0.6,1.1,1,1.4c0.4,0.3,0.8,0.5,1.3,0.6s0.8,0.1,1.1,0.1c0.1,0,0.2,0,0.2,0s0.1,0,0.2,0c0,0,0.1,0,0.1,0c0,0,0,0,0,0
		l-7.1,6l2.9,2.8l8.8-4.3l6.4,2.3l-1,1.9c0,0,0.1,0.2,0.2,0.5c0.2,0.3,0.4,0.7,0.8,1.1c0.4,0.4,0.8,0.8,1.4,1.1
		c0.6,0.3,1.3,0.5,2.1,0.5c0,0,0.1,0,0.1,0c0,0,0.1,0,0.1,0c0,0,0.1,0,0.1,0c0,0,0.1,0,0.1,0c1-0.1,1.7-0.5,2.2-1.1
		c0.5-0.6,0.9-1.3,1.1-2c0.2-0.7,0.3-1.4,0.4-1.9c0-0.5,0-0.8,0-0.8c0.4,0.3,0.7,0.5,1.1,0.7c0.4,0.2,0.7,0.3,1,0.4
		c0.3,0.1,0.7,0.2,1,0.2c0.3,0,0.6,0.1,0.9,0.1c0.3,0,0.6,0,0.9-0.1c0.3,0,0.5-0.1,0.7-0.1s0.3-0.1,0.4-0.1c0.1,0,0.2-0.1,0.2-0.1
		s-0.4,0.2-0.9,0.6c-0.5,0.4-1.2,0.9-1.9,1.7c-0.6,0.7-1.2,1.6-1.5,2.6c-0.3,1-0.3,2.2,0.2,3.4c0.5,1.3,1.1,2.2,1.7,2.8
		c0.7,0.7,1.4,1.1,2.2,1.4c0.8,0.3,1.7,0.5,2.7,0.6c1,0.1,2,0.2,3.1,0.4c1.1,0.2,1.8,0.6,2.2,1c0.4,0.4,0.5,1,0.5,1.5
		c0,0.5-0.1,1-0.3,1.3c-0.1,0.4-0.3,0.6-0.3,0.6s-0.2,0.2-0.4,0.5c-0.2,0.3-0.5,0.8-0.7,1.5c-0.1,0.6-0.2,1.4,0.1,2.3
		c0.3,0.9,0.8,1.9,1.8,3c0.5,0.5,0.9,0.9,1.4,1.2c0.5,0.3,0.9,0.6,1.4,0.8c0.5,0.2,0.9,0.3,1.3,0.4c0.4,0.1,0.8,0.1,1.2,0.1
		c0.5,0,0.9-0.1,1.3-0.1c0.4-0.1,0.8-0.2,1-0.3c0.3-0.1,0.5-0.2,0.7-0.3c0.2-0.1,0.2-0.1,0.2-0.1c-0.1-0.4-0.1-0.9-0.1-1.4
		c0-0.5,0.1-1,0.2-1.4c0.1-0.4,0.1-0.8,0.2-1.1c0.1-0.3,0.1-0.4,0.1-0.4c1.4-0.2,2.5-0.4,3.4-0.7c0.9-0.3,1.6-0.6,2-0.9
		c0.5-0.3,0.8-0.6,1-0.8c0.2-0.2,0.3-0.3,0.3-0.3c-0.5,1-0.6,1.8-0.6,2.4c0.1,0.7,0.3,1.2,0.6,1.5c0.3,0.4,0.7,0.6,1,0.8
		c0.3,0.2,0.5,0.2,0.5,0.2c-1.3,0.6-2.5,1.3-3.4,2.1c-1,0.8-1.7,1.7-2.4,2.6c-0.6,0.9-1.1,1.9-1.4,2.9c-0.3,1-0.4,2-0.4,3
		c0,0.9,0.3,1.6,0.6,2.2c0.4,0.5,0.8,0.9,1.3,1.1c0.5,0.2,0.9,0.4,1.3,0.4s0.7,0.1,0.7,0.1c0,0,0,0,0,0c0,0,0,0,0,0c0,0,0,0,0,0
		c0,0,0,0,0,0s0-0.2-0.1-0.6c0-0.4-0.1-0.8,0-1.3c0-0.5,0.1-1,0.2-1.3c0.2-0.4,0.4-0.6,0.8-0.6c0,0,0,0,0,0c0,0,0,0,0,0
		c0,0,0,0,0,0c0,0,0,0,0,0c0.4,0,1,0.3,1.7,0.8c0.7,0.4,1.5,0.9,2.2,1.5c0.7,0.5,1.4,1,1.9,1.4c0.5,0.4,0.8,0.6,0.8,0.6l1.9-2.6
		l0.9,8c0.3,0.2,0.7,0.4,1,0.5c0.3,0.1,0.7,0.2,1,0.3c0.3,0.1,0.7,0.1,1,0.2c0.3,0,0.6,0,0.9,0c0.2,0,0.4,0,0.6,0s0.3,0,0.5,0
		c0.1,0,0.2,0,0.3,0s0.1,0,0.1,0l-0.6-7.9l3.2,4.1l3.5-4.1l-1,5.4c0,0,0,0,0,0c0,0,0,0,0,0s0,0,0,0c0,0,0,0,0,0
		c-0.5,0-0.9,0.1-1.3,0.2c-0.3,0.1-0.6,0.3-0.8,0.5c-0.2,0.2-0.3,0.4-0.4,0.7c-0.1,0.2-0.1,0.5-0.1,0.8c0,0.3,0.1,0.5,0.2,0.8
		c0.1,0.2,0.2,0.5,0.4,0.7c0.2,0.2,0.3,0.4,0.5,0.5c0.2,0.1,0.4,0.2,0.6,0.2c0.1,0,0.1,0,0.2,0s0.1,0,0.2-0.1
		c0.1,0,0.1-0.1,0.2-0.1s0.1-0.1,0.2-0.2c0.4-0.5,1.1-1,1.7-1.5c0.7-0.5,1.4-1,2.1-1.4c0.7-0.4,1.3-0.8,1.8-1.1
		c0.5-0.3,0.7-0.4,0.7-0.4l-0.1,3.8c0,0,0,0-0.1,0c0,0,0,0,0,0c0,0,0,0,0,0c0,0,0,0,0,0c-1.2,0-2,0.2-2.4,0.6
		c-0.5,0.4-0.6,0.9-0.6,1.4c0,0.6,0.2,1.2,0.4,1.8c0.2,0.6,0.5,1.2,0.7,1.6c0.2,0.5,0.2,0.9,0.1,1.2c-0.1,0.3-0.3,0.6-0.6,0.8
		c-0.2,0.2-0.5,0.3-0.7,0.4c-0.2,0.1-0.4,0.1-0.4,0.1s0.3,0.1,0.8,0.2c0.5,0.1,1.2,0.3,1.9,0.6c0.7,0.3,1.5,0.6,2.2,1
		c0.7,0.4,1.3,0.9,1.7,1.5c0.4,0.6,1.1,1.3,1.8,1.9c0.7,0.7,1.5,1.3,2.3,1.9c0.8,0.6,1.5,1.1,2,1.5c0.5,0.4,0.9,0.6,0.9,0.6
		c2.2-0.5,3.7-1.1,4.7-1.7c1-0.6,1.5-1.2,1.9-1.8c0.3-0.6,0.4-1.1,0.6-1.6c0.2-0.4,0.4-0.7,0.9-0.9c0,0,0,0,0.1,0c0,0,0,0,0.1,0
		c0,0,0,0,0.1,0s0,0,0.1,0c0.5,0,1,0.3,1.5,0.8c0.5,0.5,1,1.1,1.4,1.7c0.4,0.6,0.8,1.2,1,1.7c0.3,0.5,0.4,0.8,0.4,0.8l12.6-2.7
		c-1,0.6-1.8,1.3-2.4,1.9c-0.6,0.7-0.9,1.4-1.1,2c-0.2,0.6-0.3,1.2-0.3,1.6c0,0.4,0,0.6,0,0.6l-3.6,0.8c-1,0.8-1.7,1.6-2,2.5
		c-0.3,0.8-0.4,1.6-0.4,2.4c0.1,0.7,0.2,1.3,0.4,1.8c0.2,0.4,0.3,0.7,0.3,0.7l12.1,4.7c0.8,1,1.7,2,2.7,2.8c1,0.8,1.9,1.5,2.8,2.1
		c0.9,0.6,1.7,1,2.2,1.3c0.6,0.3,0.9,0.5,0.9,0.5h6.1c3.8,2.2,7.3,4,10.5,5.4c3.2,1.4,6.1,2.3,8.7,3c2.6,0.7,4.8,1.1,6.6,1.3
		c1.8,0.2,3.2,0.3,4.2,0.3c0.3,0,0.5,0,0.7,0s0.4,0,0.5,0s0.3,0,0.3,0s0.1,0,0.1,0l2.7,3.4c1.5-0.4,2.7-1,3.6-1.7
		c0.9-0.7,1.7-1.4,2.2-2.1c0.5-0.7,0.8-1.3,1-1.8c0.2-0.5,0.3-0.8,0.3-0.8c0.5,0.2,1,0.4,1.4,0.6c0.4,0.2,0.9,0.3,1.2,0.4
		c0.4,0.1,0.7,0.2,1.1,0.2c0.3,0.1,0.6,0.1,0.9,0.1c0.8,0,1.4-0.2,1.9-0.5c0.5-0.3,0.7-0.8,0.9-1.3c0.2-0.5,0.2-1,0.2-1.5
		c0-0.5-0.1-0.9-0.2-1.2c-0.2-0.4-0.5-1.3-0.9-2.4c-0.4-1.1-0.9-2.5-1.3-3.7c-0.4-1.3-0.9-2.5-1.2-3.4c-0.3-0.9-0.5-1.5-0.5-1.5
		l-3.3-1.7c0,0,0,0.2,0,0.4c0,0.3,0,0.6,0,1.1c0,0.4,0,0.9,0,1.4c0,0.5,0,1.1,0,1.6c0,0.4-0.1,0.7-0.3,0.9
		c-0.2,0.2-0.4,0.4-0.7,0.5c-0.3,0.1-0.5,0.2-0.8,0.2c-0.3,0-0.6,0.1-0.8,0.1c-0.1,0-0.2,0-0.3,0c-0.1,0-0.1,0-0.2,0s-0.1,0-0.1,0
		c0,0,0,0,0,0l-0.9-13.1l-8.2-9.6c0,0,0.1-0.2,0.3-0.4c0.2-0.3,0.3-0.6,0.5-1c0.2-0.4,0.3-0.9,0.4-1.4c0.1-0.5,0-1-0.2-1.5
		c-0.2-0.5-0.3-1-0.4-1.4c-0.1-0.4-0.1-0.8-0.1-1.1c0-0.3,0-0.5,0.1-0.7c0-0.2,0.1-0.2,0.1-0.2c-1.5,0-2.7-0.3-3.6-0.8
		c-0.9-0.5-1.7-1.1-2.2-1.7c-0.5-0.6-0.9-1.2-1.1-1.7c-0.2-0.5-0.3-0.8-0.3-0.8l-8-1l0.8-1.8c0,0-1.1-0.3-2.9-0.9
		c-1.8-0.6-4.2-1.4-6.8-2.3c-2.6-0.9-5.4-2-7.8-3c-2.5-1.1-4.7-2.1-6.1-3.1c-1.4-1-2.7-2.2-3.8-3.5c-1.1-1.3-2.1-2.6-2.8-3.9
		c-0.8-1.2-1.4-2.3-1.8-3.1c-0.4-0.8-0.6-1.3-0.6-1.3l3.7-2.1c-2.1-1.4-3.9-2.7-5.4-3.9c-1.5-1.2-2.7-2.4-3.7-3.6
		c-1-1.2-1.8-2.4-2.4-3.6c-0.6-1.2-1.1-2.6-1.6-4c-0.4-1.4-1-2.5-1.6-3.4c-0.6-0.9-1.3-1.5-1.9-2c-0.6-0.5-1.2-0.8-1.6-1
		c-0.4-0.2-0.7-0.3-0.7-0.3l-2.2-10.7l-5.2-2c-0.3,0-0.6,0-0.9,0.1s-0.6,0-0.8,0c-0.3,0-0.6,0-0.8,0c-0.3,0-0.5,0-0.8,0
		c-2.9,0-5.5-0.3-7.7-0.8c-2.2-0.5-4.1-1.1-5.5-1.8c-1.5-0.6-2.6-1.3-3.3-1.8c-0.7-0.5-1.1-0.8-1.1-0.8s-0.8,0-2.2-0.2
		c-1.4-0.1-3.4-0.3-5.9-0.6c-2.5-0.3-5.4-0.7-8.6-1.3c-3.2-0.6-6.6-1.3-10.2-2.2c-3.5-0.9-6.8-1.9-9.6-2.8c-2.9-1-5.3-1.9-7.4-2.7
		c-2-0.8-3.6-1.5-4.7-2c-1.1-0.5-1.7-0.8-1.7-0.8l0.4-1.9c-1.1-1-2.8-1.9-4.8-2.7c-2-0.8-4.3-1.5-6.4-2.1
		c-2.1-0.6-4.1-1.1-5.6-1.4c-1.5-0.3-2.4-0.5-2.4-0.5c-0.2,0-0.4,0.1-0.6,0.1c-0.2,0-0.4,0.1-0.5,0.1c-0.2,0-0.3,0-0.5,0
		c-0.2,0-0.3,0-0.4,0c-0.5,0-1-0.1-1.3-0.2c-0.4-0.1-0.7-0.2-0.9-0.3c-0.2-0.1-0.4-0.2-0.5-0.3
		C554.6,102.2,554.5,102.1,554.5,102.1"/>
	<g id="States">
		<g id="Oregon" opacity="4.000000e-02">
			<path fill="#FFFFFF" d="M748.9,571.3c0.3-0.1,0.5-0.3,0.7-0.5s0.4-0.3,0.6-0.5c0.2-0.2,0.4-0.4,0.6-0.6
				c0.2-0.2,0.3-0.4,0.5-0.7c0.1-0.2,0.3-0.5,0.4-0.7c0.1-0.2,0.2-0.5,0.3-0.7s0.1-0.5,0.2-0.8c0-0.3,0.1-0.5,0.1-0.8
				c0-0.3,0-0.6,0-0.9c0-0.4,0-0.8,0-1.2c0-0.5,0-1-0.1-1.5c0-0.5-0.1-1.1-0.1-1.8l-0.3-4.3c0-0.6-0.1-1.2-0.1-1.8
				c0-0.6-0.1-1.1-0.1-1.5c0-0.5-0.1-0.9-0.1-1.2c0-0.4-0.1-0.7-0.1-0.9c0-0.3-0.1-0.5-0.2-0.7c-0.1-0.2-0.2-0.5-0.3-0.7
				s-0.2-0.5-0.4-0.7c-0.1-0.2-0.3-0.4-0.5-0.6s-0.4-0.4-0.6-0.6c-0.2-0.2-0.4-0.3-0.6-0.5c-0.2-0.1-0.5-0.3-0.7-0.4
				c-0.2-0.1-0.5-0.2-0.8-0.3c-0.2-0.1-0.4-0.1-0.6-0.2c-0.2,0-0.4-0.1-0.6-0.1c-0.2,0-0.4-0.1-0.7-0.1s-0.5,0-0.7,0
				c-0.1,0-0.2,0-0.3,0s-0.2,0-0.3,0c-0.1,0-0.2,0-0.3,0s-0.2,0-0.3,0c-0.3,0-0.7,0.1-1,0.1c-0.3,0.1-0.6,0.1-0.9,0.2
				s-0.6,0.2-0.9,0.3c-0.3,0.1-0.5,0.2-0.8,0.4c-0.3,0.1-0.5,0.3-0.7,0.5s-0.4,0.3-0.6,0.5c-0.2,0.2-0.4,0.4-0.5,0.6
				s-0.3,0.4-0.5,0.7c-0.1,0.2-0.3,0.5-0.4,0.7c-0.1,0.2-0.2,0.5-0.3,0.7c-0.1,0.2-0.1,0.5-0.2,0.8c0,0.3-0.1,0.5-0.1,0.8
				c0,0.3,0,0.6,0,0.9c0,0.4,0,0.8,0,1.2c0,0.4,0,0.9,0.1,1.5c0,0.5,0.1,1.1,0.1,1.8l0.3,4.3c0,0.7,0.1,1.3,0.1,1.8
				c0,0.6,0.1,1.1,0.1,1.5c0,0.5,0.1,0.9,0.1,1.2c0,0.4,0.1,0.7,0.1,0.9c0,0.3,0.1,0.5,0.2,0.8c0.1,0.2,0.2,0.5,0.3,0.7
				c0.1,0.2,0.2,0.5,0.4,0.7c0.1,0.2,0.3,0.4,0.5,0.6c0.2,0.2,0.4,0.4,0.6,0.6c0.2,0.2,0.4,0.3,0.6,0.5s0.5,0.3,0.7,0.4
				s0.5,0.2,0.8,0.3c0.2,0.1,0.4,0.1,0.6,0.2c0.2,0,0.4,0.1,0.6,0.1s0.4,0.1,0.7,0.1c0.2,0,0.5,0,0.7,0c0.1,0,0.2,0,0.3,0
				c0.1,0,0.2,0,0.3,0c0.1,0,0.2,0,0.3,0c0.1,0,0.2,0,0.3,0c0.4,0,0.7-0.1,1-0.1c0.3-0.1,0.6-0.1,0.9-0.2c0.3-0.1,0.6-0.2,0.9-0.3
				C748.4,571.5,748.7,571.4,748.9,571.3z M745.8,566.9c0,0.2,0,0.3-0.1,0.4c0,0.1-0.1,0.2-0.1,0.3c0,0.1-0.1,0.1-0.2,0.2
				c-0.1,0.1-0.1,0.1-0.2,0.1c-0.1,0-0.2,0.1-0.3,0.1c0,0,0,0,0,0s0,0,0,0c0,0,0,0,0,0c0,0,0,0,0,0c-0.1,0-0.2,0-0.2,0
				c-0.1,0-0.1,0-0.2-0.1c-0.1,0-0.1-0.1-0.2-0.1s-0.1-0.1-0.1-0.2c0-0.1-0.1-0.2-0.1-0.4s-0.1-0.3-0.1-0.6c0-0.2-0.1-0.5-0.1-0.8
				c0-0.3-0.1-0.6-0.1-1L743,553c0-0.3,0-0.6,0-0.9c0-0.3,0-0.5,0-0.7c0-0.2,0-0.4,0.1-0.5c0-0.1,0.1-0.2,0.1-0.3
				c0-0.1,0.1-0.1,0.1-0.2c0.1-0.1,0.1-0.1,0.2-0.1c0.1,0,0.1-0.1,0.2-0.1c0.1,0,0.2,0,0.2,0c0,0,0,0,0,0c0,0,0,0,0,0c0,0,0,0,0,0
				c0,0,0,0,0,0c0.1,0,0.2,0,0.2,0c0.1,0,0.1,0,0.2,0.1c0.1,0,0.1,0.1,0.2,0.1c0,0.1,0.1,0.1,0.1,0.2c0,0.1,0.1,0.2,0.1,0.3
				c0,0.1,0.1,0.3,0.1,0.5c0,0.2,0.1,0.4,0.1,0.6c0,0.2,0,0.5,0.1,0.8l0.8,11.6c0,0.4,0,0.7,0.1,1c0,0.3,0,0.6,0,0.8
				C745.9,566.5,745.9,566.7,745.8,566.9z"/>
			<polygon fill="#FFFFFF" points="839.9,546.7 849.8,541.9 847.7,537.4 843.4,539.4 841.1,534.4 844.6,532.7 842.6,528.4
				839,530.1 837,525.9 840.8,524.1 838.6,519.6 829.1,524.1 					"/>
			<path fill="#FFFFFF" d="M879.3,508.4l2.2,3l1-0.7l1.7,2.4c0.2,0.2,0.3,0.5,0.5,0.7s0.3,0.4,0.3,0.6c0.1,0.2,0.2,0.3,0.2,0.5
				c0.1,0.1,0.1,0.3,0.1,0.4c0,0.1,0,0.2,0,0.3c0,0.1,0,0.2-0.1,0.3c0,0.1-0.1,0.2-0.1,0.2c-0.1,0.1-0.1,0.1-0.2,0.2
				c0,0-0.1,0.1-0.1,0.1c0,0-0.1,0-0.1,0.1c0,0-0.1,0-0.1,0s-0.1,0-0.1,0c0,0-0.1,0-0.1,0c0,0-0.1,0-0.1,0c0,0-0.1,0-0.1,0
				c0,0-0.1,0-0.1-0.1c-0.1-0.1-0.2-0.1-0.3-0.2c-0.1-0.1-0.2-0.2-0.3-0.4s-0.3-0.3-0.4-0.5s-0.3-0.4-0.5-0.6l-7-9.6
				c-0.2-0.3-0.3-0.5-0.5-0.7c-0.1-0.2-0.3-0.4-0.4-0.6s-0.2-0.3-0.2-0.4c-0.1-0.1-0.1-0.2-0.1-0.3s0-0.2,0-0.2
				c0-0.1,0-0.1,0.1-0.2c0-0.1,0.1-0.1,0.1-0.2s0.1-0.1,0.2-0.2c0,0,0.1-0.1,0.1-0.1c0,0,0.1,0,0.1-0.1c0,0,0.1,0,0.1,0
				c0,0,0.1,0,0.1,0c0,0,0.1,0,0.1,0c0,0,0.1,0,0.1,0c0,0,0.1,0,0.1,0c0,0,0.1,0,0.1,0.1c0.1,0.1,0.2,0.1,0.3,0.2
				c0.1,0.1,0.2,0.3,0.4,0.4s0.3,0.4,0.5,0.6c0.2,0.2,0.4,0.5,0.6,0.8l1.3,1.8l5.1-3.6l-0.6-0.9c-0.3-0.4-0.6-0.8-0.9-1.1
				c-0.3-0.3-0.6-0.7-0.8-0.9c-0.3-0.3-0.5-0.5-0.8-0.8c-0.2-0.2-0.5-0.4-0.7-0.6c-0.2-0.1-0.4-0.3-0.7-0.4
				c-0.2-0.1-0.5-0.2-0.7-0.3c-0.3-0.1-0.5-0.1-0.8-0.2c-0.3,0-0.6-0.1-0.9-0.1c0,0-0.1,0-0.1,0c0,0-0.1,0-0.1,0c0,0-0.1,0-0.1,0
				c0,0-0.1,0-0.1,0c-0.4,0-0.7,0.1-1.1,0.1s-0.7,0.2-1.1,0.3c-0.4,0.1-0.7,0.3-1.1,0.5c-0.4,0.2-0.7,0.4-1.1,0.7
				c-0.4,0.3-0.7,0.5-1,0.8c-0.3,0.3-0.6,0.6-0.8,0.9c-0.2,0.3-0.4,0.6-0.6,1c-0.2,0.3-0.3,0.7-0.4,1c-0.1,0.3-0.2,0.7-0.2,1
				c-0.1,0.3-0.1,0.6-0.1,0.9c0,0.3,0,0.6,0.1,0.9s0.1,0.5,0.2,0.8c0.1,0.3,0.2,0.5,0.4,0.8c0.2,0.3,0.4,0.6,0.6,1
				c0.2,0.4,0.5,0.8,0.8,1.2c0.3,0.4,0.6,0.9,1,1.4l4.3,6c0.3,0.3,0.5,0.7,0.7,1c0.2,0.3,0.4,0.6,0.6,0.8c0.2,0.3,0.4,0.5,0.6,0.7
				c0.2,0.2,0.3,0.4,0.5,0.5c0.1,0.2,0.3,0.3,0.5,0.4s0.3,0.3,0.5,0.4s0.4,0.2,0.6,0.3c0.2,0.1,0.4,0.2,0.6,0.3
				c0.2,0.1,0.3,0.1,0.5,0.2c0.2,0.1,0.3,0.1,0.5,0.1c0.2,0,0.4,0.1,0.5,0.1c0.2,0,0.4,0,0.6,0c0.1,0,0.1,0,0.2,0
				c0.1,0,0.1,0,0.2,0c0.1,0,0.1,0,0.2,0c0.1,0,0.1,0,0.2,0c0.3,0,0.5-0.1,0.8-0.1s0.5-0.1,0.7-0.2c0.2-0.1,0.5-0.2,0.7-0.3
				c0.2-0.1,0.4-0.3,0.7-0.4c0.2-0.1,0.3-0.3,0.5-0.4c0.2-0.1,0.3-0.3,0.4-0.4c0.1-0.2,0.2-0.3,0.3-0.5c0.1-0.2,0.2-0.3,0.3-0.5
				c0.1-0.2,0.1-0.4,0.2-0.5c0-0.2,0.1-0.4,0.1-0.6c0-0.2,0-0.4,0-0.6s0-0.4,0-0.6l1.5,1.1l3.2-2.3l-7.9-10.7L879.3,508.4z"/>
			<path fill="#FFFFFF" d="M794.3,551.2c0.1,0,0.2,0,0.2,0c0.1,0,0.2,0,0.2,0c0.1,0,0.1,0,0.2,0s0.1,0,0.2,0c0.1,0,0.1,0,0.2,0.1
				c0,0,0.1,0.1,0.1,0.1c0.1,0.1,0.1,0.2,0.2,0.3s0.2,0.3,0.2,0.5c0.1,0.2,0.2,0.4,0.2,0.7c0.1,0.3,0.2,0.6,0.3,0.9l2.2,8.1
				l5.8-1.6l-1.7-6.5c-0.1-0.5-0.3-0.9-0.4-1.3c-0.1-0.4-0.2-0.7-0.3-1c-0.1-0.3-0.2-0.5-0.3-0.7c-0.1-0.2-0.1-0.3-0.2-0.5
				c-0.1-0.1-0.1-0.2-0.2-0.3s-0.2-0.2-0.3-0.3c-0.1-0.1-0.2-0.2-0.3-0.3c-0.1-0.1-0.2-0.2-0.4-0.3c-0.1-0.1-0.3-0.2-0.4-0.2
				s-0.4-0.1-0.6-0.2c-0.2,0-0.4-0.1-0.7-0.1c-0.2,0-0.5,0-0.8,0c0,0-0.1,0-0.1,0c0,0-0.1,0-0.1,0c0,0-0.1,0-0.1,0
				c0,0-0.1,0-0.1,0c0.3-0.1,0.6-0.3,0.9-0.4c0.3-0.1,0.5-0.3,0.7-0.5s0.4-0.3,0.5-0.5c0.1-0.2,0.2-0.4,0.3-0.6
				c0.1-0.2,0.1-0.4,0.1-0.7c0-0.3,0-0.6,0-0.9c0-0.3-0.1-0.7-0.2-1.1c-0.1-0.4-0.2-0.8-0.3-1.3c-0.1-0.5-0.3-1-0.4-1.4
				c-0.2-0.4-0.3-0.8-0.5-1.2c-0.2-0.4-0.4-0.7-0.6-0.9c-0.2-0.3-0.4-0.5-0.6-0.7c-0.2-0.2-0.4-0.3-0.7-0.5
				c-0.2-0.1-0.5-0.2-0.7-0.3c-0.2-0.1-0.5-0.2-0.7-0.2c-0.2,0-0.5-0.1-0.7-0.1c0,0,0,0-0.1,0c0,0,0,0-0.1,0c0,0,0,0-0.1,0
				c0,0,0,0-0.1,0c-0.3,0-0.6,0.1-1,0.1s-0.8,0.1-1.3,0.3s-1.1,0.2-1.7,0.4c-0.6,0.2-1.3,0.3-2,0.5l-4.4,1.2l6.4,24.4l6.2-1.7
				l-2.9-11c0.1,0,0.2-0.1,0.3-0.1S794.2,551.2,794.3,551.2z M793.6,547.2c-0.1,0.1-0.2,0.1-0.4,0.2c-0.1,0.1-0.3,0.1-0.5,0.1
				l-1.4-5.4c0.1,0,0.2-0.1,0.3-0.1c0.1,0,0.2,0,0.3-0.1c0.1,0,0.2,0,0.2,0c0.1,0,0.1,0,0.2,0c0.1,0,0.1,0,0.2,0
				c0.1,0,0.1,0,0.2,0s0.1,0,0.1,0c0,0,0.1,0,0.1,0c0.1,0,0.2,0.1,0.2,0.2c0.1,0.1,0.1,0.2,0.2,0.3s0.1,0.3,0.2,0.4
				s0.1,0.3,0.2,0.5l0.4,1.3c0.1,0.3,0.1,0.5,0.2,0.7c0,0.2,0.1,0.4,0.1,0.6s0,0.3,0,0.4c0,0.1-0.1,0.2-0.1,0.3
				c-0.1,0.1-0.1,0.1-0.2,0.2C793.8,547.1,793.7,547.2,793.6,547.2z"/>
			<polygon fill="#FFFFFF" points="934.5,436.1 931.8,440.2 952,453.4 954.7,449.3 945.5,443.3 956.4,446.8 959.2,442.5
				939,429.3 936.3,433.4 945.4,439.3 					"/>
			<path fill="#FFFFFF" d="M927.8,480.5c-0.1-0.2-0.1-0.5-0.2-0.7c-0.1-0.2-0.2-0.5-0.3-0.7c-0.1-0.2-0.2-0.4-0.4-0.6
				c-0.1-0.2-0.3-0.4-0.5-0.6c-0.2-0.2-0.4-0.4-0.6-0.7c-0.2-0.3-0.5-0.5-0.8-0.8c-0.3-0.3-0.7-0.6-1-1c-0.4-0.4-0.8-0.8-1.2-1.2
				l-3-2.9c-0.5-0.4-0.9-0.8-1.3-1.2c-0.4-0.4-0.8-0.7-1.1-1c-0.3-0.3-0.6-0.5-0.9-0.8c-0.3-0.2-0.5-0.4-0.7-0.6
				c-0.2-0.1-0.4-0.3-0.6-0.4c-0.2-0.1-0.4-0.2-0.7-0.3c-0.2-0.1-0.5-0.2-0.7-0.2c-0.2-0.1-0.5-0.1-0.8-0.2c-0.1,0-0.1,0-0.2,0
				c-0.1,0-0.1,0-0.2,0c-0.1,0-0.1,0-0.2,0c-0.1,0-0.1,0-0.2,0c-0.2,0-0.4,0-0.6,0c-0.2,0-0.4,0-0.6,0.1c-0.2,0-0.4,0.1-0.6,0.1
				c-0.2,0.1-0.4,0.1-0.5,0.2c-0.3,0.1-0.5,0.2-0.7,0.4c-0.2,0.1-0.5,0.3-0.7,0.4c-0.2,0.2-0.5,0.3-0.7,0.5
				c-0.2,0.2-0.4,0.4-0.7,0.6c-0.2,0.2-0.4,0.5-0.6,0.7c-0.2,0.2-0.4,0.5-0.5,0.7c-0.2,0.2-0.3,0.5-0.4,0.7
				c-0.1,0.2-0.2,0.5-0.3,0.8c-0.1,0.3-0.2,0.5-0.2,0.8c-0.1,0.3-0.1,0.5-0.1,0.8c0,0.3,0,0.5,0,0.8c0,0.3,0.1,0.5,0.1,0.7
				c0.1,0.2,0.1,0.5,0.2,0.7c0.1,0.2,0.2,0.5,0.3,0.7c0.1,0.2,0.2,0.4,0.4,0.6c0.1,0.2,0.3,0.4,0.5,0.6c0.2,0.2,0.4,0.4,0.6,0.7
				c0.2,0.3,0.5,0.5,0.8,0.8c0.3,0.3,0.6,0.6,1,1c0.4,0.4,0.8,0.8,1.2,1.2l3.1,2.9c0.5,0.4,0.9,0.8,1.3,1.2c0.4,0.4,0.8,0.7,1.1,1
				c0.3,0.3,0.6,0.6,0.9,0.8s0.5,0.4,0.7,0.6c0.2,0.2,0.4,0.3,0.6,0.4c0.2,0.1,0.4,0.2,0.7,0.3s0.5,0.2,0.7,0.2s0.5,0.1,0.8,0.2
				c0.1,0,0.1,0,0.2,0c0.1,0,0.1,0,0.2,0c0.1,0,0.1,0,0.2,0c0.1,0,0.1,0,0.2,0c0.2,0,0.4,0,0.6,0c0.2,0,0.4,0,0.6-0.1
				c0.2,0,0.4-0.1,0.6-0.1c0.2-0.1,0.4-0.1,0.5-0.2c0.3-0.1,0.5-0.2,0.7-0.4c0.2-0.1,0.5-0.3,0.7-0.5s0.5-0.3,0.7-0.5
				c0.2-0.2,0.4-0.4,0.7-0.6c0.2-0.2,0.4-0.5,0.6-0.7c0.2-0.2,0.4-0.5,0.5-0.7s0.3-0.5,0.4-0.8c0.1-0.3,0.2-0.5,0.3-0.8
				c0.1-0.3,0.2-0.5,0.2-0.8c0.1-0.3,0.1-0.5,0.1-0.8c0-0.3,0-0.5,0-0.8C927.9,481,927.9,480.7,927.8,480.5z M922.8,483.4
				c0,0.1-0.1,0.2-0.2,0.2c0,0-0.1,0.1-0.1,0.1c0,0-0.1,0.1-0.1,0.1c0,0-0.1,0-0.1,0.1s-0.1,0-0.1,0c0,0-0.1,0-0.1,0
				c0,0-0.1,0-0.1,0c0,0-0.1,0-0.1,0c0,0-0.1,0-0.1,0c-0.1,0-0.2-0.1-0.3-0.2c-0.1-0.1-0.3-0.2-0.4-0.3c-0.2-0.1-0.4-0.3-0.6-0.5
				c-0.2-0.2-0.5-0.4-0.7-0.7l-8.3-7.9c-0.2-0.2-0.4-0.4-0.6-0.6c-0.2-0.2-0.3-0.3-0.4-0.5c-0.1-0.1-0.2-0.3-0.3-0.4
				c-0.1-0.1-0.1-0.2-0.1-0.3c0-0.1,0-0.1,0-0.2c0-0.1,0-0.1,0-0.2c0-0.1,0-0.1,0.1-0.2c0-0.1,0.1-0.1,0.1-0.2
				c0,0,0.1-0.1,0.1-0.1c0,0,0.1-0.1,0.1-0.1c0,0,0.1,0,0.1-0.1c0,0,0.1,0,0.1,0c0,0,0,0,0.1,0c0,0,0,0,0.1,0c0,0,0.1,0,0.1,0
				c0,0,0.1,0,0.1,0c0.1,0,0.2,0.1,0.3,0.2s0.2,0.2,0.4,0.3c0.1,0.1,0.3,0.2,0.5,0.4c0.2,0.2,0.4,0.3,0.6,0.5l8.2,7.7
				c0.3,0.2,0.5,0.5,0.7,0.7c0.2,0.2,0.4,0.4,0.5,0.6c0.2,0.2,0.3,0.3,0.4,0.4c0.1,0.1,0.2,0.2,0.2,0.3c0,0.1,0.1,0.2,0.1,0.3
				c0,0.1,0,0.2,0,0.2C922.9,483.2,922.9,483.3,922.8,483.4z"/>
		</g>
		<g id="Washington" opacity="3.000000e-02">
			<path fill="#FFFFFF" d="M813,336.4c0.3-1.1,0.6-2.2,0.8-3.1c0.2-0.9,0.5-1.8,0.6-2.5c0.2-0.7,0.4-1.4,0.5-1.9
				c0.1-0.5,0.2-1,0.3-1.4c0,0.8,0,1.7,0.1,2.5c0,0.8,0.1,1.6,0.1,2.4c0,0.8,0.1,1.5,0.2,2.2c0.1,0.7,0.1,1.4,0.2,2.1l6,0.5
				l3.8-17l-4.7-0.4c-0.3,1-0.5,2-0.7,2.9c-0.2,1-0.5,2-0.7,3c-0.2,1-0.4,2-0.6,3c-0.2,1-0.4,2.1-0.5,3.1l0.1-6.6
				c0-0.8,0-1.6,0-2.2c0-0.6,0-1.2,0-1.7c0-0.5,0-0.9,0-1.2c0-0.3,0-0.5,0-0.6l-5-0.4c-0.3,1.2-0.6,2.3-0.8,3.4
				c-0.3,1.1-0.5,2.1-0.7,3.1c-0.2,1-0.4,1.9-0.6,2.7c-0.2,0.9-0.3,1.7-0.4,2.4l0.1-5.8l0.1-6l-4.7-0.4l0.4,17.3L813,336.4z"/>
			<polygon fill="#FFFFFF" points="919.2,325.2 912.8,309 908.3,310.4 914.7,326.6 					"/>
			<path fill="#FFFFFF" d="M861.8,323.7c0,0.2,0.1,0.4,0.1,0.6c0,0.2,0.1,0.4,0.2,0.6c0.1,0.2,0.1,0.4,0.2,0.5
				c0.1,0.2,0.2,0.3,0.2,0.5c0.1,0.1,0.2,0.3,0.3,0.4c0.1,0.1,0.2,0.2,0.3,0.3c0.1,0.1,0.2,0.2,0.3,0.3c0.1,0.1,0.2,0.2,0.3,0.2
				s0.2,0.2,0.4,0.2c0.2,0.1,0.4,0.2,0.6,0.3c0.2,0.1,0.5,0.2,0.7,0.4c0.3,0.1,0.6,0.3,0.9,0.4c0.3,0.1,0.6,0.3,0.9,0.4
				c0.3,0.1,0.5,0.2,0.7,0.4c0.2,0.1,0.4,0.2,0.5,0.3c0.1,0.1,0.3,0.2,0.4,0.2c0.1,0.1,0.2,0.2,0.2,0.3c0.1,0.1,0.1,0.3,0.2,0.4
				s0.1,0.3,0.2,0.6c0.1,0.2,0.1,0.4,0.1,0.7c0,0.1,0,0.2,0,0.3c0,0.1,0,0.2,0,0.3c0,0.1,0,0.2,0,0.2c0,0.1,0,0.1-0.1,0.2
				c0,0.1-0.1,0.1-0.1,0.2c0,0-0.1,0.1-0.1,0.1c-0.1,0-0.1,0.1-0.2,0.1c-0.1,0-0.1,0-0.2,0c0,0,0,0-0.1,0s0,0-0.1,0c0,0,0,0-0.1,0
				c0,0,0,0-0.1,0c-0.1,0-0.1,0-0.1,0c0,0-0.1,0-0.1,0s-0.1,0-0.1-0.1c0,0-0.1-0.1-0.1-0.1c0,0-0.1-0.1-0.1-0.2
				c0-0.1-0.1-0.2-0.1-0.3c0-0.1-0.1-0.2-0.1-0.3c0-0.1-0.1-0.3-0.1-0.4l-0.3-2.1l-4.4,0.5l0.2,1.1c0,0.3,0.1,0.6,0.2,0.9
				c0.1,0.3,0.1,0.5,0.2,0.8c0.1,0.2,0.2,0.5,0.2,0.7c0.1,0.2,0.2,0.4,0.3,0.6c0.1,0.2,0.2,0.3,0.3,0.5c0.1,0.1,0.3,0.3,0.5,0.4
				c0.2,0.1,0.4,0.2,0.6,0.4c0.2,0.1,0.4,0.2,0.7,0.3c0.1,0.1,0.3,0.1,0.4,0.1c0.1,0,0.3,0.1,0.4,0.1c0.2,0,0.3,0.1,0.5,0.1
				c0.2,0,0.3,0,0.5,0c0.1,0,0.3,0,0.4,0c0.1,0,0.3,0,0.4,0c0.1,0,0.3,0,0.4,0c0.1,0,0.3,0,0.4,0c0.3,0,0.6-0.1,0.8-0.1
				c0.3-0.1,0.5-0.1,0.8-0.2c0.2-0.1,0.5-0.2,0.7-0.3c0.2-0.1,0.4-0.2,0.6-0.3c0.2-0.1,0.4-0.2,0.6-0.4c0.2-0.1,0.3-0.3,0.4-0.4
				c0.1-0.1,0.2-0.3,0.3-0.4c0.1-0.1,0.2-0.3,0.2-0.5c0.1-0.2,0.1-0.3,0.1-0.5c0-0.2,0-0.4,0-0.6c0-0.2,0-0.5,0-0.7
				c0-0.3-0.1-0.6-0.1-0.9c-0.1-0.4-0.1-0.8-0.2-1.2c-0.1-0.4-0.2-0.7-0.3-1c-0.1-0.3-0.2-0.6-0.4-0.8c-0.1-0.2-0.3-0.4-0.5-0.6
				c-0.2-0.2-0.4-0.4-0.7-0.5c-0.3-0.2-0.6-0.4-1-0.6c-0.4-0.2-0.8-0.4-1.3-0.6c-0.5-0.2-1-0.4-1.6-0.7c-0.2-0.1-0.4-0.2-0.5-0.2
				c-0.2-0.1-0.3-0.2-0.4-0.2c-0.1-0.1-0.2-0.1-0.3-0.2c-0.1-0.1-0.2-0.1-0.2-0.2c-0.1-0.1-0.1-0.1-0.1-0.2c0-0.1-0.1-0.2-0.1-0.3
				c0-0.1-0.1-0.2-0.1-0.3c0-0.1-0.1-0.3-0.1-0.4c0-0.1,0-0.2,0-0.3c0-0.1,0-0.2,0-0.3c0-0.1,0-0.2,0-0.2c0-0.1,0-0.1,0.1-0.2
				c0-0.1,0.1-0.1,0.1-0.2c0,0,0.1-0.1,0.1-0.1c0,0,0.1-0.1,0.2-0.1c0.1,0,0.1,0,0.2,0c0,0,0,0,0,0c0,0,0,0,0,0c0,0,0,0,0,0
				c0,0,0,0,0,0c0,0,0.1,0,0.1,0c0,0,0.1,0,0.1,0s0.1,0,0.1,0.1c0,0,0.1,0,0.1,0.1c0,0,0.1,0.1,0.1,0.2s0.1,0.1,0.1,0.2
				c0,0.1,0.1,0.2,0.1,0.3c0,0.1,0,0.3,0.1,0.4l0.2,1.3l4.4-0.5l-0.1-0.7c-0.1-0.3-0.1-0.7-0.2-0.9c-0.1-0.3-0.1-0.5-0.2-0.8
				c-0.1-0.2-0.2-0.4-0.2-0.6c-0.1-0.2-0.2-0.3-0.3-0.5c-0.1-0.1-0.2-0.3-0.3-0.4c-0.1-0.1-0.3-0.2-0.4-0.3
				c-0.2-0.1-0.3-0.2-0.5-0.3c-0.2-0.1-0.4-0.2-0.6-0.2c-0.1,0-0.2-0.1-0.4-0.1s-0.2-0.1-0.4-0.1c-0.1,0-0.3,0-0.4-0.1
				c-0.1,0-0.3,0-0.4,0c-0.1,0-0.3,0-0.4,0s-0.3,0-0.4,0c-0.1,0-0.3,0-0.4,0c-0.1,0-0.3,0-0.4,0c-0.3,0-0.6,0.1-0.8,0.1
				c-0.3,0.1-0.5,0.1-0.7,0.2c-0.2,0.1-0.5,0.1-0.7,0.2c-0.2,0.1-0.4,0.2-0.6,0.3c-0.2,0.1-0.4,0.2-0.5,0.3
				c-0.2,0.1-0.3,0.2-0.4,0.4c-0.1,0.1-0.2,0.3-0.3,0.4c-0.1,0.1-0.2,0.3-0.2,0.5c-0.1,0.2-0.1,0.3-0.2,0.5c0,0.2-0.1,0.4-0.1,0.7
				c0,0.2,0,0.5,0,0.8C861.7,323.1,861.8,323.4,861.8,323.7z"/>
			<polygon fill="#FFFFFF" points="894.1,331.7 892.1,324.7 893.5,324.4 895.5,331.4 900.1,330.5 895.5,313.8 890.8,314.7
				892.5,320.7 891.1,321 889.4,315 884.8,316 889.4,332.7 					"/>
			<path fill="#FFFFFF" d="M839.5,320.3l-1.9,17.3l5-0.1l0.2-3.1l1.7,0l0.4,3.1l5-0.1l-3.4-17.2L839.5,320.3z M842.6,331.3
				c0-0.4,0-0.8,0.1-1.3c0-0.5,0.1-1,0.1-1.6c0.1-0.6,0.1-1.3,0.2-2c0.1-0.7,0.2-1.5,0.3-2.3c0.1,0.7,0.2,1.4,0.3,2.1
				c0.1,0.7,0.2,1.3,0.2,1.9c0.1,0.6,0.2,1.2,0.2,1.7c0.1,0.5,0.2,1.1,0.2,1.5L842.6,331.3z"/>
			<polygon fill="#FFFFFF" points="1003.8,254.7 1010,259.7 1002.2,256.4 999.7,258.9 1013.5,270.1 1016,267.6 1009.7,262.5
				1017.5,266 1020.1,263.4 1006.3,252.2 					"/>
			<polygon fill="#FFFFFF" points="970.2,286.3 979.2,297.2 982.9,294.8 973.9,283.9 976.1,282.4 973.9,279.7 965.8,285
				968,287.7 					"/>
			<path fill="#FFFFFF" d="M985,274.1c0.1,0.2,0.1,0.3,0.2,0.5c0.1,0.2,0.2,0.3,0.2,0.5c0.1,0.2,0.2,0.3,0.3,0.4
				c0.1,0.1,0.3,0.3,0.4,0.5c0.2,0.2,0.4,0.4,0.6,0.6s0.5,0.5,0.7,0.8c0.3,0.3,0.6,0.6,0.9,0.9l2.2,2.2c0.3,0.3,0.6,0.6,0.9,0.9
				c0.3,0.3,0.5,0.5,0.8,0.7c0.2,0.2,0.4,0.4,0.6,0.6c0.2,0.2,0.4,0.3,0.5,0.4c0.1,0.1,0.3,0.2,0.5,0.3c0.2,0.1,0.3,0.2,0.5,0.3
				c0.2,0.1,0.3,0.1,0.5,0.2c0.2,0.1,0.4,0.1,0.6,0.2c0.1,0,0.1,0,0.2,0c0.1,0,0.1,0,0.2,0c0.1,0,0.1,0,0.2,0c0.1,0,0.1,0,0.2,0
				c0.1,0,0.3,0,0.4,0c0.1,0,0.3,0,0.4,0c0.1,0,0.3,0,0.4-0.1c0.1,0,0.3-0.1,0.4-0.1c0.2-0.1,0.4-0.1,0.6-0.2
				c0.2-0.1,0.4-0.2,0.6-0.3c0.2-0.1,0.4-0.2,0.5-0.3c0.2-0.1,0.4-0.3,0.5-0.4c0.2-0.1,0.4-0.3,0.5-0.5c0.2-0.2,0.3-0.3,0.4-0.5
				c0.1-0.2,0.2-0.3,0.4-0.5c0.1-0.2,0.2-0.3,0.3-0.5c0.1-0.2,0.1-0.3,0.2-0.5c0.1-0.2,0.1-0.3,0.1-0.5c0-0.2,0-0.3,0-0.5
				c0-0.2,0-0.3,0-0.5c0-0.2-0.1-0.3-0.1-0.5c-0.1-0.2-0.1-0.3-0.2-0.5c-0.1-0.2-0.2-0.3-0.3-0.5c-0.1-0.2-0.2-0.3-0.3-0.4
				c-0.1-0.1-0.3-0.3-0.4-0.5c-0.2-0.2-0.4-0.4-0.6-0.6c-0.2-0.2-0.5-0.5-0.7-0.8c-0.3-0.3-0.6-0.6-0.9-0.9l-2.1-2.1
				c-0.3-0.3-0.6-0.6-0.9-0.9c-0.3-0.3-0.5-0.5-0.8-0.7c-0.2-0.2-0.4-0.4-0.6-0.6c-0.2-0.2-0.4-0.3-0.5-0.4
				c-0.1-0.1-0.3-0.2-0.5-0.3c-0.2-0.1-0.3-0.2-0.5-0.3c-0.2-0.1-0.3-0.1-0.5-0.2c-0.2-0.1-0.4-0.1-0.6-0.2c-0.1,0-0.1,0-0.2,0
				c-0.1,0-0.1,0-0.2,0c-0.1,0-0.1,0-0.2,0c-0.1,0-0.1,0-0.2,0c-0.1,0-0.3,0-0.4,0c-0.1,0-0.3,0-0.4,0c-0.1,0-0.3,0-0.4,0.1
				c-0.1,0-0.3,0.1-0.4,0.1c-0.2,0.1-0.4,0.1-0.6,0.2c-0.2,0.1-0.4,0.2-0.6,0.3c-0.2,0.1-0.4,0.2-0.5,0.3s-0.4,0.2-0.5,0.4
				c-0.2,0.1-0.4,0.3-0.5,0.4c-0.2,0.2-0.3,0.3-0.4,0.5c-0.1,0.2-0.2,0.3-0.4,0.5c-0.1,0.2-0.2,0.3-0.3,0.5
				c-0.1,0.2-0.1,0.3-0.2,0.5c-0.1,0.2-0.1,0.3-0.1,0.5c0,0.2,0,0.3,0,0.5c0,0.2,0,0.3,0,0.5C984.9,273.7,984.9,273.9,985,274.1z
				 M988.7,272c0,0,0-0.1,0.1-0.1c0,0,0.1-0.1,0.1-0.1c0,0,0.1-0.1,0.1-0.1c0,0,0.1,0,0.1,0c0,0,0.1,0,0.1,0c0,0,0.1,0,0.1,0
				c0,0,0,0,0.1,0c0,0,0,0,0.1,0c0,0,0,0,0.1,0c0,0,0,0,0.1,0c0.1,0,0.1,0.1,0.2,0.1c0.1,0.1,0.2,0.1,0.3,0.2s0.2,0.2,0.3,0.3
				c0.1,0.1,0.3,0.2,0.4,0.4l5.8,5.8c0.2,0.2,0.4,0.4,0.5,0.5c0.1,0.2,0.3,0.3,0.4,0.4c0.1,0.1,0.2,0.2,0.3,0.3
				c0.1,0.1,0.1,0.2,0.2,0.2c0,0.1,0.1,0.1,0.1,0.2c0,0.1,0,0.1,0,0.2c0,0.1,0,0.1-0.1,0.2c0,0.1-0.1,0.1-0.1,0.1
				c0,0-0.1,0.1-0.1,0.1c0,0-0.1,0-0.1,0.1c0,0-0.1,0-0.1,0c0,0-0.1,0-0.1,0c0,0,0,0-0.1,0c0,0,0,0-0.1,0c0,0,0,0-0.1,0
				c0,0,0,0-0.1,0c-0.1,0-0.1-0.1-0.2-0.1c-0.1-0.1-0.2-0.2-0.3-0.3c-0.1-0.1-0.3-0.2-0.4-0.4c-0.2-0.1-0.3-0.3-0.5-0.5l-5.9-5.9
				c-0.2-0.2-0.3-0.3-0.4-0.4c-0.1-0.1-0.2-0.3-0.3-0.4c-0.1-0.1-0.2-0.2-0.2-0.3c0-0.1-0.1-0.1-0.1-0.2c0-0.1,0-0.1,0-0.1
				C988.7,272.1,988.7,272,988.7,272z"/>
			<path fill="#FFFFFF" d="M953.2,306.1c0.2,0.2,0.3,0.4,0.4,0.6c0.1,0.2,0.3,0.4,0.4,0.5c0.1,0.2,0.2,0.3,0.3,0.4
				c0.1,0.1,0.2,0.2,0.3,0.3c0.1,0.1,0.2,0.2,0.4,0.3c0.1,0.1,0.3,0.2,0.4,0.3c0.1,0.1,0.3,0.2,0.4,0.2c0.1,0.1,0.3,0.1,0.4,0.2
				c0.1,0.1,0.3,0.1,0.4,0.1c0.2,0,0.3,0.1,0.5,0.1s0.3,0,0.5,0c0,0,0.1,0,0.1,0c0,0,0.1,0,0.1,0c0,0,0.1,0,0.1,0c0,0,0.1,0,0.1,0
				c0.2,0,0.4,0,0.6,0c0.2,0,0.4-0.1,0.6-0.1c0.2,0,0.4-0.1,0.5-0.2c0.2-0.1,0.4-0.1,0.5-0.2c0.1-0.1,0.3-0.2,0.4-0.2
				c0.1-0.1,0.2-0.2,0.3-0.3c0.1-0.1,0.2-0.2,0.3-0.3c0.1-0.1,0.2-0.2,0.2-0.3c0.1-0.1,0.1-0.2,0.2-0.4c0-0.1,0.1-0.2,0.1-0.4
				c0-0.1,0-0.3,0.1-0.4c0-0.1,0-0.3,0-0.4l1.1,0.9l2.5-1.3l-5.3-7.9l-4.7,2.4l1.5,2.2l0.8-0.4l1.2,1.7c0.1,0.2,0.2,0.3,0.3,0.5
				c0.1,0.1,0.2,0.3,0.2,0.4c0.1,0.1,0.1,0.2,0.2,0.3c0,0.1,0.1,0.2,0.1,0.3c0,0.1,0,0.1,0,0.2c0,0.1,0,0.1-0.1,0.2
				c0,0.1-0.1,0.1-0.1,0.2s-0.1,0.1-0.2,0.1c0,0-0.1,0-0.1,0c0,0-0.1,0-0.1,0c0,0-0.1,0-0.1,0c0,0-0.1,0-0.1,0c0,0-0.1,0-0.1,0
				c0,0-0.1,0-0.1,0c0,0-0.1,0-0.1,0c0,0-0.1,0-0.1-0.1c-0.1,0-0.1-0.1-0.2-0.2c-0.1-0.1-0.1-0.2-0.2-0.3s-0.2-0.2-0.3-0.4
				c-0.1-0.1-0.2-0.3-0.3-0.5l-4.7-7c-0.1-0.2-0.2-0.4-0.3-0.5c-0.1-0.2-0.2-0.3-0.2-0.4c-0.1-0.1-0.1-0.2-0.2-0.3
				c0-0.1-0.1-0.2-0.1-0.2c0-0.1,0-0.1,0-0.2c0,0,0-0.1,0.1-0.1c0,0,0.1-0.1,0.1-0.1c0,0,0.1-0.1,0.2-0.1c0,0,0.1,0,0.1,0
				c0,0,0.1,0,0.1,0c0,0,0.1,0,0.1,0c0,0,0.1,0,0.1,0c0,0,0.1,0,0.1,0c0,0,0.1,0,0.1,0c0,0,0.1,0,0.1,0c0,0,0.1,0,0.1,0.1
				c0.1,0,0.1,0.1,0.2,0.2s0.2,0.2,0.3,0.3c0.1,0.1,0.2,0.3,0.3,0.4c0.1,0.2,0.2,0.4,0.4,0.6l0.9,1.3l4-2.1l-0.4-0.6
				c-0.2-0.3-0.4-0.6-0.6-0.8c-0.2-0.3-0.4-0.5-0.6-0.7c-0.2-0.2-0.4-0.4-0.5-0.6c-0.2-0.2-0.3-0.3-0.5-0.4
				c-0.2-0.1-0.3-0.2-0.5-0.3c-0.2-0.1-0.4-0.2-0.6-0.3c-0.2-0.1-0.4-0.1-0.7-0.2s-0.5-0.1-0.8-0.1c0,0,0,0,0,0s0,0,0,0
				c0,0,0,0,0,0c0,0,0,0,0,0c-0.3,0-0.5,0-0.8,0c-0.3,0-0.6,0.1-0.8,0.1c-0.3,0.1-0.6,0.2-0.9,0.3c-0.3,0.1-0.6,0.2-0.9,0.4
				c-0.3,0.2-0.6,0.3-0.8,0.5s-0.5,0.4-0.7,0.5c-0.2,0.2-0.4,0.4-0.5,0.6c-0.2,0.2-0.3,0.4-0.4,0.7c-0.1,0.2-0.2,0.5-0.2,0.7
				c-0.1,0.2-0.1,0.4-0.1,0.6c0,0.2,0,0.4,0,0.6c0,0.2,0.1,0.4,0.1,0.6c0.1,0.2,0.1,0.4,0.3,0.6c0.1,0.2,0.2,0.5,0.4,0.7
				c0.1,0.3,0.3,0.6,0.5,0.9c0.2,0.3,0.4,0.6,0.6,1l2.9,4.4C952.9,305.6,953,305.9,953.2,306.1z"/>
			<polygon fill="#FFFFFF" points="931.2,302.4 934.8,309.4 928.8,303.4 925.2,304.8 933.2,320.4 936.8,319 933.2,311.8
				939.1,318.1 942.8,316.5 934.8,301 					"/>
		</g>
		<g id="Canada" opacity="4.000000e-02" enable-background="new    ">
			<path fill="#FFFFFF" d="M709.5,124.9C709.4,124.9,709.4,124.9,709.5,124.9c-0.1,0-0.2,0-0.2,0s-0.1,0-0.1,0s-0.1,0-0.1,0
				c0,0-0.1,0-0.1,0c0,0-0.1,0-0.1,0c0,0-0.1,0-0.1,0c0,0-0.1,0-0.1,0c0,0-0.1,0-0.1,0c0,0-0.1,0-0.1,0s-0.1,0-0.1,0
				c0,0-0.1,0-0.1,0c0,0-0.1,0-0.1,0c0,0-0.1,0-0.1,0s-0.1,0-0.1,0c0,0-0.1,0-0.1,0c-0.1,0-0.1,0-0.2,0c-0.1,0-0.1,0-0.2,0
				c-0.1,0-0.1,0-0.2,0c-0.1,0-0.1,0-0.2,0c-0.1,0-0.1,0-0.2,0c-0.1,0-0.1,0-0.2,0c-0.1,0-0.1,0-0.2,0c-0.1,0-0.1,0-0.2,0
				c-0.1,0-0.1,0-0.2,0c-0.1,0-0.1,0-0.2,0c-0.1,0-0.1,0-0.2,0c-0.1,0-0.1,0-0.2,0c-0.1,0-0.1,0-0.2,0s-0.1,0-0.2,0
				c-0.1,0-0.1,0-0.2,0.1c-0.1,0-0.1,0-0.2,0.1c-0.1,0-0.1,0-0.2,0.1c-0.1,0-0.1,0-0.2,0.1c-0.1,0-0.1,0-0.2,0.1
				c-0.1,0-0.1,0-0.2,0.1c-0.1,0-0.1,0-0.2,0.1s-0.1,0-0.1,0.1c0,0-0.1,0-0.1,0.1c0,0-0.1,0-0.1,0.1c0,0-0.1,0-0.1,0.1
				c0,0-0.1,0-0.1,0.1s-0.1,0-0.1,0.1c0,0-0.1,0-0.1,0.1c0,0-0.1,0-0.1,0.1c0,0-0.1,0-0.1,0.1c0,0-0.1,0-0.1,0.1
				c0,0-0.1,0-0.1,0.1c0,0-0.1,0.1-0.1,0.1c0,0-0.1,0-0.1,0.1c0,0-0.1,0-0.1,0.1c0,0-0.1,0-0.1,0.1c0,0-0.1,0-0.1,0.1
				c0,0-0.1,0-0.1,0.1c0,0-0.1,0.1-0.1,0.1c0,0-0.1,0-0.1,0.1c0,0,0,0-0.1,0.1c0,0,0,0-0.1,0.1s0,0-0.1,0.1s0,0-0.1,0.1
				c0,0,0,0-0.1,0.1c0,0,0,0,0,0.1c0,0,0,0,0,0.1s0,0,0,0.1c0,0,0,0,0,0.1c0,0,0,0.1,0,0.1s0,0.1,0,0.1s0,0.1,0,0.1
				c0,0,0,0.1,0,0.1c0,0,0,0.1,0,0.1c0,0,0,0.1,0,0.1s0,0.1,0,0.1c0,0,0,0.1,0,0.1s0,0.1,0,0.1s0,0.1,0,0.1c0,0,0,0.1,0,0.1
				c0,0,0,0.1,0,0.1s0,0.1,0,0.1c0,0,0,0.1,0,0.1c0,0,0,0.1,0,0.1l-0.9,3.2c0,0.1,0,0.1-0.1,0.2c0,0.1,0,0.1,0,0.2
				c0,0.1,0,0.1,0,0.2c0,0.1,0,0.1,0,0.2c0,0.1,0,0.1,0,0.2c0,0.1,0,0.1,0,0.2c0,0.1,0,0.1,0,0.2c0,0.1,0,0.1,0,0.2
				c0,0.1,0,0.1,0,0.1c0,0,0,0.1,0,0.1c0,0,0,0.1,0,0.1c0,0,0,0.1,0,0.1c0,0,0,0.1,0,0.1c0,0,0,0.1,0,0.1s0,0.1,0,0.1s0,0.1,0,0.1
				c0,0,0,0.1,0,0.1c0,0,0,0.1,0,0.1c0,0,0,0.1,0.1,0.1c0,0,0,0.1,0.1,0.1s0,0.1,0.1,0.1c0,0,0.1,0.1,0.1,0.1c0,0,0.1,0,0.1,0.1
				s0.1,0,0.1,0.1c0,0,0.1,0,0.1,0.1c0,0,0.1,0,0.1,0.1c0,0,0.1,0,0.1,0.1c0,0,0.1,0,0.1,0.1c0,0,0.1,0,0.1,0.1c0,0,0.1,0,0.2,0
				c0.1,0,0.1,0,0.2,0c0.1,0,0.1,0,0.2,0c0,0,0.1,0,0.1,0s0.1,0,0.1,0s0.1,0,0.1,0c0,0,0.1,0,0.1,0c0,0,0.1,0,0.1,0s0.1,0,0.1,0
				s0.1,0,0.1,0s0.1,0,0.1,0c0,0,0.1,0,0.1,0c0,0,0.1,0,0.1,0s0.1,0,0.1,0c0,0,0.1,0,0.1,0c0,0,0.1,0,0.1,0c0,0,0.1,0,0.1,0
				s0.1,0,0.1,0s0.1,0,0.1,0c0,0,0.1,0,0.1,0c0,0,0.1,0,0.1,0s0.1,0,0.1,0s0.1,0,0.1,0c0,0,0.1,0,0.1,0c0,0,0.1,0,0.1,0
				s0.1,0,0.1,0s0.1,0,0.1,0c0,0,0.1,0,0.1,0s0.1,0,0.1,0c0,0,0.1,0,0.1,0c0,0,0.1,0,0.1,0c0,0,0.1,0,0.1,0s0.1,0,0.1,0
				c0,0,0.1,0,0.1,0c0,0,0.1,0,0.1,0c0.1,0,0.2,0,0.3,0c0.1,0,0.2,0,0.3,0c0.1,0,0.2,0,0.3,0c0.1,0,0.2,0,0.3,0c0.1,0,0.2,0,0.3,0
				c0.1,0,0.2,0,0.3-0.1c0.1,0,0.2,0,0.2-0.1c0.1,0,0.2,0,0.2-0.1c0.1,0,0.2,0,0.2-0.1c0.1,0,0.2,0,0.2-0.1c0.1,0,0.2,0,0.2-0.1
				c0.1,0,0.2,0,0.2-0.1c0.1,0,0.1,0,0.2-0.1c0.1,0,0.1-0.1,0.2-0.1c0.1,0,0.1-0.1,0.2-0.1c0.1,0,0.1-0.1,0.2-0.1
				c0.1,0,0.1-0.1,0.2-0.1c0.1,0,0.1-0.1,0.2-0.1c0.1,0,0.1-0.1,0.2-0.1c0.1,0,0.1-0.1,0.2-0.1c0.1,0,0.1-0.1,0.2-0.1
				s0.1-0.1,0.2-0.1c0.1,0,0.1-0.1,0.2-0.1c0.1,0,0.1-0.1,0.1-0.1c0,0,0.1-0.1,0.1-0.1c0,0,0.1-0.1,0.1-0.1c0,0,0.1-0.1,0.1-0.1
				s0.1-0.1,0.1-0.1c0,0,0.1-0.1,0.1-0.1s0.1-0.1,0.1-0.1s0.1-0.1,0.1-0.1c0,0,0.1-0.1,0.1-0.1c0,0,0-0.1,0.1-0.1
				c0,0,0-0.1,0.1-0.1c0,0,0-0.1,0.1-0.1c0,0,0-0.1,0.1-0.1c0,0,0-0.1,0.1-0.1c0,0,0-0.1,0.1-0.1c0,0,0-0.1,0.1-0.1
				c0,0,0-0.1,0.1-0.2c0-0.1,0-0.1,0.1-0.2c0-0.1,0-0.1,0.1-0.2c0-0.1,0-0.1,0.1-0.2c0-0.1,0-0.1,0.1-0.2c0-0.1,0-0.1,0.1-0.2
				c0-0.1,0-0.1,0.1-0.2c0-0.1,0-0.1,0.1-0.2c0-0.1,0-0.1,0.1-0.2l0.1-0.4l-5.1,0.5l-0.4,1.4c0,0,0,0.1,0,0.1c0,0,0,0.1,0,0.1
				c0,0,0,0.1,0,0.1c0,0,0,0.1,0,0.1c0,0,0,0.1,0,0.1c0,0,0,0.1,0,0.1c0,0,0,0.1,0,0.1c0,0,0,0.1,0,0.1c0,0,0,0,0,0.1
				c0,0,0,0,0,0.1c0,0,0,0,0,0.1c0,0,0,0,0,0.1c0,0,0,0,0,0.1c0,0,0,0,0,0c0,0,0,0,0,0c0,0,0,0,0,0l-0.1,0.1l-0.2,0.1l-0.2,0.1
				c0,0,0,0-0.1,0c0,0,0,0-0.1,0s0,0-0.1,0c0,0,0,0-0.1,0l-0.1,0l-0.1,0h-0.1h-0.1l-0.2,0l-0.1,0l-0.1-0.1l-0.1-0.1c0,0,0,0,0,0
				c0,0,0,0,0,0s0,0,0,0s0,0,0,0c0,0,0,0,0,0s0,0,0-0.1c0,0,0,0,0-0.1c0,0,0,0,0-0.1c0,0,0,0,0-0.1c0,0,0,0,0-0.1s0,0,0-0.1
				c0,0,0-0.1,0-0.1c0,0,0-0.1,0-0.1s0-0.1,0-0.1s0-0.1,0-0.1c0,0,0-0.1,0-0.1l1.3-5c0,0,0-0.1,0-0.1c0,0,0-0.1,0-0.1
				c0,0,0-0.1,0-0.1s0-0.1,0-0.1c0,0,0-0.1,0-0.1c0,0,0-0.1,0-0.1c0,0,0,0,0-0.1c0,0,0,0,0-0.1c0,0,0,0,0-0.1c0,0,0,0,0-0.1
				s0,0,0-0.1s0,0,0-0.1c0,0,0,0,0,0s0,0,0,0c0,0,0,0,0,0s0,0,0,0l0.1-0.1l0.2-0.1l0.2-0.1c0,0,0,0,0.1,0c0,0,0,0,0.1,0
				c0,0,0,0,0.1,0c0,0,0,0,0.1,0l0.1,0l0.1,0h0.1h0.1l0.2,0l0.1,0l0.1,0l0.1,0.1l0,0.1c0,0,0,0,0,0c0,0,0,0,0,0c0,0,0,0,0,0.1
				c0,0,0,0,0,0.1c0,0,0,0,0,0.1s0,0,0,0.1c0,0,0,0,0,0.1c0,0,0,0.1,0,0.1c0,0,0,0.1,0,0.1c0,0,0,0.1,0,0.1c0,0,0,0.1,0,0.1
				c0,0,0,0.1,0,0.1l-0.5,1.8l5.1-0.5l0.2-1c0-0.1,0-0.1,0-0.2c0-0.1,0-0.1,0-0.2c0-0.1,0-0.1,0-0.2c0-0.1,0-0.1,0-0.2
				c0-0.1,0-0.1,0-0.2c0-0.1,0-0.1,0-0.1c0,0,0-0.1,0-0.1c0,0,0-0.1,0-0.1c0,0,0-0.1,0-0.1c0,0,0-0.1,0-0.1c0,0,0-0.1,0-0.1
				c0,0,0-0.1,0-0.1c0,0,0-0.1,0-0.1c0,0,0-0.1,0-0.1c0,0,0-0.1,0-0.1s0-0.1,0-0.1s0-0.1,0-0.1c0,0,0-0.1,0-0.1c0,0,0,0-0.1-0.1
				c0,0,0,0-0.1-0.1c0,0,0,0-0.1-0.1c0,0-0.1,0-0.1-0.1c0,0-0.1,0-0.1-0.1c0,0-0.1,0-0.1-0.1c0,0-0.1,0-0.1-0.1c0,0-0.1,0-0.1-0.1
				c0,0-0.1,0-0.1-0.1c0,0-0.1,0-0.1-0.1c0,0-0.1,0-0.1,0c0,0-0.1,0-0.1,0c-0.1,0-0.1,0-0.2,0c-0.1,0-0.1,0-0.2,0c0,0-0.1,0-0.1,0
				s-0.1,0-0.1,0c0,0-0.1,0-0.1,0s-0.1,0-0.1,0c0,0-0.1,0-0.1,0s-0.1,0-0.1,0c0,0-0.1,0-0.1,0s-0.1,0-0.1,0c0,0-0.1,0-0.1,0
				c0,0-0.1,0-0.1,0c0,0-0.1,0-0.1,0c0,0-0.1,0-0.1,0c0,0-0.1,0-0.1,0c0,0-0.1,0-0.1,0c0,0-0.1,0-0.1,0
				C709.6,124.9,709.5,124.9,709.5,124.9"/>
			<polyline fill="#FFFFFF" points="822.5,123.4 818.8,134.1 822.9,134.4 824.5,129.4 825.4,134.6 829.7,135 833,124.3
				829.1,123.9 827.6,128.6 826.4,123.7 822.5,123.4 					"/>
			<path fill="#FFFFFF" d="M765.4,128.4c0-0.1,0.1-0.1,0.1-0.2c0-0.1,0.1-0.1,0.1-0.2c0-0.1,0.1-0.1,0.1-0.2
				c0-0.1,0.1-0.1,0.1-0.2c0-0.1,0.1-0.2,0.1-0.2c0-0.1,0.1-0.2,0.1-0.2c0-0.1,0.1-0.2,0.1-0.3c0-0.1,0.1-0.2,0.1-0.3
				c0-0.1,0.1-0.2,0.1-0.3c0-0.1,0.1-0.2,0.2-0.3c0.1-0.1,0.1-0.2,0.2-0.3c0.1-0.1,0.1-0.2,0.2-0.3c0.1-0.1,0.1-0.2,0.2-0.3
				c0.1-0.1,0.1-0.2,0.2-0.3c0.1-0.1,0.1-0.2,0.2-0.4c0.1-0.1,0.1-0.2,0.2-0.4c0,0.1,0,0.2,0,0.3c0,0.1,0,0.2,0,0.3
				c0,0.1,0,0.2,0,0.3c0,0.1,0,0.2,0,0.3c0,0.1,0,0.2,0,0.3c0,0.1,0,0.2,0,0.3c0,0.1,0,0.2,0,0.3c0,0.1,0,0.2,0,0.3
				c0,0.1,0,0.2,0,0.3c0,0.1,0,0.2,0,0.3c0,0.1,0,0.2,0,0.3c0,0.1,0,0.2,0,0.3c0,0.1,0,0.2,0,0.3c0,0.1,0,0.2,0,0.2
				c0,0.1,0,0.2,0,0.2c0,0.1,0,0.2,0,0.2L765.4,128.4 M771.6,121.7l-6.8,0.1l-5.8,10.7l5.1-0.1l0.9-2l1.8,0l-0.3,2l5.1-0.1
				L771.6,121.7"/>
			<path fill="#FFFFFF" d="M948.2,156.6l-0.2,0c0,0,0,0-0.1,0s0,0-0.1,0c0,0,0,0-0.1,0c0,0-0.1,0-0.1,0c0,0,0,0-0.1,0
				c0,0-0.1,0-0.1,0c0,0-0.1,0-0.1,0s-0.1,0-0.1,0c0,0-0.1,0-0.1,0s-0.1,0-0.1,0c0,0-0.1,0-0.1,0s-0.1,0-0.1,0l3.1-7.7
				c0,0,0.1,0,0.1,0c0,0,0.1,0,0.1,0c0,0,0.1,0,0.1,0c0,0,0.1,0,0.1,0c0,0,0.1,0,0.1,0c0,0,0.1,0,0.1,0s0.1,0,0.1,0c0,0,0,0,0.1,0
				l0.3,0.1l0.2,0.1l0.1,0.1l0.1,0.1l0.1,0.1l0,0.1l0,0.2c0,0,0,0,0,0c0,0,0,0,0,0.1c0,0,0,0,0,0.1s0,0,0,0.1c0,0,0,0,0,0.1
				c0,0,0,0,0,0.1c0,0,0,0,0,0.1c0,0,0,0.1,0,0.1c0,0,0,0.1,0,0.1c0,0,0,0.1,0,0.1c0,0,0,0.1,0,0.1c0,0,0,0.1,0,0.1l-1.8,4.5
				c0,0.1,0,0.1-0.1,0.1c0,0,0,0.1-0.1,0.1s0,0.1-0.1,0.1c0,0,0,0.1-0.1,0.1c0,0,0,0.1-0.1,0.1c0,0,0,0.1-0.1,0.1
				c0,0,0,0.1-0.1,0.1c0,0,0,0.1-0.1,0.1c0,0,0,0.1-0.1,0.1s0,0.1-0.1,0.1c0,0,0,0,0,0.1c0,0,0,0-0.1,0.1c0,0,0,0-0.1,0.1
				c0,0,0,0,0,0c0,0,0,0,0,0c0,0,0,0,0,0l-0.1,0l-0.1,0l-0.1,0L948.2,156.6 M945.6,145.2l-4.9,11.5l6.9,2.1c0.1,0,0.2,0,0.2,0.1
				c0.1,0,0.2,0,0.2,0.1c0.1,0,0.2,0,0.2,0.1c0.1,0,0.2,0,0.2,0.1c0.1,0,0.1,0,0.2,0.1s0.1,0,0.2,0.1c0.1,0,0.1,0,0.2,0.1
				c0.1,0,0.1,0,0.2,0s0.1,0,0.2,0c0.1,0,0.1,0,0.2,0c0.1,0,0.1,0,0.2,0c0.1,0,0.1,0,0.2,0c0.1,0,0.1,0,0.2,0c0.1,0,0.1,0,0.1,0
				c0,0,0.1,0,0.1,0c0,0,0.1,0,0.1,0c0,0,0.1,0,0.1,0c0,0,0.1,0,0.1,0c0,0,0.1,0,0.1,0c0,0,0.1,0,0.1,0s0.1,0,0.1,0
				c0,0,0.1,0,0.1,0c0,0,0,0,0.1,0s0,0,0.1,0c0,0,0.1,0,0.1,0s0,0,0.1,0s0,0,0.1,0s0,0,0.1,0c0,0,0,0,0.1,0c0,0,0,0,0.1,0
				c0,0,0,0,0.1,0c0,0,0,0,0.1,0h0.2l0.2,0l0.2,0l0.2,0c0,0,0.1,0,0.1,0s0.1,0,0.1,0c0,0,0.1,0,0.1,0c0,0,0.1,0,0.1,0
				c0,0,0.1,0,0.1,0c0,0,0.1,0,0.1,0c0,0,0.1,0,0.1,0c0,0,0.1,0,0.1,0c0,0,0.1,0,0.1,0c0,0,0.1,0,0.1,0c0,0,0.1,0,0.1,0
				c0,0,0.1,0,0.1,0c0,0,0,0,0.1,0s0,0,0.1-0.1c0,0,0,0,0.1-0.1c0,0,0,0,0.1-0.1c0,0,0,0,0.1-0.1c0,0,0,0,0.1-0.1
				c0,0,0-0.1,0.1-0.1c0,0,0-0.1,0.1-0.1c0,0,0-0.1,0.1-0.1c0,0,0-0.1,0.1-0.1s0-0.1,0.1-0.1c0,0,0-0.1,0.1-0.1c0,0,0-0.1,0.1-0.1
				s0-0.1,0.1-0.1c0-0.1,0-0.1,0.1-0.2c0-0.1,0-0.1,0.1-0.2c0-0.1,0.1-0.1,0.1-0.2c0-0.1,0.1-0.1,0.1-0.2c0-0.1,0-0.1,0.1-0.2
				c0-0.1,0-0.1,0.1-0.2l1.6-4.2c0-0.1,0.1-0.1,0.1-0.2c0-0.1,0-0.1,0.1-0.2c0-0.1,0-0.1,0.1-0.2c0-0.1,0-0.1,0.1-0.2
				c0-0.1,0-0.1,0.1-0.2c0-0.1,0-0.1,0-0.2c0-0.1,0-0.1,0-0.2c0,0,0-0.1,0-0.1c0,0,0-0.1,0-0.1c0,0,0-0.1,0-0.1s0-0.1,0-0.1
				c0,0,0-0.1,0-0.1c0,0,0-0.1,0-0.1s0-0.1,0-0.1s0-0.1,0-0.1c0,0,0-0.1,0-0.1c0,0,0-0.1,0-0.1s0-0.1,0-0.1s0-0.1,0-0.1
				s0-0.1,0-0.1c0,0,0-0.1,0-0.1s0-0.1,0-0.1s0-0.1,0-0.1c0,0,0-0.1,0-0.1c0,0,0-0.1,0-0.1s0-0.1,0-0.1c0,0,0-0.1,0-0.1
				c0,0,0-0.1-0.1-0.1c0,0,0-0.1-0.1-0.1c0,0,0-0.1-0.1-0.1c0,0,0-0.1-0.1-0.1c0,0,0-0.1-0.1-0.1c0,0,0-0.1-0.1-0.1
				c0,0-0.1-0.1-0.1-0.1c0,0-0.1-0.1-0.1-0.1c0,0-0.1-0.1-0.1-0.1c0,0-0.1-0.1-0.1-0.1c0,0-0.1-0.1-0.1-0.1c0,0-0.1-0.1-0.1-0.1
				c0,0-0.1-0.1-0.1-0.1c0,0-0.1-0.1-0.1-0.1c0,0-0.1-0.1-0.1-0.1s-0.1-0.1-0.1-0.1c0,0-0.1-0.1-0.1-0.1c0,0-0.1,0-0.1-0.1
				s-0.1,0-0.1-0.1c-0.1,0-0.1,0-0.2-0.1c-0.1,0-0.1,0-0.2-0.1c-0.1,0-0.1,0-0.2-0.1c-0.1,0-0.1-0.1-0.2-0.1s-0.1-0.1-0.2-0.1
				s-0.2-0.1-0.2-0.1c-0.1,0-0.2-0.1-0.2-0.1c-0.1,0-0.2-0.1-0.3-0.1s-0.2-0.1-0.3-0.1c-0.1,0-0.2-0.1-0.3-0.1
				c-0.1,0-0.2-0.1-0.3-0.1c-0.1,0-0.2-0.1-0.4-0.1s-0.2-0.1-0.4-0.1c-0.1,0-0.3-0.1-0.4-0.1c-0.1,0-0.3-0.1-0.4-0.1
				c-0.1,0-0.3-0.1-0.4-0.1c-0.1,0-0.3-0.1-0.4-0.1c-0.2,0-0.3-0.1-0.5-0.1L945.6,145.2"/>
			<path fill="#FFFFFF" d="M885.5,138.9l-1.7-0.3c0-0.1,0.1-0.1,0.1-0.2c0-0.1,0.1-0.1,0.1-0.2c0-0.1,0.1-0.1,0.1-0.2
				c0-0.1,0.1-0.1,0.1-0.2c0-0.1,0.1-0.2,0.1-0.2c0-0.1,0.1-0.2,0.1-0.2c0-0.1,0.1-0.2,0.1-0.3c0.1-0.1,0.1-0.2,0.2-0.3
				c0.1-0.1,0.1-0.2,0.2-0.3c0.1-0.1,0.1-0.2,0.2-0.3c0.1-0.1,0.1-0.2,0.2-0.3c0.1-0.1,0.1-0.2,0.2-0.3c0.1-0.1,0.1-0.2,0.2-0.3
				c0.1-0.1,0.1-0.2,0.2-0.3c0.1-0.1,0.1-0.2,0.2-0.4c0.1-0.1,0.1-0.2,0.2-0.4c0,0.1,0,0.2-0.1,0.3c0,0.1,0,0.2-0.1,0.3
				c0,0.1,0,0.2-0.1,0.3c0,0.1,0,0.2-0.1,0.3c0,0.1,0,0.2-0.1,0.3c0,0.1,0,0.2-0.1,0.3c0,0.1,0,0.2-0.1,0.3c0,0.1,0,0.2-0.1,0.3
				c0,0.1,0,0.2-0.1,0.3c0,0.1,0,0.2-0.1,0.3c0,0.1,0,0.2-0.1,0.3c0,0.1,0,0.2,0,0.3c0,0.1,0,0.2,0,0.3c0,0.1,0,0.2,0,0.3
				c0,0.1,0,0.2,0,0.3C885.6,138.8,885.5,138.9,885.5,138.9 M883.6,131.1l-6.7,10.5l5.2,1l1.1-2l1.8,0.3l-0.5,2.1l5.2,1l0.9-11.7
				L883.6,131.1"/>
			<path fill="#FFFFFF" d="M1020.3,179.5l-2.2-0.9c0-0.1,0.1-0.1,0.1-0.2c0-0.1,0.1-0.1,0.1-0.2c0.1-0.1,0.1-0.2,0.2-0.2
				c0.1-0.1,0.1-0.2,0.2-0.2c0.1-0.1,0.1-0.2,0.2-0.3c0.1-0.1,0.1-0.2,0.2-0.3c0.1-0.1,0.1-0.2,0.2-0.3c0.1-0.1,0.1-0.2,0.2-0.3
				c0.1-0.1,0.2-0.2,0.2-0.3c0.1-0.1,0.2-0.2,0.2-0.3c0.1-0.1,0.2-0.2,0.3-0.3c0.1-0.1,0.2-0.2,0.3-0.3c0.1-0.1,0.2-0.2,0.3-0.4
				c0.1-0.1,0.2-0.2,0.3-0.4c0.1-0.1,0.2-0.2,0.3-0.4c0.1-0.1,0.2-0.3,0.3-0.4c0,0.1-0.1,0.3-0.1,0.4c0,0.1-0.1,0.3-0.1,0.4
				c0,0.1-0.1,0.3-0.1,0.4c0,0.1-0.1,0.3-0.1,0.4c0,0.1-0.1,0.3-0.1,0.4c0,0.1-0.1,0.2-0.1,0.4c0,0.1-0.1,0.2-0.1,0.4
				c0,0.1-0.1,0.2-0.1,0.4c0,0.1-0.1,0.2-0.1,0.3c0,0.1-0.1,0.2-0.1,0.3c0,0.1-0.1,0.2-0.1,0.3c0,0.1-0.1,0.2-0.1,0.3
				c0,0.1-0.1,0.2-0.1,0.3c0,0.1,0,0.2-0.1,0.3c0,0.1,0,0.2-0.1,0.3C1020.3,179.3,1020.3,179.4,1020.3,179.5 M1018.3,169.4
				l-9.1,11.1l6.5,2.7l1.5-2.2l2.3,0.9l-0.7,2.5l6.6,2.7l1.8-14.3L1018.3,169.4"/>
		</g>
		<g id="California" opacity="3.000000e-02">
			<path fill="#FFFFFF" d="M723.4,656.7c-0.1,0-0.2,0-0.3,0c-0.1,0-0.2,0-0.3,0c-0.1,0-0.2,0-0.3,0c-0.1,0-0.2,0-0.3,0.1
				c-0.2,0.1-0.5,0.1-0.7,0.2s-0.4,0.2-0.6,0.3c-0.2,0.1-0.4,0.2-0.5,0.3s-0.3,0.3-0.5,0.4c-0.2,0.1-0.3,0.3-0.4,0.4
				s-0.3,0.3-0.4,0.5c-0.1,0.2-0.2,0.3-0.3,0.5c-0.1,0.2-0.2,0.3-0.2,0.5c-0.1,0.2-0.1,0.4-0.2,0.6c-0.1,0.2-0.1,0.5-0.2,0.8
				c-0.1,0.3-0.2,0.6-0.2,0.9c-0.1,0.3-0.2,0.7-0.2,1l-1.4,6c-0.1,0.5-0.2,1-0.3,1.4c-0.1,0.4-0.1,0.9-0.2,1.3
				c0,0.4-0.1,0.7-0.1,1.1c0,0.3,0,0.6,0,0.9c0,0.3,0.1,0.5,0.1,0.8c0.1,0.3,0.2,0.5,0.3,0.7c0.1,0.2,0.2,0.5,0.4,0.7
				c0.2,0.2,0.3,0.4,0.5,0.6s0.4,0.4,0.7,0.6c0.2,0.2,0.5,0.3,0.8,0.5s0.6,0.3,0.9,0.4c0.3,0.1,0.7,0.2,1,0.3
				c0.1,0,0.3,0.1,0.4,0.1c0.1,0,0.3,0,0.4,0.1c0.1,0,0.3,0,0.4,0c0.1,0,0.3,0,0.4,0c0.2,0,0.4,0,0.6,0c0.2,0,0.4,0,0.5-0.1
				s0.3-0.1,0.5-0.1c0.2,0,0.3-0.1,0.5-0.2c0.3-0.1,0.5-0.2,0.8-0.4c0.2-0.1,0.5-0.3,0.7-0.5c0.2-0.2,0.4-0.3,0.5-0.5
				c0.2-0.2,0.3-0.4,0.4-0.6s0.2-0.5,0.4-0.7c0.1-0.3,0.2-0.6,0.4-1c0.1-0.4,0.2-0.8,0.4-1.2c0.1-0.5,0.2-0.9,0.4-1.5l0.2-0.8
				l-5-1.1l-0.6,2.6c-0.1,0.3-0.1,0.5-0.2,0.8c-0.1,0.2-0.1,0.4-0.2,0.6c-0.1,0.2-0.1,0.3-0.2,0.5c-0.1,0.1-0.1,0.2-0.1,0.3
				c0,0.1-0.1,0.1-0.1,0.1c0,0-0.1,0.1-0.1,0.1c0,0-0.1,0-0.2,0.1c-0.1,0-0.1,0-0.2,0c0,0,0,0-0.1,0c0,0,0,0-0.1,0c0,0,0,0-0.1,0
				c0,0,0,0-0.1,0c-0.1,0-0.2-0.1-0.3-0.1c-0.1,0-0.1-0.1-0.2-0.1s-0.1-0.1-0.1-0.2s-0.1-0.1-0.1-0.2c0-0.1,0-0.2,0-0.3
				c0-0.1,0-0.3,0-0.4s0.1-0.4,0.1-0.6c0-0.2,0.1-0.4,0.1-0.7l2.2-9.6c0.1-0.3,0.1-0.5,0.2-0.7c0.1-0.2,0.1-0.4,0.2-0.6
				c0.1-0.2,0.1-0.3,0.2-0.4s0.1-0.2,0.1-0.3c0-0.1,0.1-0.1,0.1-0.1c0,0,0.1-0.1,0.1-0.1c0,0,0.1,0,0.2-0.1c0.1,0,0.1,0,0.2,0
				c0,0,0,0,0.1,0c0,0,0,0,0.1,0c0,0,0,0,0.1,0c0,0,0,0,0.1,0c0.1,0,0.2,0,0.2,0.1c0.1,0,0.1,0.1,0.2,0.1c0.1,0,0.1,0.1,0.1,0.2
				c0,0.1,0.1,0.1,0.1,0.2c0,0.1,0,0.2,0,0.3c0,0.1,0,0.3,0,0.4c0,0.2-0.1,0.4-0.1,0.6c0,0.2-0.1,0.4-0.1,0.7l-0.8,3.6l5,1.1
				l0.4-2c0.1-0.5,0.2-0.9,0.3-1.3c0.1-0.4,0.1-0.8,0.2-1.2c0-0.4,0.1-0.7,0.1-1c0-0.3,0-0.6,0-0.8c0-0.2-0.1-0.5-0.1-0.7
				c-0.1-0.2-0.2-0.5-0.3-0.7s-0.2-0.4-0.4-0.7c-0.2-0.2-0.3-0.4-0.5-0.6c-0.2-0.2-0.4-0.4-0.7-0.6s-0.5-0.3-0.8-0.5
				c-0.3-0.1-0.6-0.3-0.9-0.4c-0.3-0.1-0.7-0.2-1-0.3c-0.1,0-0.3-0.1-0.4-0.1s-0.3,0-0.4-0.1c-0.1,0-0.3,0-0.4,0
				C723.7,656.7,723.5,656.7,723.4,656.7"/>
			<path fill="#FFFFFF" d="M740,675.4l-1.7-0.5c0.2-0.4,0.4-0.9,0.6-1.5c0.2-0.6,0.5-1.2,0.8-1.9c0.3-0.7,0.6-1.4,0.9-2.2
				c0.3-0.8,0.7-1.7,1.1-2.6c-0.2,0.9-0.3,1.7-0.5,2.5c-0.2,0.8-0.3,1.6-0.4,2.3c-0.1,0.7-0.3,1.4-0.4,2.1
				C740.2,674.1,740.1,674.8,740,675.4 M739.2,661l-8.3,19.6l5.1,1.5l1.3-3.6l1.8,0.5l-0.8,3.8l5,1.5l2.9-21.2L739.2,661"/>
			<polyline fill="#FFFFFF" points="754.9,666 748.1,686 755.9,688.9 757.3,684.9 754.3,683.8 759.7,667.7 754.9,666 					"/>
			<polyline fill="#FFFFFF" points="768.5,671.2 761,691 765.8,693.1 773.3,673.2 768.5,671.2 					"/>
			<polyline fill="#FFFFFF" points="779.9,676.2 771.6,695.7 776.3,698 779.8,689.8 782.7,691.2 784.2,687.5 781.3,686.1
				782.9,682.4 786.1,684 787.8,680.1 779.9,676.2 					"/>
			<path fill="#FFFFFF" d="M791.3,702.4C791.3,702.4,791.3,702.4,791.3,702.4c-0.1,0-0.1,0-0.2,0c0,0-0.1,0-0.1,0c0,0-0.1,0-0.1,0
				c-0.1,0-0.1-0.1-0.2-0.1c-0.1-0.1-0.1-0.1-0.1-0.2s-0.1-0.1-0.1-0.2c0-0.1,0-0.1,0-0.2c0-0.1,0-0.2,0.1-0.3
				c0-0.1,0.1-0.3,0.2-0.5s0.2-0.4,0.3-0.6s0.2-0.5,0.4-0.8l4.3-8.9c0.1-0.2,0.2-0.5,0.3-0.7s0.2-0.4,0.3-0.5
				c0.1-0.1,0.2-0.2,0.2-0.3c0.1-0.1,0.1-0.1,0.2-0.2c0,0,0.1,0,0.1,0s0.1,0,0.1,0c0,0,0.1,0,0.1,0c0,0,0.1,0,0.1,0
				c0,0,0.1,0,0.1,0c0,0,0.1,0,0.1,0s0.1,0,0.1,0c0,0,0.1,0,0.1,0c0.1,0,0.1,0.1,0.2,0.1s0.1,0.1,0.1,0.2c0,0.1,0.1,0.1,0.1,0.2
				c0,0.1,0,0.1,0,0.2c0,0.1,0,0.2-0.1,0.3s-0.1,0.2-0.1,0.4s-0.1,0.3-0.2,0.5s-0.2,0.4-0.3,0.6l-4.3,8.8
				c-0.1,0.3-0.3,0.5-0.4,0.8c-0.1,0.2-0.2,0.4-0.3,0.6c-0.1,0.2-0.2,0.3-0.3,0.4c-0.1,0.1-0.1,0.2-0.2,0.3c0,0-0.1,0.1-0.1,0.1
				c0,0-0.1,0.1-0.1,0.1c0,0-0.1,0-0.1,0C791.4,702.4,791.4,702.4,791.3,702.4 M795.8,684.7c-0.2,0-0.4,0-0.6,0
				c-0.2,0-0.4,0.1-0.5,0.1c-0.2,0-0.3,0.1-0.5,0.2s-0.3,0.1-0.5,0.2c-0.2,0.1-0.4,0.2-0.5,0.3s-0.3,0.3-0.5,0.4s-0.3,0.3-0.4,0.5
				c-0.1,0.2-0.3,0.3-0.4,0.5c-0.1,0.2-0.2,0.4-0.4,0.7c-0.1,0.3-0.3,0.6-0.5,0.9s-0.4,0.7-0.6,1.1c-0.2,0.4-0.4,0.8-0.7,1.3
				l-1.6,3.2c-0.2,0.5-0.5,1-0.7,1.4c-0.2,0.4-0.4,0.8-0.5,1.2c-0.2,0.4-0.3,0.7-0.4,0.9c-0.1,0.3-0.2,0.5-0.3,0.7
				c-0.1,0.2-0.1,0.4-0.2,0.6c0,0.2-0.1,0.4-0.1,0.7c0,0.2,0,0.4,0,0.7c0,0.2,0,0.5,0.1,0.7c0,0.2,0.1,0.5,0.1,0.7
				c0.1,0.2,0.1,0.4,0.2,0.7c0.1,0.2,0.2,0.4,0.3,0.6c0.1,0.2,0.3,0.4,0.4,0.6c0.1,0.2,0.3,0.4,0.5,0.6c0.2,0.2,0.3,0.3,0.5,0.5
				c0.2,0.2,0.4,0.3,0.6,0.5c0.2,0.1,0.4,0.3,0.7,0.4c0.2,0.1,0.5,0.3,0.7,0.4s0.5,0.2,0.7,0.3c0.2,0.1,0.5,0.1,0.7,0.2
				c0.2,0,0.5,0.1,0.7,0.1c0,0,0.1,0,0.1,0c0,0,0.1,0,0.1,0c0,0,0.1,0,0.1,0c0,0,0.1,0,0.1,0c0.2,0,0.4,0,0.6,0
				c0.2,0,0.4-0.1,0.5-0.1c0.2,0,0.3-0.1,0.5-0.2c0.2-0.1,0.3-0.1,0.5-0.2c0.2-0.1,0.4-0.2,0.5-0.3c0.2-0.1,0.3-0.3,0.5-0.4
				s0.3-0.3,0.4-0.5s0.3-0.3,0.4-0.5s0.3-0.4,0.4-0.7c0.1-0.3,0.3-0.6,0.5-0.9c0.2-0.3,0.4-0.7,0.6-1.1c0.2-0.4,0.4-0.9,0.7-1.3
				l1.6-3.3c0.2-0.5,0.5-0.9,0.6-1.4c0.2-0.4,0.4-0.8,0.5-1.2c0.2-0.4,0.3-0.7,0.4-0.9c0.1-0.3,0.2-0.5,0.3-0.7
				c0.1-0.2,0.1-0.4,0.2-0.6c0-0.2,0.1-0.4,0.1-0.7c0-0.2,0-0.4,0-0.7c0-0.2,0-0.5-0.1-0.7c0-0.2-0.1-0.5-0.1-0.7
				c-0.1-0.2-0.1-0.4-0.2-0.6s-0.2-0.4-0.3-0.6c-0.1-0.2-0.3-0.4-0.4-0.6c-0.1-0.2-0.3-0.4-0.5-0.5c-0.2-0.2-0.4-0.3-0.5-0.5
				c-0.2-0.2-0.4-0.3-0.6-0.5c-0.2-0.1-0.4-0.3-0.7-0.4c-0.2-0.1-0.5-0.3-0.7-0.4c-0.2-0.1-0.5-0.2-0.7-0.3s-0.5-0.1-0.7-0.2
				s-0.5-0.1-0.7-0.1c0,0-0.1,0-0.1,0c0,0-0.1,0-0.1,0c0,0-0.1,0-0.1,0C795.8,684.7,795.8,684.7,795.8,684.7"/>
			<path fill="#FFFFFF" d="M812.1,703.7c-0.1,0-0.1,0-0.2,0c-0.1,0-0.2,0-0.3-0.1c-0.1,0-0.2-0.1-0.3-0.1
				c-0.1-0.1-0.2-0.1-0.3-0.2l2.3-4.1c0.1,0.1,0.2,0.2,0.3,0.2c0.1,0.1,0.2,0.2,0.3,0.2s0.1,0.2,0.2,0.2c0,0.1,0.1,0.2,0.1,0.2
				c0,0.1,0,0.2,0,0.3c0,0.1,0,0.2,0,0.3c0,0.1-0.1,0.2-0.1,0.4c-0.1,0.1-0.1,0.3-0.2,0.4l-0.6,1c-0.1,0.2-0.2,0.4-0.3,0.5
				c-0.1,0.2-0.2,0.3-0.3,0.4c-0.1,0.1-0.2,0.2-0.3,0.2C812.3,703.6,812.2,703.6,812.1,703.7C812.1,703.7,812.1,703.7,812.1,703.7
				C812.1,703.7,812.1,703.7,812.1,703.7C812.1,703.7,812.1,703.7,812.1,703.7C812.1,703.7,812.1,703.7,812.1,703.7 M810.6,693
				l-10.3,18.5l4.5,3l4.7-8.4c0.2,0.1,0.3,0.2,0.4,0.3c0.1,0.1,0.2,0.2,0.3,0.3c0.1,0.1,0.1,0.2,0.2,0.3s0.1,0.2,0.1,0.3
				c0,0.1,0,0.2,0,0.3c0,0.1-0.1,0.3-0.2,0.4c-0.1,0.2-0.2,0.4-0.3,0.6c-0.1,0.2-0.2,0.4-0.4,0.7l-3.4,6.2l4.1,2.8l2.7-4.9
				c0.2-0.4,0.4-0.7,0.6-1c0.2-0.3,0.3-0.6,0.4-0.8c0.1-0.2,0.2-0.4,0.3-0.6s0.1-0.3,0.2-0.4c0-0.1,0-0.2,0.1-0.3
				c0-0.1,0-0.2,0-0.3s0-0.3,0-0.4s0-0.3,0-0.4c0-0.1-0.1-0.3-0.1-0.5c-0.1-0.2-0.1-0.3-0.2-0.5s-0.2-0.4-0.4-0.6
				c-0.1-0.2-0.3-0.4-0.5-0.6c0.2,0.1,0.3,0.2,0.5,0.2c0.2,0.1,0.3,0.1,0.5,0.2c0.1,0,0.3,0.1,0.4,0.1s0.3,0,0.4,0
				c0.1,0,0.1,0,0.2,0c0.1,0,0.1,0,0.2,0c0.1,0,0.1,0,0.2,0c0.1,0,0.1,0,0.2-0.1c0.2-0.1,0.3-0.2,0.5-0.3c0.2-0.1,0.3-0.3,0.5-0.5
				c0.2-0.2,0.4-0.5,0.5-0.8c0.2-0.3,0.4-0.6,0.6-1c0.2-0.4,0.4-0.8,0.6-1.1c0.2-0.4,0.3-0.7,0.4-1c0.1-0.3,0.2-0.6,0.2-0.9
				c0-0.3,0.1-0.6,0-0.8c0-0.3-0.1-0.5-0.1-0.7c-0.1-0.2-0.1-0.5-0.2-0.7c-0.1-0.2-0.2-0.4-0.3-0.6c-0.1-0.2-0.3-0.4-0.4-0.5
				c-0.2-0.2-0.4-0.4-0.6-0.6c-0.3-0.2-0.5-0.4-0.9-0.7c-0.3-0.3-0.7-0.5-1.2-0.8c-0.4-0.3-0.9-0.6-1.4-1L810.6,693"/>
			<polyline fill="#FFFFFF" points="826.7,704 815.4,721.8 819,724.6 824.2,716.4 821.2,726.3 825,729.2 836.3,711.3 832.7,708.5
				827.7,716.6 830.3,706.7 826.7,704 					"/>
			<polyline fill="#FFFFFF" points="842.3,716.2 830.1,733.5 834.3,737.1 846.5,719.7 842.3,716.2 					"/>
			<path fill="#FFFFFF" d="M848.8,740.1l-1.4-1.3c0.3-0.3,0.7-0.7,1.1-1.2c0.4-0.4,0.9-0.9,1.4-1.4c0.5-0.5,1.1-1.1,1.7-1.7
				c0.6-0.6,1.3-1.3,2-2c-0.5,0.7-1,1.5-1.4,2.1c-0.4,0.7-0.9,1.4-1.3,2c-0.4,0.6-0.8,1.2-1.1,1.8
				C849.5,739,849.1,739.6,848.8,740.1 M853.5,725.9l-15,14.8l4.2,4l2.6-2.8l1.4,1.4l-2.1,3.2l4.1,3.9l10.7-19L853.5,725.9"/>
		</g>
	</g>
	<g id="Sea_level">
		<g>
			<g>
				<rect x="1050.6" y="776.5" fill="#333333" width="1.5" height="1"/>
			</g>
			<g>
				<path fill="#333333" d="M1047.6,777.5h-3v-1h3V777.5z M1041.6,777.5h-3v-1h3V777.5z M1035.6,777.5h-3v-1h3V777.5z
					 M1029.6,777.5h-3v-1h3V777.5z M1023.6,777.5h-3v-1h3V777.5z M1017.6,777.5h-3v-1h3V777.5z M1011.5,777.5h-3v-1h3V777.5z
					 M1005.5,777.5h-3v-1h3V777.5z M999.5,777.5h-3v-1h3V777.5z M993.5,777.5h-3v-1h3V777.5z M987.5,777.5h-3v-1h3V777.5z
					 M981.5,777.5h-3v-1h3V777.5z M975.5,777.5h-3v-1h3V777.5z M969.5,777.5h-3v-1h3V777.5z M963.5,777.5h-3v-1h3V777.5z
					 M957.5,777.5h-3v-1h3V777.5z M951.5,777.5h-3v-1h3V777.5z M945.5,777.5h-3v-1h3V777.5z M939.5,777.5h-3v-1h3V777.5z
					 M933.5,777.5h-3v-1h3V777.5z M927.5,777.5h-3v-1h3V777.5z M921.4,777.5h-3v-1h3V777.5z M915.4,777.5h-3v-1h3V777.5z
					 M909.4,777.5h-3v-1h3V777.5z M903.4,777.5h-3v-1h3V777.5z M897.4,777.5h-3v-1h3V777.5z M891.4,777.5h-3v-1h3V777.5z
					 M885.4,777.5h-3v-1h3V777.5z M879.4,777.5h-3v-1h3V777.5z M873.4,777.5h-3v-1h3V777.5z M867.4,777.5h-3v-1h3V777.5z
					 M861.4,777.5h-3v-1h3V777.5z M855.4,777.5h-3v-1h3V777.5z M849.4,777.5h-3v-1h3V777.5z M843.4,777.5h-3v-1h3V777.5z
					 M837.4,777.5h-3v-1h3V777.5z M831.3,777.5h-3v-1h3V777.5z M825.3,777.5h-3v-1h3V777.5z M819.3,777.5h-3v-1h3V777.5z
					 M813.3,777.5h-3v-1h3V777.5z M807.3,777.5h-3v-1h3V777.5z M801.3,777.5h-3v-1h3V777.5z M795.3,777.5h-3v-1h3V777.5z
					 M789.3,777.5h-3v-1h3V777.5z M783.3,777.5h-3v-1h3V777.5z M777.3,777.5h-3v-1h3V777.5z M771.3,777.5h-3v-1h3V777.5z
					 M765.3,777.5h-3v-1h3V777.5z M759.3,777.5h-3v-1h3V777.5z M753.3,777.5h-3v-1h3V777.5z M747.2,777.5h-3v-1h3V777.5z
					 M741.2,777.5h-3v-1h3V777.5z M735.2,777.5h-3v-1h3V777.5z M729.2,777.5h-3v-1h3V777.5z M723.2,777.5h-3v-1h3V777.5z
					 M717.2,777.5h-3v-1h3V777.5z M711.2,777.5h-3v-1h3V777.5z M705.2,777.5h-3v-1h3V777.5z M699.2,777.5h-3v-1h3V777.5z
					 M693.2,777.5h-3v-1h3V777.5z M687.2,777.5h-3v-1h3V777.5z M681.2,777.5h-3v-1h3V777.5z M675.2,777.5h-3v-1h3V777.5z
					 M669.2,777.5h-3v-1h3V777.5z M663.2,777.5h-3v-1h3V777.5z M657.1,777.5h-3v-1h3V777.5z M651.1,777.5h-3v-1h3V777.5z
					 M645.1,777.5h-3v-1h3V777.5z M639.1,777.5h-3v-1h3V777.5z M633.1,777.5h-3v-1h3V777.5z M627.1,777.5h-3v-1h3V777.5z
					 M621.1,777.5h-3v-1h3V777.5z M615.1,777.5h-3v-1h3V777.5z M609.1,777.5h-3v-1h3V777.5z M603.1,777.5h-3v-1h3V777.5z
					 M597.1,777.5h-3v-1h3V777.5z M591.1,777.5h-3v-1h3V777.5z M585.1,777.5h-3v-1h3V777.5z M579.1,777.5h-3v-1h3V777.5z
					 M573,777.5h-3v-1h3V777.5z M567,777.5h-3v-1h3V777.5z M561,777.5h-3v-1h3V777.5z M555,777.5h-3v-1h3V777.5z M549,777.5h-3v-1
					h3V777.5z M543,777.5h-3v-1h3V777.5z M537,777.5h-3v-1h3V777.5z M531,777.5h-3v-1h3V777.5z M525,777.5h-3v-1h3V777.5z
					 M519,777.5h-3v-1h3V777.5z M513,777.5h-3v-1h3V777.5z M507,777.5h-3v-1h3V777.5z M501,777.5h-3v-1h3V777.5z M495,777.5h-3v-1
					h3V777.5z M489,777.5h-3v-1h3V777.5z M482.9,777.5h-3v-1h3V777.5z M476.9,777.5h-3v-1h3V777.5z M470.9,777.5h-3v-1h3V777.5z
					 M464.9,777.5h-3v-1h3V777.5z M458.9,777.5h-3v-1h3V777.5z M452.9,777.5h-3v-1h3V777.5z M446.9,777.5h-3v-1h3V777.5z
					 M440.9,777.5h-3v-1h3V777.5z M434.9,777.5h-3v-1h3V777.5z M428.9,777.5h-3v-1h3V777.5z M422.9,777.5h-3v-1h3V777.5z
					 M416.9,777.5h-3v-1h3V777.5z M410.9,777.5h-3v-1h3V777.5z M404.9,777.5h-3v-1h3V777.5z M398.8,777.5h-3v-1h3V777.5z
					 M392.8,777.5h-3v-1h3V777.5z M386.8,777.5h-3v-1h3V777.5z M380.8,777.5h-3v-1h3V777.5z M374.8,777.5h-3v-1h3V777.5z
					 M368.8,777.5h-3v-1h3V777.5z M362.8,777.5h-3v-1h3V777.5z M356.8,777.5h-3v-1h3V777.5z M350.8,777.5h-3v-1h3V777.5z
					 M344.8,777.5h-3v-1h3V777.5z M338.8,777.5h-3v-1h3V777.5z M332.8,777.5h-3v-1h3V777.5z M326.8,777.5h-3v-1h3V777.5z
					 M320.8,777.5h-3v-1h3V777.5z M314.8,777.5h-3v-1h3V777.5z M308.7,777.5h-3v-1h3V777.5z M302.7,777.5h-3v-1h3V777.5z
					 M296.7,777.5h-3v-1h3V777.5z M290.7,777.5h-3v-1h3V777.5z M284.7,777.5h-3v-1h3V777.5z M278.7,777.5h-3v-1h3V777.5z
					 M272.7,777.5h-3v-1h3V777.5z M266.7,777.5h-3v-1h3V777.5z M260.7,777.5h-3v-1h3V777.5z M254.7,777.5h-3v-1h3V777.5z
					 M248.7,777.5h-3v-1h3V777.5z M242.7,777.5h-3v-1h3V777.5z M236.7,777.5h-3v-1h3V777.5z M230.7,777.5h-3v-1h3V777.5z
					 M224.6,777.5h-3v-1h3V777.5z M218.6,777.5h-3v-1h3V777.5z M212.6,777.5h-3v-1h3V777.5z M206.6,777.5h-3v-1h3V777.5z
					 M200.6,777.5h-3v-1h3V777.5z M194.6,777.5h-3v-1h3V777.5z M188.6,777.5h-3v-1h3V777.5z M182.6,777.5h-3v-1h3V777.5z
					 M176.6,777.5h-3v-1h3V777.5z M170.6,777.5h-3v-1h3V777.5z M164.6,777.5h-3v-1h3V777.5z M158.6,777.5h-3v-1h3V777.5z
					 M152.6,777.5h-3v-1h3V777.5z M146.6,777.5h-3v-1h3V777.5z M140.5,777.5h-3v-1h3V777.5z M134.5,777.5h-3v-1h3V777.5z
					 M128.5,777.5h-3v-1h3V777.5z M122.5,777.5h-3v-1h3V777.5z M116.5,777.5h-3v-1h3V777.5z M110.5,777.5h-3v-1h3V777.5z
					 M104.5,777.5h-3v-1h3V777.5z M98.5,777.5h-3v-1h3V777.5z"/>
			</g>
			<g>
				<rect x="91" y="776.5" fill="#333333" width="1.5" height="1"/>
			</g>
		</g>
		<g>
			<path fill="#333333" d="M18,775.7l1.2-1.6c0.7,0.7,1.8,1.4,3.2,1.4c1.2,0,1.7-0.5,1.7-1.1c0-1.8-5.8-0.6-5.8-4.3
				c0-1.7,1.4-3,3.8-3c1.6,0,2.9,0.5,3.9,1.4l-1.2,1.6c-0.8-0.7-1.9-1.1-2.9-1.1c-0.9,0-1.4,0.4-1.4,1c0,1.6,5.7,0.5,5.7,4.3
				c0,1.8-1.3,3.2-4,3.2C20.3,777.3,18.9,776.6,18,775.7z"/>
			<path fill="#333333" d="M27.1,773.5c0-2.1,1.5-3.8,3.8-3.8c2.2,0,3.6,1.6,3.6,4v0.4h-5.4c0.1,0.9,0.9,1.7,2.1,1.7
				c0.6,0,1.5-0.3,1.9-0.7l0.8,1.2c-0.7,0.7-1.9,1-3,1C28.8,777.3,27.1,775.8,27.1,773.5z M30.9,771.2c-1.2,0-1.7,0.9-1.8,1.6h3.6
				C32.6,772.1,32.2,771.2,30.9,771.2z"/>
			<path fill="#333333" d="M40.3,777.1v-0.8c-0.5,0.6-1.4,0.9-2.3,0.9c-1.2,0-2.5-0.8-2.5-2.4c0-1.7,1.4-2.3,2.5-2.3
				c1,0,1.8,0.3,2.3,0.9v-1c0-0.7-0.6-1.2-1.6-1.2c-0.8,0-1.5,0.3-2.1,0.9l-0.7-1.3c0.9-0.8,2-1.1,3.2-1.1c1.6,0,3.2,0.7,3.2,2.7
				v4.7H40.3z M40.3,775.4v-0.9c-0.3-0.4-0.9-0.6-1.5-0.6c-0.8,0-1.4,0.4-1.4,1.1c0,0.7,0.6,1.1,1.4,1.1
				C39.3,776,39.9,775.8,40.3,775.4z"/>
			<path fill="#333333" d="M47.9,777.1v-10h1.9v10H47.9z"/>
			<path fill="#333333" d="M51.2,773.5c0-2.1,1.5-3.8,3.8-3.8c2.2,0,3.6,1.6,3.6,4v0.4h-5.4c0.1,0.9,0.9,1.7,2.1,1.7
				c0.6,0,1.5-0.3,1.9-0.7l0.8,1.2c-0.7,0.7-1.9,1-3,1C52.9,777.3,51.2,775.8,51.2,773.5z M55,771.2c-1.2,0-1.7,0.9-1.8,1.6h3.6
				C56.7,772.1,56.2,771.2,55,771.2z"/>
			<path fill="#333333" d="M61.9,777.1l-2.9-7.2h2l1.9,5l1.9-5h2.1l-2.9,7.2H61.9z"/>
			<path fill="#333333" d="M67.2,773.5c0-2.1,1.5-3.8,3.8-3.8c2.2,0,3.6,1.6,3.6,4v0.4h-5.4c0.1,0.9,0.9,1.7,2.1,1.7
				c0.6,0,1.5-0.3,1.9-0.7l0.8,1.2c-0.7,0.7-1.9,1-3,1C68.9,777.3,67.2,775.8,67.2,773.5z M71,771.2c-1.2,0-1.7,0.9-1.8,1.6h3.6
				C72.7,772.1,72.2,771.2,71,771.2z"/>
			<path fill="#333333" d="M76,777.1v-10h1.9v10H76z"/>
		</g>
	</g>
	<g id="Vancouver">
		<g opacity="0.5">
			<path d="M778.4,165.6l-2.9,21.7H767l-3.3-21.7h6c0.7,6,1.2,11,1.5,15.2c0.3-4.2,0.6-7.9,0.9-11.1l0.4-4H778.4z"/>
			<path d="M788.8,165.6l3.2,21.7h-5.8l-0.3-3.9h-2l-0.3,3.9h-5.8l2.9-21.7H788.8z M785.8,179.5c-0.3-2.5-0.6-5.5-0.9-9.1
				c-0.6,4.2-0.9,7.2-1.1,9.1H785.8z"/>
			<path d="M805.6,165.6v21.7h-4.9l-2.9-9.9v9.9h-4.7v-21.7h4.7l3.2,9.8v-9.8H805.6z"/>
			<path d="M821,175h-5.6v-3.8c0-1.1-0.1-1.8-0.2-2.1c-0.1-0.3-0.4-0.4-0.8-0.4c-0.5,0-0.8,0.2-0.9,0.5c-0.1,0.3-0.2,1-0.2,2.1
				v10.1c0,1.1,0.1,1.7,0.2,2.1c0.1,0.3,0.4,0.5,0.8,0.5c0.4,0,0.7-0.2,0.8-0.5c0.1-0.3,0.2-1.1,0.2-2.3v-2.7h5.6v0.8
				c0,2.2-0.2,3.8-0.5,4.8c-0.3,0.9-1,1.8-2.1,2.5c-1.1,0.7-2.4,1.1-4,1.1c-1.7,0-3-0.3-4.1-0.9c-1.1-0.6-1.8-1.4-2.1-2.5
				c-0.3-1.1-0.5-2.7-0.5-4.8v-6.3c0-1.6,0.1-2.7,0.2-3.5c0.1-0.8,0.4-1.5,1-2.3c0.5-0.7,1.3-1.3,2.2-1.7c0.9-0.4,2-0.6,3.3-0.6
				c1.7,0,3,0.3,4.1,1c1.1,0.6,1.8,1.4,2.1,2.4c0.3,1,0.5,2.5,0.5,4.5V175z"/>
			<path d="M835.9,178.3c0,2.2-0.1,3.7-0.2,4.6c-0.1,0.9-0.4,1.7-1,2.5c-0.5,0.8-1.3,1.3-2.2,1.7c-0.9,0.4-2,0.6-3.2,0.6
				c-1.2,0-2.2-0.2-3.1-0.6c-0.9-0.4-1.7-1-2.2-1.7c-0.6-0.8-0.9-1.6-1-2.5c-0.1-0.9-0.2-2.5-0.2-4.7v-3.7c0-2.2,0.1-3.7,0.2-4.6
				c0.1-0.9,0.4-1.7,1-2.5c0.5-0.8,1.3-1.3,2.2-1.7c0.9-0.4,2-0.6,3.2-0.6c1.2,0,2.2,0.2,3.1,0.6c0.9,0.4,1.7,0.9,2.2,1.7
				c0.6,0.8,0.9,1.6,1,2.5c0.1,0.9,0.2,2.5,0.2,4.7V178.3z M830.3,171.1c0-1-0.1-1.7-0.2-1.9c-0.1-0.3-0.3-0.4-0.7-0.4
				c-0.3,0-0.5,0.1-0.7,0.3c-0.2,0.2-0.2,0.9-0.2,2v10.1c0,1.3,0.1,2,0.2,2.3c0.1,0.3,0.3,0.4,0.7,0.4c0.4,0,0.6-0.2,0.7-0.5
				c0.1-0.3,0.2-1.1,0.2-2.4V171.1z"/>
			<path d="M850.9,165.6v14.5c0,1.6-0.1,2.8-0.2,3.5c-0.1,0.7-0.4,1.3-1,2.1c-0.5,0.7-1.2,1.2-2.1,1.6c-0.9,0.4-1.9,0.5-3,0.5
				c-1.3,0-2.4-0.2-3.4-0.6c-1-0.4-1.7-1-2.2-1.7c-0.5-0.7-0.8-1.4-0.9-2.2c-0.1-0.8-0.1-2.4-0.1-4.8v-12.8h5.6v16.3
				c0,0.9,0.1,1.6,0.2,1.8c0.1,0.3,0.3,0.4,0.6,0.4c0.4,0,0.6-0.1,0.7-0.4s0.2-1,0.2-2.1v-16H850.9z"/>
			<path d="M866.5,165.6l-2.9,21.7H855l-3.3-21.7h6c0.7,6,1.2,11,1.5,15.2c0.3-4.2,0.6-7.9,0.9-11.1l0.4-4H866.5z"/>
			<path d="M867.4,165.6h9.4v4.3h-3.8v4.1h3.5v4.1h-3.5v4.8h4.1v4.3h-9.8V165.6z"/>
			<path d="M878.8,165.6h4c2.7,0,4.5,0.1,5.4,0.3c0.9,0.2,1.7,0.7,2.3,1.6c0.6,0.8,0.9,2.2,0.9,4c0,1.7-0.2,2.8-0.6,3.4
				c-0.4,0.6-1.2,0.9-2.5,1c1.1,0.3,1.9,0.6,2.3,1.1c0.4,0.5,0.6,0.9,0.7,1.3c0.1,0.4,0.1,1.5,0.1,3.2v5.7h-5.2v-7.2
				c0-1.2-0.1-1.9-0.3-2.2c-0.2-0.3-0.7-0.4-1.4-0.4v9.8h-5.6V165.6z M884.5,169.3v4.8c0.6,0,1.1-0.1,1.3-0.3
				c0.3-0.2,0.4-0.7,0.4-1.7v-1.2c0-0.7-0.1-1.1-0.4-1.4C885.6,169.4,885.1,169.3,884.5,169.3z"/>
		</g>
		<g id="Lights_2_">
			<radialGradient id="SVGID_1_" cx="751.1576" cy="196.7253" r="27.5551" gradientUnits="userSpaceOnUse">
				<stop  offset="0" style="stop-color:#FFC900"/>
				<stop  offset="1" style="stop-color:#FFAF00;stop-opacity:0"/>
			</radialGradient>
			<path fill="url(#SVGID_1_)" d="M751.3,196.4l0-1.3l1.5-1.2h1.5l0.3-0.3l0.4,2l1.1,0.3l0.1,0.6H751.3 M750.4,195.5l-1.5-1.3l0-2
				h4.8l0.5,0.4l-0.4,0.5h-1.4l-2,1.7L750.4,195.5 M748.3,191.3l-1.5-1.4l0.1-3.4l1-0.9l-1.4-1.3l0.9-1.4l2.5,0l1.1,0.9l-0.1,3.5
				h2l2.4,1.4l1.1-0.9l0.9,0.7l2.6,0.4l0.1,0.1H757l-2.2,2.7l-0.6-0.6H748.3 M743.6,165.9l-2.8,5.4l0.4,1.5l0.6,5l-1.7,2.6
				l1.4,1.6l4.9,0.9l-1.1,1.7l1.3,1.1l-0.7,0.6l-0.1,4.1l2.1,1.9l-0.1,2.3l2.4,2.1l0,1.1l-2.3,2l0.6,0.6l2.6-2.2l0-0.8h5.3
				l2.4,0.3l2.9,3.2l0.6,1.7l5,4.4l1.9,2l-0.1,4l2.9,1.5l0,4.2h0.9l0.1-4.7l-2.9-1.5l0-3.9l-2.2-2.3l-4.9-4.3l-0.5-1.6l-3.2-3.6
				l-2.5-0.3l-0.2-1.3l-1.1-0.3l-0.4-2.3l2.2-2.6h2.7l0.4,1h0.5l13.5,5.7l6.7,3.6h5.3l3.4-2.3l2.1-2.9l2.6-1.1h2.8l0-0.8h-3
				l-3,1.3l-2.1,2.9l-3,2.1h-4.8l-6.5-3.5l-13.7-5.7l-0.2,0l-0.8-1.9l-2.8-0.4l-1.3-1.1l-1.1,0.9l-2-1.2h-1.3l0.1-3l-1.6-1.4h-3.1
				l-5.1-1l-0.9-1l1.6-2.3l-0.6-5.3l-0.4-1.3l2.6-5.1L743.6,165.9"/>
			<radialGradient id="SVGID_2_" cx="753.9266" cy="193.2185" r="51.7243" gradientUnits="userSpaceOnUse">
				<stop  offset="0" style="stop-color:#FFC900"/>
				<stop  offset="1" style="stop-color:#FFAF00;stop-opacity:0"/>
			</radialGradient>
			<circle opacity="0.12" fill="url(#SVGID_2_)" cx="755.3" cy="192.6" r="56.9"/>
		</g>
	</g>
	<g id="Seattle">
		<g opacity="0.7">
			<path d="M821.5,267.5h-6.4v-2c0-0.9-0.1-1.5-0.2-1.8c-0.2-0.3-0.4-0.4-0.8-0.4c-0.4,0-0.7,0.2-0.9,0.5
				c-0.2,0.3-0.3,0.9-0.3,1.5c0,0.9,0.1,1.6,0.4,2c0.2,0.4,0.9,1,1.9,1.6c3.1,1.8,5,3.3,5.8,4.5c0.8,1.2,1.2,3.1,1.2,5.6
				c0,1.9-0.2,3.3-0.7,4.2c-0.4,0.9-1.3,1.6-2.6,2.3c-1.3,0.6-2.7,0.9-4.4,0.9c-1.8,0-3.4-0.3-4.7-1c-1.3-0.7-2.2-1.6-2.6-2.7
				c-0.4-1.1-0.6-2.6-0.6-4.6v-1.7h6.4v3.2c0,1,0.1,1.6,0.3,1.9c0.2,0.3,0.5,0.4,1,0.4c0.5,0,0.8-0.2,1-0.5
				c0.2-0.4,0.3-0.9,0.3-1.6c0-1.6-0.2-2.6-0.6-3.1c-0.4-0.5-1.5-1.3-3.2-2.4c-1.7-1.1-2.9-2-3.4-2.5c-0.6-0.5-1-1.2-1.4-2.1
				c-0.4-0.9-0.5-2.1-0.5-3.5c0-2,0.3-3.5,0.8-4.5c0.5-0.9,1.4-1.7,2.5-2.2c1.2-0.5,2.6-0.8,4.2-0.8c1.8,0,3.3,0.3,4.6,0.9
				c1.3,0.6,2.1,1.3,2.5,2.2c0.4,0.9,0.6,2.4,0.6,4.5V267.5z"/>
			<path d="M824.2,259.5h11.5v5.3h-4.6v5h4.3v5h-4.3v5.8h5.1v5.3h-12V259.5z"/>
			<path d="M850.1,259.5L854,286h-7l-0.4-4.8h-2.5l-0.4,4.8h-7.1l3.5-26.5H850.1z M846.4,276.6c-0.3-3-0.7-6.7-1.1-11.1
				c-0.7,5.1-1.1,8.8-1.3,11.1H846.4z"/>
			<path d="M867.2,259.5v5.3h-4.1V286h-6.9v-21.2h-4.1v-5.3H867.2z"/>
			<path d="M882.7,259.5v5.3h-4.1V286h-6.9v-21.2h-4.1v-5.3H882.7z"/>
			<path d="M891.2,259.5v21.2h4.2v5.3h-11.1v-26.5H891.2z"/>
			<path d="M897,259.5h11.5v5.3h-4.6v5h4.3v5h-4.3v5.8h5.1v5.3h-12V259.5z"/>
		</g>
		<g id="Lights_1_">
			<radialGradient id="SVGID_3_" cx="773.707" cy="278.0208" r="29.9959" gradientUnits="userSpaceOnUse">
				<stop  offset="0" style="stop-color:#FFC900"/>
				<stop  offset="1" style="stop-color:#FFAF00;stop-opacity:0"/>
			</radialGradient>
			<path fill="url(#SVGID_3_)" d="M772.1,305.2l0.6-3.7h5.4l1.8-3.6h0.9l-0.5,1.7l0,3.7l-1.6,2H772.1 M780,297l0.1-5.7l1.1-1
				l0-1.5l0.9-0.2l0,3.1l-1.1,1l0,4.3l0,0.1H780 M782,297l0-4l1.1-1l0-3.7l0.6-0.2l0-4.4l1.1-1.5l1.5,0l4.1,2.4h2.6l3.4,1.4
				l-0.2,1.2l-2.2,1l-0.9,1.5l-3.2,1.5l-0.8,1.4l-3.1,1.9l-2,2.7H782 M781.2,287.9l0-1.2l-2.4-3.8l0-1.4h2.8l2.2,0.6l-1,1.4l0,4
				L781.2,287.9 M781.8,279l1.2-0.5l1.1,0.7l0,2.1l-2.2-0.6l-3.2,0l-0.2-0.5l0-1.6L781.8,279 M781.7,278.1l-3.3-0.5l0-5.7l0.7-2.5
				l1.7-1.3l2.5,2.1l0,4l0.8,0.8l0,3l-1-0.6L781.7,278.1 M784.3,271.2l0-1.3l-2.9-2.4l0.8-2.3l2.1-3l-0.2-2l0.3-0.6l3.6,1.5l0.3,2
				l1.5,0.9l1.1,1.4l0.9,0.4l-1.5,1.5h-1l-0.7,1h-1.4l-0.6,1H786l-1,2H784.3 M778.6,239.8l-0.8,0.4l5.6,8.3l0.7,9.5l-1,1.9l0.2,2
				l-2,2.9l-0.9,2.5l-2.2,1.7l-0.8,2.8l-0.1,8.4l0.4,1l0,2l2.4,3.8l0,3l-1.1,1l0,6.4l-1.6,3.3h-5.6l-0.7,4.8l-3.7,2.8l-5.4,2.2
				l0.4,0.8l5.4-2.2l3.9-2.9h7.3l1.8-2.3h2.1l1.2,1.7l6.3,0.6l2.4-2.2l2.1,0.7l0.3-0.8l-2.7-0.8l-2.5,2.3l-5.3-0.5l-1.2-1.7h-2.4
				l0-3.2l0.6-1.9h2.8l2.1-2.9l3.2-2l0.7-1.4l3.2-1.5l0.9-1.5l2.3-1.1l0.3-1.6l1.3-0.2l2.6,2l2.7,0.8l0.7,1.2h1.6l0.9,0.7l0.6-0.7
				l-1.2-0.9h-1.4l-0.6-1.1l-2.8-0.7l-2.9-2.3l-1.9,0.3l-3.6-1.5l-2.7,0l-4.1-2.4H785l0-2.2l1.5-0.4l1.6-2.8l16.3-3.9l-0.3-0.8
				l-16.7,4l-1.6,2.8l-0.8,0.2l0-3.5l-0.8-0.8l0-1.9h1.4l1-2h0.7l0.6-1h1.4l0.7-1h0.9l2-2l5.3,0.7l2.9-0.7l2.9,0.3l0.1-0.9
				l-3.1-0.3l-2.8,0.7l-5.2-0.7l-1.2-0.6l-1-1.3l-1.4-0.9l-0.4-2.1l-4.1-1.6l0.3-0.6l-0.8-9.9L778.6,239.8"/>
			<radialGradient id="SVGID_4_" cx="782.8395" cy="280.7844" r="57.3964" gradientUnits="userSpaceOnUse">
				<stop  offset="0" style="stop-color:#FFC900"/>
				<stop  offset="1" style="stop-color:#FFAF00;stop-opacity:0"/>
			</radialGradient>
			<circle opacity="0.12" fill="url(#SVGID_4_)" cx="784.4" cy="280.1" r="63.2"/>
		</g>
	</g>
	<g id="Portland">
		<g opacity="0.9">
			<path d="M774.4,359.4h8.1c2.2,0,3.9,0.2,5,0.5c1.2,0.3,2.1,0.8,2.6,1.5c0.6,0.6,1,1.4,1.2,2.4c0.2,0.9,0.3,2.3,0.3,4.3v2.7
				c0,2-0.2,3.4-0.6,4.3c-0.4,0.9-1.2,1.6-2.2,2.1c-1.1,0.5-2.5,0.7-4.3,0.7h-2.2v12.4h-8V359.4z M782.4,364.6v7.8
				c0.2,0,0.4,0,0.6,0c0.7,0,1.2-0.2,1.5-0.5c0.3-0.4,0.4-1.1,0.4-2.3v-2.5c0-1.1-0.2-1.7-0.5-2.1
				C784.1,364.8,783.4,364.6,782.4,364.6z"/>
			<path d="M812.3,377.4c0,3.1-0.1,5.3-0.2,6.6c-0.1,1.3-0.6,2.5-1.4,3.5c-0.8,1.1-1.8,1.9-3.1,2.5c-1.3,0.6-2.8,0.9-4.6,0.9
				c-1.7,0-3.1-0.3-4.4-0.8c-1.3-0.5-2.4-1.4-3.2-2.4c-0.8-1.1-1.3-2.3-1.4-3.5c-0.2-1.3-0.2-3.5-0.2-6.7v-5.3
				c0-3.1,0.1-5.3,0.2-6.6c0.1-1.3,0.6-2.5,1.4-3.5c0.8-1.1,1.8-1.9,3.1-2.5c1.3-0.6,2.8-0.9,4.6-0.9c1.7,0,3.1,0.3,4.4,0.8
				c1.3,0.5,2.4,1.3,3.2,2.4c0.8,1.1,1.3,2.3,1.4,3.5s0.2,3.5,0.2,6.7V377.4z M804.3,367.3c0-1.4-0.1-2.4-0.2-2.8
				c-0.2-0.4-0.5-0.6-1-0.6c-0.4,0-0.7,0.2-1,0.5c-0.2,0.3-0.3,1.3-0.3,2.9v14.4c0,1.8,0.1,2.9,0.2,3.3c0.1,0.4,0.5,0.6,1,0.6
				c0.5,0,0.9-0.2,1-0.7c0.2-0.5,0.2-1.6,0.2-3.4V367.3z"/>
			<path d="M815.3,359.4h5.7c3.8,0,6.3,0.1,7.7,0.4c1.3,0.3,2.4,1,3.3,2.2c0.8,1.2,1.3,3.1,1.3,5.7c0,2.4-0.3,4-0.9,4.8
				c-0.6,0.8-1.8,1.3-3.5,1.5c1.6,0.4,2.7,0.9,3.2,1.6s0.9,1.3,1,1.8c0.1,0.6,0.2,2.1,0.2,4.6v8.1h-7.4v-10.2
				c0-1.7-0.1-2.7-0.4-3.1c-0.3-0.4-0.9-0.6-2-0.6v13.9h-8V359.4z M823.3,364.6v6.9c0.9,0,1.5-0.1,1.9-0.4c0.4-0.2,0.5-1,0.5-2.4
				V367c0-1-0.2-1.6-0.5-1.9C824.8,364.8,824.2,364.6,823.3,364.6z"/>
			<path d="M852.4,359.4v6.2h-4.8v24.7h-8v-24.7h-4.7v-6.2H852.4z"/>
			<path d="M862.3,359.4V384h4.9v6.2h-12.9v-30.8H862.3z"/>
			<path d="M883.9,359.4l4.6,30.8h-8.2l-0.4-5.5H877l-0.5,5.5h-8.3l4.1-30.8H883.9z M879.7,379.2c-0.4-3.5-0.8-7.8-1.2-13
				c-0.8,5.9-1.3,10.2-1.5,13H879.7z"/>
			<path d="M907.8,359.4v30.8h-7l-4.2-14v14h-6.7v-30.8h6.7l4.5,13.9v-13.9H907.8z"/>
			<path d="M911,359.4h6c3.9,0,6.5,0.2,7.9,0.5c1.4,0.4,2.4,0.9,3.1,1.8c0.7,0.8,1.2,1.7,1.3,2.7c0.2,1,0.3,3,0.3,5.9V381
				c0,2.8-0.1,4.6-0.4,5.6c-0.3,0.9-0.7,1.7-1.4,2.2c-0.6,0.5-1.4,0.9-2.4,1.1c-1,0.2-2.4,0.3-4.3,0.3H911V359.4z M919,364.6v20.3
				c1.2,0,1.9-0.2,2.1-0.7c0.3-0.5,0.4-1.7,0.4-3.8v-12c0-1.4,0-2.3-0.1-2.7c-0.1-0.4-0.3-0.7-0.6-0.9
				C920.5,364.7,919.9,364.6,919,364.6z"/>
		</g>
		<g id="Lights">
			<radialGradient id="SVGID_5_" cx="771.6962" cy="404.9409" r="32.8063" gradientUnits="userSpaceOnUse">
				<stop  offset="0" style="stop-color:#FFC900"/>
				<stop  offset="1" style="stop-color:#FFAF00;stop-opacity:0"/>
			</radialGradient>
			<path fill="url(#SVGID_5_)" d="M767.2,413.7l-1.9-4.8l0.1-2.6l2.6,0.1l-0.6,7.2L767.2,413.7 M759.8,409.6l-1.6-1.6l0.4-2.4
				l4.1-0.6l-0.3,2.8L759.8,409.6 M764.7,415.3l-1.4-0.9l-3.6-0.1l0.4-3.7l3.2-2.2l0.4-3.5l0.6-0.1l-0.1,4.3l2,5.2L764.7,415.3
				 M768.1,405.4l-2.7-0.1l0-0.7l2.8-0.4L768.1,405.4 M763.8,403.9l-0.2-5l0.7-1.2l0.6-6l2.5,2.7l1.6,5.1l-0.2,2.9l-0.4,0.9
				L763.8,403.9 M753.8,370.4l-0.9,0.3l3.6,10.3l-3.4,6.5l0.4,6.6l6.6,8l2.7,1.6l0,0.3l-4.5,0.7l-17-9.3l-0.5,0.8l16.9,9.2
				l-0.5,2.9l0.7,0.7l-1.1,3.5l-4.6,4.7l-4.2,1.2l-4.4,4.7l0.7,0.7l4.2-4.5l4.2-1.2l4.9-5.1l1-3.2l0.5,0.5l-1.2,10.1l-9.6,13.7
				l-2,4.8l1,0.4l1.9-4.7l9.6-13.8l0.1-0.1l0.7-5.7l3.3,0.1l1.1,0.8l-0.4,1.1l-0.1,2.7l-4.2,3.1l-7.7,9.9l0.8,0.6l7.5-9.7l4.6-3.4
				l0-2.9l0.4-1.2l3.2-2.1l0.7-7.7l7.4,0.3l1.8,3.3l6.7,4.3l4,0.5l1.8-0.8l4.2,0.4l7.1,4.5l0.6-0.8l-7.3-4.6l-4.8-0.4l-1.8,0.8
				l-3.5-0.4l-6.3-4.1l-2-3.6l-7.9-0.4l0.1-1.7l0.4-0.8l17.1,0.2l6.3-3.7l6.7-2.3l-0.3-0.9l-6.7,2.3l-6.2,3.6l-16.6-0.1l0.2-2.6
				l-1.6-5.3l-3.4-3.7l-3-9.7l-5.9-7.9l-0.8,0.6l5.8,7.7l2.9,9.7l-0.6,6.7l-0.8,1.4l0.1,3.9l-1.9-1.1l-6.3-7.7l-0.4-6l3.4-6.7
				L753.8,370.4"/>
			<radialGradient id="SVGID_6_" cx="764.2264" cy="406.324" r="60.8008" gradientUnits="userSpaceOnUse">
				<stop  offset="0" style="stop-color:#FFC900"/>
				<stop  offset="1" style="stop-color:#FFAF00;stop-opacity:0"/>
			</radialGradient>
			<circle opacity="0.12" fill="url(#SVGID_6_)" cx="765.8" cy="405.6" r="66.9"/>
		</g>
	</g>

		<radialGradient id="Dawn_1_" cx="524.0467" cy="49.806" r="534.6247" gradientTransform="matrix(1 0 0 0.4785 0 25.9749)" gradientUnits="userSpaceOnUse">
		<stop  offset="0" style="stop-color:#FF7A00;stop-opacity:0.9"/>
		<stop  offset="1" style="stop-color:#FF6100;stop-opacity:0"/>
	</radialGradient>
	<rect id="Dawn" x="0" y="40.3" fill="url(#Dawn_1_)" width="1052.1" height="303"/>
	<g id="Layer_10">
		<radialGradient id="SVGID_7_" cx="526.0468" cy="76.6088" r="499.4203" gradientUnits="userSpaceOnUse">
			<stop  offset="0" style="stop-color:#FF9A00"/>
			<stop  offset="0.6211" style="stop-color:#DD560C"/>
			<stop  offset="1" style="stop-color:#CA3112"/>
		</radialGradient>
		<path fill="url(#SVGID_7_)" d="M1052.1,0H0l0,125.9C171.5,99,347.2,85,526.2,85c178.9,0,354.5,14,525.9,40.8L1052.1,0z"/>
	</g>
	<g id="Logo">
		<linearGradient id="SVGID_8_" gradientUnits="userSpaceOnUse" x1="468.0995" y1="56.6886" x2="468.0995" y2="106.5791">
			<stop  offset="0" style="stop-color:#410000"/>
			<stop  offset="0.1746" style="stop-color:#5F1503"/>
			<stop  offset="0.7434" style="stop-color:#BC550E"/>
			<stop  offset="1" style="stop-color:#E16E12"/>
		</linearGradient>
		<polygon fill="url(#SVGID_8_)" points="464.1,35.2 466.3,35.2 466.3,46.4 469.9,46.4 469.9,35.2 472.1,35.2 472.1,32.4
			464.1,32.4 				"/>
		<linearGradient id="SVGID_9_" gradientUnits="userSpaceOnUse" x1="477.08" y1="56.6886" x2="477.08" y2="106.5791">
			<stop  offset="0" style="stop-color:#410000"/>
			<stop  offset="0.1746" style="stop-color:#5F1503"/>
			<stop  offset="0.7434" style="stop-color:#BC550E"/>
			<stop  offset="1" style="stop-color:#E16E12"/>
		</linearGradient>
		<polygon fill="url(#SVGID_9_)" points="477.6,37.4 476.5,37.4 476.5,32.4 472.9,32.4 472.9,46.4 476.5,46.4 476.5,40.5
			477.6,40.5 477.6,46.4 481.3,46.4 481.3,32.4 477.6,32.4 				"/>
		<linearGradient id="SVGID_10_" gradientUnits="userSpaceOnUse" x1="485.8705" y1="56.6886" x2="485.8705" y2="106.5791">
			<stop  offset="0" style="stop-color:#410000"/>
			<stop  offset="0.1746" style="stop-color:#5F1503"/>
			<stop  offset="0.7434" style="stop-color:#BC550E"/>
			<stop  offset="1" style="stop-color:#E16E12"/>
		</linearGradient>
		<polygon fill="url(#SVGID_10_)" points="486.4,40.5 488.6,40.5 488.6,37.9 486.4,37.9 486.4,35.2 488.8,35.2 488.8,32.4
			482.7,32.4 482.7,46.4 489,46.4 489,43.6 486.4,43.6 				"/>
		<linearGradient id="SVGID_11_" gradientUnits="userSpaceOnUse" x1="499.7067" y1="56.6886" x2="499.7067" y2="106.5791">
			<stop  offset="0" style="stop-color:#410000"/>
			<stop  offset="0.1746" style="stop-color:#5F1503"/>
			<stop  offset="0.7434" style="stop-color:#BC550E"/>
			<stop  offset="1" style="stop-color:#E16E12"/>
		</linearGradient>
		<path fill="url(#SVGID_11_)" d="M507.6,29.1c0.6-0.8,0.9-2.4,0.9-4.8c0-2.6-0.4-4.5-1.2-5.6c-0.8-1.2-1.9-1.9-3.2-2.2
			c-1.3-0.3-3.8-0.4-7.5-0.4h-5.6v30.3h7.9V32.7c1.1,0,1.8,0.2,2,0.6c0.3,0.4,0.4,1.4,0.4,3v10.1h7.3v-8c0-2.4-0.1-3.9-0.2-4.5
			c-0.1-0.5-0.5-1.1-1-1.8c-0.5-0.6-1.6-1.2-3.1-1.6C505.9,30.4,507,29.9,507.6,29.1z M501.2,25.3c0,1.3-0.2,2.1-0.5,2.4
			s-1,0.4-1.9,0.4v-6.7c0.9,0,1.5,0.1,1.9,0.4c0.3,0.3,0.5,0.9,0.5,1.9V25.3z"/>
		<linearGradient id="SVGID_12_" gradientUnits="userSpaceOnUse" x1="518.3785" y1="56.6886" x2="518.3785" y2="106.5791">
			<stop  offset="0" style="stop-color:#410000"/>
			<stop  offset="0.1746" style="stop-color:#5F1503"/>
			<stop  offset="0.7434" style="stop-color:#BC550E"/>
			<stop  offset="1" style="stop-color:#E16E12"/>
		</linearGradient>
		<polygon fill="url(#SVGID_12_)" points="519.4,33.7 524.3,33.7 524.3,27.9 519.4,27.9 519.4,22.2 524.7,22.2 524.7,16.1
			511.5,16.1 511.5,46.4 525.2,46.4 525.2,40.3 519.4,40.3 				"/>
		<linearGradient id="SVGID_13_" gradientUnits="userSpaceOnUse" x1="535.6378" y1="56.6886" x2="535.6378" y2="106.5791">
			<stop  offset="0" style="stop-color:#410000"/>
			<stop  offset="0.1746" style="stop-color:#5F1503"/>
			<stop  offset="0.7434" style="stop-color:#BC550E"/>
			<stop  offset="1" style="stop-color:#E16E12"/>
		</linearGradient>
		<path fill="url(#SVGID_13_)" d="M537.5,46.4h8l-4.5-30.3h-11.4l-4,30.3h8.1l0.5-5.4h2.8L537.5,46.4z M534.2,35.6
			c0.2-2.7,0.7-6.9,1.5-12.7c0.4,5.1,0.8,9.3,1.2,12.7H534.2z"/>
		<linearGradient id="SVGID_14_" gradientUnits="userSpaceOnUse" x1="553.2619" y1="56.6886" x2="553.2619" y2="106.5791">
			<stop  offset="0" style="stop-color:#410000"/>
			<stop  offset="0.1746" style="stop-color:#5F1503"/>
			<stop  offset="0.7434" style="stop-color:#BC550E"/>
			<stop  offset="1" style="stop-color:#E16E12"/>
		</linearGradient>
		<polygon fill="url(#SVGID_14_)" points="559.6,40.3 554.8,40.3 554.8,16.1 546.9,16.1 546.9,46.4 559.6,46.4 				"/>
		<linearGradient id="SVGID_15_" gradientUnits="userSpaceOnUse" x1="567.8364" y1="56.6886" x2="567.8364" y2="106.5791">
			<stop  offset="0" style="stop-color:#410000"/>
			<stop  offset="0.1746" style="stop-color:#5F1503"/>
			<stop  offset="0.7434" style="stop-color:#BC550E"/>
			<stop  offset="1" style="stop-color:#E16E12"/>
		</linearGradient>
		<polygon fill="url(#SVGID_15_)" points="569.4,16.1 561.5,16.1 561.5,46.4 574.2,46.4 574.2,40.3 569.4,40.3 				"/>
		<linearGradient id="SVGID_16_" gradientUnits="userSpaceOnUse" x1="581.0826" y1="56.6886" x2="581.0826" y2="106.5791">
			<stop  offset="0" style="stop-color:#410000"/>
			<stop  offset="0.1746" style="stop-color:#5F1503"/>
			<stop  offset="0.7434" style="stop-color:#BC550E"/>
			<stop  offset="1" style="stop-color:#E16E12"/>
		</linearGradient>
		<path fill="url(#SVGID_16_)" d="M580.9,28c-0.1-2-0.8-6-1.9-11.9h-7.2l5.5,19.3v11h7.3v-11l5.7-19.3h-7.2
			C582.1,20.8,581.4,24.8,580.9,28z"/>
		<linearGradient id="SVGID_17_" gradientUnits="userSpaceOnUse" x1="478.0673" y1="56.6886" x2="478.0673" y2="106.5791">
			<stop  offset="0" style="stop-color:#410000"/>
			<stop  offset="0.1746" style="stop-color:#5F1503"/>
			<stop  offset="0.7434" style="stop-color:#BC550E"/>
			<stop  offset="1" style="stop-color:#E16E12"/>
		</linearGradient>
		<path fill="url(#SVGID_17_)" d="M490.1,75.9c0-2.6-0.4-4.5-1.3-5.7c-0.8-1.2-2.5-2.1-4.8-2.7c2.1-0.5,3.6-1.2,4.3-2.1
			c0.7-0.9,1.1-2.5,1.1-4.8c0-3.4-0.5-5.9-1.5-7.4c-1-1.5-2.4-2.6-4-3.1c-1.7-0.5-4.1-0.8-7.4-0.8h-10.3v36.3
			c7.7-0.1,15.4-0.2,23.2-0.3c0.5-1.3,0.8-3.2,0.8-5.7V75.9z M479.8,78.4c0,1.6-0.2,2.6-0.6,3c-0.4,0.4-1.3,0.6-2.8,0.7V71
			c1.5,0,2.5,0.3,2.8,0.6c0.4,0.4,0.5,1.4,0.5,3.1V78.4z M479.3,64c-0.3,0.5-0.9,0.7-1.9,0.7c-0.2,0-0.6,0-1,0V56
			c1.1,0,1.8,0.1,2.1,0.2c0.4,0.1,0.7,0.4,0.9,0.9c0.2,0.5,0.3,1.4,0.3,2.6C479.8,62.1,479.6,63.5,479.3,64z"/>
		<linearGradient id="SVGID_18_" gradientUnits="userSpaceOnUse" x1="498.9" y1="56.6886" x2="498.9" y2="106.5791">
			<stop  offset="0" style="stop-color:#410000"/>
			<stop  offset="0.1746" style="stop-color:#5F1503"/>
			<stop  offset="0.7434" style="stop-color:#BC550E"/>
			<stop  offset="1" style="stop-color:#E16E12"/>
		</linearGradient>
		<path fill="url(#SVGID_18_)" d="M493.7,49.2v35.9c3.4,0,6.9-0.1,10.3-0.1V49.2H493.7z"/>
		<linearGradient id="SVGID_19_" gradientUnits="userSpaceOnUse" x1="519.8552" y1="56.6886" x2="519.8552" y2="106.5791">
			<stop  offset="0" style="stop-color:#410000"/>
			<stop  offset="0.1746" style="stop-color:#5F1503"/>
			<stop  offset="0.7434" style="stop-color:#BC550E"/>
			<stop  offset="1" style="stop-color:#E16E12"/>
		</linearGradient>
		<path fill="url(#SVGID_19_)" d="M519.8,67.6v6h2.1v4.7c0,1.8-0.1,3.1-0.4,3.7s-0.8,1-1.5,1c-0.7,0-1.1-0.3-1.4-0.8
			c-0.2-0.6-0.3-1.7-0.3-3.5v-19c0-2,0.1-3.3,0.3-3.8c0.2-0.5,0.7-0.7,1.3-0.7c0.7,0,1.2,0.3,1.4,0.9c0.2,0.6,0.3,2,0.3,4.3v3.6
			h10.3v-1.7c0-3.2-0.3-5.7-0.9-7.4c-0.6-1.7-1.9-3.2-3.9-4.4c-2-1.2-4.5-1.9-7.5-1.9c-3.1,0-5.6,0.7-7.5,2.1
			c-1.9,1.4-3.1,3-3.5,4.7c-0.4,1.7-0.6,4.5-0.6,8.2v11.8c0,2.7,0.1,4.8,0.3,6.1c0.2,1.3,0.6,2.5,1.3,3.7c5.6,0,11.1,0,16.7,0
			c1.9,0,3.7,0,5.6,0V67.6H519.8z"/>
		<linearGradient id="SVGID_20_" gradientUnits="userSpaceOnUse" x1="543.808" y1="56.6886" x2="543.808" y2="106.5791">
			<stop  offset="0" style="stop-color:#410000"/>
			<stop  offset="0.1746" style="stop-color:#5F1503"/>
			<stop  offset="0.7434" style="stop-color:#BC550E"/>
			<stop  offset="1" style="stop-color:#E16E12"/>
		</linearGradient>
		<path fill="url(#SVGID_20_)" d="M551,52.3c-0.8-1-1.8-1.8-3-2.3c-1.2-0.5-2.6-0.8-4.2-0.8c-1.6,0-3.1,0.3-4.3,0.8
			c-1.2,0.5-2.2,1.3-2.9,2.3c-0.7,1-1.2,2.1-1.3,3.3c-0.1,1.2-0.2,3.3-0.2,6.2v5c0,3,0.1,5.1,0.2,6.3c0.1,1.2,0.6,2.3,1.3,3.3
			c0.8,1,1.8,1.8,3,2.3c1.2,0.5,2.6,0.8,4.2,0.8c1.6,0,3.1-0.3,4.3-0.8c1.2-0.5,2.2-1.3,2.9-2.3c0.7-1,1.2-2.1,1.3-3.3
			c0.1-1.2,0.2-3.3,0.2-6.2v-5c0-3-0.1-5.1-0.2-6.3C552.2,54.4,551.8,53.3,551,52.3z M545,70.7c0,1.7-0.1,2.8-0.2,3.3
			c-0.1,0.5-0.5,0.7-1,0.7c-0.5,0-0.8-0.2-1-0.6c-0.1-0.4-0.2-1.4-0.2-3.1V57.3c0-1.5,0.1-2.4,0.3-2.7c0.2-0.3,0.5-0.5,0.9-0.5
			c0.5,0,0.8,0.2,0.9,0.6c0.2,0.4,0.2,1.2,0.2,2.6V70.7z"/>
		<linearGradient id="SVGID_21_" gradientUnits="userSpaceOnUse" x1="563.8484" y1="56.6886" x2="563.8484" y2="106.5791">
			<stop  offset="0" style="stop-color:#410000"/>
			<stop  offset="0.1746" style="stop-color:#5F1503"/>
			<stop  offset="0.7434" style="stop-color:#BC550E"/>
			<stop  offset="1" style="stop-color:#E16E12"/>
		</linearGradient>
		<polygon fill="url(#SVGID_21_)" points="566,62.9 561.7,49.8 555.4,49.8 555.4,79 561.7,79 561.7,65.7 565.7,79 572.3,79
			572.3,49.8 566,49.8 				"/>
		<linearGradient id="SVGID_22_" gradientUnits="userSpaceOnUse" x1="581.9101" y1="56.6886" x2="581.9101" y2="106.5791">
			<stop  offset="0" style="stop-color:#410000"/>
			<stop  offset="0.1746" style="stop-color:#5F1503"/>
			<stop  offset="0.7434" style="stop-color:#BC550E"/>
			<stop  offset="1" style="stop-color:#E16E12"/>
		</linearGradient>
		<polygon fill="url(#SVGID_22_)" points="582.9,66.7 587.6,66.7 587.6,61.2 582.9,61.2 582.9,55.7 588,55.7 588,49.8 575.3,49.8
			575.3,79 588.5,79 588.5,73.1 582.9,73.1 				"/>
	</g>
	<linearGradient id="Edge_1_" gradientUnits="userSpaceOnUse" x1="27.8605" y1="105.4375" x2="1030.6902" y2="105.4375">
		<stop  offset="0" style="stop-color:#FF9512;stop-opacity:0.1"/>
		<stop  offset="0.5034" style="stop-color:#FF9D12"/>
		<stop  offset="1" style="stop-color:#FF9512;stop-opacity:0.1"/>
	</linearGradient>
	<path id="Edge" fill="url(#Edge_1_)" d="M0.3,127.9l-0.6-4C172.7,96.8,349.8,83,526.2,83c176.3,0,353.3,13.8,526.2,40.9l-0.6,4
		C879.1,100.7,702.3,87,526.2,87C350,87,173.1,100.8,0.3,127.9z"/>
</svg>
