<?xml version="1.0" encoding="utf-8"?>
<!-- Generator: Adobe Illustrator 19.1.0, SVG Export Plug-In . SVG Version: 6.00 Build 0)  -->
<!DOCTYPE svg PUBLIC "-//W3C//DTD SVG 1.1//EN" "http://www.w3.org/Graphics/SVG/1.1/DTD/svg11.dtd">
<svg version="1.1" id="Layer_1" xmlns="http://www.w3.org/2000/svg" xmlns:xlink="http://www.w3.org/1999/xlink" x="0px" y="0px"
	 width="601px" height="70px" viewBox="251 16 601 70" style="enable-background:new 251 16 601 70;" xml:space="preserve">
<style type="text/css">
	.st0{fill:#FFFFFF;}
</style>
<polygon class="st0" points="307.6,19.5 316.6,19.5 316.6,44.8 339.3,44.8 339.3,19.5 346,19.5 346,81.7 339.3,81.7 339.3,48.3 
	316.6,48.3 316.6,81.7 307.6,81.7 "/>
<polygon class="st0" points="406.3,19.7 413.9,19.7 445.7,60.1 445.7,19.7 450.5,19.7 450.5,82.6 411.2,31.9 411.2,81.8 406.2,81.8 
	"/>
<path class="st0" d="M458.9,19.7h22.7l3.2,7.2c0,0-3.8-3.8-10.9-3.8c-5,0-5.5,0-5.5,0V45c0,0,4.5,0,9.2,0c4.7,0,5.4-0.5,7.2-2.3v9.2
	c0,0-2-3.1-7.2-3.1s-9.2,0-9.2,0v28.8c0,0,10.3,0,12.8,0c12.4,0,18.8-5.2,18.8-5.2l-4.6,9.4l-36.6,0L458.9,19.7z"/>
<path class="st0" d="M774.2,19.7h25.2l3.2,7.2c0,0-3.6-3.8-11.4-3.8c-5,0-8.3,0-8.3,0V45c0,0,5.4,0,10,0c3.7,0,4.8-0.3,6.2-1.7v7.4
	c0,0-1-2.2-6.2-2.2c-5.2,0-10,0-10,0v29.2c0,0,3.6,0,6.1,0c10.9,0,15.2-3.3,15.2-3.3l-5.5,7.5l-24.5,0L774.2,19.7z"/>
<path class="st0" d="M354.6,19.6h25.2l3.2,7.2c0,0-3.6-3.8-11.4-3.8c-5,0-8.3,0-8.3,0v21.9c0,0,5.4,0,10,0c3.7,0,4.8-0.3,6.2-1.7
	v7.4c0,0-1-2.2-6.2-2.2c-5.2,0-10,0-10,0v29.2c0,0,3.6,0,6.1,0c10.9,0,15.2-3.3,15.2-3.3l-5.5,7.5l-24.5,0L354.6,19.6z"/>
<g>
	<g>
		<path class="st0" d="M298.8,19.7h-16.4h-24.9l-3.4,7.7c0,0,3.7-3.8,12-3.8c5.5,0,5.6,0,7.4,0l0,58.1l8.8,0l0-58.1c0,0,2.4,0,7.7,0
			c8.3,0,12,3.8,12,3.8L298.8,19.7z"/>
	</g>
</g>
<polygon class="st0" points="487.7,19.7 497.2,19.7 517.9,65.2 522.2,55.7 506.4,19.7 515.6,19.7 527.1,44 538.1,19.7 542.7,19.7 
	529.7,50.6 536.3,65.2 556.4,19.7 562,19.7 534.3,82.3 524.7,62 515.4,82.4 "/>
<path class="st0" d="M648.4,17.5c21.4,0,34.4,15.1,34.4,31.9c0,21.6-11.7,35.3-33.9,35.3c-22.2,0-35.4-16.7-35.4-33.4
	C613.5,32.5,627.5,17.5,648.4,17.5z M622.7,49.9c0,14.6,8.2,30.5,26.8,30.5c17.2,0,24-14.1,24-30.1c0-12.8-8.7-29.1-25.6-29.1
	C636.2,21.2,622.7,30.5,622.7,49.9z"/>
<path class="st0" d="M690.2,19.7c0,0,8.8,0,14.6,0c7.7,0,14.1,4.4,14.1,12.7c0,9.7-7.1,12.2-12,13.8c8.8,1.5,12.1,5.7,12.1,17.6
	c0,11.9,3,16.2,5.7,16.2c2.1,0,3.7-1.4,4.3-2.3l1.2,0.8c-0.4,0.6-2.8,4.4-8.5,4.4c-5.7,0-10-5.2-10-17.6c0-17.8-4.8-18.2-8.7-18.2
	v-1.3c0.1,0,8.2-1.8,8.2-11.8c0-9.4-5.7-10.9-8-10.9c-0.7,0-4.2,0-4.2,0v58.8h-9L690.2,19.7z"/>
<path class="st0" d="M808.2,19.7c0,0,8.8,0,14.6,0c7.7,0,14.1,4.4,14.1,12.7c0,9.7-7.1,12.2-12,13.8c8.8,1.5,12.1,5.7,12.1,17.6
	c0,11.9,3,16.2,5.7,16.2c2.1,0,3.7-1.4,4.3-2.3l1.2,0.8c-0.4,0.6-2.8,4.4-8.5,4.4c-5.7,0-10-5.2-10-17.6c0-17.8-4.8-18.2-8.7-18.2
	v-1.3c0.1,0,8.2-1.8,8.2-11.8c0-9.4-5.7-10.9-8-10.9c-0.7,0-4.2,0-4.2,0v58.8h-9L808.2,19.7z"/>
<path class="st0" d="M759.5,63.7c0,11.8,3,16.2,5.7,16.2c2.1,0,3.7-1.4,4.3-2.3l1.2,0.8c-0.4,0.6-2.8,4.4-8.5,4.4
	c-5.7,0-10-5.2-10-17.6v-2.5c0-7.4-0.4-13.1-1.6-16.8c-1-2.9-4.6-5.1-6.1-5.1l-1.9,0v41h-9l0.1-62.2h8.9V38l16.3-18.3h5.8
	l-17.2,19.3c8.8,1.5,11.9,8.1,11.9,22.3V63.7L759.5,63.7z"/>
<polygon class="st0" points="600.7,81.8 600.7,49.7 618,19.7 612.4,19.7 596,48.2 579.5,19.7 574,19.7 591.3,49.7 591.3,81.8 "/>
</svg>
