<?xml version="1.0" encoding="utf-8"?>
<!-- Generator: Adobe Illustrator 19.1.0, SVG Export Plug-In . SVG Version: 6.00 Build 0)  -->
<!DOCTYPE svg PUBLIC "-//W3C//DTD SVG 1.1//EN" "http://www.w3.org/Graphics/SVG/1.1/DTD/svg11.dtd">
<svg version="1.1" id="Layer_1" xmlns="http://www.w3.org/2000/svg" xmlns:xlink="http://www.w3.org/1999/xlink" x="0px" y="0px"
	 width="220px" height="132.6px" viewBox="0 0 220 132.6" style="enable-background:new 0 0 220 132.6;" xml:space="preserve">
<style type="text/css">
	.st0{fill:#FAFAFA;}
</style>
<g>
	<polygon class="st0" points="4,50 12,50 12,27 16,27 16,22 0,22 0,27 4,27 	"/>
	<polygon class="st0" points="25,38 27,38 27,50 35,50 35,22 27,22 27,32 25,32 25,22 18,22 18,50 25,50 	"/>
	<polygon class="st0" points="51,45 45,45 45,38 50,38 50,33 45,33 45,27 50,27 50,22 38,22 38,50 51,50 	"/>
	<path class="st0" d="M67,27.4c2,0,2.9,0.3,3.4,1c0.4,0.6,0.6,2.3,0.6,5V50h12V36.9c0-4.1,0-6.6-0.2-7.5s-0.7-1.9-1.6-3
		c-0.9-1.1-2.6-1.9-5.2-2.6c2.9-0.3,4.8-1.1,5.8-2.4c1-1.4,1.5-4,1.5-7.9c0-4.3-0.7-7.5-2.1-9.4c-1.4-2-3.2-3-5.4-3.5
		C73.6,0.1,69.4,0,63.2,0H54v50h13V27.4z M67,8.3c2,0,2.6,0.2,3.1,0.8c0.6,0.5,0.9,1.6,0.9,3.2V15c0,2.2-0.3,3.5-0.9,4
		S69,19.5,67,19.5V8.3z"/>
	<polygon class="st0" points="111,40 102,40 102,29 110,29 110,19 102,19 102,10 110,10 110,0 88,0 88,50 111,50 	"/>
	<path class="st0" d="M131.8,50h13.4l-7.5-50h-19L112,50h13.6l0.8-9h4.7L131.8,50z M126.2,32c0.3-4,1.2-11.6,2.5-21.2
		c0.7,8.4,1.3,15.2,2,21.2H126.2z"/>
	<polygon class="st0" points="169,40 161,40 161,0 147,0 147,50 169,50 	"/>
	<polygon class="st0" points="185,0 172,0 172,50 193,50 193,40 185,40 	"/>
	<path class="st0" d="M198,50h12V31.9L220,0h-12.1c-1.7,8-2.9,14.5-3.7,19.9C204,16.5,203,10,201.1,0H189l9,31.9V50z"/>
	<path class="st0" d="M13,83.7L32.8,68L22.7,83.7l9.5,10L46,80.5c0.1-1.1,0.2-2.2,0.2-3.5c0-6.5-1-11.3-2.9-14.2
		c-2-2.9-4.5-5.1-7.7-6.1c-3.2-1-7.9-1.7-14.1-1.7H2v76l23.9-31L13,83.7z"/>
	<path class="st0" d="M2,131h22.6c7.9,0,13.1-0.4,15.7-1.4c2.6-0.9,4.6-2.6,5.8-5c1.2-2.5,1.9-6.2,1.9-11.3v-7c0-4.9-1-8.6-2.6-10.9
		c-0.2-0.3-0.5-0.6-0.7-0.9L2,131L2,131z"/>
	<polygon class="st0" points="52,88.4 52,131 71,131 71,81.9 63.5,78.2 	"/>
	<polygon class="st0" points="71,68.9 71,55 52,55 52,75.2 62.4,64.9 	"/>
	<path class="st0" d="M120.2,69.7c-0.3-1.4-0.6-2.7-1-3.8c-1.2-3.3-3.6-6.1-7.4-8.4c-3.8-2.4-8.6-3.5-14.3-3.5
		c-5.8,0-10.6,1.4-14.3,4.1c-3.7,2.7-5.9,5.7-6.7,9c-0.3,1.1-0.5,2.5-0.7,4.1l29.8,13.4L120.2,69.7z"/>
	<path class="st0" d="M106.8,125.6l-19.7-22.3l9.3-9.5L75,83.8v21.3c0,5.2,0.4,9.1,0.7,11.7c0.4,2.6,1.4,5.1,2.9,7.4
		c1.5,2.4,3.7,4.3,6.6,5.9c2.9,1.6,6,2.4,9.3,2.4c2.8,0,5.2-0.6,7.2-1.7C103.8,129.7,105.5,127.9,106.8,125.6l1.8,5.4H121V90.5V86
		l-22.3,17.6L106.8,125.6z"/>
	<path class="st0" d="M154.4,60.8c-1.3-1.8-3-3.1-5.2-4c-2.2-0.9-4.6-1.3-7.3-1.3c-2.9,0-5.4,0.5-7.5,1.4c-2.1,0.9-3.8,2.3-5.1,4
		c-1.3,1.8-1.8,3.7-2.1,5.8c-0.2,2.1-0.2,5.7-0.2,10.8v8.7c0,5.2,0,8.9,0.2,10.9c0.2,2.1,1,4,2.3,5.8c1.3,1.8,3,3.1,5.2,4
		s4.6,1.3,7.3,1.3c2.9,0,5.3-0.5,7.5-1.4c2.1-0.9,3.8-2.3,5.1-4c1.3-1.8,2-3.7,2.2-5.8c0.2-2.1,0.3-5.7,0.3-10.8v-8.7
		c0-5.2-0.1-8.9-0.3-10.9C156.4,64.5,155.7,62.6,154.4,60.8z M144,92.8c0,3-0.1,4.9-0.4,5.7c-0.2,0.8-0.8,1.2-1.7,1.2
		c-0.9,0-1.4-0.3-1.6-1c-0.2-0.7-0.3-2.5-0.3-5.4V69.5c0-2.6,0.1-4.2,0.5-4.7c0.4-0.5,0.8-0.8,1.5-0.8c0.8,0,1.3,0.3,1.6,1
		c0.3,0.7,0.4,2.2,0.4,4.5V92.8z"/>
	<polygon class="st0" points="180,79.3 173,57 162,57 162,107 173,107 173,84.1 179.9,107 191,107 191,57 180,57 	"/>
	<polygon class="st0" points="210,86 218,86 218,76 210,76 210,67 219,67 219,57 197,57 197,107 219,107 219,97 210,97 	"/>
	<polygon class="st0" points="1.9,131 1.9,131 1.9,131 	"/>
</g>
</svg>
