<?xml version="1.0" encoding="utf-8"?>
<!-- Generator: Adobe Illustrator 19.1.0, SVG Export Plug-In . SVG Version: 6.00 Build 0)  -->
<!DOCTYPE svg PUBLIC "-//W3C//DTD SVG 1.1//EN" "http://www.w3.org/Graphics/SVG/1.1/DTD/svg11.dtd">
<svg version="1.1" xmlns="http://www.w3.org/2000/svg" xmlns:xlink="http://www.w3.org/1999/xlink" x="0px" y="0px" width="720px"
	 height="4709px" viewBox="0 0 720 169" style="enable-background:new 0 0 720 169;" xml:space="preserve">
<style type="text/css">
	.st48{fill:#FFC900;}
	.st57{opacity:0.23;fill:none;stroke:#350000;stroke-miterlimit:10;}
</style>

<g id="Salem_lights">
	<g id="Lights_3_" opacity="1">
		<g>
			<path class="st48" d="M552.7,67v-4.4h1.3c0.6,0,1-0.1,1.2-0.2s0.3-0.3,0.3-0.6c0-0.3-0.1-0.5-0.3-0.6c-0.2-0.1-0.6-0.2-1.1-0.2
				c-0.6,0-1.1,0.1-1.4,0.2c-0.3,0.2-0.7,0.6-1.1,1.3c-1.2,2.1-2.3,3.4-3.1,4c-0.8,0.5-2.1,0.8-3.9,0.8c-1.3,0-2.2-0.2-2.9-0.5
				c-0.6-0.3-1.1-0.9-1.5-1.8c-0.4-0.9-0.6-1.9-0.6-3c0-1.3,0.2-2.3,0.7-3.2s1.1-1.5,1.8-1.8c0.7-0.3,1.8-0.4,3.2-0.4h1.2v4.4h-2.2
				c-0.7,0-1.1,0.1-1.3,0.2c-0.2,0.1-0.3,0.3-0.3,0.7s0.1,0.5,0.4,0.7c0.2,0.2,0.6,0.2,1.1,0.2c1.1,0,1.8-0.1,2.1-0.4
				c0.3-0.3,0.9-1,1.7-2.2c0.8-1.2,1.3-2,1.7-2.3c0.4-0.4,0.8-0.7,1.5-0.9s1.4-0.4,2.4-0.4c1.4,0,2.4,0.2,3.1,0.5s1.1,0.9,1.5,1.7
				s0.5,1.8,0.5,2.9c0,1.2-0.2,2.3-0.6,3.1c-0.4,0.9-0.9,1.4-1.5,1.7c-0.6,0.3-1.6,0.4-3.1,0.4H552.7z"/>
			<path class="st48" d="M558.2,77L540,79.7v-4.8l3.3-0.3v-1.7l-3.3-0.3v-4.9l18.2,2.4V77z M546.5,74.5c2.1-0.2,4.6-0.5,7.6-0.7
				c-3.5-0.5-6-0.8-7.6-0.9V74.5z"/>
			<path class="st48" d="M558.2,85.2h-14.5v2.9H540v-7.6h18.2V85.2z"/>
			<path class="st48" d="M558.2,89.3v7.9h-3.6V94h-3.4v3h-3.5v-3h-4v3.5H540v-8.2H558.2z"/>
			<path class="st48" d="M558.2,113.4H540v-4.1l12.3,0l-12.3-1.6v-2.9l12-1.7l-12,0v-4.1h18.2v6.1c-1.1,0.2-2.4,0.4-3.9,0.6
				l-4.6,0.7l8.5,1.1V113.4z"/>
		</g>

			<radialGradient id="SVGID_2_" cx="549.5839" cy="-597.9731" r="57.5839" gradientTransform="matrix(1 0 0 1.4635 0 959.437)" gradientUnits="userSpaceOnUse">
			<stop  offset="0" style="stop-color:#FFC900"/>
			<stop  offset="1" style="stop-color:#FFAF00;stop-opacity:0"/>
		</radialGradient>
		<ellipse style="opacity:0.15;fill:url(#SVGID_2_);" cx="549.6" cy="84.3" rx="57.6" ry="84.3"/>

    <animate id="animation1" attributeName="opacity"
      from="1"
      to="1"
      begin="indefinite"
      dur="1.5"
      repeatCount="1"
      fill="freeze"
      values="1;1;1;1;1;1;0.5;1;1;0;1;0;0;0;0;0;0;0;0;0;0;0;0;0;0;0"
      />
	</g>
	<g id="Cracks_3_">
		<polyline class="st57" points="521,21">

      <animate id="animation2" attributeName="points"
        from="521,21"
        to="521,21"
        begin="indefinite"
        dur="0.5"
        repeatCount="1"
        fill="freeze"
        values="521,21;
                521,21 519,24;
                521,21 519,24 521,26;
                521,21 519,24 521,26 516,35;
                521,21 519,24 521,26 516,35 518,39;
                521,21 519,24 521,26 516,35 518,39 517,49;
                521,21 519,24 521,26 516,35 518,39 517,49 523,51;
                521,21 519,24 521,26 516,35 518,39 517,49 523,51 525,59;
                521,21 519,24 521,26 516,35 518,39 517,49 523,51 525,59 528,58;
                521,21 519,24 521,26 516,35 518,39 517,49 523,51 525,59 528,58 532,74;
                521,21 519,24 521,26 516,35 518,39 517,49 523,51 525,59 528,58 532,74 537,77"
      />
    </polyline>
		<polyline class="st57" points="560,91">

      <animate id="animation3" attributeName="points"
        from="560,91"
        to="560,91"
        begin="indefinite"
        dur="0.5"
        repeatCount="1"
        fill="freeze"
        values="560,91;
                560,91 564,92;
                560,91 564,92 564,98;
                560,91 564,92 564,98 571,109;
                560,91 564,92 564,98 571,109 569,114;
                560,91 564,92 564,98 571,109 569,114 580,123;
                560,91 564,92 564,98 571,109 569,114 580,123 579,128;
                560,91 564,92 564,98 571,109 569,114 580,123 579,128 585,133;
                560,91 564,92 564,98 571,109 569,114 580,123 579,128 585,133 589,147"
      />
    </polyline>
	</g>
</g>
</svg>
