<?xml version="1.0" encoding="utf-8"?>
<!-- Generator: Adobe Illustrator 19.1.0, SVG Export Plug-In . SVG Version: 6.00 Build 0)  -->
<!DOCTYPE svg PUBLIC "-//W3C//DTD SVG 1.1//EN" "http://www.w3.org/Graphics/SVG/1.1/DTD/svg11.dtd">
<svg version="1.1" xmlns="http://www.w3.org/2000/svg" xmlns:xlink="http://www.w3.org/1999/xlink" x="0px" y="0px" width="720px"
	 height="169px" viewBox="0 0 720 169" style="enable-background:new 0 0 720 169;" xml:space="preserve">
   <script type="text/ecmascript" xlink:href="/assets/javascripts/vendor/smil.user.js"></script>
<style type="text/css">
	.st48{fill:#FFC900;}
	.st58{opacity:0.3;fill:none;stroke:#4A1B00;stroke-miterlimit:10;}
</style>
<g id="Eugene_lights">
	<polyline id="Crack" class="st58" points="530,9">

    <animate id="animation1" attributeName="points"
      from="530,9"
      to="530,9"
      begin="indefinite"
      dur="1"
      repeatCount="1"
      fill="freeze"
      values="530,9;
              530,9 532,12;
              530,9 532,12 530,15;
              530,9 532,12 530,15 532,20;
              530,9 532,12 530,15 532,20 523,31;
              530,9 532,12 530,15 532,20 523,31 525,35;
              530,9 532,12 530,15 532,20 523,31 525,35 522,39;
              530,9 532,12 530,15 532,20 523,31 525,35 522,39 525,43;
              530,9 532,12 530,15 532,20 523,31 525,35 522,39 525,43 517,65;
              530,9 532,12 530,15 532,20 523,31 525,35 522,39 525,43 517,65 519,67;
              530,9 532,12 530,15 532,20 523,31 525,35 522,39 525,43 517,65 519,67 516,81;
              530,9 532,12 530,15 532,20 523,31 525,35 522,39 525,43 517,65 519,67 516,81 519,87;
              530,9 532,12 530,15 532,20 523,31 525,35 522,39 525,43 517,65 519,67 516,81 519,87 517,89;
              530,9 532,12 530,15 532,20 523,31 525,35 522,39 525,43 517,65 519,67 516,81 519,87 517,89 524,93;
              530,9 532,12 530,15 532,20 523,31 525,35 522,39 525,43 517,65 519,67 516,81 519,87 517,89 524,93 524,98;
              530,9 532,12 530,15 532,20 523,31 525,35 522,39 525,43 517,65 519,67 516,81 519,87 517,89 524,93 524,98 528,100;
              530,9 532,12 530,15 532,20 523,31 525,35 522,39 525,43 517,65 519,67 516,81 519,87 517,89 524,93 524,98 528,100 525,111;
              530,9 532,12 530,15 532,20 523,31 525,35 522,39 525,43 517,65 519,67 516,81 519,87 517,89 524,93 524,98 528,100 525,111 527,116;
              530,9 532,12 530,15 532,20 523,31 525,35 522,39 525,43 517,65 519,67 516,81 519,87 517,89 524,93 524,98 528,100 525,111 527,116 509,123;
              530,9 532,12 530,15 532,20 523,31 525,35 522,39 525,43 517,65 519,67 516,81 519,87 517,89 524,93 524,98 528,100 525,111 527,116 509,123 508,130;
              530,9 532,12 530,15 532,20 523,31 525,35 522,39 525,43 517,65 519,67 516,81 519,87 517,89 524,93 524,98 528,100 525,111 527,116 509,123 508,130 505,130;
              530,9 532,12 530,15 532,20 523,31 525,35 522,39 525,43 517,65 519,67 516,81 519,87 517,89 524,93 524,98 528,100 525,111 527,116 509,123 508,130 505,130 505,135;
              530,9 532,12 530,15 532,20 523,31 525,35 522,39 525,43 517,65 519,67 516,81 519,87 517,89 524,93 524,98 528,100 525,111 527,116 509,123 508,130 505,130 505,135 498,140;
              530,9 532,12 530,15 532,20 523,31 525,35 522,39 525,43 517,65 519,67 516,81 519,87 517,89 524,93 524,98 528,100 525,111 527,116 509,123 508,130 505,130 505,135 498,140 501,145;
              530,9 532,12 530,15 532,20 523,31 525,35 522,39 525,43 517,65 519,67 516,81 519,87 517,89 524,93 524,98 528,100 525,111 527,116 509,123 508,130 505,130 505,135 498,140 501,145 493,150;
              530,9 532,12 530,15 532,20 523,31 525,35 522,39 525,43 517,65 519,67 516,81 519,87 517,89 524,93 524,98 528,100 525,111 527,116 509,123 508,130 505,130 505,135 498,140 501,145 493,150 493,156;
              530,9 532,12 530,15 532,20 523,31 525,35 522,39 525,43 517,65 519,67 516,81 519,87 517,89 524,93 524,98 528,100 525,111 527,116 509,123 508,130 505,130 505,135 498,140 501,145 493,150 493,156 471,160"
    />
  </polyline>
	<g id="Lights_7_">
		<g>
			<path class="st48" d="M485.2,52.9v7.9h-3.6v-3.2h-3.4v3h-3.5v-3h-4v3.5H467v-8.2H485.2z"/>
			<path class="st48" d="M485.2,73.2H473c-1.4,0-2.3,0-2.9-0.1c-0.6-0.1-1.1-0.4-1.7-0.8c-0.6-0.4-1-1-1.3-1.7
				c-0.3-0.7-0.5-1.6-0.5-2.6c0-1.1,0.2-2,0.5-2.9c0.4-0.8,0.8-1.5,1.4-1.9c0.6-0.4,1.2-0.7,1.8-0.7c0.6-0.1,2-0.1,4-0.1h10.8v4.7
				h-13.6c-0.8,0-1.3,0-1.5,0.1c-0.2,0.1-0.3,0.3-0.3,0.5c0,0.3,0.1,0.5,0.4,0.6c0.2,0.1,0.8,0.1,1.7,0.1h13.4V73.2z"/>
			<path class="st48" d="M478.5,85.9v-4.7h1.7c1,0,1.7,0,2-0.1s0.4-0.3,0.4-0.6c0-0.3-0.1-0.5-0.3-0.6c-0.2-0.1-0.8-0.2-1.7-0.2
				h-8.7c-0.8,0-1.4,0.1-1.6,0.2c-0.3,0.1-0.4,0.3-0.4,0.6c0,0.3,0.1,0.6,0.4,0.7c0.3,0.1,0.9,0.2,1.7,0.2h2.2v-1h2.8v5.5H467v-3
				l1.3-0.4c-0.6-0.3-1-0.7-1.3-1.2c-0.3-0.5-0.4-1.1-0.4-1.7c0-0.8,0.2-1.5,0.6-2.2c0.4-0.7,0.9-1.2,1.4-1.6
				c0.6-0.4,1.2-0.6,1.8-0.7c0.6-0.1,1.6-0.1,2.8-0.1h5.4c1.7,0,3,0.1,3.8,0.3c0.8,0.2,1.5,0.7,2.2,1.6c0.7,0.9,1,2,1,3.4
				c0,1.4-0.3,2.5-0.9,3.4s-1.2,1.5-2,1.8c-0.8,0.3-1.9,0.4-3.4,0.4H478.5z"/>
			<path class="st48" d="M485.2,87.8v7.9h-3.6v-3.2h-3.4v3h-3.5v-3h-4V96H467v-8.2H485.2z"/>
			<path class="st48" d="M485.2,107.9H467v-4.1l8.3-2.5H467v-4h18.2v4l-8.2,2.7h8.2V107.9z"/>
			<path class="st48" d="M485.2,109.8v7.9h-3.6v-3.2h-3.4v3h-3.5v-3h-4v3.5H467v-8.2H485.2z"/>
		</g>

			<radialGradient id="SVGID_2_" cx="477.4161" cy="-732.5823" r="57.5839" gradientTransform="matrix(1 0 0 1.4635 0 1156.4435)" gradientUnits="userSpaceOnUse">
			<stop  offset="0" style="stop-color:#FFC900"/>
			<stop  offset="1" style="stop-color:#FFAF00;stop-opacity:0"/>
		</radialGradient>
		<ellipse style="opacity:0.15;fill:url(#SVGID_2_);" cx="477.4" cy="84.3" rx="57.6" ry="84.3"/>

    <animate id="animation2" attributeName="opacity"
      from="1"
      to="1"
      begin="indefinite"
      dur="1.5"
      repeatCount="1"
      fill="freeze"
      values="1;0;1;1;1;1;1;1;1;0.5;1;0.5;1;0;1;0;0;0;0;0;0;0;0;0;0;0"
      />
	</g>
</g>
</svg>
