<?xml version="1.0" encoding="utf-8"?>
<!-- Generator: Adobe Illustrator 19.1.0, SVG Export Plug-In . SVG Version: 6.00 Build 0)  -->
<!DOCTYPE svg PUBLIC "-//W3C//DTD SVG 1.1//EN" "http://www.w3.org/Graphics/SVG/1.1/DTD/svg11.dtd">
<svg version="1.1" xmlns="http://www.w3.org/2000/svg" xmlns:xlink="http://www.w3.org/1999/xlink" x="0px" y="0px" width="720px"
	 height="6467px" viewBox="0 0 720 315" style="enable-background:new 0 0 720 315;" xml:space="preserve">
<style type="text/css">
	.st34{opacity:0.16;}
	.st48{fill:#FFC900;}
	.st61{fill:none;stroke:#520F00;stroke-miterlimit:10;}
</style>
<g id="Grants_pass_lights">
	<g id="Lights_5_" opacity="1">
		<g>
			<path class="st48" d="M523.5,68.8v-4.7h1.7c1,0,1.7,0,2-0.1s0.4-0.3,0.4-0.6c0-0.3-0.1-0.5-0.3-0.6c-0.2-0.1-0.8-0.2-1.7-0.2
				h-8.7c-0.8,0-1.4,0.1-1.6,0.2c-0.3,0.1-0.4,0.3-0.4,0.6c0,0.3,0.1,0.6,0.4,0.7c0.3,0.1,0.9,0.2,1.7,0.2h2.2v-1h2.8v5.5H512v-3
				l1.3-0.4c-0.6-0.3-1-0.7-1.3-1.2c-0.3-0.5-0.4-1.1-0.4-1.7c0-0.8,0.2-1.5,0.6-2.2c0.4-0.7,0.9-1.2,1.4-1.6
				c0.6-0.4,1.2-0.6,1.8-0.7s1.6-0.1,2.8-0.1h5.4c1.7,0,3,0.1,3.8,0.3c0.8,0.2,1.5,0.7,2.2,1.6c0.7,0.9,1,2,1,3.4
				c0,1.4-0.3,2.5-0.9,3.4c-0.6,0.9-1.2,1.5-2,1.8c-0.8,0.3-1.9,0.4-3.4,0.4H523.5z"/>
			<path class="st48" d="M530.2,70.6V74c0,2.2-0.1,3.7-0.3,4.5s-0.6,1.4-1.3,1.9c-0.7,0.5-1.8,0.7-3.4,0.7c-1.4,0-2.4-0.2-2.9-0.5
				c-0.5-0.4-0.8-1-0.9-2.1c-0.2,0.9-0.5,1.6-0.9,1.9s-0.7,0.5-1.1,0.6c-0.3,0.1-1.2,0.1-2.7,0.1H512v-4.4h6c1,0,1.6-0.1,1.8-0.2
				c0.2-0.2,0.3-0.6,0.3-1.2H512v-4.7H530.2z M527.1,75.4h-4c0,0.5,0.1,0.9,0.2,1.1c0.1,0.2,0.6,0.3,1.4,0.3h1c0.6,0,1-0.1,1.1-0.3
				S527.1,75.9,527.1,75.4z"/>
			<path class="st48" d="M530.2,91.2L512,93.9v-4.8l3.3-0.3v-1.7l-3.3-0.3v-4.9l18.2,2.4V91.2z M518.5,88.7c2.1-0.2,4.6-0.5,7.6-0.7
				c-3.5-0.5-6-0.8-7.6-0.9V88.7z"/>
			<path class="st48" d="M530.2,105.2H512v-4.1l8.3-2.5H512v-4h18.2v4l-8.2,2.7h8.2V105.2z"/>
			<path class="st48" d="M530.2,116.7h-3.6v-2.8H512v-4.7h14.5v-2.8h3.6V116.7z"/>
			<path class="st48" d="M524.7,127.8v-4.4h1.3c0.6,0,1-0.1,1.2-0.2s0.3-0.3,0.3-0.6c0-0.3-0.1-0.5-0.3-0.6
				c-0.2-0.1-0.6-0.2-1.1-0.2c-0.6,0-1.1,0.1-1.4,0.2c-0.3,0.2-0.7,0.6-1.1,1.3c-1.2,2.1-2.3,3.4-3.1,4c-0.8,0.5-2.1,0.8-3.9,0.8
				c-1.3,0-2.2-0.2-2.9-0.5c-0.6-0.3-1.1-0.9-1.5-1.8c-0.4-0.9-0.6-1.9-0.6-3c0-1.3,0.2-2.3,0.7-3.2s1.1-1.5,1.8-1.8
				c0.7-0.3,1.8-0.4,3.2-0.4h1.2v4.4h-2.2c-0.7,0-1.1,0.1-1.3,0.2c-0.2,0.1-0.3,0.3-0.3,0.7s0.1,0.5,0.4,0.7
				c0.2,0.2,0.6,0.2,1.1,0.2c1.1,0,1.8-0.1,2.1-0.4c0.3-0.3,0.9-1,1.7-2.2c0.8-1.2,1.3-2,1.7-2.3c0.4-0.4,0.8-0.7,1.5-0.9
				s1.4-0.4,2.4-0.4c1.4,0,2.4,0.2,3.1,0.5s1.1,0.9,1.5,1.7s0.5,1.8,0.5,2.9c0,1.2-0.2,2.3-0.6,3.1c-0.4,0.9-0.9,1.4-1.5,1.7
				c-0.6,0.3-1.6,0.4-3.1,0.4H524.7z"/>
			<path class="st48" d="M530.2,133.7v4.8c0,1.3-0.1,2.3-0.3,3s-0.5,1.2-0.9,1.6c-0.4,0.3-0.8,0.6-1.4,0.7c-0.5,0.1-1.4,0.2-2.5,0.2
				h-1.6c-1.2,0-2-0.1-2.5-0.4c-0.5-0.2-0.9-0.7-1.2-1.3c-0.3-0.6-0.4-1.5-0.4-2.5v-1.3H512v-4.7H530.2z M527.1,138.4h-4.6
				c0,0.1,0,0.2,0,0.3c0,0.4,0.1,0.7,0.3,0.9c0.2,0.2,0.7,0.3,1.3,0.3h1.5c0.6,0,1-0.1,1.2-0.3C527,139.4,527.1,139,527.1,138.4z"/>
			<path class="st48" d="M530.2,152.8l-18.2,2.7v-4.8l3.3-0.3v-1.7l-3.3-0.3v-4.9l18.2,2.4V152.8z M518.5,150.3
				c2.1-0.2,4.6-0.5,7.6-0.7c-3.5-0.5-6-0.8-7.6-0.9V150.3z"/>
			<path class="st48" d="M524.7,166.4V162h1.3c0.6,0,1-0.1,1.2-0.2s0.3-0.3,0.3-0.6c0-0.3-0.1-0.5-0.3-0.6c-0.2-0.1-0.6-0.2-1.1-0.2
				c-0.6,0-1.1,0.1-1.4,0.2c-0.3,0.2-0.7,0.6-1.1,1.3c-1.2,2.1-2.3,3.4-3.1,4c-0.8,0.5-2.1,0.8-3.9,0.8c-1.3,0-2.2-0.2-2.9-0.5
				c-0.6-0.3-1.1-0.9-1.5-1.8c-0.4-0.9-0.6-1.9-0.6-3c0-1.3,0.2-2.3,0.7-3.2s1.1-1.5,1.8-1.8c0.7-0.3,1.8-0.4,3.2-0.4h1.2v4.4h-2.2
				c-0.7,0-1.1,0.1-1.3,0.2c-0.2,0.1-0.3,0.3-0.3,0.7s0.1,0.5,0.4,0.7c0.2,0.2,0.6,0.2,1.1,0.2c1.1,0,1.8-0.1,2.1-0.4
				c0.3-0.3,0.9-1,1.7-2.2c0.8-1.2,1.3-2,1.7-2.3c0.4-0.4,0.8-0.7,1.5-0.9s1.4-0.4,2.4-0.4c1.4,0,2.4,0.2,3.1,0.5s1.1,0.9,1.5,1.7
				s0.5,1.8,0.5,2.9c0,1.2-0.2,2.3-0.6,3.1c-0.4,0.9-0.9,1.4-1.5,1.7c-0.6,0.3-1.6,0.4-3.1,0.4H524.7z"/>
			<path class="st48" d="M524.7,178.3v-4.4h1.3c0.6,0,1-0.1,1.2-0.2s0.3-0.3,0.3-0.6c0-0.3-0.1-0.5-0.3-0.6
				c-0.2-0.1-0.6-0.2-1.1-0.2c-0.6,0-1.1,0.1-1.4,0.2c-0.3,0.2-0.7,0.6-1.1,1.3c-1.2,2.1-2.3,3.4-3.1,4c-0.8,0.5-2.1,0.8-3.9,0.8
				c-1.3,0-2.2-0.2-2.9-0.5c-0.6-0.3-1.1-0.9-1.5-1.8c-0.4-0.9-0.6-1.9-0.6-3c0-1.3,0.2-2.3,0.7-3.2s1.1-1.5,1.8-1.8
				c0.7-0.3,1.8-0.4,3.2-0.4h1.2v4.4h-2.2c-0.7,0-1.1,0.1-1.3,0.2c-0.2,0.1-0.3,0.3-0.3,0.7s0.1,0.5,0.4,0.7
				c0.2,0.2,0.6,0.2,1.1,0.2c1.1,0,1.8-0.1,2.1-0.4c0.3-0.3,0.9-1,1.7-2.2c0.8-1.2,1.3-2,1.7-2.3c0.4-0.4,0.8-0.7,1.5-0.9
				s1.4-0.4,2.4-0.4c1.4,0,2.4,0.2,3.1,0.5s1.1,0.9,1.5,1.7s0.5,1.8,0.5,2.9c0,1.2-0.2,2.3-0.6,3.1c-0.4,0.9-0.9,1.4-1.5,1.7
				c-0.6,0.3-1.6,0.4-3.1,0.4H524.7z"/>
		</g>

			<radialGradient id="SVGID_2_" cx="520.4161" cy="-828.1208" r="57.5839" gradientTransform="matrix(1 0 0 1.863 0 1664.0341)" gradientUnits="userSpaceOnUse">
			<stop  offset="0" style="stop-color:#FFC900"/>
			<stop  offset="1" style="stop-color:#FFAF00;stop-opacity:0"/>
		</radialGradient>
		<ellipse style="opacity:0.18;fill:url(#SVGID_2_);" cx="520.4" cy="121.3" rx="57.6" ry="107.3"/>

    <animate id="animation1" attributeName="opacity"
      from="1"
      to="1"
      begin="indefinite"
      dur="1.5"
      repeatCount="1"
      fill="freeze"
      values="1;1;1;1;1;1;0.5;1;1;0;1;1;1;1;1;1;0;0;0;0;0;0;0;0;0;0"
      />
	</g>
	<g id="Cracks_5_" class="st34">
		<polyline class="st61" points="539,149">

      <animate id="animation2" attributeName="points"
        from="539,149"
        to="539,149"
        begin="indefinite"
        dur="0.8"
        repeatCount="1"
        fill="freeze"
        values="539,149;
                539,149 546,160;
                539,149 546,160 554,158;
                539,149 546,160 554,158 558,163;
                539,149 546,160 554,158 558,163 570,175;
                539,149 546,160 554,158 558,163 570,175 560,184;
                539,149 546,160 554,158 558,163 570,175 560,184 573,193;
                539,149 546,160 554,158 558,163 570,175 560,184 573,193 569,208;
                539,149 546,160 554,158 558,163 570,175 560,184 573,193 569,208 572,215;
                539,149 546,160 554,158 558,163 570,175 560,184 573,193 569,208 572,215 565,231;
                539,149 546,160 554,158 558,163 570,175 560,184 573,193 569,208 572,215 565,231 568,235;
                539,149 546,160 554,158 558,163 570,175 560,184 573,193 569,208 572,215 565,231 568,235 557,244;
                539,149 546,160 554,158 558,163 570,175 560,184 573,193 569,208 572,215 565,231 568,235 557,244 554,255;
                539,149 546,160 554,158 558,163 570,175 560,184 573,193 569,208 572,215 565,231 568,235 557,244 554,255 558,261;
                539,149 546,160 554,158 558,163 570,175 560,184 573,193 569,208 572,215 565,231 568,235 557,244 554,255 558,261 551,264;
                539,149 546,160 554,158 558,163 570,175 560,184 573,193 569,208 572,215 565,231 568,235 557,244 554,255 558,261 551,264 547,276;
                539,149 546,160 554,158 558,163 570,175 560,184 573,193 569,208 572,215 565,231 568,235 557,244 554,255 558,261 551,264 547,276 540,278;
                539,149 546,160 554,158 558,163 570,175 560,184 573,193 569,208 572,215 565,231 568,235 557,244 554,255 558,261 551,264 547,276 540,278 540,283;
                539,149 546,160 554,158 558,163 570,175 560,184 573,193 569,208 572,215 565,231 568,235 557,244 554,255 558,261 551,264 547,276 540,278 540,283 529,288;
                539,149 546,160 554,158 558,163 570,175 560,184 573,193 569,208 572,215 565,231 568,235 557,244 554,255 558,261 551,264 547,276 540,278 540,283 529,288 531,297;
                539,149 546,160 554,158 558,163 570,175 560,184 573,193 569,208 572,215 565,231 568,235 557,244 554,255 558,261 551,264 547,276 540,278 540,283 529,288 531,297 527,298;
                539,149 546,160 554,158 558,163 570,175 560,184 573,193 569,208 572,215 565,231 568,235 557,244 554,255 558,261 551,264 547,276 540,278 540,283 529,288 531,297 527,298 525,310;
                539,149 546,160 554,158 558,163 570,175 560,184 573,193 569,208 572,215 565,231 568,235 557,244 554,255 558,261 551,264 547,276 540,278 540,283 529,288 531,297 527,298 525,310 503,314"
      />
    </polyline>
		<polyline class="st61" points="467,1">

      <animate id="animation3" attributeName="points"
        from="467,1"
        to="467,1"
        begin="indefinite"
        dur="0.8"
        repeatCount="1"
        fill="freeze"
        values="467,1;
                467,1 477,10;
                467,1 477,10 474,20;
                467,1 477,10 474,20 480,25;
                467,1 477,10 474,20 480,25 474,42;
                467,1 477,10 474,20 480,25 474,42 481,50;
                467,1 477,10 474,20 480,25 474,42 481,50 480,55;
                467,1 477,10 474,20 480,25 474,42 481,50 480,55 485,64;
                467,1 477,10 474,20 480,25 474,42 481,50 480,55 485,64 484,82;
                467,1 477,10 474,20 480,25 474,42 481,50 480,55 485,64 484,82 488,90;
                467,1 477,10 474,20 480,25 474,42 481,50 480,55 485,64 484,82 488,90 486,104;
                467,1 477,10 474,20 480,25 474,42 481,50 480,55 485,64 484,82 488,90 486,104 490,110;
                467,1 477,10 474,20 480,25 474,42 481,50 480,55 485,64 484,82 488,90 486,104 490,110 487,121;
                467,1 477,10 474,20 480,25 474,42 481,50 480,55 485,64 484,82 488,90 486,104 490,110 487,121 510,136"
      />
    </polyline>
	</g>
</g>
</svg>
