<?xml version="1.0" encoding="utf-8"?>
<!-- Generator: Adobe Illustrator 19.1.0, SVG Export Plug-In . SVG Version: 6.00 Build 0)  -->
<!DOCTYPE svg PUBLIC "-//W3C//DTD SVG 1.1//EN" "http://www.w3.org/Graphics/SVG/1.1/DTD/svg11.dtd">
<svg version="1.1" xmlns="http://www.w3.org/2000/svg" xmlns:xlink="http://www.w3.org/1999/xlink" x="0px" y="0px" width="720px"
	 height="272px" viewBox="0 0 720 272" style="enable-background:new 0 0 720 272;" xml:space="preserve">
    <script type="text/ecmascript" xlink:href="/assets/javascripts/vendor/smil.user.js"></script>
<style type="text/css">
	.st47{opacity:0.3;fill:none;stroke:#000000;stroke-miterlimit:10;}
	.st48{fill:#FFC900;}
	.st49{opacity:0.1;fill:url(#SVGID_2_);}
</style>
<g id="Seattle_lights">
	<g id="Lights" opacity="1">
		<g>
			<path class="st48" d="M610.9,84.9v-5.2h1.6c0.7,0,1.2-0.1,1.4-0.2s0.3-0.4,0.3-0.7c0-0.3-0.1-0.6-0.4-0.8
				c-0.3-0.2-0.7-0.3-1.2-0.3c-0.7,0-1.2,0.1-1.6,0.3c-0.4,0.2-0.8,0.7-1.3,1.6c-1.5,2.5-2.7,4-3.6,4.7c-0.9,0.6-2.5,1-4.5,1
				c-1.5,0-2.6-0.2-3.4-0.5c-0.7-0.4-1.3-1-1.8-2.1c-0.5-1-0.7-2.2-0.7-3.6c0-1.5,0.3-2.8,0.8-3.8c0.6-1,1.3-1.7,2.1-2.1
				c0.9-0.3,2.1-0.5,3.7-0.5h1.4V78H601c-0.8,0-1.3,0.1-1.5,0.2c-0.2,0.1-0.3,0.4-0.3,0.8s0.1,0.6,0.4,0.8c0.3,0.2,0.7,0.3,1.3,0.3
				c1.3,0,2.1-0.2,2.5-0.5c0.4-0.4,1-1.2,1.9-2.6c0.9-1.4,1.6-2.3,2-2.7c0.4-0.4,1-0.8,1.7-1.1c0.7-0.3,1.7-0.4,2.8-0.4
				c1.6,0,2.8,0.2,3.6,0.6c0.8,0.4,1.3,1.1,1.8,2c0.4,0.9,0.6,2.1,0.6,3.4c0,1.4-0.2,2.7-0.7,3.7c-0.5,1-1.1,1.7-1.8,2
				c-0.7,0.3-1.9,0.5-3.6,0.5H610.9z"/>
			<path class="st48" d="M617.3,87.1v9.3h-4.3v-3.7h-4v3.5H605v-3.5h-4.7v4.1H596v-9.6H617.3z"/>
			<path class="st48" d="M617.3,107.9l-21.3,3.2v-5.7l3.8-0.3v-2l-3.8-0.3V97l21.3,2.8V107.9z M603.6,104.9c2.4-0.3,5.4-0.6,9-0.8
				c-4.1-0.6-7.1-0.9-9-1.1V104.9z"/>
			<path class="st48" d="M617.3,121.7h-4.3v-3.3H596v-5.5h17.1v-3.3h4.3V121.7z"/>
			<path class="st48" d="M617.3,134.1h-4.3v-3.3H596v-5.5h17.1V122h4.3V134.1z"/>
			<path class="st48" d="M617.3,141h-17.1v3.4H596v-8.9h21.3V141z"/>
			<path class="st48" d="M617.3,145.7v9.3h-4.3v-3.7h-4v3.5H605v-3.5h-4.7v4.1H596v-9.6H617.3z"/>
		</g>

			<radialGradient id="SVGID_2_" cx="606" cy="-82.5906" r="72.5839" gradientTransform="matrix(1 0 0 1.5851 0 246.9149)" gradientUnits="userSpaceOnUse">
			<stop  offset="0" style="stop-color:#FFC900"/>
			<stop  offset="1" style="stop-color:#FFAF00;stop-opacity:0"/>
		</radialGradient>
		<ellipse class="st49" cx="606" cy="116" rx="72.6" ry="115.1"/>
		<g class="st50">
			<polygon class="st48" points="640,107 639,106 639,94 647,94 648,95 640,95 			"/>
			<polygon class="st48" points="640,107 655,107 656,108 641,108 641,115 640,115 640,121 639,120 639,114 640,114 			"/>
			<path class="st48" d="M652.3,118.3c-0.4,0.4-0.4,1,0,1.4l1.4-1.4C653.3,117.9,652.7,117.9,652.3,118.3z"/>
			<polygon class="st48" points="651,98 652,99 660,99 659,98 			"/>
			<polygon class="st48" points="657,107 657,109 658,110 658,108 669,108 668,107 			"/>
			<path class="st48" d="M649,123c1.7,0,3.2,0.6,4.4,1.6c-1.3-1.6-3.2-2.6-5.4-2.6c-3.9,0-7,3.1-7,7c0,2.2,1,4.1,2.6,5.4
				c-1-1.2-1.6-2.7-1.6-4.4C642,126.1,645.1,123,649,123z"/>
			<polygon class="st48" points="639,133 640,134 640,125 643,125 644,124 639,124 			"/>
			<path class="st48" d="M650,164c2.5,0,4.8,0.9,6.5,2.5c-1.8-2.1-4.5-3.5-7.5-3.5c-5.5,0-10,4.5-10,10c0,3,1.3,5.7,3.5,7.5
				c-1.5-1.8-2.5-4-2.5-6.5C640,168.5,644.5,164,650,164z"/>
			<path class="st48" d="M648.3,172.3c-0.4,0.4-0.4,1,0,1.4l1.4-1.4C649.3,171.9,648.7,171.9,648.3,172.3z"/>
			<polygon class="st48" points="641,157 642,158 642,139 655,139 654,138 641,138 			"/>
			<path class="st48" d="M609,168c3.5,0,6.4,2.6,6.9,6c0-0.3,0.1-0.7,0.1-1c0-3.9-3.1-7-7-7s-7,3.1-7,7c0,0.3,0,0.7,0.1,1
				C602.6,170.6,605.5,168,609,168z"/>
			<polygon class="st48" points="640,93 640,85 645,85 644,84 639,84 639,92 			"/>
			<polygon class="st48" points="640,82 639,81 639,73 646,73 646,65 656,65 657,66 647,66 647,74 640,74 			"/>
			<polygon class="st48" points="642,210 641,209 641,191 643,191 646,188 648,188 644,192 642,192 			"/>
			<rect x="608" y="163" class="st48" width="10" height="1"/>
			<polygon class="st48" points="612,209 601,209 601,208 611,208 			"/>
		</g>

    <animate id="animation1" attributeName="opacity"
      from="1"
      to="1"
      begin="indefinite"
      dur="1.5"
      repeatCount="1"
      fill="freeze"
      values="1;1;1;1;1;0.5;1;1;1;0.5;1;0.5;1;0;1;0;1;0.5;1;1;1;1;0;0;0;0"
      />
	</g>
	<g id="Cracks">
		<polyline class="st47" points="598,12">

      <animate id="animation2" attributeName="points"
        from="598,12"
        to="598,12"
        begin="indefinite"
        dur="1.5"
        repeatCount="1"
        fill="freeze"
        values="598,12;
                598,12 599,16;
                598,12 599,16 595,17;
                598,12 599,16 595,17 597,20;
                598,12 599,16 595,17 597,20 584,34;
                598,12 599,16 595,17 597,20 584,34 585,37;
                598,12 599,16 595,17 597,20 584,34 585,37 579,46;
                598,12 599,16 595,17 597,20 584,34 585,37 579,46 585,59;
                598,12 599,16 595,17 597,20 584,34 585,37 579,46 585,59 581,64;
                598,12 599,16 595,17 597,20 584,34 585,37 579,46 585,59 581,64 585,70;
                598,12 599,16 595,17 597,20 584,34 585,37 579,46 585,59 581,64 585,70 574,78;
                598,12 599,16 595,17 597,20 584,34 585,37 579,46 585,59 581,64 585,70 574,78 575,84;
                598,12 599,16 595,17 597,20 584,34 585,37 579,46 585,59 581,64 585,70 574,78 575,84 571,94;
                598,12 599,16 595,17 597,20 584,34 585,37 579,46 585,59 581,64 585,70 574,78 575,84 571,94 575,95;
                598,12 599,16 595,17 597,20 584,34 585,37 579,46 585,59 581,64 585,70 574,78 575,84 571,94 575,95 574,101;
                598,12 599,16 595,17 597,20 584,34 585,37 579,46 585,59 581,64 585,70 574,78 575,84 571,94 575,95 574,101 586,111;
                598,12 599,16 595,17 597,20 584,34 585,37 579,46 585,59 581,64 585,70 574,78 575,84 571,94 575,95 574,101 586,111 584,118;
                598,12 599,16 595,17 597,20 584,34 585,37 579,46 585,59 581,64 585,70 574,78 575,84 571,94 575,95 574,101 586,111 584,118 597,122"
      />
    </polyline>
		<polyline class="st47" points="668,179">

      <animate id="animation3" attributeName="points"
        from="668,179"
        to="668,179"
        begin="indefinite"
        dur="1.5"
        repeatCount="1"
        fill="freeze"
        values="668,179;
                668,179 667,185;
                668,179 667,185 670,186;
                668,179 667,185 670,186 669,194;
                668,179 667,185 670,186 669,194 675,195;
                668,179 667,185 670,186 669,194 675,195 674,206;
                668,179 667,185 670,186 669,194 675,195 674,206 678,210;
                668,179 667,185 670,186 669,194 675,195 674,206 678,210 675,213;
                668,179 667,185 670,186 669,194 675,195 674,206 678,210 675,213 679,219;
                668,179 667,185 670,186 669,194 675,195 674,206 678,210 675,213 679,219 670,233;
                668,179 667,185 670,186 669,194 675,195 674,206 678,210 675,213 679,219 670,233 674,239;
                668,179 667,185 670,186 669,194 675,195 674,206 678,210 675,213 679,219 670,233 674,239 664,243;
                668,179 667,185 670,186 669,194 675,195 674,206 678,210 675,213 679,219 670,233 674,239 664,243 662,253;
                668,179 667,185 670,186 669,194 675,195 674,206 678,210 675,213 679,219 670,233 674,239 664,243 662,253 658,254;
                668,179 667,185 670,186 669,194 675,195 674,206 678,210 675,213 679,219 670,233 674,239 664,243 662,253 658,254 658,258;
                668,179 667,185 670,186 669,194 675,195 674,206 678,210 675,213 679,219 670,233 674,239 664,243 662,253 658,254 658,258 647,271"
      />
    </polyline>
	</g>
</g>
</svg>
