<?xml version="1.0" encoding="utf-8"?>
<!-- Generator: Adobe Illustrator 19.1.0, SVG Export Plug-In . SVG Version: 6.00 Build 0)  -->
<!DOCTYPE svg PUBLIC "-//W3C//DTD SVG 1.1//EN" "http://www.w3.org/Graphics/SVG/1.1/DTD/svg11.dtd">
<svg version="1.1" xmlns="http://www.w3.org/2000/svg" xmlns:xlink="http://www.w3.org/1999/xlink" x="0px" y="0px" width="720px"
	 height="169px" viewBox="0 0 720 169" style="enable-background:new 0 0 720 169;" xml:space="preserve">
   <script type="text/ecmascript" xlink:href="/assets/javascripts/vendor/smil.user.js"></script>
<style type="text/css">
	.st48{fill:#FFC900;}
</style>
<g id="Redding_lights_1_">
	<g id="Lights_6_">
		<g>
			<path class="st48" d="M600.2,43.9v3.3c0,2.2-0.1,3.7-0.3,4.5s-0.6,1.4-1.3,1.9c-0.7,0.5-1.8,0.7-3.4,0.7c-1.4,0-2.4-0.2-2.9-0.5
				c-0.5-0.4-0.8-1-0.9-2.1c-0.2,0.9-0.5,1.6-0.9,1.9s-0.7,0.5-1.1,0.6c-0.3,0.1-1.2,0.1-2.7,0.1H582v-4.4h6c1,0,1.6-0.1,1.8-0.2
				c0.2-0.2,0.3-0.6,0.3-1.2H582v-4.7H600.2z M597.1,48.7h-4c0,0.5,0.1,0.9,0.2,1.1c0.1,0.2,0.6,0.3,1.4,0.3h1c0.6,0,1-0.1,1.1-0.3
				S597.1,49.2,597.1,48.7z"/>
			<path class="st48" d="M600.2,56.3v7.9h-3.6v-3.2h-3.4v3h-3.5v-3h-4v3.5H582v-8.2H600.2z"/>
			<path class="st48" d="M600.2,65.9v3.5c0,2.3-0.1,3.8-0.3,4.6c-0.2,0.8-0.6,1.4-1,1.8c-0.5,0.4-1,0.7-1.6,0.8
				c-0.6,0.1-1.7,0.2-3.5,0.2h-6.4c-1.6,0-2.7-0.1-3.3-0.2c-0.5-0.2-1-0.4-1.3-0.8c-0.3-0.4-0.5-0.9-0.7-1.4
				c-0.1-0.6-0.2-1.4-0.2-2.5v-6H600.2z M597.1,70.6h-12c0,0.7,0.1,1.1,0.4,1.3c0.3,0.2,1,0.2,2.2,0.2h7.1c0.8,0,1.4,0,1.6-0.1
				c0.2-0.1,0.4-0.2,0.5-0.4C597,71.5,597.1,71.1,597.1,70.6z"/>
			<path class="st48" d="M600.2,78.6v3.5c0,2.3-0.1,3.8-0.3,4.6c-0.2,0.8-0.6,1.4-1,1.8c-0.5,0.4-1,0.7-1.6,0.8
				c-0.6,0.1-1.7,0.2-3.5,0.2h-6.4c-1.6,0-2.7-0.1-3.3-0.2c-0.5-0.2-1-0.4-1.3-0.8c-0.3-0.4-0.5-0.9-0.7-1.4
				c-0.1-0.6-0.2-1.4-0.2-2.5v-6H600.2z M597.1,83.3h-12c0,0.7,0.1,1.1,0.4,1.3c0.3,0.2,1,0.2,2.2,0.2h7.1c0.8,0,1.4,0,1.6-0.1
				c0.2-0.1,0.4-0.2,0.5-0.4C597,84.2,597.1,83.8,597.1,83.3z"/>
			<path class="st48" d="M600.2,96H582v-4.7h18.2V96z"/>
			<path class="st48" d="M600.2,108.5H582v-4.1l8.3-2.5H582v-4h18.2v4l-8.2,2.7h8.2V108.5z"/>
			<path class="st48" d="M593.5,121.2v-4.7h1.7c1,0,1.7,0,2-0.1s0.4-0.3,0.4-0.6c0-0.3-0.1-0.5-0.3-0.6c-0.2-0.1-0.8-0.2-1.7-0.2
				h-8.7c-0.8,0-1.4,0.1-1.6,0.2c-0.3,0.1-0.4,0.3-0.4,0.6c0,0.3,0.1,0.6,0.4,0.7c0.3,0.1,0.9,0.2,1.7,0.2h2.2v-1h2.8v5.5H582v-3
				l1.3-0.4c-0.6-0.3-1-0.7-1.3-1.2c-0.3-0.5-0.4-1.1-0.4-1.7c0-0.8,0.2-1.5,0.6-2.2c0.4-0.7,0.9-1.2,1.4-1.6
				c0.6-0.4,1.2-0.6,1.8-0.7s1.6-0.1,2.8-0.1h5.4c1.7,0,3,0.1,3.8,0.3c0.8,0.2,1.5,0.7,2.2,1.6c0.7,0.9,1,2,1,3.4
				c0,1.4-0.3,2.5-0.9,3.4c-0.6,0.9-1.2,1.5-2,1.8c-0.8,0.3-1.9,0.4-3.4,0.4H593.5z"/>
		</g>

			<radialGradient id="SVGID_2_" cx="590.4161" cy="-1101.8864" r="57.5839" gradientTransform="matrix(1 0 0 1.4635 0 1696.9364)" gradientUnits="userSpaceOnUse">
			<stop  offset="0" style="stop-color:#FFC900"/>
			<stop  offset="1" style="stop-color:#FFAF00;stop-opacity:0"/>
		</radialGradient>
		<ellipse style="opacity:0.21;fill:url(#SVGID_2_);" cx="590.4" cy="84.3" rx="57.6" ry="84.3"/>

    <animate id="animation1" attributeName="opacity"
      from="1"
      to="1"
      begin="indefinite"
      dur="1.5"
      repeatCount="1"
      fill="freeze"
      values="1;0.5;1;0;1;0;0;0;0;0;0;0;0;0.5;0;1;0;0.5;0;0;0;0;0;0;0;0"
      />
	</g>
</g>
</svg>
