<?xml version="1.0" encoding="utf-8"?>
<!-- Generator: Adobe Illustrator 19.1.0, SVG Export Plug-In . SVG Version: 6.00 Build 0)  -->
<!DOCTYPE svg PUBLIC "-//W3C//DTD SVG 1.1//EN" "http://www.w3.org/Graphics/SVG/1.1/DTD/svg11.dtd">
<svg version="1.1" xmlns="http://www.w3.org/2000/svg" xmlns:xlink="http://www.w3.org/1999/xlink" x="0px" y="0px" width="720px"
	 height="198px" viewBox="0 0 720 198" style="enable-background:new 0 0 720 198;" xml:space="preserve">
   <script type="text/ecmascript" xlink:href="/assets/javascripts/vendor/smil.user.js"></script>
<style type="text/css">
	.st48{fill:#FFC900;}
	.st49{opacity:0.1;fill:url(#SVGID_2_);}
	.st53{opacity:0.3;fill:none;stroke:#350000;stroke-miterlimit:10;}
</style>

<g id="Olympia_lights">
	<g id="Lights_2_" opacity="1">
		<g>
			<path class="st48" d="M547.5,77.7c-1.8,0-3.1,0-3.9-0.1c-0.8-0.1-1.5-0.4-2.1-0.8s-1.1-1.1-1.4-1.8c-0.3-0.8-0.5-1.7-0.5-2.7
				c0-1,0.2-1.8,0.5-2.6c0.3-0.8,0.8-1.4,1.4-1.9c0.6-0.5,1.3-0.8,2.1-0.8c0.7-0.1,2.1-0.1,3.9-0.1h3.1c1.8,0,3.1,0,3.9,0.1
				c0.8,0.1,1.5,0.4,2.1,0.8s1.1,1.1,1.4,1.8c0.3,0.8,0.5,1.7,0.5,2.7c0,1-0.2,1.8-0.5,2.6c-0.3,0.8-0.8,1.4-1.4,1.9
				c-0.6,0.5-1.3,0.8-2.1,0.8s-2.1,0.1-3.9,0.1H547.5z M553.5,73c0.8,0,1.4,0,1.6-0.1c0.2-0.1,0.4-0.3,0.4-0.6
				c0-0.2-0.1-0.4-0.3-0.6c-0.2-0.1-0.8-0.2-1.7-0.2H545c-1.1,0-1.7,0-2,0.1c-0.2,0.1-0.4,0.3-0.4,0.6c0,0.3,0.1,0.5,0.4,0.6
				s1,0.1,2,0.1H553.5z"/>
			<path class="st48" d="M558.2,84.2h-14.5v2.9H540v-7.6h18.2V84.2z"/>
			<path class="st48" d="M558.2,96.8l-11.6-3.4H540V89h6.6l11.6-3.3V90c-3.5,0.7-5.9,1.1-7.2,1.1c1.9,0.3,4.3,0.7,7.2,1.3V96.8z"/>
			<path class="st48" d="M558.2,112.2H540v-4.1l12.3,0l-12.3-1.6v-2.9l12-1.7l-12,0v-4.1h18.2v6.1c-1.1,0.2-2.4,0.4-3.9,0.6
				l-4.6,0.7l8.5,1.1V112.2z"/>
			<path class="st48" d="M558.2,114.1v4.8c0,1.3-0.1,2.3-0.3,3s-0.5,1.2-0.9,1.6c-0.4,0.3-0.8,0.6-1.4,0.7c-0.5,0.1-1.4,0.2-2.5,0.2
				h-1.6c-1.2,0-2-0.1-2.5-0.4c-0.5-0.2-0.9-0.7-1.2-1.3c-0.3-0.6-0.4-1.5-0.4-2.5v-1.3H540v-4.7H558.2z M555.1,118.9h-4.6
				c0,0.1,0,0.2,0,0.3c0,0.4,0.1,0.7,0.3,0.9c0.2,0.2,0.7,0.3,1.3,0.3h1.5c0.6,0,1-0.1,1.2-0.3C555,119.9,555.1,119.5,555.1,118.9z"
				/>
			<path class="st48" d="M558.2,130.4H540v-4.7h18.2V130.4z"/>
			<path class="st48" d="M558.2,140.5l-18.2,2.7v-4.8l3.3-0.3v-1.7l-3.3-0.3v-4.9l18.2,2.4V140.5z M546.5,138
				c2.1-0.2,4.6-0.5,7.6-0.7c-3.5-0.5-6-0.8-7.6-0.9V138z"/>
		</g>

			<radialGradient id="SVGID_2_" cx="548.5839" cy="-259.7718" r="57.5839" gradientTransform="matrix(1 0 0 1.5851 0 517.8192)" gradientUnits="userSpaceOnUse">
			<stop  offset="0" style="stop-color:#FFC900"/>
			<stop  offset="1" style="stop-color:#FFAF00;stop-opacity:0"/>
		</radialGradient>
		<ellipse class="st49" cx="548.6" cy="106.1" rx="57.6" ry="91.3"/>

    <animate id="animation1" attributeName="opacity"
      from="1"
      to="1"
      begin="indefinite"
      dur="1.5"
      repeatCount="1"
      fill="freeze"
      values="1;0.5;1;1;1;0.5;1;0.5;1;0;1;0;0;0;0;0;0;0;0;0;0;0;0;0;0;0"
      />
	</g>
	<g id="Cracks_2_">
		<polyline class="st53" points="536,1">

      <animate id="animation2" attributeName="points"
        from="536,1"
        to="536,1"
        begin="indefinite"
        dur="0.5"
        repeatCount="1"
        fill="freeze"
        values="536,1;
                536,1 540,5;
                536,1 540,5 538,7;
                536,1 540,5 538,7 541,14;
                536,1 540,5 538,7 541,14 531,23;
                536,1 540,5 538,7 541,14 531,23 534,41;
                536,1 540,5 538,7 541,14 531,23 534,41 527,56;
                536,1 540,5 538,7 541,14 531,23 534,41 527,56 536,59;
                536,1 540,5 538,7 541,14 531,23 534,41 527,56 536,59 527,74;
                536,1 540,5 538,7 541,14 531,23 534,41 527,56 536,59 527,74 529,86;
                536,1 540,5 538,7 541,14 531,23 534,41 527,56 536,59 527,74 529,86 525,93;
                536,1 540,5 538,7 541,14 531,23 534,41 527,56 536,59 527,74 529,86 525,93 537,105"
      />
    </polyline>
		<polyline class="st53" points="560,124">

      <animate id="animation3" attributeName="points"
        from="560,124"
        to="560,124"
        begin="indefinite"
        dur="0.5"
        repeatCount="1"
        fill="freeze"
        values="560,124;
                560,124 568,122;
                560,124 568,122 572,137;
                560,124 568,122 572,137 580,137;
                560,124 568,122 572,137 580,137 582,146;
                560,124 568,122 572,137 580,137 582,146 586,148;
                560,124 568,122 572,137 580,137 582,146 586,148 587,162"
      />
    </polyline>
	</g>
</g>
</svg>
