<?xml version="1.0" encoding="utf-8"?>
<!-- Generator: Adobe Illustrator 19.1.0, SVG Export Plug-In . SVG Version: 6.00 Build 0)  -->
<!DOCTYPE svg PUBLIC "-//W3C//DTD SVG 1.1//EN" "http://www.w3.org/Graphics/SVG/1.1/DTD/svg11.dtd">
<svg version="1.1" xmlns="http://www.w3.org/2000/svg" xmlns:xlink="http://www.w3.org/1999/xlink" x="0px" y="0px" width="720px"
	 height="4101px" viewBox="0 0 720 431" style="enable-background:new 0 0 720 431;" xml:space="preserve">
<style type="text/css">
	.st48{fill:#FFC900;}
	.st55{opacity:0.21;fill:none;stroke:#350000;stroke-miterlimit:10;}
</style>
<g id="Portland_lights">
	<g id="Lights_4_" opacity="1">
		<g>
			<path class="st48" d="M603.3,264.1v5.6c0,1.5-0.1,2.7-0.4,3.5c-0.2,0.8-0.6,1.4-1,1.8c-0.4,0.4-1,0.7-1.6,0.8
				c-0.6,0.1-1.6,0.2-3,0.2h-1.9c-1.4,0-2.4-0.1-3-0.4c-0.6-0.3-1.1-0.8-1.4-1.5c-0.3-0.8-0.5-1.7-0.5-2.9v-1.5H582v-5.6H603.3z
				 M599.7,269.7h-5.4c0,0.2,0,0.3,0,0.4c0,0.5,0.1,0.9,0.4,1.1c0.3,0.2,0.8,0.3,1.6,0.3h1.8c0.7,0,1.2-0.1,1.4-0.3
				C599.6,270.9,599.7,270.4,599.7,269.7z"/>
			<path class="st48" d="M590.8,290.3c-2.1,0-3.7-0.1-4.6-0.2c-0.9-0.1-1.7-0.4-2.4-0.9c-0.7-0.5-1.3-1.3-1.7-2.2
				c-0.4-0.9-0.6-2-0.6-3.2c0-1.1,0.2-2.2,0.6-3.1c0.4-0.9,0.9-1.6,1.7-2.2c0.7-0.6,1.6-0.9,2.4-1s2.4-0.2,4.6-0.2h3.7
				c2.1,0,3.7,0.1,4.6,0.2c0.9,0.1,1.7,0.4,2.4,0.9c0.7,0.5,1.3,1.2,1.7,2.2s0.6,2,0.6,3.2c0,1.1-0.2,2.2-0.6,3.1
				c-0.4,0.9-0.9,1.6-1.7,2.2c-0.7,0.6-1.6,0.9-2.4,1s-2.4,0.2-4.6,0.2H590.8z M597.9,284.8c1,0,1.6-0.1,1.9-0.2
				c0.3-0.1,0.4-0.3,0.4-0.7c0-0.3-0.1-0.5-0.3-0.7c-0.2-0.2-0.9-0.2-2-0.2h-10c-1.2,0-2,0-2.3,0.2c-0.3,0.1-0.4,0.3-0.4,0.7
				c0,0.4,0.2,0.6,0.5,0.7s1.1,0.2,2.4,0.2H597.9z"/>
			<path class="st48" d="M603.3,292.4v3.9c0,2.6-0.1,4.4-0.3,5.3c-0.2,0.9-0.7,1.7-1.5,2.3c-0.8,0.6-2.2,0.9-4,0.9
				c-1.7,0-2.8-0.2-3.3-0.6c-0.6-0.4-0.9-1.2-1-2.4c-0.3,1.1-0.6,1.8-1.1,2.2s-0.9,0.6-1.3,0.7c-0.4,0.1-1.4,0.1-3.2,0.1H582v-5.2
				h7.1c1.1,0,1.9-0.1,2.1-0.3c0.3-0.2,0.4-0.7,0.4-1.4H582v-5.6H603.3z M599.7,298h-4.7c0,0.6,0.1,1.1,0.3,1.3
				c0.2,0.2,0.7,0.4,1.7,0.4h1.2c0.7,0,1.1-0.1,1.3-0.4C599.6,299,599.7,298.6,599.7,298z"/>
			<path class="st48" d="M603.3,318.1h-4.3v-3.3H582v-5.5h17.1V306h4.3V318.1z"/>
			<path class="st48" d="M603.3,325h-17.1v3.4H582v-8.9h21.3V325z"/>
			<path class="st48" d="M603.3,339.9l-21.3,3.2v-5.7l3.8-0.3v-2l-3.8-0.3v-5.7l21.3,2.8V339.9z M589.6,337c2.4-0.3,5.4-0.6,9-0.8
				c-4.1-0.6-7.1-0.9-9-1.1V337z"/>
			<path class="st48" d="M603.3,356.4H582v-4.9l9.7-2.9H582v-4.6h21.3v4.6l-9.6,3.1h9.6V356.4z"/>
			<path class="st48" d="M603.3,358.7v4.2c0,2.7-0.1,4.5-0.4,5.4c-0.2,0.9-0.7,1.7-1.2,2.2s-1.2,0.8-1.9,0.9c-0.7,0.1-2,0.2-4.1,0.2
				h-7.5c-1.9,0-3.2-0.1-3.8-0.3c-0.6-0.2-1.2-0.5-1.5-0.9c-0.4-0.4-0.6-1-0.8-1.7c-0.1-0.7-0.2-1.7-0.2-3v-7H603.3z M599.7,364.2
				h-14c0,0.8,0.2,1.3,0.5,1.5c0.3,0.2,1.2,0.3,2.6,0.3h8.3c1,0,1.6,0,1.9-0.1s0.5-0.2,0.6-0.4S599.7,364.8,599.7,364.2z"/>
		</g>

			<radialGradient id="SVGID_2_" cx="591.5839" cy="-291.1812" r="72.5839" gradientTransform="matrix(1 0 0 1.5851 0 777.6064)" gradientUnits="userSpaceOnUse">
			<stop  offset="0" style="stop-color:#FFC900"/>
			<stop  offset="1" style="stop-color:#FFAF00;stop-opacity:0"/>
		</radialGradient>
		<ellipse style="opacity:0.17;fill:url(#SVGID_2_);" cx="591.6" cy="316.1" rx="72.6" ry="115.1"/>
		<g class="st50">
			<rect x="582" y="253" class="st48" width="10" height="1"/>
			<rect x="582" y="258" class="st48" width="9" height="1"/>
			<rect x="593" y="248" class="st48" width="12" height="1"/>
			<polygon class="st48" points="603,233 604,232 608,232 608,233 			"/>
			<polygon class="st48" points="605,231 608,231 608,230 606,230 			"/>
			<polygon class="st48" points="608,229 607,229 608,228 			"/>
			<rect x="587" y="227" class="st48" width="11" height="1"/>
			<rect x="579" y="235" class="st48" width="3" height="1"/>
			<rect x="579" y="214" class="st48" width="8" height="1"/>
			<rect x="581" y="211" class="st48" width="6" height="1"/>
			<polygon class="st48" points="556,263 560,263 560,251 561,252 561,264 557,264 			"/>
			<polygon class="st48" points="557,248 560,248 560,245 561,246 561,249 558,249 			"/>
			<polygon class="st48" points="557,242 559,242 559,235 560,234 560,243 558,243 			"/>
			<polygon class="st48" points="547,254 546,253 546,256 540,256 541,257 547,257 			"/>
			<polygon class="st48" points="607,242 608,243 608,248 613,248 614,249 607,249 			"/>
			<polygon class="st48" points="610,225 611,226 611,236 621,236 622,237 610,237 			"/>
		</g>

    <animate id="animation1" attributeName="opacity"
      from="1"
      to="1"
      begin="indefinite"
      dur="1.5"
      repeatCount="1"
      fill="freeze"
      values="1;1;1;1;1;0.5;1;1;1;0.5;1;0.5;1;0;1;0;1;0.5;1;1;1;1;0;0;0;0"
      />
	</g>
	<g id="Cracks_4_">
		<polyline class="st55" points="548,1">

      <animate id="animation2" attributeName="points"
        from="548,1"
        to="548,1"
        begin="indefinite"
        dur="1.5"
        repeatCount="1"
        fill="freeze"
        values="548,1;
                548,1 546,6;
                548,1 546,6 549,8;
                548,1 546,6 549,8 548,13;
                548,1 546,6 549,8 548,13 555,17;
                548,1 546,6 549,8 548,13 555,17 553,22;
                548,1 546,6 549,8 548,13 555,17 553,22 568,35;
                548,1 546,6 549,8 548,13 555,17 553,22 568,35 567,42;
                548,1 546,6 549,8 548,13 555,17 553,22 568,35 567,42 570,45;
                548,1 546,6 549,8 548,13 555,17 553,22 568,35 567,42 570,45 568,51;
                548,1 546,6 549,8 548,13 555,17 553,22 568,35 567,42 570,45 568,51 576,62;
                548,1 546,6 549,8 548,13 555,17 553,22 568,35 567,42 570,45 568,51 576,62 557,81;
                548,1 546,6 549,8 548,13 555,17 553,22 568,35 567,42 570,45 568,51 576,62 557,81 559,87;
                548,1 546,6 549,8 548,13 555,17 553,22 568,35 567,42 570,45 568,51 576,62 557,81 559,87 551,94;
                548,1 546,6 549,8 548,13 555,17 553,22 568,35 567,42 570,45 568,51 576,62 557,81 559,87 551,94 553,98;
                548,1 546,6 549,8 548,13 555,17 553,22 568,35 567,42 570,45 568,51 576,62 557,81 559,87 551,94 553,98 551,105;
                548,1 546,6 549,8 548,13 555,17 553,22 568,35 567,42 570,45 568,51 576,62 557,81 559,87 551,94 553,98 551,105 553,123;
                548,1 546,6 549,8 548,13 555,17 553,22 568,35 567,42 570,45 568,51 576,62 557,81 559,87 551,94 553,98 551,105 553,123 544,128;
                548,1 546,6 549,8 548,13 555,17 553,22 568,35 567,42 570,45 568,51 576,62 557,81 559,87 551,94 553,98 551,105 553,123 544,128 546,132;
                548,1 546,6 549,8 548,13 555,17 553,22 568,35 567,42 570,45 568,51 576,62 557,81 559,87 551,94 553,98 551,105 553,123 544,128 546,132 545,140;
                548,1 546,6 549,8 548,13 555,17 553,22 568,35 567,42 570,45 568,51 576,62 557,81 559,87 551,94 553,98 551,105 553,123 544,128 546,132 545,140 549,145;
                548,1 546,6 549,8 548,13 555,17 553,22 568,35 567,42 570,45 568,51 576,62 557,81 559,87 551,94 553,98 551,105 553,123 544,128 546,132 545,140 549,145 548,149;
                548,1 546,6 549,8 548,13 555,17 553,22 568,35 567,42 570,45 568,51 576,62 557,81 559,87 551,94 553,98 551,105 553,123 544,128 546,132 545,140 549,145 548,149 555,161;
                548,1 546,6 549,8 548,13 555,17 553,22 568,35 567,42 570,45 568,51 576,62 557,81 559,87 551,94 553,98 551,105 553,123 544,128 546,132 545,140 549,145 548,149 555,161 555,170;
                548,1 546,6 549,8 548,13 555,17 553,22 568,35 567,42 570,45 568,51 576,62 557,81 559,87 551,94 553,98 551,105 553,123 544,128 546,132 545,140 549,145 548,149 555,161 555,170 562,179;
                548,1 546,6 549,8 548,13 555,17 553,22 568,35 567,42 570,45 568,51 576,62 557,81 559,87 551,94 553,98 551,105 553,123 544,128 546,132 545,140 549,145 548,149 555,161 555,170 562,179 557,185;
                548,1 546,6 549,8 548,13 555,17 553,22 568,35 567,42 570,45 568,51 576,62 557,81 559,87 551,94 553,98 551,105 553,123 544,128 546,132 545,140 549,145 548,149 555,161 555,170 562,179 557,185 572,197"
      />
    </polyline>
		<polyline class="st55" points="616,252">

      <animate id="animation3" attributeName="points"
        from="616,252"
        to="616,252"
        begin="indefinite"
        dur="0.4"
        repeatCount="1"
        fill="freeze"
        values="616,252;
                616,252 628,266;
                616,252 628,266 626,271;
                616,252 628,266 626,271 630,277;
                616,252 628,266 626,271 630,277 624,288;
                616,252 628,266 626,271 630,277 624,288 625,290;
                616,252 628,266 626,271 630,277 624,288 625,290 616,294;
                616,252 628,266 626,271 630,277 624,288 625,290 616,294 617,299;
                616,252 628,266 626,271 630,277 624,288 625,290 616,294 617,299 607,309"
      />
    </polyline>
		<polyline class="st55" points="579,331">

      <animate id="animation4" attributeName="points"
        from="579,331"
        to="579,331"
        begin="indefinite"
        dur="0.2"
        repeatCount="1"
        fill="freeze"
        values="579,331;
                579,331 573,335;
                579,331 573,335 575,340;
                579,331 573,335 575,340 564,349;
                579,331 573,335 575,340 564,349 563,358;
                579,331 573,335 575,340 564,349 563,358 545,367;
                579,331 573,335 575,340 564,349 563,358 545,367 548,376;
                579,331 573,335 575,340 564,349 563,358 545,367 548,376 530,386"
      />
    </polyline>
	</g>
</g>
</svg>
