<?xml version="1.0" encoding="utf-8"?>
<!-- Generator: Adobe Illustrator 19.1.0, SVG Export Plug-In . SVG Version: 6.00 Build 0)  -->
<!DOCTYPE svg PUBLIC "-//W3C//DTD SVG 1.1//EN" "http://www.w3.org/Graphics/SVG/1.1/DTD/svg11.dtd">
<svg version="1.1" xmlns="http://www.w3.org/2000/svg" xmlns:xlink="http://www.w3.org/1999/xlink" x="0px" y="0px" width="720px"
	 height="417px" viewBox="0 0 720 417" style="enable-background:new 0 0 720 417;" xml:space="preserve">
  <!-- SVG animations polyfill (https://leunen.me/fakesmile/) -->

<style type="text/css">
	.st50{opacity:0.3;fill:none;stroke:#000000;stroke-miterlimit:10;}
	.st51{fill:#FFC900;}
	.st52{opacity:0.1;fill:url(#SVGID_2_);}
	.st53{opacity:0.65;}
</style>
<g id="Vancouver_lights">
	<g id="Cracks_1_">
		<polyline class="st50" points="479,156">

    <animate id="animation1" attributeName="points"
      from="479,156"
      to="479,156"
      begin="indefinite"
      dur="1.5"
      repeatCount="1"
      fill="freeze"
      values="479,156;
              479,156 476,161;
              479,156 476,161 479,162;
              479,156 476,161 479,162 479,164;
              479,156 476,161 479,162 479,164 480,164;
              479,156 476,161 479,162 479,164 480,164 480,169;
              479,156 476,161 479,162 479,164 480,164 480,169 484,170;
              479,156 476,161 479,162 479,164 480,164 480,169 484,170 484,173;
              479,156 476,161 479,162 479,164 480,164 480,169 484,170 484,173 487,174;
              479,156 476,161 479,162 479,164 480,164 480,169 484,170 484,173 487,174 488,179;
              479,156 476,161 479,162 479,164 480,164 480,169 484,170 484,173 487,174 488,179 502,180;
              479,156 476,161 479,162 479,164 480,164 480,169 484,170 484,173 487,174 488,179 502,180 502,183;
              479,156 476,161 479,162 479,164 480,164 480,169 484,170 484,173 487,174 488,179 502,180 502,183 506,183;
              479,156 476,161 479,162 479,164 480,164 480,169 484,170 484,173 487,174 488,179 502,180 502,183 506,183 508,189;
              479,156 476,161 479,162 479,164 480,164 480,169 484,170 484,173 487,174 488,179 502,180 502,183 506,183 508,189 510,190;
              479,156 476,161 479,162 479,164 480,164 480,169 484,170 484,173 487,174 488,179 502,180 502,183 506,183 508,189 510,190 509,193;
              479,156 476,161 479,162 479,164 480,164 480,169 484,170 484,173 487,174 488,179 502,180 502,183 506,183 508,189 510,190 509,193 514,196;
              479,156 476,161 479,162 479,164 480,164 480,169 484,170 484,173 487,174 488,179 502,180 502,183 506,183 508,189 510,190 509,193 514,196 517,201;
              479,156 476,161 479,162 479,164 480,164 480,169 484,170 484,173 487,174 488,179 502,180 502,183 506,183 508,189 510,190 509,193 514,196 517,201 528,200;
              479,156 476,161 479,162 479,164 480,164 480,169 484,170 484,173 487,174 488,179 502,180 502,183 506,183 508,189 510,190 509,193 514,196 517,201 528,200 529,203;
              479,156 476,161 479,162 479,164 480,164 480,169 484,170 484,173 487,174 488,179 502,180 502,183 506,183 508,189 510,190 509,193 514,196 517,201 528,200 529,203 535,202;
              479,156 476,161 479,162 479,164 480,164 480,169 484,170 484,173 487,174 488,179 502,180 502,183 506,183 508,189 510,190 509,193 514,196 517,201 528,200 529,203 535,202 536,204;
              479,156 476,161 479,162 479,164 480,164 480,169 484,170 484,173 487,174 488,179 502,180 502,183 506,183 508,189 510,190 509,193 514,196 517,201 528,200 529,203 535,202 536,204 538,204;
              479,156 476,161 479,162 479,164 480,164 480,169 484,170 484,173 487,174 488,179 502,180 502,183 506,183 508,189 510,190 509,193 514,196 517,201 528,200 529,203 535,202 536,204 538,204 539,208;
              479,156 476,161 479,162 479,164 480,164 480,169 484,170 484,173 487,174 488,179 502,180 502,183 506,183 508,189 510,190 509,193 514,196 517,201 528,200 529,203 535,202 536,204 538,204 539,208 536,213;
              479,156 476,161 479,162 479,164 480,164 480,169 484,170 484,173 487,174 488,179 502,180 502,183 506,183 508,189 510,190 509,193 514,196 517,201 528,200 529,203 535,202 536,204 538,204 539,208 536,213 540,217"
      />
    </polyline>
		<polyline class="st50" points="596,388">

      <animate id="animation2" attributeName="points"
        from="596,388"
        to="596,388"
        begin="indefinite"
        dur="0.8"
        repeatCount="1"
        fill="freeze"
        values="596,388;
                596,388 594,381;
                596,388 594,381 601,371;
                596,388 594,381 601,371 599,367;
                596,388 594,381 601,371 599,367 607,348;
                596,388 594,381 601,371 599,367 607,348 602,346;
                596,388 594,381 601,371 599,367 607,348 602,346 604,339;
                596,388 594,381 601,371 599,367 607,348 602,346 604,339 597,331;
                596,388 594,381 601,371 599,367 607,348 602,346 604,339 597,331 600,324;
                596,388 594,381 601,371 599,367 607,348 602,346 604,339 597,331 600,324 594,323;
                596,388 594,381 601,371 599,367 607,348 602,346 604,339 597,331 600,324 594,323 594,317;
                596,388 594,381 601,371 599,367 607,348 602,346 604,339 597,331 600,324 594,323 594,317 588,316;
                596,388 594,381 601,371 599,367 607,348 602,346 604,339 597,331 600,324 594,323 594,317 588,316 590,312;
                596,388 594,381 601,371 599,367 607,348 602,346 604,339 597,331 600,324 594,323 594,317 588,316 590,312 588,304"
      />
    </polyline>
		<polyline class="st50" points="667,416">

      <animate id="animation3" attributeName="points"
        from="667,416"
        to="667,416"
        begin="indefinite"
        dur="1.5"
        repeatCount="1"
        fill="freeze"
        values="667,416;
                667,416 670,408;
                667,416 670,408 663,402;
                667,416 670,408 663,402 679,378;
                667,416 670,408 663,402 679,378 673,368;
                667,416 670,408 663,402 679,378 673,368 674,364;
                667,416 670,408 663,402 679,378 673,368 674,364 672,359;
                667,416 670,408 663,402 679,378 673,368 674,364 672,359 674,355;
                667,416 670,408 663,402 679,378 673,368 674,364 672,359 674,355 660,347;
                667,416 670,408 663,402 679,378 673,368 674,364 672,359 674,355 660,347 662,342;
                667,416 670,408 663,402 679,378 673,368 674,364 672,359 674,355 660,347 662,342 645,335;
                667,416 670,408 663,402 679,378 673,368 674,364 672,359 674,355 660,347 662,342 645,335 643,328;
                667,416 670,408 663,402 679,378 673,368 674,364 672,359 674,355 660,347 662,342 645,335 643,328 632,327"
      />
    </polyline>
	</g>
	<g id="Lights_1_" opacity="1">
		<g>
			<path class="st51" d="M583.3,96.3L562,93.5V85l21.3-3.2v5.9c-5.9,0.7-10.9,1.2-14.9,1.5c4.1,0.3,7.8,0.6,11,0.9l4,0.4V96.3z"/>
			<path class="st51" d="M583.3,106.5l-21.3,3.2V104l3.8-0.3v-2l-3.8-0.3v-5.7l21.3,2.8V106.5z M569.6,103.5c2.4-0.3,5.4-0.6,9-0.8
				c-4.1-0.6-7.1-0.9-9-1.1V103.5z"/>
			<path class="st51" d="M583.3,123H562v-4.9l9.7-2.9H562v-4.6h21.3v4.6l-9.6,3.1h9.6V123z"/>
			<path class="st51" d="M574,138.2v-5.5h3.7c1.1,0,1.8-0.1,2-0.2c0.3-0.1,0.4-0.4,0.4-0.8c0-0.5-0.2-0.7-0.5-0.9s-1-0.2-2.1-0.2
				h-9.9c-1,0-1.7,0.1-2,0.2s-0.5,0.4-0.5,0.8c0,0.4,0.2,0.7,0.5,0.8c0.3,0.1,1.1,0.2,2.2,0.2h2.7v5.5h-0.8c-2.2,0-3.8-0.2-4.7-0.5
				c-0.9-0.3-1.7-1-2.4-2.1c-0.7-1.1-1-2.4-1-3.9c0-1.6,0.3-3,0.9-4c0.6-1.1,1.4-1.8,2.4-2.1c1-0.3,2.6-0.5,4.7-0.5h6.2
				c1.5,0,2.7,0.1,3.5,0.2c0.8,0.1,1.5,0.4,2.2,0.9c0.7,0.5,1.3,1.2,1.7,2.2c0.4,0.9,0.6,2,0.6,3.2c0,1.6-0.3,3-0.9,4
				s-1.4,1.8-2.4,2.1c-0.9,0.3-2.4,0.5-4.4,0.5H574z"/>
			<path class="st51" d="M570.8,152.8c-2.1,0-3.7-0.1-4.6-0.2c-0.9-0.1-1.7-0.4-2.4-0.9c-0.7-0.5-1.3-1.3-1.7-2.2
				c-0.4-0.9-0.6-2-0.6-3.2c0-1.1,0.2-2.2,0.6-3.1c0.4-0.9,0.9-1.6,1.7-2.2c0.7-0.6,1.6-0.9,2.4-1s2.4-0.2,4.6-0.2h3.7
				c2.1,0,3.7,0.1,4.6,0.2c0.9,0.1,1.7,0.4,2.4,0.9c0.7,0.5,1.3,1.2,1.7,2.2s0.6,2,0.6,3.2c0,1.1-0.2,2.2-0.6,3.1
				c-0.4,0.9-0.9,1.6-1.7,2.2c-0.7,0.6-1.6,0.9-2.4,1s-2.4,0.2-4.6,0.2H570.8z M577.9,147.3c1,0,1.6-0.1,1.9-0.2
				c0.3-0.1,0.4-0.3,0.4-0.7c0-0.3-0.1-0.5-0.3-0.7c-0.2-0.2-0.9-0.2-2-0.2h-10c-1.2,0-2,0-2.3,0.2c-0.3,0.1-0.4,0.3-0.4,0.7
				c0,0.4,0.2,0.6,0.5,0.7s1.1,0.2,2.4,0.2H577.9z"/>
			<path class="st51" d="M583.3,167.5h-14.3c-1.6,0-2.8-0.1-3.4-0.2c-0.7-0.1-1.3-0.4-2-0.9s-1.2-1.2-1.6-2c-0.4-0.8-0.5-1.8-0.5-3
				c0-1.3,0.2-2.4,0.6-3.4c0.4-1,1-1.7,1.6-2.2c0.7-0.5,1.4-0.8,2.1-0.9c0.8-0.1,2.3-0.1,4.7-0.1h12.6v5.5h-16
				c-0.9,0-1.5,0.1-1.8,0.2c-0.3,0.1-0.4,0.3-0.4,0.6c0,0.4,0.1,0.6,0.4,0.7c0.3,0.1,1,0.2,2,0.2h15.7V167.5z"/>
			<path class="st51" d="M583.3,182.9l-21.3-2.8v-8.4l21.3-3.2v5.9c-5.9,0.7-10.9,1.2-14.9,1.5c4.1,0.3,7.8,0.6,11,0.9l4,0.4V182.9z
				"/>
			<path class="st51" d="M583.3,183.8v9.3h-4.3v-3.7h-4v3.5H571v-3.5h-4.7v4.1H562v-9.6H583.3z"/>
			<path class="st51" d="M583.3,195v3.9c0,2.6-0.1,4.4-0.3,5.3c-0.2,0.9-0.7,1.7-1.5,2.3c-0.8,0.6-2.2,0.9-4,0.9
				c-1.7,0-2.8-0.2-3.3-0.6c-0.6-0.4-0.9-1.2-1-2.4c-0.3,1.1-0.6,1.8-1.1,2.2s-0.9,0.6-1.3,0.7c-0.4,0.1-1.4,0.1-3.2,0.1H562v-5.2
				h7.1c1.1,0,1.9-0.1,2.1-0.3c0.3-0.2,0.4-0.7,0.4-1.4H562V195H583.3z M579.7,200.6h-4.7c0,0.6,0.1,1.1,0.3,1.3
				c0.2,0.2,0.7,0.4,1.7,0.4h1.2c0.7,0,1.1-0.1,1.3-0.4C579.6,201.7,579.7,201.2,579.7,200.6z"/>
		</g>

			<radialGradient id="SVGID_2_" cx="572" cy="204" r="94" gradientTransform="matrix(1 0 0 1.5851 0 -174.3617)" gradientUnits="userSpaceOnUse">
			<stop  offset="0" style="stop-color:#FFC900"/>
			<stop  offset="1" style="stop-color:#FFAF00;stop-opacity:0"/>
		</radialGradient>
		<ellipse class="st52" cx="572" cy="149" rx="94" ry="149"/>
		<g class="st53">
			<path class="st51" d="M566,213c3.7,0,6.7,2.9,7,6.5c0-0.2,0-0.3,0-0.5c0-3.9-3.1-7-7-7s-7,3.1-7,7c0,0.2,0,0.3,0,0.5
				C559.3,215.9,562.3,213,566,213z"/>
			<g>
				<g>
					<path class="st51" d="M566,217c3.3,0,6,0.9,6,2c0-2.2-2.7-4-6-4s-6,1.8-6,4C560,217.9,562.7,217,566,217z"/>
				</g>
			</g>
			<polygon class="st51" points="521,225 522,224 535,224 535,230 534,231 534,225 			"/>
			<polygon class="st51" points="533,232 532,233 535,233 535,237 536,236 536,232 			"/>
			<polygon class="st51" points="537,223 538,222 542,222 542,232 541,232 541,223 			"/>
			<polygon class="st51" points="544,237 543,232 542,232 543,237 			"/>
			<polygon class="st51" points="537,238 538,237 545,237 545,245 544,246 544,238 			"/>
			<polygon class="st51" points="542,248 543,247 545,247 547,249 547,258 546,259 546,250 544,248 			"/>
			<polygon class="st51" points="541,249 543,249 545,251 545,260 544,261 544,252 542,250 540,250 			"/>
			<polygon class="st51" points="547,260 546,261 551,261 554,266 556,267 552,260 			"/>
			<polygon class="st51" points="526,240 527,239 529,239 529,246 528,246 528,240 			"/>
			<polygon class="st51" points="553,279 552,280 564,280 564,279 			"/>
			<polygon class="st51" points="573,224 576,221 579,221 579,220 576,220 573,223 			"/>
			<rect x="567" y="234" class="st51" width="8" height="1"/>
			<polygon class="st51" points="604,255 604,253 608,249 607.5,248.5 603,253 603,255 			"/>
			<polygon class="st51" points="607,256 614,249 614,250 608,256 			"/>
			<polygon class="st51" points="609,264 611,262 611,263 610,264 			"/>
			<polygon class="st51" points="607,270 608,270 612,266 611,266 			"/>
			<polygon class="st51" points="620,275 628,267 628,266 620,274 			"/>
			<polygon class="st51" points="633,263 633,264 640,264 641,263 			"/>
		</g>

    <animate id="animation4" attributeName="opacity"
      from="1"
      to="1"
      begin="indefinite"
      dur="1.5"
      repeatCount="1"
      fill="freeze"
      values="1;0.5;1;1;1;0.5;1;0;1;0.5;1;0.5;1;0;1;0;1;0.5;1;0.5;1;1;0;0;0;0"
      />
	</g>
</g>
</svg>
