<?xml version="1.0" encoding="utf-8"?>
<!-- Generator: Adobe Illustrator 19.1.0, SVG Export Plug-In . SVG Version: 6.00 Build 0)  -->
<!DOCTYPE svg PUBLIC "-//W3C//DTD SVG 1.1//EN" "http://www.w3.org/Graphics/SVG/1.1/DTD/svg11.dtd">
<svg version="1.1" xmlns="http://www.w3.org/2000/svg" xmlns:xlink="http://www.w3.org/1999/xlink" x="0px" y="0px" width="80px"
	 height="80px" viewBox="0 0 80 80" style="enable-background:new 0 0 80 80;" xml:space="preserve">
<style type="text/css">
	.st0{fill:#FF4D00;}
	.st1{fill:none;}
	.st2{fill:#3398E5;}
	.st3{fill:#FFFFFF;}
	.st4{fill:none;stroke:#FFFFFF;stroke-width:5;stroke-miterlimit:10;}
	.st5{fill:none;stroke:#FF4E15;stroke-width:5;stroke-miterlimit:10;}
	.st6{fill:url(#SVGID_1_);}
	.st7{fill:url(#SVGID_2_);}
	.st8{fill:url(#SVGID_3_);}
	.st9{fill:url(#SVGID_4_);}
	.st10{fill:none;stroke:#FF4E15;stroke-width:5;stroke-linecap:square;stroke-miterlimit:10;}
	.st11{opacity:0.5;}
	.st12{fill:#FF7C52;}
	.st13{fill:#631700;}
	.st14{opacity:0.5;fill:#FF7C52;}
	.st15{fill:#FF4E15;}
	.st16{fill:none;stroke:#631700;stroke-width:10;stroke-miterlimit:10;}
	.st17{fill:none;stroke:#631700;stroke-width:5;stroke-miterlimit:10;}
	.st18{fill:none;stroke:#FF4E15;stroke-width:5;stroke-linejoin:bevel;stroke-miterlimit:10;}
	.st19{fill:url(#SVGID_5_);}
	.st20{fill:none;stroke:#631700;stroke-width:5;stroke-linecap:square;stroke-miterlimit:10;}
	.st21{fill:url(#SVGID_6_);}
	.st22{fill:url(#SVGID_7_);}
	.st23{fill:url(#SVGID_8_);}
	.st24{fill:url(#SVGID_9_);}
	.st25{display:none;fill:none;}
	.st26{fill:url(#SVGID_10_);}
	.st27{fill:url(#SVGID_11_);}
	.st28{fill:url(#SVGID_12_);}
	.st29{fill:url(#SVGID_13_);}
	.st30{fill:url(#SVGID_14_);}
	.st31{fill:url(#SVGID_15_);}
	.st32{fill:url(#SVGID_16_);}
	.st33{fill:url(#SVGID_17_);}
	.st34{fill:url(#SVGID_18_);}
	.st35{fill:url(#SVGID_19_);}
	.st36{fill:url(#SVGID_20_);}
	.st37{fill:url(#SVGID_21_);}
	.st38{fill:url(#SVGID_22_);}
	.st39{fill:url(#SVGID_23_);}
	.st40{fill:url(#SVGID_24_);}
	.st41{fill:url(#SVGID_25_);}
	.st42{fill:url(#SVGID_26_);}
	.st43{fill:url(#SVGID_27_);}
	.st44{fill:url(#SVGID_28_);}
	.st45{fill:url(#SVGID_29_);}
	.st46{fill:url(#SVGID_30_);}
	.st47{fill:url(#SVGID_31_);}
	.st48{fill:url(#SVGID_32_);}
	.st49{fill:url(#SVGID_33_);}
	.st50{fill:url(#SVGID_34_);}
	.st51{fill:url(#SVGID_35_);}
	.st52{fill:url(#SVGID_36_);}
	.st53{fill:url(#SVGID_37_);}
	.st54{fill:url(#SVGID_38_);}
	.st55{fill:url(#SVGID_39_);}
	.st56{fill:url(#SVGID_40_);}
	.st57{fill:url(#SVGID_41_);}
	.st58{fill:url(#SVGID_42_);}
	.st59{fill:url(#SVGID_43_);}
	.st60{fill:url(#SVGID_44_);}
	.st61{fill:url(#SVGID_45_);}
	.st62{fill:url(#SVGID_46_);}
	.st63{fill:url(#SVGID_47_);}
	.st64{fill:url(#SVGID_48_);}
</style>
<g id="Layer_3">
</g>
<g id="Layer_2">
	<path class="st5" d="M5,40v-5v0c0-3.2,1.3-6.3,3.5-8.5L30,5h5h0c3.2,0,6.3,1.3,8.5,3.5l2.9,2.9c2.3,2.3,3.5,5.3,3.5,8.5v0v0
		c0,5.5,4.5,10,10,10h0c3.2,0,6.3,1.3,8.5,3.5l2.9,2.9c2.3,2.3,3.5,5.3,3.5,8.5v0v5L53.5,71.5C51.3,73.7,48.2,75,45,75h0h-5"/>
	<path class="st5" d="M75,50L75,50c-11,0-20-9-20-20v0"/>
	<path class="st5" d="M30,5L30,5c0,11,9,20,20,20h0"/>
	<polyline class="st10" points="30,40 30,50 30,60 	"/>
	<line class="st10" x1="20" y1="50" x2="40" y2="50"/>
</g>
<g id="Layer_4">
</g>
</svg>
