<?xml version="1.0" encoding="utf-8"?>
<!-- Generator: Adobe Illustrator 19.1.0, SVG Export Plug-In . SVG Version: 6.00 Build 0)  -->
<!DOCTYPE svg PUBLIC "-//W3C//DTD SVG 1.1//EN" "http://www.w3.org/Graphics/SVG/1.1/DTD/svg11.dtd">
<svg version="1.1" id="Layer_1" xmlns="http://www.w3.org/2000/svg" xmlns:xlink="http://www.w3.org/1999/xlink" x="0px" y="0px"
	 width="99.3px" height="64px" viewBox="-461 481 99.3 64" style="enable-background:new -461 481 99.3 64;" xml:space="preserve">
<style type="text/css">
	.st0{display:none;fill:#DC170A;}
	.st1{fill:#FF9B58;}
</style>
<rect id="BG" x="-573.2" y="535.4" class="st0" width="595.3" height="252.9"/>
<g id="For_light_BGs_1_">
	<g>
		<g>
			<g>
				<path class="st1" d="M-440.4,538.5C-440.4,538.5-440.4,538.4-440.4,538.5"/>
			</g>
			<g>
				<path class="st1" d="M-371.5,501.9c-2.8,0-5.1,2.3-5.1,5.1v0.1l-17.6,7.5l-13-22.6c0.6-0.8,0.9-1.8,0.9-2.9
					c0-2.8-2.3-5.1-5.1-5.1c-2.8,0-5.1,2.3-5.1,5.1c0,1.1,0.4,2.1,1,3l-13.1,22.6l-17.6-7.5v-0.1c0-2.8-2.3-5.1-5.1-5.1
					c-2.8,0-5.1,2.2-5.1,5s2.3,5.1,5.1,5.1l0,0l8.5,21.1c-1,0.9-1.6,2.2-1.6,3.7c0,2.8,2.3,5.1,5.1,5.1c2.1,0,4-1.3,4.7-3.2h46.4
					c0.7,1.9,2.6,3.2,4.7,3.2c2.8,0,5.1-2.3,5.1-5.1c0-1.5-0.6-2.8-1.6-3.7l8.5-21.1l0,0c2.8,0,5.1-2.3,5.1-5.1
					S-368.7,501.9-371.5,501.9z M-373.3,507c0-1,0.8-1.9,1.9-1.9c1,0,1.9,0.8,1.9,1.9c0,1-0.8,1.9-1.9,1.9S-373.3,508.1-373.3,507z
					 M-385.3,537c0-0.2,0-0.5,0.1-0.7c0.3-0.7,0.9-1.2,1.7-1.2c0.3,0,0.5,0.1,0.7,0.1c0.7,0.3,1.1,0.9,1.1,1.7c0,0.2,0,0.5-0.1,0.7
					c-0.3,0.7-0.9,1.2-1.7,1.2c-0.9,0-1.7-0.7-1.8-1.5C-385.3,537.2-385.3,537.1-385.3,537z M-411.4,490.9c-1,0-1.9-0.8-1.9-1.9
					c0-1,0.8-1.9,1.9-1.9c1,0,1.9,0.8,1.9,1.9S-410.4,490.9-411.4,490.9z M-412.4,494.1c0.3,0.1,0.6,0.1,1,0.1c0.3,0,0.7,0,1-0.1
					l12.8,22.1l-13.8,5.9l-13.7-5.9L-412.4,494.1z M-395.7,519.4l7.2,12.4l-18.1-7.7L-395.7,519.4z M-439.3,538.8
					c-0.4,0-0.7-0.1-1-0.3c0,0-0.1,0-0.1-0.1l0,0c-0.3-0.2-0.5-0.5-0.6-0.8c-0.1-0.2-0.1-0.4-0.1-0.7c0-0.4,0.1-0.8,0.3-1.1
					c0.2-0.3,0.5-0.5,0.8-0.6c0.2-0.1,0.5-0.1,0.7-0.1c0.8,0,1.4,0.5,1.7,1.2c0.1,0.2,0.1,0.4,0.1,0.7c0,0.1,0,0.2,0,0.3
					C-437.7,538.2-438.4,538.8-439.3,538.8z M-416.1,524.1l-18,7.7l7.1-12.3L-416.1,524.1z M-453.1,507c0-1,0.8-1.9,1.9-1.9
					c1,0,1.9,0.8,1.9,1.9c0,1-0.8,1.9-1.9,1.9C-452.3,508.9-453.1,508.1-453.1,507z M-447.8,510.7l0.1-0.1l17.2,7.4l-8.1,14
					c-0.3,0-0.5-0.1-0.8-0.1l0,0L-447.8,510.7z M-432.3,535.1l20.9-9l20.9,9H-432.3z M-383.4,531.9L-383.4,531.9
					c-0.3,0-0.5,0-0.8,0.1l-8.1-14l17.2-7.3l0.1,0.1L-383.4,531.9z"/>
			</g>
		</g>
	</g>
</g>
</svg>
