<?xml version="1.0" encoding="utf-8"?>
<!-- Generator: Adobe Illustrator 19.1.0, SVG Export Plug-In . SVG Version: 6.00 Build 0)  -->
<!DOCTYPE svg PUBLIC "-//W3C//DTD SVG 1.1//EN" "http://www.w3.org/Graphics/SVG/1.1/DTD/svg11.dtd">
<svg version="1.1" xmlns="http://www.w3.org/2000/svg" xmlns:xlink="http://www.w3.org/1999/xlink" x="0px" y="0px" width="1076px"
	 height="228px" viewBox="0 0 1076 228" style="enable-background:new 0 0 1076 228;" xml:space="preserve">
   <script type="text/ecmascript" xlink:href="/assets/javascripts/vendor/smil.user.js"></script>
<style type="text/css">
	.st0{fill:#161F29;}
	.st1{opacity:0.5;fill:none;stroke:#FF4D00;stroke-miterlimit:10;}
	.st2{fill:#FF4D00;}
	.st3{filter:url(#Adobe_OpacityMaskFilter);}
	.st4{opacity:0.39;mask:url(#SVGID_1_);fill:url(#SVGID_2_);}
	.st5{fill:url(#FadeOut_1_);}
</style>
<g id="Background">
	<rect class="st0" width="1076" height="228"/>
</g>
<g id="Layer_2">
	<g id="Waves">
		<path id="MotionPath" fill="none" opacity="0.5" stroke="#FF4D00" stroke-width="1" d="M524,114.2 872,114.2 872,112.2 874,112.2 874,116.2 876,116.2 876,114.2 898,114.2 898,110.2
			900,110.2 900,118.2 902,118.2 902,114.2 918,114.2 918,112.2 920,112.2 920,116.2 922,116.2 922,110.2 924,110.2 924,118.2
			926,118.2 926,114.2 940,114.2 940,112.2 942,112.2 942,116.2 944,116.2 944,112.2 946,112.2 946,114.2 956,114.2 956,112.2
			958,112.2 958,116.2 960,116.2 960,114.2 960,110.2 962,110.2 962,118.2 964,118.2 964,114.2 964,112.2 966,112.2 966,116.2
			968,116.2 968,114.2 974,114.2 974,112.2 976,112.2 976,116.2 978,116.2 978,114.2 978,110.2 980,110.2 980,118.2 982,118.2
			982,108.2 984,108.2 984,120.2 986,120.2 986,100.2 988,100.2 988,142.2 990,142.2 990,86.2 992,86.2 992,146.2 994,146.2
			994,82.2 996,82.2 996,150.2 998,150.2 998,78.2 1000,78.2 1000,134.2 1002,134.2 1002,96.2 1004,96.2 1004,132.2 1006,132.2
			1006,104.2 1008,104.2 1008,124.2 1010,124.2 1010,110.2 1012,110.2 1012,118.2 1014,118.2 1014,114.2 1020,114.2 1026,114.2
			1026,110.2 1028,110.2 1028,118.2 1030,118.2 1030,112.2 1032,112.2 1032,116.2 1034,116.2 1034,114.2 1044,114.2 1044,104.2
			1046,104.2 1046,126.2 1048,126.2 1048,76.2 1050,76.2 1050,152.2 1052,152.2 1052,72.2 1052,60.2 1054,60.2 1054,168.2
			1056,168.2 1056,40.2 1058,40.2 1058,188.2 1060,188.2 1060,32.2 1062,32.2 1062,196.2 1064,196.2 1064,54.2 1066,54.2
			1066,176.2 1068,176.2 1068,68.2 1070,68.2 1070,164.2 1072,164.2 1072,72.2 1074,72.2 1074,160.2 1076,160.2 1076,88.2
			1078,88.2 1078,136.2 1080,136.2 1080,102.2 1082,102.2 1082,124.2 1084,124.2 1084,110.2 1086,110.2 1086,118.2 1088,118.2
			1088,114.2 1104,114.2 1104,110.2 1106,110.2 1106,118.2 1108,118.2 1108,112.2 1110,112.2 1110,116.2 1112,116.2 1112,106.2
			1114,106.2 1114,124.2 1116,124.2 1116,96.2 1118,96.2 1118,134.2 1120,134.2 1120,92.2 1122,92.2 1122,138.2 1124,138.2
			1124,108.2 1126,108.2 1126,122.2 1128,122.2 1128,110.2 1130,110.2 1130,120.2 1132,120.2 1132,112.2 1134,112.2 1134,118.2
			1136,118.2 1136,114.2 1140,114.2 1140,110.2 1142,110.2 1142,118.2 1144,118.2 1144,114.2 1150,114.2 1150,112.2 1152,112.2
			1152,116.2 1154,116.2 1154,114.2 1160,114.2 1160,108.2 1162,108.2 1162,122.2 1164,122.2 1164,100.2 1166,100.2 1166,130.2
			1168,130.2 1168,94.2 1170,94.2 1170,136.2 1172,136.2 1172,108.2 1174,108.2 1174,122.2 1176,122.2 1176,114.2 1188,114.2
			1188,112.2 1190,112.2 1190,116.2 1192,116.2 1192,114.2 1220,114.2 1220,110.2 1222,110.2 1222,118.2 1224,118.2 1224,108.2
			1226,108.2 1226,120.2 1228,120.2 1228,114.2 1620,114.2"/>
		<polyline class="st1" points="-552,114.2 -204,114.2 -204,112.2 -202,112.2 -202,116.2 -200,116.2 -200,114.2 -178,114.2
			-178,110.2 -176,110.2 -176,118.2 -174,118.2 -174,114.2 -158,114.2 -158,112.2 -156,112.2 -156,116.2 -154,116.2 -154,110.2
			-152,110.2 -152,118.2 -150,118.2 -150,114.2 -136,114.2 -136,112.2 -134,112.2 -134,116.2 -132,116.2 -132,112.2 -130,112.2
			-130,114.2 -120,114.2 -120,112.2 -118,112.2 -118,116.2 -116,116.2 -116,114.2 -116,110.2 -114,110.2 -114,118.2 -112,118.2
			-112,114.2 -112,112.2 -110,112.2 -110,116.2 -108,116.2 -108,114.2 -102,114.2 -102,112.2 -100,112.2 -100,116.2 -98,116.2
			-98,114.2 -98,110.2 -96,110.2 -96,118.2 -94,118.2 -94,108.2 -92,108.2 -92,120.2 -90,120.2 -90,100.2 -88,100.2 -88,142.2
			-86,142.2 -86,86.2 -84,86.2 -84,146.2 -82,146.2 -82,82.2 -80,82.2 -80,150.2 -78,150.2 -78,78.2 -76,78.2 -76,134.2 -74,134.2
			-74,96.2 -72,96.2 -72,132.2 -70,132.2 -70,104.2 -68,104.2 -68,124.2 -66,124.2 -66,110.2 -64,110.2 -64,118.2 -62,118.2
			-62,114.2 -56,114.2 -50,114.2 -50,110.2 -48,110.2 -48,118.2 -46,118.2 -46,112.2 -44,112.2 -44,116.2 -42,116.2 -42,114.2
			-32,114.2 -32,104.2 -30,104.2 -30,126.2 -28,126.2 -28,76.2 -26,76.2 -26,152.2 -24,152.2 -24,72.2 -24,60.2 -22,60.2 -22,168.2
			-20,168.2 -20,40.2 -18,40.2 -18,188.2 -16,188.2 -16,32.2 -14,32.2 -14,196.2 -12,196.2 -12,54.2 -10,54.2 -10,176.2 -8,176.2
			-8,68.2 -6,68.2 -6,164.2 -4,164.2 -4,72.2 -2,72.2 -2,160.2 0,160.2 0,88.2 2,88.2 2,136.2 4,136.2 4,102.2 6,102.2 6,124.2
			8,124.2 8,110.2 10,110.2 10,118.2 12,118.2 12,114.2 28,114.2 28,110.2 30,110.2 30,118.2 32,118.2 32,112.2 34,112.2 34,116.2
			36,116.2 36,106.2 38,106.2 38,124.2 40,124.2 40,96.2 42,96.2 42,134.2 44,134.2 44,92.2 46,92.2 46,138.2 48,138.2 48,108.2
			50,108.2 50,122.2 52,122.2 52,110.2 54,110.2 54,120.2 56,120.2 56,112.2 58,112.2 58,118.2 60,118.2 60,114.2 64,114.2
			64,110.2 66,110.2 66,118.2 68,118.2 68,114.2 74,114.2 74,112.2 76,112.2 76,116.2 78,116.2 78,114.2 84,114.2 84,108.2
			86,108.2 86,122.2 88,122.2 88,100.2 90,100.2 90,130.2 92,130.2 92,94.2 94,94.2 94,136.2 96,136.2 96,108.2 98,108.2 98,122.2
			100,122.2 100,114.2 112,114.2 112,112.2 114,112.2 114,116.2 116,116.2 116,114.2 144,114.2 144,110.2 146,110.2 146,118.2
			148,118.2 148,108.2 150,108.2 150,120.2 152,120.2 152,114.2 524,114.2 		"/>

      <animateTransform attributeName="transform"
        type="translate"
        values="0 0;-1076 0"
        begin="0"
        dur="7"
        repeatCount="indefinite"
        />
	</g>
	<rect id="Offset" x="538" class="st0" width="538" height="228" opacity="1"/>

  	<circle class="st2" cx="538" cy="114" r="2">
    <animateTransform attributeName="transform"
      type="translate"
      begin="0"
      dur="7"
      values="0 0;0 0;0 0;0 0;0 0;0 0;0 0;0 0;0 0;0 0;0 0;0 0;0 0;0 0;0 0;0 0;0 0;0 0;0 0;0 0;0 0;0 0;0 0;0 0;0 0;0 -4;0 4;0 -4;0 4;0 0;0 0;0 -4;0 4;0 -20;0 20;0 0;0 -5;0 5;0 -50;0 50;0 0;0 0;0 -20;0 20;0 0;0 -4;0 4;0 -4;0 0;0 0;0 0;0 0;0 0;0 0;0 0;0 0;0 0;0 0;0 0;0 0;0 0;0 0;0 0;0 0;0 0;0 0;0 0;0 0;0 0;0 0;0 0;0 0;0 0;0 0;0 0;0 0;0 0;0 0;0 0"
      repeatCount="indefinite"
      />
    </circle>

	<linearGradient id="FadeOut_1_" gradientUnits="userSpaceOnUse" x1="188.3333" y1="114" x2="315.0439" y2="114">
		<stop  offset="0" style="stop-color:#161F29"/>
		<stop  offset="1" style="stop-color:#161F29;stop-opacity:0"/>
	</linearGradient>
	<rect id="FadeOut" class="st5" ry="-2" width="320" height="228"/>
</g>
</svg>
