<?xml version="1.0" encoding="utf-8"?>
<!-- Generator: Adobe Illustrator 19.1.0, SVG Export Plug-In . SVG Version: 6.00 Build 0)  -->
<!DOCTYPE svg PUBLIC "-//W3C//DTD SVG 1.1//EN" "http://www.w3.org/Graphics/SVG/1.1/DTD/svg11.dtd">
<svg version="1.1" xmlns="http://www.w3.org/2000/svg" xmlns:xlink="http://www.w3.org/1999/xlink" x="0px" y="0px" width="829.5px"
	 height="619px" viewBox="0 0 829.5 619" style="enable-background:new 0 0 829.5 619;" xml:space="preserve">
<style type="text/css">
	.st0{display:none;}
	.st1{display:inline;}
	.st2{display:inline;fill:#161F29;}
	.st3{opacity:0.2;fill:url(#SVGID_1_);}
	.st4{opacity:0.15;fill:url(#SVGID_2_);}
	.st5{opacity:0.5;fill:url(#SVGID_3_);}
	.st6{fill:none;stroke:#FF4D00;stroke-width:3;stroke-miterlimit:10;enable-background:new    ;}
	.st7{opacity:0.1;}
	.st8{fill:#FFFFFF;}
	.st9{opacity:0.2;}
	.st10{opacity:0.15;fill:#FFFFFF;}
</style>
<g id="Layer_3">
	<g>
		<radialGradient id="SVGID_1_" cx="529.3856" cy="292.0452" r="291.0069" gradientUnits="userSpaceOnUse">
			<stop  offset="0" style="stop-color:#FFFFFF"/>
			<stop  offset="1" style="stop-color:#FFFFFF;stop-opacity:0"/>
		</radialGradient>
		<path class="st3" d="M1095.4,0c0,0-306.1,0-640,0c-21.7,0-102,0-102,0c-0.1,0,0,0.8,0.3,2.2h7c11.8,8.8,5.7,8.5,14.2,22
			s20.8,16.8,26.2,28c5.3,11.2,2.7,19.3,5.2,21.3s4.8,4.3,5.2,11.2c0.3,6.8,7.3,10.8,13.7,15.2c6.3,4.3,16.5,4.5,16.5,8.8
			s4.2,7.9,4.2,7.9s-3.8,0-15.5-6.6c-11.7-6.6-21-10.8-24.7-8.8c-3.7,2-7.5,0.2-7.9,3.1c-1.2,7.8,6.5,13.8,9,16s5.8,4,5.5,9
			s2.5,5,6.2,5.8s0.2,6,8,5.5s6,3.5,7,6.5s7.2,6.5,8.5,8.5s1,6.8,3.5,6.5s2.8-1.5,7,3.7s8.8,7.6,18.5,12.3s3.2,10.8,9.8,9.8
			s14.2,5.2,19,7.2s14.8,4.3,18.8,4.8c3.2,0.4,4.5-4.1,8.1-4.7c0.1-0.9-0.1-1.9-0.5-3c-2.5-6.4,3.1-6.7,4.5-8.9
			c1.4-2.2-3.5-4.6-7-5.6s-5-2.2-9.7-9c-4.7-6.8-12.9-6.9-16.3-6.5c-3.4,0.4-5-0.2-5.7-4.7c-0.7-4.4-7-1.4-5.8-5.6
			c1.2-4.2-3.8-6.1-6.6-9.3s-1-8.6-1-8.6s2.7,6.4,9.4,7.3c6.7,0.9-4.4,4.5,4.6,4.8s7.7,5.3,11.2,7c3.6,1.7,2.7,5,4.2,6
			s10.7,3.2,15.2,4.4s4.8,9.5,6.1,12.6c1.2,3.1,6.2,2,9.2,4.6c3,2.6,0.2,6.6,1.6,9.8c0.9,2.1,2.7,3.6,1,5.2c-1.7,1.6,0,9.2-10,11.2
			s-12-1.5-17.2-1.5s-16.8-3-18.5-5.2s-6.8-1.5-6.8-1.5c0.9,2,0.1,7.8,0,9.8s3.1,7.2,7.3,10.8s0.8,12.5,5,17.2s4.2,18.8,5.8,26.9
			s2.8,14.1,3,22.1s1.5,34.2,0,40.8s0,36,0,42s-4.2,16-5.8,24.2c-1,5.5-3.4,14.2-4.9,19.4c0.9,2,2.1,5.8,1.9,11.7
			c-0.3,9,4.6,14,6.1,20.7c1.5,6.7,5.3,14.2,3.9,23.3c-1.4,9.1-8.5,23.5-7.5,26.8s11.8,8.3,14.7,18c2.8,9.7,0.5,13.1,1.3,18.1
			s3.2,5.8,3.4,10.4s0.9,3.6,6.2,9.2s21.6,15.1,28.4,38.1c0.2,0.7,0.4,1.4,0.6,2h537.7V0z"/>
		<radialGradient id="SVGID_2_" cx="318.719" cy="279.0452" r="309.5926" gradientUnits="userSpaceOnUse">
			<stop  offset="0" style="stop-color:#FFFFFF"/>
			<stop  offset="1" style="stop-color:#FFFFFF;stop-opacity:0"/>
		</radialGradient>
		<path class="st4" d="M306.4,350.4l49.8-162.8l-40.3-15.3l26.3-67.7c0,0-70.8-51.2-172.5-99.1c-204.5,0-354.3,0.1-354.3,0.1V619
			c0,0,425.6,0,562.5,0c57.8-91.7,83-194,83-194L306.4,350.4z"/>
	</g>
	<radialGradient id="SVGID_3_" cx="446.0523" cy="257.7119" r="274.2853" gradientUnits="userSpaceOnUse">
		<stop  offset="0" style="stop-color:#FF4D00"/>
		<stop  offset="1" style="stop-color:#FF4D00;stop-opacity:0"/>
	</radialGradient>
	<path class="st5" d="M349.6,110l-22.7,57.7l39.4,14.7l-48.8,163.8l145.5,70.3C462.9,416.5,507.3,240.6,349.6,110z"/>
	<path class="st6" d="M480.7,437c11.7-73,26.9-238-138.3-348.5"/>
	<g class="st7">
		<path class="st8" d="M600.4,209.1v31.6h-7.2l-4.3-14.4v14.4H582v-31.6h6.9l4.6,14.2v-14.2H600.4z"/>
		<path class="st8" d="M629.5,227.6c0,3.2-0.1,5.4-0.2,6.7s-0.6,2.5-1.4,3.6s-1.9,1.9-3.2,2.5s-2.9,0.9-4.7,0.9
			c-1.7,0-3.2-0.3-4.6-0.8s-2.4-1.4-3.3-2.5s-1.3-2.3-1.5-3.6s-0.2-3.6-0.2-6.8v-5.4c0-3.2,0.1-5.4,0.2-6.7s0.6-2.5,1.4-3.6
			s1.9-1.9,3.2-2.5s2.9-0.9,4.7-0.9c1.7,0,3.2,0.3,4.6,0.8s2.4,1.4,3.3,2.5s1.3,2.3,1.5,3.6s0.2,3.6,0.2,6.8V227.6z M621.3,217.2
			c0-1.5-0.1-2.4-0.2-2.8s-0.5-0.6-1-0.6c-0.4,0-0.8,0.2-1,0.5s-0.3,1.3-0.3,2.9V232c0,1.8,0.1,3,0.2,3.4s0.5,0.6,1,0.6
			c0.6,0,0.9-0.2,1.1-0.7s0.2-1.7,0.2-3.5V217.2z"/>
		<path class="st8" d="M639.6,209.1h5.8c3.9,0,6.5,0.1,7.9,0.4s2.5,1.1,3.4,2.3s1.3,3.2,1.3,5.9c0,2.5-0.3,4.1-0.9,5
			s-1.8,1.4-3.6,1.5c1.6,0.4,2.7,0.9,3.3,1.6s0.9,1.3,1,1.9s0.2,2.1,0.2,4.7v8.3h-7.6v-10.5c0-1.7-0.1-2.7-0.4-3.1s-1-0.6-2.1-0.6
			v14.3h-8.2V209.1z M647.9,214.5v7c0.9,0,1.6-0.1,1.9-0.4s0.6-1.1,0.6-2.5v-1.7c0-1-0.2-1.7-0.5-2S648.8,214.5,647.9,214.5z"/>
		<path class="st8" d="M684.8,209.1v6.3h-4.9v25.3h-8.2v-25.3h-4.9v-6.3H684.8z"/>
		<path class="st8" d="M712.6,209.1v31.6h-8.2v-13.3h-2.5v13.3h-8.2v-31.6h8.2v11.3h2.5v-11.3H712.6z"/>
		<path class="st8" d="M596.2,257.1l4.7,31.6h-8.4l-0.4-5.7h-2.9l-0.5,5.7h-8.5l4.2-31.6H596.2z M591.9,277.4
			c-0.4-3.6-0.8-8-1.3-13.3c-0.8,6.1-1.4,10.5-1.6,13.3H591.9z"/>
		<path class="st8" d="M634.8,257.1v31.6h-7.2l0-21.3l-2.9,21.3h-5.1l-3-20.9l0,20.9h-7.2v-31.6H620c0.3,1.9,0.6,4.1,1,6.7l1.2,8
			l1.9-14.8H634.8z"/>
		<path class="st8" d="M645.1,257.1h13.7v6.3h-5.5v6h5.1v6h-5.1v7h6v6.3h-14.3V257.1z"/>
		<path class="st8" d="M668.8,257.1h5.8c3.9,0,6.5,0.1,7.9,0.4s2.5,1.1,3.4,2.3s1.3,3.2,1.3,5.9c0,2.5-0.3,4.1-0.9,5
			s-1.8,1.4-3.6,1.5c1.6,0.4,2.7,0.9,3.3,1.6s0.9,1.3,1,1.9s0.2,2.1,0.2,4.7v8.3h-7.6v-10.5c0-1.7-0.1-2.7-0.4-3.1s-1-0.6-2.1-0.6
			v14.3h-8.2V257.1z M677,262.5v7c0.9,0,1.6-0.1,1.9-0.4s0.6-1.1,0.6-2.5v-1.7c0-1-0.2-1.7-0.5-2S678,262.5,677,262.5z"/>
		<path class="st8" d="M705.6,257.1v31.6h-8.2v-31.6H705.6z"/>
		<path class="st8" d="M735.2,270.9h-8.2v-5.5c0-1.6-0.1-2.6-0.3-3s-0.6-0.6-1.2-0.6c-0.7,0-1.1,0.2-1.3,0.7s-0.3,1.5-0.3,3.1v14.7
			c0,1.5,0.1,2.5,0.3,3s0.6,0.7,1.2,0.7c0.6,0,1-0.2,1.2-0.7c0.2-0.5,0.3-1.6,0.3-3.3v-4h8.2v1.2c0,3.3-0.2,5.6-0.7,7
			s-1.5,2.6-3.1,3.6c-1.6,1-3.5,1.5-5.8,1.5c-2.4,0-4.4-0.4-6-1.3s-2.6-2.1-3.1-3.6s-0.8-3.9-0.8-7v-9.2c0-2.3,0.1-4,0.2-5.1
			s0.6-2.2,1.4-3.3s1.8-1.9,3.2-2.5s3-0.9,4.7-0.9c2.4,0,4.4,0.5,6,1.4s2.6,2.1,3.1,3.5c0.5,1.4,0.7,3.6,0.7,6.5V270.9z"/>
		<path class="st8" d="M759.4,257.1l4.7,31.6h-8.4l-0.4-5.7h-2.9l-0.5,5.7h-8.5l4.2-31.6H759.4z M755,277.4c-0.4-3.6-0.8-8-1.3-13.3
			c-0.8,6.1-1.4,10.5-1.6,13.3H755z"/>
		<path class="st8" d="M790.9,257.1v31.6h-7.2l-4.3-14.4v14.4h-6.9v-31.6h6.9l4.6,14.2v-14.2H790.9z"/>
		<path class="st8" d="M582,305.1h8.3c2.2,0,4,0.2,5.2,0.5s2.1,0.9,2.7,1.5s1,1.5,1.2,2.4s0.3,2.4,0.3,4.4v2.8c0,2-0.2,3.5-0.6,4.4
			s-1.2,1.6-2.3,2.1s-2.6,0.7-4.4,0.7h-2.2v12.7H582V305.1z M590.2,310.5v8c0.2,0,0.4,0,0.6,0c0.8,0,1.3-0.2,1.6-0.6
			s0.4-1.1,0.4-2.3v-2.6c0-1.1-0.2-1.8-0.5-2.1S591.3,310.5,590.2,310.5z"/>
		<path class="st8" d="M617.4,305.1v25.3h5v6.3h-13.2v-31.6H617.4z"/>
		<path class="st8" d="M645.6,305.1l4.7,31.6h-8.4l-0.4-5.7h-2.9l-0.5,5.7h-8.5l4.2-31.6H645.6z M641.3,325.4
			c-0.4-3.6-0.8-8-1.3-13.3c-0.8,6.1-1.4,10.5-1.6,13.3H641.3z"/>
		<path class="st8" d="M675.3,305.1v6.3h-4.9v25.3h-8.2v-25.3h-4.9v-6.3H675.3z"/>
		<path class="st8" d="M684.3,305.1H698v6.3h-5.5v6h5.1v6h-5.1v7h6v6.3h-14.3V305.1z"/>
	</g>
	<g class="st7">
		<path class="st8" d="M112,209.1h8.3c2.2,0,4,0.2,5.2,0.5s2.1,0.9,2.7,1.5c0.6,0.7,1,1.5,1.2,2.4s0.3,2.4,0.3,4.4v2.8
			c0,2-0.2,3.5-0.6,4.4s-1.2,1.6-2.3,2.1s-2.6,0.7-4.4,0.7h-2.2v12.7H112V209.1z M120.2,214.5v8c0.2,0,0.4,0,0.6,0
			c0.8,0,1.3-0.2,1.6-0.6s0.4-1.1,0.4-2.3v-2.6c0-1.1-0.2-1.8-0.5-2.1S121.3,214.5,120.2,214.5z"/>
		<path class="st8" d="M153.4,209.1l4.7,31.6h-8.4l-0.4-5.7h-2.9l-0.5,5.7h-8.5l4.2-31.6H153.4z M149,229.4c-0.4-3.6-0.8-8-1.3-13.3
			c-0.8,6.1-1.4,10.5-1.6,13.3H149z"/>
		<path class="st8" d="M185.7,222.9h-8.2v-5.5c0-1.6-0.1-2.6-0.3-3s-0.6-0.6-1.2-0.6c-0.7,0-1.1,0.2-1.3,0.7s-0.3,1.5-0.3,3.1v14.7
			c0,1.5,0.1,2.5,0.3,3s0.6,0.7,1.2,0.7c0.6,0,1-0.2,1.2-0.7c0.2-0.5,0.3-1.6,0.3-3.3v-4h8.2v1.2c0,3.3-0.2,5.6-0.7,7
			s-1.5,2.6-3.1,3.6c-1.6,1-3.5,1.5-5.8,1.5c-2.4,0-4.4-0.4-6-1.3s-2.6-2.1-3.1-3.6s-0.8-3.9-0.8-7v-9.2c0-2.3,0.1-4,0.2-5.1
			s0.6-2.2,1.4-3.3s1.8-1.9,3.2-2.5s3-0.9,4.7-0.9c2.4,0,4.4,0.5,6,1.4s2.6,2.1,3.1,3.5c0.5,1.4,0.7,3.6,0.7,6.5V222.9z"/>
		<path class="st8" d="M203.9,209.1v31.6h-8.2v-31.6H203.9z"/>
		<path class="st8" d="M214.3,209.1h13.9v6.3h-5.7v6h5.1v6h-5.1v13.3h-8.2V209.1z"/>
		<path class="st8" d="M245.5,209.1v31.6h-8.2v-31.6H245.5z"/>
		<path class="st8" d="M275,222.9h-8.2v-5.5c0-1.6-0.1-2.6-0.3-3s-0.6-0.6-1.2-0.6c-0.7,0-1.1,0.2-1.3,0.7s-0.3,1.5-0.3,3.1v14.7
			c0,1.5,0.1,2.5,0.3,3s0.6,0.7,1.2,0.7c0.6,0,1-0.2,1.2-0.7c0.2-0.5,0.3-1.6,0.3-3.3v-4h8.2v1.2c0,3.3-0.2,5.6-0.7,7
			s-1.5,2.6-3.1,3.6c-1.6,1-3.5,1.5-5.8,1.5c-2.4,0-4.4-0.4-6-1.3s-2.6-2.1-3.1-3.6c-0.5-1.5-0.8-3.9-0.8-7v-9.2
			c0-2.3,0.1-4,0.2-5.1s0.6-2.2,1.4-3.3s1.8-1.9,3.2-2.5s3-0.9,4.7-0.9c2.4,0,4.4,0.5,6,1.4s2.6,2.1,3.1,3.5
			c0.5,1.4,0.7,3.6,0.7,6.5V222.9z"/>
		<path class="st8" d="M112,257.1h8.3c2.2,0,4,0.2,5.2,0.5s2.1,0.9,2.7,1.5c0.6,0.7,1,1.5,1.2,2.4s0.3,2.4,0.3,4.4v2.8
			c0,2-0.2,3.5-0.6,4.4s-1.2,1.6-2.3,2.1s-2.6,0.7-4.4,0.7h-2.2v12.7H112V257.1z M120.2,262.5v8c0.2,0,0.4,0,0.6,0
			c0.8,0,1.3-0.2,1.6-0.6s0.4-1.1,0.4-2.3v-2.6c0-1.1-0.2-1.8-0.5-2.1S121.3,262.5,120.2,262.5z"/>
		<path class="st8" d="M147.4,257.1v25.3h5v6.3h-13.2v-31.6H147.4z"/>
		<path class="st8" d="M175.6,257.1l4.7,31.6h-8.4l-0.4-5.7h-2.9l-0.5,5.7h-8.5l4.2-31.6H175.6z M171.3,277.4
			c-0.4-3.6-0.8-8-1.3-13.3c-0.8,6.1-1.4,10.5-1.6,13.3H171.3z"/>
		<path class="st8" d="M205.3,257.1v6.3h-4.9v25.3h-8.2v-25.3h-4.9v-6.3H205.3z"/>
		<path class="st8" d="M214.3,257.1H228v6.3h-5.5v6h5.1v6h-5.1v7h6v6.3h-14.3V257.1z"/>
	</g>
	<g class="st9">
		<path class="st8" d="M394.4,222l-10.6,7.3c-1.6,1.1-2.6,1.8-3.1,2.1c-0.5,0.3-1,0.4-1.5,0.4c-0.5,0-1.1-0.2-1.5-0.6
			c-0.5-0.4-1-1-1.6-1.9l-1.4-2.1l2.8-1.9c0.2,0.3,0.3,0.4,0.3,0.6c0.2,0.3,0.4,0.5,0.7,0.5c0.3,0.1,0.5,0,0.7-0.1
			c0.2-0.1,0.6-0.4,1.2-0.8l11.1-7.7L394.4,222z"/>
		<path class="st8" d="M403.2,236l-11,6.8c-1.2,0.8-2.1,1.3-2.7,1.5c-0.6,0.2-1.2,0.3-2,0.2s-1.5-0.3-2.2-0.8
			c-0.7-0.5-1.3-1.2-1.8-2c-0.6-1-1-1.9-1.1-2.9c-0.1-1-0.1-1.8,0.2-2.5c0.3-0.7,0.7-1.3,1.2-1.7s1.7-1.2,3.6-2.4l9.7-6l2.6,4.3
			l-12.3,7.6c-0.7,0.4-1.1,0.8-1.3,1c-0.2,0.2-0.2,0.4,0,0.7c0.2,0.3,0.4,0.4,0.7,0.3c0.3-0.1,0.8-0.3,1.6-0.8l12.1-7.5L403.2,236z"
			/>
		<path class="st8" d="M410,248.2l-15.6,11.7l-2.4-4.5l2.9-1.9l-0.9-1.6l-3.2,1.4l-2.5-4.6l18.2-6.9L410,248.2z M397.8,251.7
			c1.8-1.3,4.1-2.8,6.8-4.5c-3.5,1.3-6,2.3-7.6,3L397.8,251.7z"/>
		<path class="st8" d="M417.9,264.6l-17.5,8.1l-1.8-4l6.9-6.1l-7.9,3.7l-1.8-3.8l17.5-8.1l1.8,3.8l-6.7,6.2l7.9-3.7L417.9,264.6z"/>
		<path class="st8" d="M422.7,276.2l1.3,3.5c0.8,2.3,1.3,3.9,1.4,4.7c0.1,0.9,0,1.6-0.4,2.2c-0.3,0.6-0.8,1-1.3,1.4
			c-0.5,0.3-1.7,0.8-3.4,1.4l-6.4,2.3c-1.6,0.6-2.7,0.9-3.3,0.9c-0.6,0-1.1-0.1-1.6-0.3c-0.4-0.3-0.8-0.7-1.2-1.2
			c-0.3-0.5-0.7-1.3-1.1-2.5l-2.1-5.9L422.7,276.2z M421.3,282l-11.9,4.3c0.2,0.7,0.5,1,0.9,1.1s1.1-0.1,2.3-0.6l7-2.5
			c0.8-0.3,1.3-0.5,1.6-0.6c0.2-0.1,0.3-0.3,0.4-0.5S421.5,282.5,421.3,282z"/>
		<path class="st8" d="M428.2,292l2.4,8l-3.7,1.1l-1-3.2l-3.5,1l0.9,3l-3.5,1l-0.9-3l-4.1,1.2l1.1,3.5l-3.7,1.1l-2.5-8.3L428.2,292z
			"/>
		<path class="st8" d="M433.5,311.7l1.8,8.3l-3.8,0.8l-0.7-3.4l-3.6,0.8l0.7,3l-3.6,0.8l-0.7-3l-7.9,1.7l-1.1-4.9L433.5,311.7z"/>
		<path class="st8" d="M438,335.6l-12.7,2c-1.4,0.2-2.5,0.3-3.1,0.3c-0.6,0-1.2-0.2-1.9-0.5c-0.7-0.4-1.3-0.9-1.7-1.6
			s-0.7-1.6-0.9-2.6c-0.2-1.1-0.2-2.2,0.1-3.1c0.2-0.9,0.6-1.7,1.2-2.2c0.5-0.5,1.1-0.9,1.8-1.1c0.7-0.2,2.1-0.5,4.2-0.8l11.3-1.8
			l0.8,4.9l-14.3,2.3c-0.8,0.1-1.4,0.3-1.6,0.4c-0.2,0.1-0.3,0.3-0.3,0.6c0.1,0.3,0.2,0.5,0.5,0.5c0.3,0,0.9,0,1.8-0.2l14-2.3
			L438,335.6z"/>
		<path class="st8" d="M431.5,353.4l-0.5-5l3.3-0.3c1-0.1,1.6-0.2,1.8-0.3c0.2-0.1,0.3-0.4,0.3-0.7c0-0.4-0.2-0.7-0.5-0.7
			s-0.9-0.1-1.9,0l-8.9,0.9c-0.9,0.1-1.5,0.2-1.8,0.3c-0.3,0.1-0.4,0.4-0.4,0.8c0,0.4,0.2,0.6,0.5,0.7c0.3,0.1,1,0.1,2,0l2.4-0.2
			l0.5,5l-0.7,0.1c-2,0.2-3.4,0.2-4.3,0c-0.9-0.2-1.6-0.7-2.4-1.6c-0.7-0.9-1.1-2.1-1.3-3.5c-0.1-1.5,0-2.7,0.4-3.7
			c0.4-1,1.1-1.7,2-2.1c0.9-0.4,2.3-0.7,4.2-0.9l5.6-0.5c1.4-0.1,2.4-0.2,3.1-0.2s1.4,0.2,2.1,0.7c0.7,0.4,1.3,1,1.7,1.8
			c0.4,0.8,0.7,1.7,0.8,2.8c0.1,1.5,0,2.7-0.5,3.7c-0.5,1-1.1,1.7-1.9,2.1c-0.8,0.4-2.1,0.7-3.9,0.8L431.5,353.4z"/>
		<path class="st8" d="M440.5,366.3l-19.2,3.6l-0.2-5.1l3.5-0.4l-0.1-1.8l-3.5-0.2l-0.2-5.2l19.4,1.8L440.5,366.3z M428,364.1
			c2.2-0.3,4.9-0.7,8.1-1.1c-3.7-0.4-6.4-0.6-8.1-0.7L428,364.1z"/>
	</g>
	<g class="st9">
		<g>
			<path class="st8" d="M388.1,279.7l1.9,4.8c0.5,1.3,0.8,2.3,0.9,3.1c0.1,0.8,0,1.4-0.2,1.9c-0.2,0.5-0.6,0.9-1.1,1.3
				c-0.5,0.3-1.3,0.7-2.5,1.2l-1.6,0.6c-1.2,0.5-2.1,0.7-2.7,0.7c-0.6,0-1.2-0.3-1.8-0.8c-0.5-0.5-1-1.3-1.5-2.4l-0.5-1.3l-7.4,3
				l-1.9-4.8L388.1,279.7z M386.8,285.7l-4.7,1.9c0,0.1,0.1,0.3,0.1,0.4c0.2,0.4,0.4,0.7,0.7,0.8c0.3,0.1,0.8,0,1.4-0.3l1.5-0.6
				c0.6-0.3,1-0.5,1.1-0.8C387.2,286.8,387.1,286.4,386.8,285.7z"/>
			<path class="st8" d="M395.5,299.5l-15,5l1,3l-3.8,1.3l-2.6-7.8l18.7-6.3L395.5,299.5z"/>
			<path class="st8" d="M400.3,316.2l-18.4,7.9l-1.3-5.1l3.4-1.2l-0.5-1.8l-3.5,0.6l-1.4-5.1l19.8-2.5L400.3,316.2z M387.3,316.8
				c2.1-0.8,4.7-1.8,7.8-2.9c-3.8,0.5-6.6,0.8-8.3,1.2L387.3,316.8z"/>
			<path class="st8" d="M403.7,332l-3.9,0.8l-0.6-3l-15.5,3.1l-1-5l15.5-3.1l-0.6-3l3.9-0.8L403.7,332z"/>
			<path class="st8" d="M404.4,336.6l1.2,8.5l-3.9,0.5l-0.5-3.4l-3.7,0.5l0.4,3.2l-3.7,0.5l-0.4-3.2l-4.3,0.6l0.5,3.7l-3.9,0.5
				l-1.2-8.8L404.4,336.6z"/>
		</g>
	</g>
	<polygon class="st10" points="414.4,120.8 414.4,116.6 397.9,123.4 414.4,130.3 414.4,126 439.4,126 439.4,123.4 439.4,120.8 	"/>
	<polygon class="st10" points="302,120.8 302,116.6 285.5,123.4 302,130.3 302,126 327,126 327,123.4 327,120.8 	"/>
	<polygon class="st10" points="513.3,389.9 513.3,385.7 496.9,392.5 513.3,399.4 513.3,395.1 538.3,395.1 538.3,392.5 538.3,389.9
		"/>
	<polygon class="st10" points="357,389.9 357,385.7 340.5,392.5 357,399.4 357,395.1 382,395.1 382,392.5 382,389.9 	"/>
	<polygon class="st10" points="460.7,393.1 460.7,397.4 477.1,390.5 460.7,383.7 460.7,387.9 435.7,387.9 435.7,390.5 435.7,393.1
		"/>
	<polygon class="st10" points="449.9,271.8 449.9,276.1 466.4,269.2 449.9,262.4 449.9,266.6 434.6,266.6 434.6,269.2 434.6,271.8
		"/>
	<polygon class="st10" points="358.5,126 358.5,130.3 374.9,123.4 358.5,116.6 358.5,120.8 348.4,120.8 348.4,123.4 348.4,126 	"/>
	<polygon class="st10" points="503.3,266.6 503.3,262.4 486.9,269.2 503.3,276.1 503.3,271.8 528.3,271.8 528.3,269.2 528.3,266.6
		"/>
	<polygon class="st10" points="300,266.6 300,262.4 283.5,269.2 300,276.1 300,271.8 325,271.8 325,269.2 325,266.6 	"/>
</g>
</svg>
