<?xml version="1.0" encoding="utf-8"?>
<!-- Generator: Adobe Illustrator 19.1.0, SVG Export Plug-In . SVG Version: 6.00 Build 0)  -->
<!DOCTYPE svg PUBLIC "-//W3C//DTD SVG 1.1//EN" "http://www.w3.org/Graphics/SVG/1.1/DTD/svg11.dtd">
<svg version="1.1" xmlns="http://www.w3.org/2000/svg" xmlns:xlink="http://www.w3.org/1999/xlink" x="0px" y="0px" width="360px"
	 height="325px" viewBox="0 0 360 325" style="enable-background:new 0 0 360 325;" xml:space="preserve">
<style type="text/css">
	.st0{fill:#10151C;}
	.st1{fill:#3398E5;}
	.st2{fill:#FFC030;}
	.st3{fill:#FFFFFF;}
</style>
<g id="Layer_2">
  <g id="glitch">
  	<g id="blue">
  		<path class="st1" d="M175,325c-89.6,0-162.5-72.9-162.5-162.5S85.4,0,175,0s162.5,72.9,162.5,162.5S264.6,325,175,325z M175,5
  			C88.2,5,17.5,75.7,17.5,162.5S88.2,320,175,320s157.5-70.7,157.5-157.5S261.8,5,175,5z"/>
  		<path class="st1" d="M232.6,232.6c10.9,0,21.2-4.3,28.9-12l42.9-42.9c6.6-6.6,15.4-10.2,24.7-10.2h10c-9.3,0-18.1,3.6-24.7,10.2
  			l-42.9,42.9c-7.7,7.7-18,12-28.9,12H232.6z"/>
  		<polygon class="st1" points="222.5,185 217.5,185 217.5,175 207.5,175 207.5,163.5 191.5,147.5 195,144 212.5,161.5 212.5,170
  			222.5,170 		"/>
  		<path class="st1" d="M191.3,193.8c1.6,0,2.9,0.7,3.7,1.6v-53l25-25h-5l-25,25V194C190.4,193.9,190.9,193.8,191.3,193.8z"/>
  		<polygon class="st1" points="230,147.5 230,102.5 225,102.5 225,128.4 220,123.6 213.9,123.6 225,134.7 225,147.5 225,149.6
  			226.5,151 235,159.6 235,187.5 240,187.5 240,157.5 		"/>
  		<rect x="305" y="157.5" class="st1" width="5" height="10"/>
  		<rect x="275" y="152.5" class="st1" width="5" height="35"/>
  		<rect x="260" y="147.5" class="st1" width="5" height="45"/>
  		<path class="st1" d="M170,171.5c1.1,0.4,2.1,1.1,2.7,2.2c0.5,1,1,1.9,1.6,2.8c0.2,0.2,0.3,0.3,0.5,0.5c0.1,0.1,0.2,0.2,0.3,0.2
  			v-62.6L161.5,101l-1.5-1.5V62.5h-5v37.1l1.5,1.5l13.5,13.5V171.5z"/>
  		<path class="st1" d="M130,57.5v65c0,2.7-0.7,5.2-2,7.4c1.2,0.8,1.9,2.2,2.1,3.6c3-2.7,4.9-6.7,4.9-11v-65H130z"/>
  		<polygon class="st1" points="229.7,214.3 226.2,210.7 242.9,194 250,194 247.9,199 261.2,185.7 268.2,185.7 252.8,201.2 255,206
  			247.9,206 242.9,201 238.4,205.6 236.8,214.3 		"/>
  		<polygon class="st1" points="157.9,131 154.2,127.3 155,131 147.9,131 144.4,127.5 152.9,119 160,119 159.7,122.2 171.2,110.7
  			174.7,114.3 164.2,124.8 165,131 		"/>
  		<path class="st1" d="M64,99.4c16,0,31.1,6.2,42.4,17.6l17.1,17.1l3.5,3.5l41.9,41.9l5,5l15,15l5,5l16.1,16.1
  			c7.7,7.7,18,12,28.9,12h6l-16.5-5.8l-32-29.3l-71.8-73l-25-21.2l-30.8-6.5L64,99.4z"/>
  		<path class="st1" d="M104.5,175.7c13.2,5.4,24.9,13.3,35,23.4l35.7,35.7c14.6,14.6,34.1,22.7,54.8,22.7s40.2-8.1,54.8-22.7
  			l15.2-15.2l5-7.1h-5l-18.7,18.7c-14.2,14.2-32.7,21.2-51.3,21.2s-37.1-7.1-51.3-21.2l-35.7-35.7c-21.2-21.2-49.9-33.1-79.8-33.1
  			H17.5v5h45.7C77.5,167.5,91.4,170.3,104.5,175.7z"/>

        <animateTransform attributeName="transform"
          type="translate"
          values="5 0;0 0;2 0;5 0;0 0;2 0;0 0;5 0;0 0;4 0;0 0;1 0;0 0"
          begin="0"
          dur="4"
          repeatCount="indefinite"
          calcMode="spline"
          keySplines="0.5 0 1 1;
                      0.5 0 1 1;
                      0.5 0 1 1;
                      0.5 0 1 1;
                      0.5 0 1 1;
                      0.5 0 1 1;
                      0.5 0 1 1;
                      0.5 0 1 1;
                      0.5 0 1 1;
                      0.5 0 1 1;
                      0.5 0 1 1;
                      0.5 0 1 1"
          />

  	</g>
  	<g id="yellow">
  		<path class="st2" d="M185,325c-89.6,0-162.5-72.9-162.5-162.5S95.4,0,185,0s162.5,72.9,162.5,162.5S274.6,325,185,325z M185,5
  			C98.2,5,27.5,75.7,27.5,162.5S98.2,320,185,320s157.5-70.7,157.5-157.5S271.8,5,185,5z"/>
  		<path class="st2" d="M251,227.6c-9.2,0-18.4-3.5-25.4-10.5L122,113.5c-12.7-12.7-29.3-19-46-19h-6v2.7l24.5,4.8l18.7,10.6l24,26.5
  			l63.5,63.3l21.8,21.7l20,6.5L251,227.6z"/>
  		<path class="st2" d="M241,232.6c10.9,0,21.2-4.3,28.9-12l42.9-42.9c6.6-6.6,15.4-10.2,24.7-10.2h10c-9.3,0-18.1,3.6-24.7,10.2
  			l-42.9,42.9c-7.7,7.7-18,12-28.9,12H241z"/>
  		<path class="st2" d="M140,62.5v60c0,5-1.9,9.6-4.9,13.1c1.2,0.5,1.9,1.5,2.4,2.5c4.6-3.7,7.5-9.3,7.5-15.6v-60H140z"/>
  		<polygon class="st2" points="235,102.5 240,102.5 240,147.5 250,157.5 250,182.5 245,182.5 245,157.5 235,147.5 		"/>
  		<rect x="270" y="142.5" class="st2" width="5" height="45"/>
  		<rect x="315" y="152.5" class="st2" width="5" height="10"/>
  		<path class="st2" d="M180,182c0.3,0.2,0.6,0.4,0.9,0.7c0.4,0.4,0.7,0.7,1.1,1c0.3,0.2,0.6,0.4,0.9,0.5c1.1,0.6,1.8,1.5,2.1,2.6
  			v-74.3l-15-15v-40h-5v40l15,15V182z"/>
  		<rect x="255" y="147.5" class="st2" width="5" height="40"/>
  		<rect x="285" y="157.5" class="st2" width="5" height="35"/>
  		<path class="st2" d="M201.3,203.2c1.6,0,2.9,0.7,3.7,1.6v-60.2l18.7-18.7l-2.4-2.6L200,144.6v58.8
  			C200.4,203.2,200.9,203.2,201.3,203.2z"/>
  		<polygon class="st2" points="232.5,185 227.5,185 227.5,175 217.5,175 217.5,163.5 201.5,147.5 205,144 222.5,161.5 222.5,170
  			232.5,170 		"/>
  		<polygon class="st2" points="243.9,214.3 236.8,214.3 240.3,210.7 250.8,199.6 253.7,202.6 259.8,196.7 262.1,199 271.5,188.4
  			276.6,191.6 262.1,206 255,206 254.5,203.7 		"/>
  		<path class="st2" d="M114.5,175.7c13.2,5.4,24.9,13.3,35,23.4l35.7,35.7c14.6,14.6,34.1,22.7,54.8,22.7s40.2-8.1,54.8-22.7
  			l15.2-15.2v-7.1h-5l-13.7,18.7c-14.2,14.2-32.7,21.2-51.3,21.2s-37.1-7.1-51.3-21.2l-35.7-35.7c-21.2-21.2-49.9-33.1-79.8-33.1
  			H21.3v5h51.9C87.5,167.5,101.4,170.3,114.5,175.7z"/>
  		<polygon class="st2" points="165,131 175,131 175,121 		"/>

      <animateTransform attributeName="transform"
        type="translate"
        values="-5 0;0 0;-2 0;-5 0;0 0;-2 0;0 0;-5 0;0 0;-4 0;0 0;-1 0;0 0"
        begin="0"
        dur="4"
        repeatCount="indefinite"
        calcMode="spline"
        keySplines="0.5 0 1 1;
                    0.5 0 1 1;
                    0.5 0 1 1;
                    0.5 0 1 1;
                    0.5 0 1 1;
                    0.5 0 1 1;
                    0.5 0 1 1;
                    0.5 0 1 1;
                    0.5 0 1 1;
                    0.5 0 1 1;
                    0.5 0 1 1;
                    0.5 0 1 1"
        />
  	</g>

    <animate attributeName="opacity"
      from="0"
      to="0"
      begin="0"
      dur="4"
      repeatCount="indefinite"
      values="0;1;0;0.5;0;0.2;0;1;1;0.5;0;0.1;0;0.1;0;0.3;0;0;0;0;0;0;0;0.9;0;0.2;0;1;0;0;0;0;0;0;0;0;0;1;0;1;0;0;0;0;0;0.5;0;0;0;0.2;0;0.6;0;0;0;0;0;0;0.8;0;1;0;1;0;1;0;0;0;0;0;0;0;0;0;0;0.4;0;0;0.2;0;0;0;1;0;0;1;0;1;0;0;0;0;0;0;0;0;0;0;0"
      />
  </g>
	<g>
		<path class="st3" d="M180,325c-89.6,0-162.5-72.9-162.5-162.5S90.4,0,180,0s162.5,72.9,162.5,162.5S269.6,325,180,325z M180,5
			C93.2,5,22.5,75.7,22.5,162.5S93.2,320,180,320s157.5-70.7,157.5-157.5S266.8,5,180,5z"/>
		<path class="st3" d="M348.3,162.5h-6.8H315v-10h-35v35h-10v-45h-20v40h-5v-25l-10-10v-45h-5v20v5c-5.5-5.6-10-10-10-10l-25,25v50
			l-15-15v-65l-15-15v-40h-30v65c0,2.9-0.8,5.5-2.2,7.8L116,113.5c-12.7-12.7-29.3-19-46-19c-15.1,0-30.2,5.3-42.4,15.7
			c0.1,2.6-0.2,5-0.7,7.5l0.7-0.7C38.9,105.7,54,99.4,70,99.4s31.1,6.2,42.4,17.6l17.1,17.1l3.5,3.5l41.9,41.9l5,5l15,15l5,5
			l16.1,16.1c7.7,7.7,18,12,28.9,12s21.2-4.3,28.9-12l42.9-42.9c6.6-6.6,15.4-10.2,24.7-10.2h6.3H360v-5H348.3z M136.4,133.9
			c2.3-3.2,3.6-7.2,3.6-11.4v-60h20v35v2.1l1.5,1.5l13.5,13.5v57.9L136.4,133.9z M313.3,174.2l-42.9,42.9c-7,7-16.2,10.5-25.4,10.5
			s-18.4-3.5-25.4-10.5L200,197.5v-52.9l20-20c1.7,1.7,4,4,6.4,6.4l3.6,3.7v12.8v2.1l1.5,1.5l8.5,8.5v22.9v5h5h5h5v-5v-35h10v40v5h5
			h10h5v-5v-30h25v5v5h5h7.2C319,169.3,316,171.5,313.3,174.2z"/>
		<polygon class="st3" points="227.5,185 222.5,185 222.5,175 212.5,175 212.5,163.5 196.5,147.5 200,144 217.5,161.5 217.5,170
			227.5,170 		"/>
		<path class="st3" d="M109.5,175.7c13.2,5.4,24.9,13.3,35,23.4l35.7,35.7c14.6,14.6,34.1,22.7,54.8,22.7s40.2-8.1,54.8-22.7
			l15.2-15.2v-7.1l-18.7,18.7c-14.2,14.2-32.7,21.2-51.3,21.2s-37.1-7.1-51.3-21.2l-35.7-35.7c-21.2-21.2-49.9-33.1-79.8-33.1H0v5
			h68.2C82.5,167.5,96.4,170.3,109.5,175.7z"/>
		<polygon class="st3" points="165,131 160,126 155,131 151.5,127.5 160,119 165,124 175,114 178.5,117.5 		"/>
		<polygon class="st3" points="236.8,214.3 233.2,210.7 250,194 255,199 268.2,185.7 271.8,189.3 255,206 250,201 		"/>
	</g>
</g>
</svg>
