<?xml version="1.0" encoding="utf-8"?>
<!-- Generator: Adobe Illustrator 19.1.0, SVG Export Plug-In . SVG Version: 6.00 Build 0)  -->
<!DOCTYPE svg PUBLIC "-//W3C//DTD SVG 1.1//EN" "http://www.w3.org/Graphics/SVG/1.1/DTD/svg11.dtd">
<svg version="1.1" xmlns="http://www.w3.org/2000/svg" xmlns:xlink="http://www.w3.org/1999/xlink" x="0px" y="0px" width="360px"
	 height="330px" viewBox="0 0 360 330" style="enable-background:new 0 0 360 330;" xml:space="preserve">
<style type="text/css">
	.st0{fill:#10151C;}
	.st1{fill:#ff4e15;}
	.st2{fill:#ff4e15;}
	.st3{fill:#ff4e15;}
</style>
<g id="Layer_2">
  <g id="glitch">
  	<g id="blue">
  		<path class="st1" d="M191.3,243.4c1.6,0,2.9,0.7,3.7,1.6v-65l25-25h-5l-25,25v63.5C190.4,243.4,190.9,243.4,191.3,243.4z"/>
  		<path class="st1" d="M175,327.5c-89.6,0-162.5-72.9-162.5-162.5S85.4,2.5,175,2.5S337.5,75.4,337.5,165S264.6,327.5,175,327.5z
  			 M175,7.5C88.2,7.5,17.5,78.2,17.5,165S88.2,322.5,175,322.5S332.5,251.8,332.5,165S261.8,7.5,175,7.5z"/>
  		<polygon class="st1" points="222.5,222.5 217.5,222.5 217.5,212.5 207.5,212.5 207.5,201 191.5,185 195,181.5 212.5,199
  			212.5,207.5 222.5,207.5 		"/>
  		<polygon class="st1" points="230,180 230,165 225,160.9 220,156.1 213.9,156.1 225,167.2 225,180 225,182.1 226.5,183.5
  			235,192.1 235,220 240,220 240,190 		"/>
  		<rect x="305" y="160" class="st1" width="5" height="10"/>
  		<rect x="275" y="155" class="st1" width="5" height="70"/>
  		<rect x="260" y="185" class="st1" width="5" height="45"/>
  		<path class="st1" d="M161.5,193.5l-1.5-1.5V155h-5v37.1l1.5,1.5l13.5,13.5v17.1c1.1,0.5,1.9,1.5,2.3,2.6c1.1,0.3,2,0.9,2.7,1.9
  			v-21.5L161.5,193.5z"/>
  		<path class="st1" d="M131,188.7c1.3,0.9,2.7,1.8,4,2.7V150h-5v38.2C130.4,188.3,130.7,188.5,131,188.7z"/>
  		<polygon class="st1" points="229.7,251.8 226.2,248.2 242.9,231.5 250,231.5 247.9,236.5 261.2,223.2 268.2,223.2 252.8,238.7
  			255,243.5 247.9,243.5 242.9,238.5 238.4,243.1 236.8,251.8 		"/>
  		<path class="st1" d="M162.7,213.8c0.2,1,1.6,1.9,2.2,2.7c0,0,0,0,0,0l9.8-9.8l-3.5-3.5l-9.2,9.2
  			C162.3,212.8,162.5,213.3,162.7,213.8z"/>
  		<path class="st1" d="M104.5,178.2c13.2,5.4,24.9,13.3,35,23.4l35.7,35.7c14.6,14.6,34.1,22.7,54.8,22.7s40.2-8.1,54.8-22.7
  			l15.2-15.2l5-7.1h-5l-18.7,18.7C267.1,247.9,248.6,255,230,255s-37.1-7.1-51.3-21.2l-35.7-35.7C121.9,176.9,93.2,165,63.2,165
  			H17.5v5h45.7C77.5,170,91.4,172.8,104.5,178.2z"/>
  		<g>
  			<path class="st1" d="M279,141.8l-3.5-3.5c1.8-1.8,1.8-4.7,0-6.5c-3.7-3.7-3.7-9.8,0-13.5c1.8-1.8,1.8-4.7,0-6.5
  				c-1.8-1.8-2.8-4.2-2.8-6.8s1-5,2.8-6.8l3.5,3.5c-0.9,0.9-1.3,2-1.3,3.2s0.5,2.4,1.3,3.2c3.7,3.7,3.7,9.8,0,13.5
  				c-0.9,0.9-1.3,2-1.3,3.2s0.5,2.4,1.3,3.2C282.7,132,282.7,138,279,141.8z"/>
  		</g>
  		<g>
  			<path class="st1" d="M217,136.8l-3.5-3.5c4.5-4.5,4.5-11.9,0-16.5c-3.1-3.1-4.9-7.3-4.9-11.8s1.7-8.6,4.9-11.8
  				c4.5-4.5,4.5-11.9,0-16.5c-7.9-7.9-7.9-20.7,0-28.5l3.5,3.5c-5.9,5.9-5.9,15.5,0,21.5c6.5,6.5,6.5,17,0,23.5
  				c-4.5,4.5-4.5,11.9,0,16.5C223.5,119.7,223.5,130.3,217,136.8z"/>
  		</g>
  		<g>
  			<path class="st1" d="M201.3,171.8l-25.6-25.6c-26.3-26.3-69-26.3-95.3,0l-23.1,23.1l-3.5-3.5l23.1-23.1
  				c28.2-28.2,74.1-28.2,102.3,0l25.6,25.6L201.3,171.8z"/>
  		</g>
  		<g>
  			<path class="st1" d="M101.2,131.8l-14-14c-16.1-16.1-42.3-16.1-58.4,0l-5.5,5.5l-3.5-3.5l5.5-5.5c18-18,47.4-18,65.4,0l14,14
  				L101.2,131.8z"/>
  		</g>

      <animateTransform attributeName="transform"
        type="translate"
        values="5 0;0 0;2 0;5 0;0 0;2 0;0 0;5 0;0 0;4 0;0 0;1 0;0 0"
        begin="0"
        dur="4"
        repeatCount="indefinite"
        calcMode="spline"
        keySplines="0.5 0 1 1;
                    0.5 0 1 1;
                    0.5 0 1 1;
                    0.5 0 1 1;
                    0.5 0 1 1;
                    0.5 0 1 1;
                    0.5 0 1 1;
                    0.5 0 1 1;
                    0.5 0 1 1;
                    0.5 0 1 1;
                    0.5 0 1 1;
                    0.5 0 1 1"
        />
  	</g>
  	<g id="yellow">
  		<rect x="285" y="160" class="st2" width="5" height="70"/>
  		<path class="st2" d="M185,327.5c-89.6,0-162.5-72.9-162.5-162.5S95.4,2.5,185,2.5S347.5,75.4,347.5,165S274.6,327.5,185,327.5z
  			 M185,7.5C98.2,7.5,27.5,78.2,27.5,165S98.2,322.5,185,322.5S342.5,251.8,342.5,165S271.8,7.5,185,7.5z"/>
  		<path class="st2" d="M144.2,196.1c0.3,0.3,0.5,0.6,0.8,1V155h-5v39.6C141.4,194.2,142.9,194.6,144.2,196.1z"/>
  		<polygon class="st2" points="240,175 240,185 250,195 250,220 245,220 245,195 235,185 235,170 		"/>
  		<rect x="270" y="180" class="st2" width="5" height="45"/>
  		<rect x="315" y="155" class="st2" width="5" height="10"/>
  		<path class="st2" d="M180,234.6c1.3-0.2,2.7,0.2,3.9,1.5c0.5,0.5,0.8,1,1.1,1.5V205l-15-15v-40h-5v40l15,15V234.6z"/>
  		<rect x="255" y="185" class="st2" width="5" height="40"/>
  		<path class="st2" d="M201.3,245c1.6,0,2.9,0.7,3.7,1.6v-64.5l18.7-18.7l-2.4-2.6L200,182.1v63.1C200.4,245.1,200.9,245,201.3,245z
  			"/>
  		<polygon class="st2" points="232.5,222.5 227.5,222.5 227.5,212.5 217.5,212.5 217.5,201 201.5,185 205,181.5 222.5,199
  			222.5,207.5 232.5,207.5 		"/>
  		<polygon class="st2" points="243.9,251.8 236.8,251.8 240.3,248.2 250.8,237.1 253.7,240.1 259.8,234.2 262.1,236.5 271.5,225.9
  			276.6,229.1 262.1,243.5 255,243.5 254.5,241.2 		"/>
  		<path class="st2" d="M114.5,178.2c13.2,5.4,24.9,13.3,35,23.4l35.7,35.7c14.6,14.6,34.1,22.7,54.8,22.7s40.2-8.1,54.8-22.7
  			l15.2-15.2V215h-5l-13.7,18.7C277.1,247.9,258.6,255,240,255s-37.1-7.1-51.3-21.2l-35.7-35.7c-21.2-21.2-49.9-33.1-79.8-33.1H21.3
  			v5h51.9C87.5,170,101.4,172.8,114.5,178.2z"/>
  		<path class="st2" d="M167.6,220.9c0.8,0.7,1.3,1.6,1.6,2.6h5.8v-10L167.6,220.9z"/>
  		<g>
  			<path class="st2" d="M115.2,131.8l-14-14c-16.1-16.1-42.3-16.1-58.4,0l-13,13l-3.5-3.5l13-13c18-18,47.4-18,65.4,0l14,14
  				L115.2,131.8z"/>
  		</g>
  		<g>
  			<path class="st2" d="M215.3,171.8l-25.6-25.6c-26.3-26.3-69-26.3-95.3,0l-23.1,23.1l-3.5-3.5l23.1-23.1
  				c28.2-28.2,74.1-28.2,102.3,0l25.6,25.6L215.3,171.8z"/>
  		</g>
  		<g>
  			<path class="st2" d="M226.8,136.8l-3.5-3.5c4.5-4.5,4.5-11.9,0-16.5c-3.1-3.1-4.9-7.3-4.9-11.8s1.7-8.6,4.9-11.8
  				c4.5-4.5,4.5-11.9,0-16.5c-7.9-7.9-7.9-20.7,0-28.5l3.5,3.5c-5.9,5.9-5.9,15.5,0,21.5c6.5,6.5,6.5,17,0,23.5
  				c-4.5,4.5-4.5,11.9,0,16.5C233.3,119.7,233.3,130.3,226.8,136.8z"/>
  		</g>
  		<g>
  			<path class="st2" d="M288.8,141.8l-3.5-3.5c1.8-1.8,1.8-4.7,0-6.5c-3.7-3.7-3.7-9.8,0-13.5c1.8-1.8,1.8-4.7,0-6.5
  				c-1.8-1.8-2.8-4.2-2.8-6.8s1-5,2.8-6.8l3.5,3.5c-0.9,0.9-1.3,2-1.3,3.2s0.5,2.4,1.3,3.2c3.7,3.7,3.7,9.8,0,13.5
  				c-0.9,0.9-1.3,2-1.3,3.2s0.5,2.4,1.3,3.2C292.6,132,292.6,138,288.8,141.8z"/>
  		</g>

      <animateTransform attributeName="transform"
        type="translate"
        values="-5 0;0 0;-2 0;-5 0;0 0;-2 0;0 0;-5 0;0 0;-4 0;0 0;-1 0;0 0"
        begin="0"
        dur="4"
        repeatCount="indefinite"
        calcMode="spline"
        keySplines="0.5 0 1 1;
                    0.5 0 1 1;
                    0.5 0 1 1;
                    0.5 0 1 1;
                    0.5 0 1 1;
                    0.5 0 1 1;
                    0.5 0 1 1;
                    0.5 0 1 1;
                    0.5 0 1 1;
                    0.5 0 1 1;
                    0.5 0 1 1;
                    0.5 0 1 1"
        />
  	</g>

    <animate attributeName="opacity"
      from="0"
      to="0"
      begin="0"
      dur="4"
      repeatCount="indefinite"
      values="0;1;0;0.5;0;0.2;0;1;1;0.5;0;0.1;0;0.1;0;0.3;0;0;0;0;0;0;0;0.9;0;0.2;0;1;0;0;0;0;0;0;0;0;0;1;0;1;0;0;0;0;0;0.5;0;0;0;0.2;0;0.6;0;0;0;0;0;0;0.8;0;1;0;1;0;1;0;0;0;0;0;0;0;0;0;0;0.4;0;0;0.2;0;0;0;1;0;0;1;0;1;0;0;0;0;0;0;0;0;0;0;0"
      />
  </g>
	<g>
		<path class="st3" d="M348.3,165h-5.8C342.5,75.4,269.6,2.5,180,2.5S17.5,75.4,17.5,165H0v5h17.6c2.7,87.3,74.5,157.5,162.4,157.5
			S339.8,257.3,342.4,170h5.4H360v-5H348.3z M180,7.5c86.8,0,157.5,70.7,157.5,157.5H315v-10h-35v30v5v35h-10v-45h-20v40h-5v-25
			l-10-10v-15l-5-5c-5.5-5.6-10-10-10-10l-10.7,10.7l-23.1-23.1c-20.7-20.7-50.8-26.2-76.6-16.6l-11.9-11.9c-18-18-47.4-18-65.4,0
			l-2,2C50.8,53.2,110.2,7.5,180,7.5z M195,180v62.9c-4-2.6-7.8-5.7-11.3-9.2L180,230v-25l-15-15v-40h-30v36.9
			c-19.2-14.1-42.4-21.8-66.5-21.9l18.8-18.8c26.3-26.3,69-26.3,95.3,0l23.1,23.1L195,180z M161.5,193.5l13.2,13.2l-9,9l-17.7-17.7
			c-2.6-2.6-5.3-5-8.1-7.3V155h20v37.1L161.5,193.5z M175,213.5V225l-5.7-5.7L175,213.5z M27.3,126.2l8.5-8.5
			c16.1-16.1,42.3-16.1,58.4,0l10.4,10.4c-7.5,3.5-14.6,8.3-20.8,14.5L61.5,165h-39C22.5,151.6,24.2,138.6,27.3,126.2z M180,322.5
			c-85.2,0-154.8-68-157.4-152.5h45.7c14.2,0,28.1,2.8,41.3,8.2c13.2,5.4,24.9,13.3,35,23.4l35.7,35.7
			c14.6,14.6,34.1,22.7,54.8,22.7s40.2-8.1,54.8-22.7l15.2-15.2V215l-18.7,18.7C272.1,247.9,253.6,255,235,255c-12.1,0-24.1-3-35-9
			v-57.4l12.5,12.5v11.5h10v10h5v-15h-10V199l-17.2-17.2L220,162c1.7,1.7,4,4,6.4,6.4l3.6,3.7V185v2.1l1.5,1.5l8.5,8.5V220v5h5h5h5
			v-5v-35h10v40v1.5l-10,10l-5-5l-16.8,16.8l3.5,3.5l13.2-13.2l5,5l13.5-13.5h1.5h10h5v-40v-30h25v5v5h5h7.2h15.2
			C334.8,254.5,265.2,322.5,180,322.5z"/>
		<path class="st3" d="M280.3,118.2c-3.7,3.7-3.7,9.8,0,13.5c1.8,1.8,1.8,4.7,0,6.5l3.5,3.5c3.7-3.7,3.7-9.8,0-13.5
			c-0.9-0.9-1.3-2-1.3-3.2s0.5-2.4,1.3-3.2c3.7-3.7,3.7-9.8,0-13.5c-0.9-0.9-1.3-2-1.3-3.2s0.5-2.4,1.3-3.2l-3.5-3.5
			c-1.8,1.8-2.8,4.2-2.8,6.8s1,5,2.8,6.8C282.1,113.5,282.1,116.5,280.3,118.2z"/>
		<path class="st3" d="M218.4,93.2c-3.1,3.1-4.9,7.3-4.9,11.8s1.7,8.6,4.9,11.8c4.5,4.5,4.5,11.9,0,16.5l3.5,3.5
			c6.5-6.5,6.5-17,0-23.5c-4.5-4.5-4.5-11.9,0-16.5c6.5-6.5,6.5-17,0-23.5c-5.9-5.9-5.9-15.5,0-21.5l-3.5-3.5
			c-7.9,7.9-7.9,20.7,0,28.5C222.9,81.3,222.9,88.7,218.4,93.2z"/>
	</g>
</g>
</svg>
