<?xml version="1.0" encoding="utf-8"?>
<!-- Generator: Adobe Illustrator 19.1.0, SVG Export Plug-In . SVG Version: 6.00 Build 0)  -->
<!DOCTYPE svg PUBLIC "-//W3C//DTD SVG 1.1//EN" "http://www.w3.org/Graphics/SVG/1.1/DTD/svg11.dtd">
<svg version="1.1" id="Layer_2" xmlns="http://www.w3.org/2000/svg" xmlns:xlink="http://www.w3.org/1999/xlink" x="0px" y="0px"
	 width="305px" height="430px" viewBox="0 0 305 430" style="enable-background:new 0 0 305 430;" xml:space="preserve">
<style type="text/css">
	.st0{opacity:0.2;fill:url(#SVGID_1_);}
	.st1{display:none;opacity:0.22;fill:#FF4D00;}
	.st2{display:none;fill:#FF4E15;}
	.st3{display:none;fill:url(#SVGID_2_);}
	.st4{display:none;fill:url(#SVGID_3_);}
	.st5{display:none;fill:url(#SVGID_4_);}
	.st6{display:none;fill:url(#SVGID_5_);}
	.st7{display:none;opacity:0.5;}
	.st8{display:inline;fill:#FF7C52;}
	.st9{display:none;fill:none;stroke:#631700;stroke-width:5;stroke-miterlimit:10;}
	.st10{display:none;}
	.st11{display:inline;fill:#631700;}
	.st12{display:inline;fill:#FF4E15;}
</style>
<g>
	<radialGradient id="SVGID_1_" cx="86.0585" cy="222.2433" r="213.8243" gradientUnits="userSpaceOnUse">
		<stop  offset="0" style="stop-color:#FFFFFF"/>
		<stop  offset="1" style="stop-color:#FFFFFF;stop-opacity:0"/>
	</radialGradient>
	<path class="st0" d="M518,4c0,0-218.3,0-455.9,0C47.6,4-3.3,4-9.9,4c1.7,0.1,3.2,0.6,4.5,1.6c8.4,6.3,4,6,10.1,15.7
		c6,9.6,14.8,12,18.6,19.9s1.9,13.8,3.7,15.2c1.8,1.4,3.4,3.1,3.7,7.9c0.2,4.9,5.2,7.7,9.7,10.8c4.5,3.1,11.7,3.2,11.7,6.2
		s3,5.7,3,5.7s-2.7,0-11-4.7c-8.3-4.7-14.9-7.7-17.6-6.2s-5.3,0.1-5.6,2.2c-0.9,5.5,4.6,9.8,6.4,11.4c1.8,1.6,4.1,2.8,3.9,6.4
		c-0.2,3.6,1.8,3.6,4.4,4.1c2.7,0.5,0.2,4.3,5.7,3.9c5.5-0.4,4.3,2.5,5,4.6s5.2,4.6,6,6c0.9,1.4,0.7,4.8,2.5,4.6
		c1.8-0.2,2-1.1,5,2.6c3,3.7,6.2,5.4,13.2,8.8s2.3,7.7,6.9,6.9s10.1,3.7,13.5,5.1c3.4,1.4,10.5,3,13.3,3.4c2.3,0.3,3.2-2.9,5.8-3.3
		c0-0.6,0-1.3-0.4-2.2c-1.8-4.6,2.2-4.7,3.2-6.3c1-1.6-2.5-3.3-5-4c-2.5-0.7-3.6-1.6-6.9-6.4s-9.2-4.9-11.6-4.6
		c-2.4,0.3-3.6-0.2-4-3.3c-0.5-3.1-5-1-4.2-4c0.8-3-2.7-4.3-4.7-6.6c-2-2.3-0.7-6.1-0.7-6.1s1.9,4.6,6.7,5.2
		c4.7,0.7-3.1,3.2,3.3,3.4c6.4,0.2,5.5,3.8,8,5c2.6,1.2,1.9,3.6,3,4.3s7.6,2.3,10.8,3.1s3.4,6.8,4.3,9c0.9,2.2,4.4,1.4,6.5,3.3
		s0.1,4.7,1.1,7c0.6,1.5,1.9,2.6,0.7,3.7c-1.2,1.1,0,6.6-7.1,8c-7.1,1.4-8.5-1.1-12.3-1.1c-3.7,0-11.9-2.1-13.2-3.7
		c-1.2-1.6-4.8-1.1-4.8-1.1c0.7,1.4,0,5.5,0,6.9s2.2,5.2,5.2,7.7c3,2.5,0.5,8.9,3.6,12.3c3,3.4,3,13.3,4.1,19.2
		c1.1,5.8,2,10,2.1,15.7c0.2,5.7,1.1,24.4,0,29c-1.1,4.6,0,25.6,0,29.9s-3,11.4-4.1,17.3c-0.7,3.9-2.4,10.1-3.5,13.8
		c0.6,1.4,1.5,4.1,1.3,8.3c-0.2,6.4,3.3,10,4.3,14.7c1.1,4.7,3.8,10.1,2.8,16.6c-1,6.5-6,16.7-5.3,19.1c0.7,2.4,8.4,5.9,10.4,12.8
		c2,6.9,0.4,9.3,0.9,12.9c0.5,3.6,2.3,4.1,2.4,7.4c0.1,3.3,0.6,2.6,4.4,6.6c3.8,4,15.4,10.9,20.2,27.2c0.1,0.4,0.3,0.9,0.4,1.3H518
		V4z"/>
</g>
<path class="st2" d="M465.9,205l-75-75c-5.5-5.5-14.5-5.5-20,0l-75,75c-5.5,5.5-5.5,14.5,0,20l75,75c5.5,5.5,14.5,5.5,20,0l75-75
	C471.4,219.5,471.4,210.5,465.9,205z"/>
<linearGradient id="SVGID_2_" gradientUnits="userSpaceOnUse" x1="4064.8921" y1="1097.2501" x2="4073.0181" y2="1089.1241" gradientTransform="matrix(-1 0 0 -1 4407 1351.0001)">
	<stop  offset="0" style="stop-color:#E13700;stop-opacity:0"/>
	<stop  offset="1" style="stop-color:#E13700"/>
</linearGradient>
<path class="st3" d="M295.9,225l75,75c5.5,5.5,14.5,5.5,20,0l-95-95C290.3,210.5,290.3,219.5,295.9,225z"/>
<linearGradient id="SVGID_3_" gradientUnits="userSpaceOnUse" x1="2703.6079" y1="-1270.0343" x2="2711.7339" y2="-1278.1603" gradientTransform="matrix(4.489700e-11 -1 1 4.489700e-11 1612.1421 2879.8579)">
	<stop  offset="0" style="stop-color:#E13700;stop-opacity:0"/>
	<stop  offset="1" style="stop-color:#E13700"/>
</linearGradient>
<path class="st4" d="M370.9,130l-75,75c-5.5,5.5-5.5,14.5,0,20l95-95C385.3,124.5,376.4,124.5,370.9,130z"/>
</svg>
