<?xml version="1.0" encoding="utf-8"?>
<!-- Generator: Adobe Illustrator 19.1.0, SVG Export Plug-In . SVG Version: 6.00 Build 0)  -->
<!DOCTYPE svg PUBLIC "-//W3C//DTD SVG 1.1//EN" "http://www.w3.org/Graphics/SVG/1.1/DTD/svg11.dtd">
<svg version="1.1" xmlns="http://www.w3.org/2000/svg" xmlns:xlink="http://www.w3.org/1999/xlink" x="0px" y="0px" width="720px"
	 height="6018px" viewBox="0 0 720 463" style="enable-background:new 0 0 720 463;" xml:space="preserve">
   <script type="text/ecmascript" xlink:href="/assets/javascripts/vendor/smil.user.js"></script>
<style type="text/css">
	.st0{fill:#666666;}
	.st1{fill:#4D4D4D;}
	.st2{fill:#808080;}
	.st3{fill:#707070;}
	.st4{fill:#525252;}
	.st5{fill:none;stroke:#333333;stroke-width:15;stroke-miterlimit:10;}
	.st6{fill:none;stroke:#999999;stroke-width:0.5;stroke-miterlimit:10;}
	.st7{fill:none;stroke:#999999;stroke-width:0.5;stroke-miterlimit:10;stroke-dasharray:1.9994,0.9997;}
	.st8{fill:none;stroke:#737373;stroke-miterlimit:10;}
	.st9{opacity:0.25;fill:#1A1A1A;}
	.st10{fill:#474747;}
	.st11{opacity:0.6;fill:#D4D4D4;}
	.st12{opacity:0.23;}
	.st13{fill:#D4D4D4;}
	.st14{opacity:0.49;}
	.st15{opacity:0.23;fill:#1A1A1A;}
	.st16{fill:#1A1A1A;}
	.st17{opacity:0.25;}
	.st18{fill:#737373;}
	.st19{fill:none;stroke:#737373;stroke-width:0.5;stroke-miterlimit:10;}
	.st20{fill:#404040;}
	.st21{fill:#E6E6E6;}
	.st22{fill:#BABABA;}
	.st23{opacity:0.13;}
	.st24{fill:#999999;}
	.st25{fill:#545454;}
	.st26{fill:#8C8C8C;}
	.st27{fill:#787878;}
	.st28{opacity:0.2;}
	.st29{fill:#C4C4C4;}
	.st30{fill:#9C9C9C;}
	.st31{fill:#B3B3B3;}
	.st32{opacity:0.15;}
	.st33{fill:#2E2E2E;}
	.st34{opacity:0.16;}
	.st35{fill:#7D7D7D;}
	.st36{fill:#383838;}
	.st37{display:none;opacity:0.41;}
	.st38{display:none;opacity:0.47;}
	.st39{display:none;opacity:0.33;}
	.st40{display:none;opacity:0.49;}
	.st41{opacity:0.6;fill:url(#SVGID_1_);}
	.st42{opacity:0.26;}
	.st43{fill:#A63B32;}
	.st44{fill:#3A5789;}
	.st45{fill:#BFC4CD;}
	.st46{opacity:0.1;}
	.st47{font-family:'Impact';}
	.st48{font-size:14px;}
	.st49{letter-spacing:4;}
	.st50{opacity:0.3;fill:none;stroke:#000000;stroke-miterlimit:10;}
	.st51{fill:#FFC900;}
	.st52{opacity:0.1;fill:url(#SVGID_2_);}
	.st53{opacity:0.65;}
	.st54{opacity:0.1;fill:url(#SVGID_3_);}
	.st55{opacity:0.1;fill:url(#SVGID_4_);}
	.st56{opacity:0.3;fill:none;stroke:#350000;stroke-miterlimit:10;}
	.st57{opacity:0.17;fill:url(#SVGID_5_);}
	.st58{opacity:0.21;fill:none;stroke:#350000;stroke-miterlimit:10;}
	.st59{opacity:0.15;fill:url(#SVGID_6_);}
	.st60{opacity:0.23;fill:none;stroke:#350000;stroke-miterlimit:10;}
	.st61{opacity:0.3;fill:none;stroke:#4A1B00;stroke-miterlimit:10;}
	.st62{opacity:0.15;fill:url(#SVGID_7_);}
	.st63{opacity:0.18;fill:url(#SVGID_8_);}
	.st64{fill:none;stroke:#520F00;stroke-miterlimit:10;}
	.st65{opacity:0.21;fill:url(#SVGID_9_);}
	.st66{opacity:0.1;fill:url(#_x37_th_wave_1_);}
	.st67{opacity:0.1;fill:url(#_x36_th_wave_1_);}
	.st68{opacity:0.1;fill:url(#_x35_th_wave_1_);}
	.st69{opacity:0.1;fill:url(#_x34_th_wave_1_);}
	.st70{opacity:0.1;fill:url(#_x33_rd_wave_1_);}
	.st71{opacity:0.1;fill:url(#_x32_nd_wave_1_);}
	.st72{opacity:0.1;fill:url(#_x31_st_wave_1_);}
	.st73{fill:#934831;}
	.st74{fill:#994E31;}
	.st75{fill:#9C5133;}
	.st76{fill:#A15533;}
	.st77{fill:#A45834;}
	.st78{fill:#A65B33;}
	.st79{fill:#B16636;}
	.st80{fill:#B96C36;}
	.st81{opacity:0.5;fill:#FFFFFF;}
	.st82{fill:#2E3134;}
	.st83{opacity:0.3;fill:url(#SVGID_10_);}
	.st84{opacity:0.3;fill:url(#SVGID_11_);}
	.st85{opacity:0.3;fill:url(#SVGID_12_);}
	.st86{opacity:0.15;fill:url(#SVGID_13_);}
	.st87{opacity:0.15;fill:url(#SVGID_14_);}
	.st88{opacity:0.3;fill:url(#SVGID_15_);}
	.st89{fill:#72777F;}
	.st90{fill:#6E6E6E;}
	.st91{fill:#FF784C;}
	.st92{fill:#DE470C;}
	.st93{fill:#5B646F;}
	.st94{fill:#283442;}
	.st95{fill:#414B57;}
	.st96{fill:#192534;}
	.st97{opacity:0.3;fill:url(#Backlight_1_);}
	.st98{fill:#E75E39;}
	.st99{opacity:0.5;fill:url(#SVGID_16_);}
	.st100{fill:#35AF30;}
	.st101{opacity:0.5;fill:url(#SVGID_17_);}
	.st102{opacity:0.5;fill:url(#SVGID_18_);}
	.st103{opacity:0.5;fill:url(#SVGID_19_);}
	.st104{opacity:0.4;fill:url(#SVGID_20_);}
	.st105{fill:#BFBFBF;}
	.st106{fill:#636370;}
	.st107{fill:#50505E;}
</style>

<g id="Tsunami_waves" opacity="0">

	<linearGradient id="_x34_th_wave_1_" gradientUnits="userSpaceOnUse" x1="200.1151" y1="246.9799" x2="370.7488" y2="262.797">
		<stop  offset="0" style="stop-color:#FFFFFF;stop-opacity:0"/>
		<stop  offset="1" style="stop-color:#FFFFFF"/>
	</linearGradient>
	<path id="_x34_th_wave" class="st69" d="M200.9-0.1c10.7,55.7,113.2,109.5,52.6,170.4s14.1,123.3-72.6,166.3s-110,125.8-110,125.8
		h-53.3V108.7V-0.1H337.9z">

    <animate id="animation1" attributeName="d"
      from="M337.9-0.1c10.7,55.7,113.2,109.5,52.6,170.4s14.1,123.3-72.6,166.3s-110,125.8-110,125.8
    h-53.3V108.7V-0.1H337.9z"
      to="M337.9-0.1c10.7,55.7,113.2,109.5,52.6,170.4s14.1,123.3-72.6,166.3s-110,125.8-110,125.8
    h-53.3V108.7V-0.1H337.9z"
      begin="indefinite"
      dur="4"
      repeatCount="1"
      fill="freeze"
      values="M200.9-0.1c10.7,55.7,113.2,109.5,52.6,170.4s14.1,123.3-72.6,166.3s-110,125.8-110,125.8
    h-53.3V108.7V-0.1H337.9z;
      M337.9-0.1c10.7,55.7,113.2,109.5,52.6,170.4s14.1,123.3-72.6,166.3s-110,125.8-110,125.8
    h-53.3V108.7V-0.1H337.9z"
      calcMode="spline"
      keySplines="0.5 0 0.5 1"
    />
  </path>

  <animate id="animation2" attributeName="opacity"
    from="0"
    to="0"
    begin="indefinite"
    dur="4"
    repeatCount="1"
    fill="freeze"
    values="0;0.8;1;0.4"
    calcMode="spline"
    keySplines="0.5 0 0.5 1;
                0.5 0 0.5 1;
                0.5 0 0.5 1"
    />
</g>

<g id="Highgrounds" opacity="0">
	<path class="st79" d="M353.8,187.2c-4.7,9.5-15.8-2-20.2,12s-12.2,34.5-6,43.8s17.8-4.9,21.5-28.9c4.1-26.1,34.7-48.1,37.5-58.1
		c2.8-10-6.7-19.2-19.5-1.8C354.3,171.8,357.8,179.2,353.8,187.2z"/>
	<g id="Label_3_" opacity="0">
		<ellipse class="st46" cx="374.3" cy="157.2" rx="5" ry="3"/>
		<path class="st81" d="M383.3,132.2h-18c-1.1,0-2,0.9-2,2v16c0,1.1,0.9,2,2,2h4l5,5l5-5h4c1.1,0,2-0.9,2-2v-16
			C385.3,133.1,384.4,132.2,383.3,132.2z"/>
		<g>
			<path class="st43" d="M369.8,135.3v7.6h-2v-3.2h-0.6v3.2h-2v-7.6h2v2.7h0.6v-2.7H369.8z"/>
			<path class="st43" d="M372.6,135.3v7.6h-2v-7.6H372.6z"/>
			<path class="st43" d="M377.9,138.1h-2v-0.7c0-0.4,0-0.7-0.1-0.8s-0.1-0.2-0.3-0.2c-0.1,0-0.2,0-0.2,0.1c0,0.1-0.1,0.3-0.1,0.7
				v3.6c0,0.3,0,0.6,0.1,0.7c0,0.1,0.1,0.2,0.3,0.2c0.1,0,0.2-0.1,0.3-0.2c0.1-0.1,0.1-0.4,0.1-0.7V140h-0.4v-1.2h2.3v4.1h-1.2
				l-0.2-0.5c-0.1,0.2-0.3,0.4-0.5,0.5c-0.2,0.1-0.4,0.2-0.7,0.2c-0.3,0-0.6-0.1-0.9-0.2c-0.3-0.2-0.5-0.4-0.7-0.6
				c-0.2-0.2-0.2-0.5-0.3-0.7c0-0.3-0.1-0.7-0.1-1.2v-2.3c0-0.7,0-1.3,0.1-1.6s0.3-0.6,0.7-0.9c0.4-0.3,0.8-0.4,1.4-0.4
				c0.6,0,1.1,0.1,1.4,0.4c0.4,0.2,0.6,0.5,0.7,0.8c0.1,0.3,0.2,0.8,0.2,1.4V138.1z"/>
			<path class="st43" d="M383.2,135.3v7.6h-2v-3.2h-0.6v3.2h-2v-7.6h2v2.7h0.6v-2.7H383.2z"/>
			<path class="st43" d="M367.9,146.8h-1.2v-0.4c0-0.3,0-0.4,0-0.5c0-0.1-0.1-0.1-0.2-0.1c-0.1,0-0.1,0-0.1,0.1s0,0.2,0,0.4v2.1
				c0,0.2,0,0.3,0,0.4c0,0.1,0.1,0.1,0.2,0.1c0.1,0,0.1,0,0.2-0.1c0-0.1,0-0.2,0-0.4v-0.5h-0.2v-0.7h1.3v2.4h-0.7l-0.1-0.3
				c-0.1,0.1-0.2,0.2-0.3,0.3c-0.1,0.1-0.3,0.1-0.4,0.1c-0.2,0-0.4,0-0.5-0.1s-0.3-0.2-0.4-0.3c-0.1-0.1-0.1-0.3-0.2-0.4
				c0-0.2,0-0.4,0-0.7v-1.3c0-0.4,0-0.7,0.1-0.9s0.2-0.4,0.4-0.5c0.2-0.2,0.5-0.2,0.8-0.2c0.3,0,0.6,0.1,0.8,0.2
				c0.2,0.1,0.4,0.3,0.4,0.5s0.1,0.5,0.1,0.8V146.8z"/>
			<path class="st43" d="M368.4,145.2h0.8c0.5,0,0.9,0,1.1,0.1s0.3,0.1,0.5,0.3c0.1,0.2,0.2,0.4,0.2,0.8c0,0.3,0,0.6-0.1,0.7
				c-0.1,0.1-0.3,0.2-0.5,0.2c0.2,0.1,0.4,0.1,0.5,0.2c0.1,0.1,0.1,0.2,0.1,0.3c0,0.1,0,0.3,0,0.7v1.2h-1.1v-1.5
				c0-0.2,0-0.4-0.1-0.4c0-0.1-0.1-0.1-0.3-0.1v2h-1.2V145.2z M369.5,146v1c0.1,0,0.2,0,0.3-0.1c0.1,0,0.1-0.2,0.1-0.3v-0.2
				c0-0.1,0-0.2-0.1-0.3C369.8,146,369.7,146,369.5,146z"/>
			<path class="st43" d="M374,147.8c0,0.4,0,0.8,0,0.9c0,0.2-0.1,0.4-0.2,0.5s-0.3,0.3-0.4,0.4c-0.2,0.1-0.4,0.1-0.7,0.1
				c-0.2,0-0.4,0-0.6-0.1c-0.2-0.1-0.3-0.2-0.5-0.3c-0.1-0.2-0.2-0.3-0.2-0.5c0-0.2,0-0.5,0-1V147c0-0.4,0-0.8,0-0.9
				c0-0.2,0.1-0.4,0.2-0.5s0.3-0.3,0.4-0.4c0.2-0.1,0.4-0.1,0.7-0.1c0.2,0,0.5,0,0.6,0.1c0.2,0.1,0.3,0.2,0.5,0.3
				c0.1,0.2,0.2,0.3,0.2,0.5c0,0.2,0,0.5,0,1V147.8z M372.9,146.4c0-0.2,0-0.3,0-0.4s-0.1-0.1-0.1-0.1c-0.1,0-0.1,0-0.1,0.1
				c0,0,0,0.2,0,0.4v2.1c0,0.3,0,0.4,0,0.5c0,0.1,0.1,0.1,0.1,0.1c0.1,0,0.1,0,0.2-0.1s0-0.2,0-0.5V146.4z"/>
			<path class="st43" d="M377.1,145.2v3c0,0.3,0,0.6,0,0.7c0,0.1-0.1,0.3-0.2,0.4c-0.1,0.1-0.2,0.3-0.4,0.3
				c-0.2,0.1-0.4,0.1-0.6,0.1c-0.3,0-0.5,0-0.7-0.1c-0.2-0.1-0.4-0.2-0.5-0.3c-0.1-0.1-0.2-0.3-0.2-0.4c0-0.2,0-0.5,0-1v-2.6h1.2
				v3.3c0,0.2,0,0.3,0,0.4s0.1,0.1,0.1,0.1c0.1,0,0.1,0,0.1-0.1c0-0.1,0-0.2,0-0.4v-3.3H377.1z"/>
			<path class="st43" d="M380.1,145.2v4.4h-1l-0.6-2v2h-1v-4.4h1l0.6,2v-2H380.1z"/>
			<path class="st43" d="M380.6,145.2h0.9c0.6,0,0.9,0,1.1,0.1c0.2,0.1,0.3,0.1,0.4,0.3c0.1,0.1,0.2,0.2,0.2,0.4c0,0.1,0,0.4,0,0.8
				v1.5c0,0.4,0,0.7-0.1,0.8c0,0.1-0.1,0.2-0.2,0.3c-0.1,0.1-0.2,0.1-0.3,0.2s-0.3,0-0.6,0h-1.5V145.2z M381.7,146v2.9
				c0.2,0,0.3,0,0.3-0.1c0-0.1,0.1-0.2,0.1-0.5v-1.7c0-0.2,0-0.3,0-0.4c0-0.1,0-0.1-0.1-0.1C381.9,146,381.8,146,381.7,146z"/>
		</g>

    <animateTransform id="animation3" attributeName="transform"
      type="translate"
      values="0 -15;0 0"
      begin="indefinite"
      dur="0.2"
      repeatCount="1"
      fill="freeze"
      calcMode="spline"
      keySplines="0.5 0 1 1"
      />

    <animate id="animation4" attributeName="opacity"
      from="0"
      to="0"
      begin="indefinite"
      dur="0.5"
      repeatCount="1"
      fill="freeze"
      values="0;1"
      calcMode="spline"
      keySplines="0.5 0 0.5 1"
      />
	</g>

  <animate id="animation5" attributeName="opacity"
    from="0"
    to="0"
    begin="indefinite"
    dur="0.5"
    repeatCount="1"
    fill="freeze"
    values="0;1"
    calcMode="spline"
    keySplines="0.5 0 0.5 1"
    />
</g>
</svg>
