<?xml version="1.0" encoding="utf-8"?>
<!-- Generator: Adobe Illustrator 19.1.0, SVG Export Plug-In . SVG Version: 6.00 Build 0)  -->
<!DOCTYPE svg PUBLIC "-//W3C//DTD SVG 1.1//EN" "http://www.w3.org/Graphics/SVG/1.1/DTD/svg11.dtd">
<svg version="1.1" xmlns="http://www.w3.org/2000/svg" xmlns:xlink="http://www.w3.org/1999/xlink" x="0px" y="0px" width="720px"
	 height="4425px" viewBox="0 0 720 516" style="enable-background:new 0 0 720 516;" xml:space="preserve">
<style type="text/css">
	.st0{fill:#666666;}
	.st1{fill:#4D4D4D;}
	.st2{fill:#808080;}
	.st3{fill:#707070;}
	.st4{fill:#525252;}
	.st5{fill:none;stroke:#333333;stroke-width:15;stroke-miterlimit:10;}
	.st6{fill:none;stroke:#999999;stroke-width:0.5;stroke-miterlimit:10;}
	.st7{fill:none;stroke:#999999;stroke-width:0.5;stroke-miterlimit:10;stroke-dasharray:1.9994,0.9997;}
	.st8{fill:none;stroke:#737373;stroke-miterlimit:10;}
	.st9{opacity:0.25;fill:#1A1A1A;}
	.st10{fill:#474747;}
	.st11{opacity:0.6;fill:#D4D4D4;}
	.st12{opacity:0.23;}
	.st13{fill:#D4D4D4;}
	.st14{opacity:0.49;}
	.st15{opacity:0.23;fill:#1A1A1A;}
	.st16{fill:#1A1A1A;}
	.st17{opacity:0.25;}
	.st18{fill:#737373;}
	.st19{fill:none;stroke:#737373;stroke-width:0.5;stroke-miterlimit:10;}
	.st20{fill:#404040;}
	.st21{fill:#E6E6E6;}
	.st22{fill:#BABABA;}
	.st23{opacity:0.13;}
	.st24{fill:#999999;}
	.st25{fill:#545454;}
	.st26{fill:#8C8C8C;}
	.st27{fill:#787878;}
	.st28{opacity:0.2;}
	.st29{fill:#C4C4C4;}
	.st30{fill:#9C9C9C;}
	.st31{fill:#B3B3B3;}
	.st32{opacity:0.15;}
	.st33{fill:#2E2E2E;}
	.st34{opacity:0.16;}
	.st35{fill:#7D7D7D;}
	.st36{fill:#383838;}
	.st37{display:none;opacity:0.41;}
	.st38{display:none;opacity:0.47;}
	.st39{display:none;opacity:0.33;}
	.st40{display:none;opacity:0.49;}
	.st41{opacity:0.6;fill:url(#SVGID_1_);}
	.st42{opacity:0.26;}
	.st43{fill:#A63B32;}
	.st44{fill:#3A5789;}
	.st45{fill:#BFC4CD;}
	.st46{opacity:0.1;}
	.st47{font-family:'Impact';}
	.st48{font-size:14px;}
	.st49{letter-spacing:4;}
	.st50{opacity:0.3;fill:none;stroke:#000000;stroke-miterlimit:10;}
	.st51{fill:#FFC900;}
	.st52{opacity:0.1;fill:url(#SVGID_2_);}
	.st53{opacity:0.65;}
	.st54{opacity:0.1;fill:url(#SVGID_3_);}
	.st55{opacity:0.1;fill:url(#SVGID_4_);}
	.st56{opacity:0.3;fill:none;stroke:#350000;stroke-miterlimit:10;}
	.st57{opacity:0.17;fill:url(#SVGID_5_);}
	.st58{opacity:0.21;fill:none;stroke:#350000;stroke-miterlimit:10;}
	.st59{opacity:0.15;fill:url(#SVGID_6_);}
	.st60{opacity:0.23;fill:none;stroke:#350000;stroke-miterlimit:10;}
	.st61{opacity:0.3;fill:none;stroke:#4A1B00;stroke-miterlimit:10;}
	.st62{opacity:0.15;fill:url(#SVGID_7_);}
	.st63{opacity:0.18;fill:url(#SVGID_8_);}
	.st64{fill:none;stroke:#520F00;stroke-miterlimit:10;}
	.st65{opacity:0.21;fill:url(#SVGID_9_);}
	.st66{opacity:0.1;fill:url(#_x37_th_wave_1_);}
	.st67{opacity:0.1;fill:url(#_x36_th_wave_1_);}
	.st68{opacity:0.1;fill:url(#_x35_th_wave_1_);}
	.st69{opacity:0.1;fill:url(#_x34_th_wave_1_);}
	.st70{opacity:0.1;fill:url(#_x33_rd_wave_1_);}
	.st71{opacity:0.1;fill:url(#_x32_nd_wave_1_);}
	.st72{opacity:0.1;fill:url(#_x31_st_wave_1_);}
	.st73{fill:#934831;}
	.st74{fill:#994E31;}
	.st75{fill:#9C5133;}
	.st76{fill:#A15533;}
	.st77{fill:#A45834;}
	.st78{fill:#A65B33;}
	.st79{fill:#B16636;}
	.st80{fill:#B96C36;}
	.st81{opacity:0.5;fill:#FFFFFF;}
	.st82{fill:#2E3134;}
	.st83{opacity:0.3;fill:url(#SVGID_10_);}
	.st84{opacity:0.3;fill:url(#SVGID_11_);}
	.st85{opacity:0.3;fill:url(#SVGID_12_);}
	.st86{opacity:0.15;fill:url(#SVGID_13_);}
	.st87{opacity:0.15;fill:url(#SVGID_14_);}
	.st88{opacity:0.3;fill:url(#SVGID_15_);}
	.st89{fill:#72777F;}
	.st90{fill:#6E6E6E;}
	.st91{fill:#FF784C;}
	.st92{fill:#DE470C;}
	.st93{fill:#5B646F;}
	.st94{fill:#283442;}
	.st95{fill:#414B57;}
	.st96{fill:#192534;}
	.st97{opacity:0.3;fill:url(#Backlight_1_);}
	.st98{fill:#E75E39;}
	.st99{opacity:0.5;fill:url(#SVGID_16_);}
	.st100{fill:#35AF30;}
	.st101{opacity:0.5;fill:url(#SVGID_17_);}
	.st102{opacity:0.5;fill:url(#SVGID_18_);}
	.st103{opacity:0.5;fill:url(#SVGID_19_);}
	.st104{opacity:0.4;fill:url(#SVGID_20_);}
	.st105{fill:#BFBFBF;}
	.st106{fill:#636370;}
	.st107{fill:#50505E;}
</style>

<g id="Tsunami_waves">
	<linearGradient id="_x32_nd_wave_1_" gradientUnits="userSpaceOnUse" x1="350.9055" y1="283.1883" x2="428.9055" y2="297.1883">
		<stop  offset="0" style="stop-color:#FFFFFF;stop-opacity:0"/>
		<stop  offset="1" style="stop-color:#FFFFFF"/>
	</linearGradient>
	<path id="_x32_nd_wave" class="st71" d="M130.2,516.2h115.5c0,0,2.5-58,70.5-130s92-146,76-230s-165-156-165-156h-97V516.2z">

    <animate attributeName="d"
      from="M243.2,516.2h115.5c0,0,2.5-58,70.5-130s92-146,76-230s-165-156-165-156h-97V516.2z"
      to="M243.2,516.2h115.5c0,0,2.5-58,70.5-130s92-146,76-230s-165-156-165-156h-97V516.2z"
      begin="0"
      dur="4"
      repeatCount="1"
      fill="freeze"
      values="M130.2,516.2h115.5c0,0,2.5-58,70.5-130s92-146,76-230s-165-156-165-156h-97V516.2z;
      M243.2,516.2h115.5c0,0,2.5-58,70.5-130s92-146,76-230s-165-156-165-156h-97V516.2z"
      calcMode="spline"
      keySplines="0.5 0 0.5 1"
    />
  </path>

  <animate attributeName="opacity"
    from="0"
    to="0"
    begin="0"
    dur="4"
    repeatCount="1"
    fill="freeze"
    values="0;0.8;1;0.4"
    calcMode="spline"
    keySplines="0.5 0 0.5 1;
                0.5 0 0.5 1;
                0.5 0 0.5 1"
    />
</g>
<g id="Highgrounds" opacity="0">
	<path class="st74" d="M458.2,244.1c9.5,15.2-12.8,27.1-3,32.9s5-42.9,21.8-53.7s-9-38.7-15.2-12.1S449.8,230.5,458.2,244.1z"/>
	<path class="st75" d="M447.4,286.2c-12.8,7.2-20.9,5.5-13.6,25s9.5-6.2,18.8-12.5S456.7,281,447.4,286.2z"/>

  <g id="Label_4_" opacity="0">
		<ellipse class="st46" cx="471.9" cy="213.2" rx="6.4" ry="3.9"/>
		<path class="st81" d="M483.4,181.1h-23.1c-1.4,0-2.6,1.2-2.6,2.6v20.6c0,1.4,1.2,2.6,2.6,2.6h5.1l6.4,6.4l6.4-6.4h5.1
			c1.4,0,2.6-1.2,2.6-2.6v-20.6C486,182.2,484.9,181.1,483.4,181.1z"/>
		<g>
			<path class="st43" d="M466.2,185.1v9.8h-2.5v-4.1h-0.8v4.1h-2.5v-9.8h2.5v3.5h0.8v-3.5H466.2z"/>
			<path class="st43" d="M469.7,185.1v9.8h-2.5v-9.8H469.7z"/>
			<path class="st43" d="M476.6,188.7H474v-0.9c0-0.6,0-0.9-0.1-1s-0.2-0.2-0.3-0.2c-0.2,0-0.3,0.1-0.3,0.2
				c-0.1,0.1-0.1,0.4-0.1,0.9v4.7c0,0.4,0,0.7,0.1,0.9c0.1,0.1,0.2,0.2,0.3,0.2c0.2,0,0.3-0.1,0.4-0.2c0.1-0.2,0.1-0.5,0.1-0.9v-1.2
				h-0.5v-1.5h3v5.2H475l-0.2-0.7c-0.2,0.3-0.4,0.5-0.7,0.7c-0.3,0.2-0.6,0.2-0.9,0.2c-0.4,0-0.8-0.1-1.2-0.3
				c-0.4-0.2-0.7-0.5-0.8-0.8c-0.2-0.3-0.3-0.6-0.4-1c0-0.3-0.1-0.8-0.1-1.5v-2.9c0-0.9,0.1-1.6,0.2-2c0.1-0.4,0.4-0.8,0.9-1.2
				c0.5-0.4,1.1-0.5,1.8-0.5c0.7,0,1.4,0.2,1.9,0.5c0.5,0.3,0.8,0.7,1,1.1c0.1,0.4,0.2,1,0.2,1.8V188.7z"/>
			<path class="st43" d="M483.4,185.1v9.8h-2.5v-4.1h-0.8v4.1h-2.5v-9.8h2.5v3.5h0.8v-3.5H483.4z"/>
			<path class="st43" d="M463.8,199.9h-1.5v-0.5c0-0.3,0-0.5,0-0.6c0-0.1-0.1-0.1-0.2-0.1c-0.1,0-0.2,0-0.2,0.1c0,0.1,0,0.3,0,0.5
				v2.7c0,0.3,0,0.4,0,0.5c0,0.1,0.1,0.1,0.2,0.1c0.1,0,0.2,0,0.2-0.1c0-0.1,0.1-0.3,0.1-0.5v-0.7H462v-0.9h1.7v3.1h-0.9l-0.1-0.4
				c-0.1,0.2-0.2,0.3-0.4,0.4c-0.2,0.1-0.3,0.1-0.5,0.1c-0.2,0-0.5-0.1-0.7-0.2c-0.2-0.1-0.4-0.3-0.5-0.4c-0.1-0.2-0.2-0.4-0.2-0.6
				c0-0.2,0-0.5,0-0.9v-1.7c0-0.5,0-0.9,0.1-1.2c0.1-0.2,0.2-0.5,0.5-0.7c0.3-0.2,0.6-0.3,1.1-0.3c0.4,0,0.8,0.1,1.1,0.3
				c0.3,0.2,0.5,0.4,0.6,0.6c0.1,0.2,0.1,0.6,0.1,1.1V199.9z"/>
			<path class="st43" d="M464.3,197.9h1c0.7,0,1.2,0,1.4,0.1c0.2,0.1,0.4,0.2,0.6,0.4c0.2,0.2,0.2,0.6,0.2,1.1
				c0,0.4-0.1,0.7-0.2,0.9c-0.1,0.2-0.3,0.2-0.7,0.3c0.3,0.1,0.5,0.2,0.6,0.3c0.1,0.1,0.2,0.2,0.2,0.3c0,0.1,0,0.4,0,0.8v1.5h-1.4
				v-1.9c0-0.3,0-0.5-0.1-0.6c0-0.1-0.2-0.1-0.4-0.1v2.6h-1.5V197.9z M465.8,198.8v1.3c0.2,0,0.3,0,0.3-0.1c0.1,0,0.1-0.2,0.1-0.4
				v-0.3c0-0.2,0-0.3-0.1-0.4C466.1,198.9,466,198.8,465.8,198.8z"/>
			<path class="st43" d="M471.6,201.2c0,0.6,0,1,0,1.2c0,0.2-0.1,0.5-0.3,0.7c-0.1,0.2-0.3,0.3-0.6,0.5c-0.2,0.1-0.5,0.2-0.8,0.2
				c-0.3,0-0.6,0-0.8-0.1c-0.2-0.1-0.4-0.2-0.6-0.4c-0.1-0.2-0.2-0.4-0.3-0.7c0-0.2,0-0.6,0-1.2v-1c0-0.6,0-1,0-1.2
				c0-0.2,0.1-0.5,0.3-0.7s0.3-0.3,0.6-0.5c0.2-0.1,0.5-0.2,0.8-0.2c0.3,0,0.6,0,0.8,0.1c0.2,0.1,0.4,0.2,0.6,0.4
				c0.1,0.2,0.2,0.4,0.3,0.7c0,0.2,0,0.6,0,1.2V201.2z M470.1,199.3c0-0.3,0-0.4,0-0.5c0-0.1-0.1-0.1-0.2-0.1c-0.1,0-0.1,0-0.2,0.1
				c0,0.1-0.1,0.2-0.1,0.5v2.7c0,0.3,0,0.5,0,0.6c0,0.1,0.1,0.1,0.2,0.1c0.1,0,0.2,0,0.2-0.1c0-0.1,0-0.3,0-0.6V199.3z"/>
			<path class="st43" d="M475.5,197.9v3.8c0,0.4,0,0.7,0,0.9c0,0.2-0.1,0.4-0.2,0.5c-0.1,0.2-0.3,0.3-0.5,0.4
				c-0.2,0.1-0.5,0.1-0.8,0.1c-0.3,0-0.6-0.1-0.9-0.2c-0.3-0.1-0.5-0.3-0.6-0.4c-0.1-0.2-0.2-0.4-0.2-0.6c0-0.2,0-0.6,0-1.3v-3.4
				h1.5v4.3c0,0.2,0,0.4,0,0.5c0,0.1,0.1,0.1,0.2,0.1c0.1,0,0.2,0,0.2-0.1c0-0.1,0-0.3,0-0.5v-4.2H475.5z"/>
			<path class="st43" d="M479.4,197.9v5.7h-1.3l-0.8-2.6v2.6h-1.2v-5.7h1.2l0.8,2.6v-2.6H479.4z"/>
			<path class="st43" d="M480,197.9h1.1c0.7,0,1.2,0,1.5,0.1c0.3,0.1,0.4,0.2,0.6,0.3c0.1,0.1,0.2,0.3,0.2,0.5c0,0.2,0,0.5,0,1.1v2
				c0,0.5,0,0.9-0.1,1c0,0.2-0.1,0.3-0.3,0.4c-0.1,0.1-0.3,0.2-0.4,0.2s-0.4,0.1-0.8,0.1H480V197.9z M481.5,198.8v3.7
				c0.2,0,0.3,0,0.4-0.1c0-0.1,0.1-0.3,0.1-0.7v-2.2c0-0.3,0-0.4,0-0.5c0-0.1-0.1-0.1-0.1-0.2C481.7,198.8,481.6,198.8,481.5,198.8z
				"/>
		</g>

    <animateTransform attributeName="transform"
      type="translate"
      values="0 -15;0 0"
      begin="1.5"
      dur="0.2"
      repeatCount="1"
      fill="freeze"
      calcMode="spline"
      keySplines="0.5 0 1 1"
      />

    <animate attributeName="opacity"
      from="0"
      to="0"
      begin="1.5"
      dur="0.5"
      repeatCount="1"
      fill="freeze"
      values="0;1"
      calcMode="spline"
      keySplines="0.5 0 0.5 1"
      />
	</g>

  <animate attributeName="opacity"
    from="0"
    to="0"
    begin="1.5"
    dur="0.5"
    repeatCount="1"
    fill="freeze"
    values="0;1"
    calcMode="spline"
    keySplines="0.5 0 0.5 1"
    />
</g>
</svg>
