<?xml version="1.0" encoding="utf-8"?>
<!-- Generator: Adobe Illustrator 19.1.0, SVG Export Plug-In . SVG Version: 6.00 Build 0)  -->
<!DOCTYPE svg PUBLIC "-//W3C//DTD SVG 1.1//EN" "http://www.w3.org/Graphics/SVG/1.1/DTD/svg11.dtd">
<svg version="1.1" xmlns="http://www.w3.org/2000/svg" xmlns:xlink="http://www.w3.org/1999/xlink" x="0px" y="0px" width="720px"
	 height="7352px" viewBox="0 0 720 401" style="enable-background:new 0 0 720 401;" xml:space="preserve">
<style type="text/css">
	.st0{fill:#666666;}
	.st1{fill:#4D4D4D;}
	.st2{fill:#808080;}
	.st3{fill:#707070;}
	.st4{fill:#525252;}
	.st5{fill:none;stroke:#333333;stroke-width:15;stroke-miterlimit:10;}
	.st6{fill:none;stroke:#999999;stroke-width:0.5;stroke-miterlimit:10;}
	.st7{fill:none;stroke:#999999;stroke-width:0.5;stroke-miterlimit:10;stroke-dasharray:1.9994,0.9997;}
	.st8{fill:none;stroke:#737373;stroke-miterlimit:10;}
	.st9{opacity:0.25;fill:#1A1A1A;}
	.st10{fill:#474747;}
	.st11{opacity:0.6;fill:#D4D4D4;}
	.st12{opacity:0.23;}
	.st13{fill:#D4D4D4;}
	.st14{opacity:0.49;}
	.st15{opacity:0.23;fill:#1A1A1A;}
	.st16{fill:#1A1A1A;}
	.st17{opacity:0.25;}
	.st18{fill:#737373;}
	.st19{fill:none;stroke:#737373;stroke-width:0.5;stroke-miterlimit:10;}
	.st20{fill:#404040;}
	.st21{fill:#E6E6E6;}
	.st22{fill:#BABABA;}
	.st23{opacity:0.13;}
	.st24{fill:#999999;}
	.st25{fill:#545454;}
	.st26{fill:#8C8C8C;}
	.st27{fill:#787878;}
	.st28{opacity:0.2;}
	.st29{fill:#C4C4C4;}
	.st30{fill:#9C9C9C;}
	.st31{fill:#B3B3B3;}
	.st32{opacity:0.15;}
	.st33{fill:#2E2E2E;}
	.st34{opacity:0.16;}
	.st35{fill:#7D7D7D;}
	.st36{fill:#383838;}
	.st37{display:none;opacity:0.41;}
	.st38{display:none;opacity:0.47;}
	.st39{display:none;opacity:0.33;}
	.st40{display:none;opacity:0.49;}
	.st41{opacity:0.6;fill:url(#SVGID_1_);}
	.st42{opacity:0.26;}
	.st43{fill:#A63B32;}
	.st44{fill:#3A5789;}
	.st45{fill:#BFC4CD;}
	.st46{opacity:0.1;}
	.st47{font-family:'Impact';}
	.st48{font-size:14px;}
	.st49{letter-spacing:4;}
	.st50{opacity:0.3;fill:none;stroke:#000000;stroke-miterlimit:10;}
	.st51{fill:#FFC900;}
	.st52{opacity:0.1;fill:url(#SVGID_2_);}
	.st53{opacity:0.65;}
	.st54{opacity:0.1;fill:url(#SVGID_3_);}
	.st55{opacity:0.1;fill:url(#SVGID_4_);}
	.st56{opacity:0.3;fill:none;stroke:#350000;stroke-miterlimit:10;}
	.st57{opacity:0.17;fill:url(#SVGID_5_);}
	.st58{opacity:0.21;fill:none;stroke:#350000;stroke-miterlimit:10;}
	.st59{opacity:0.15;fill:url(#SVGID_6_);}
	.st60{opacity:0.23;fill:none;stroke:#350000;stroke-miterlimit:10;}
	.st61{opacity:0.3;fill:none;stroke:#4A1B00;stroke-miterlimit:10;}
	.st62{opacity:0.15;fill:url(#SVGID_7_);}
	.st63{opacity:0.18;fill:url(#SVGID_8_);}
	.st64{fill:none;stroke:#520F00;stroke-miterlimit:10;}
	.st65{opacity:0.21;fill:url(#SVGID_9_);}
	.st66{opacity:0.1;fill:url(#_x37_th_wave_1_);}
	.st67{opacity:0.1;fill:url(#_x36_th_wave_1_);}
	.st68{opacity:0.1;fill:url(#_x35_th_wave_1_);}
	.st69{opacity:0.1;fill:url(#_x34_th_wave_1_);}
	.st70{opacity:0.1;fill:url(#_x33_rd_wave_1_);}
	.st71{opacity:0.1;fill:url(#_x32_nd_wave_1_);}
	.st72{opacity:0.1;fill:url(#_x31_st_wave_1_);}
	.st73{fill:#934831;}
	.st74{fill:#994E31;}
	.st75{fill:#9C5133;}
	.st76{fill:#A15533;}
	.st77{fill:#A45834;}
	.st78{fill:#A65B33;}
	.st79{fill:#B16636;}
	.st80{fill:#B96C36;}
	.st81{opacity:0.5;fill:#FFFFFF;}
	.st82{fill:#2E3134;}
	.st83{opacity:0.3;fill:url(#SVGID_10_);}
	.st84{opacity:0.3;fill:url(#SVGID_11_);}
	.st85{opacity:0.3;fill:url(#SVGID_12_);}
	.st86{opacity:0.15;fill:url(#SVGID_13_);}
	.st87{opacity:0.15;fill:url(#SVGID_14_);}
	.st88{opacity:0.3;fill:url(#SVGID_15_);}
	.st89{fill:#72777F;}
	.st90{fill:#6E6E6E;}
	.st91{fill:#FF784C;}
	.st92{fill:#DE470C;}
	.st93{fill:#5B646F;}
	.st94{fill:#283442;}
	.st95{fill:#414B57;}
	.st96{fill:#192534;}
	.st97{opacity:0.3;fill:url(#Backlight_1_);}
	.st98{fill:#E75E39;}
	.st99{opacity:0.5;fill:url(#SVGID_16_);}
	.st100{fill:#35AF30;}
	.st101{opacity:0.5;fill:url(#SVGID_17_);}
	.st102{opacity:0.5;fill:url(#SVGID_18_);}
	.st103{opacity:0.5;fill:url(#SVGID_19_);}
	.st104{opacity:0.4;fill:url(#SVGID_20_);}
	.st105{fill:#BFBFBF;}
	.st106{fill:#636370;}
	.st107{fill:#50505E;}
</style>

<g id="Tsunami_waves">

	<linearGradient id="_x36_th_wave_1_" gradientUnits="userSpaceOnUse" x1="230.6046" y1="202.3652" x2="379.6046" y2="207.3652">
		<stop  offset="0" style="stop-color:#FFFFFF;stop-opacity:0"/>
		<stop  offset="1" style="stop-color:#FFFFFF"/>
	</linearGradient>
	<path id="_x36_th_wave" class="st67" d="M190-0.4c23.2,91.2,97,126.1,84.6,215.2c-9.5,67.8-96.6,128.4-151.2,185.9h-34.8V0.3
		L288-0.4z">

    <animate attributeName="d"
      from="M288-0.4c23.2,91.2,97,126.1,84.6,215.2c-9.5,67.8-96.6,128.4-151.2,185.9h-34.8V0.3
    L288-0.4z"
      to="M288-0.4c23.2,91.2,97,126.1,84.6,215.2c-9.5,67.8-96.6,128.4-151.2,185.9h-34.8V0.3
    L288-0.4z"
      begin="0"
      dur="4"
      repeatCount="1"
      fill="freeze"
      values="M190-0.4c23.2,91.2,97,126.1,84.6,215.2c-9.5,67.8-96.6,128.4-151.2,185.9h-34.8V0.3
    L288-0.4z;
      M288-0.4c23.2,91.2,97,126.1,84.6,215.2c-9.5,67.8-96.6,128.4-151.2,185.9h-34.8V0.3
    L288-0.4z"
      calcMode="spline"
      keySplines="0.5 0 0.5 1"
    />
  </path>

  <animate attributeName="opacity"
    from="0"
    to="0"
    begin="0"
    dur="4"
    repeatCount="1"
    fill="freeze"
    values="0;0.8;1;0.4"
    calcMode="spline"
    keySplines="0.5 0 0.5 1;
                0.5 0 0.5 1;
                0.5 0 0.5 1"
    />

</g>
<g id="Highgrounds" opacity="0">
	<path class="st80" d="M337,121c-4,5-2,26,12,25S344.5,111.5,337,121z"/>
	<path class="st80" d="M361,217.9c-15.5-9.8-26.3,37.9-16,49.1c10.3,11.2,21.1-14,23-23C370.2,233.5,371.3,224.4,361,217.9z"/>
	<g id="Label_11_" opacity="0">
		<ellipse class="st46" cx="342" cy="127" rx="5" ry="3"/>
		<path class="st81" d="M351,102h-18c-1.1,0-2,0.9-2,2v16c0,1.1,0.9,2,2,2h4l5,5l5-5h4c1.1,0,2-0.9,2-2v-16
			C353,102.9,352.1,102,351,102z"/>
		<g>
			<path class="st43" d="M337.6,105.2v7.6h-2v-3.2H335v3.2h-2v-7.6h2v2.7h0.6v-2.7H337.6z"/>
			<path class="st43" d="M340.3,105.2v7.6h-2v-7.6H340.3z"/>
			<path class="st43" d="M345.7,108h-2v-0.7c0-0.4,0-0.7-0.1-0.8s-0.1-0.2-0.3-0.2c-0.1,0-0.2,0-0.2,0.1c0,0.1-0.1,0.3-0.1,0.7v3.6
				c0,0.3,0,0.6,0.1,0.7c0,0.1,0.1,0.2,0.3,0.2c0.1,0,0.2-0.1,0.3-0.2c0.1-0.1,0.1-0.4,0.1-0.7v-0.9h-0.4v-1.2h2.3v4.1h-1.2
				l-0.2-0.5c-0.1,0.2-0.3,0.4-0.5,0.5c-0.2,0.1-0.4,0.2-0.7,0.2c-0.3,0-0.6-0.1-0.9-0.2c-0.3-0.2-0.5-0.4-0.7-0.6
				c-0.2-0.2-0.2-0.5-0.3-0.7c0-0.3-0.1-0.7-0.1-1.2v-2.3c0-0.7,0-1.3,0.1-1.6s0.3-0.6,0.7-0.9c0.4-0.3,0.8-0.4,1.4-0.4
				c0.6,0,1.1,0.1,1.4,0.4c0.4,0.2,0.6,0.5,0.7,0.8c0.1,0.3,0.2,0.8,0.2,1.4V108z"/>
			<path class="st43" d="M351,105.2v7.6h-2v-3.2h-0.6v3.2h-2v-7.6h2v2.7h0.6v-2.7H351z"/>
			<path class="st43" d="M335.7,116.7h-1.2v-0.4c0-0.3,0-0.4,0-0.5c0-0.1-0.1-0.1-0.2-0.1c-0.1,0-0.1,0-0.1,0.1s0,0.2,0,0.4v2.1
				c0,0.2,0,0.3,0,0.4c0,0.1,0.1,0.1,0.2,0.1c0.1,0,0.1,0,0.2-0.1c0-0.1,0-0.2,0-0.4v-0.5h-0.2v-0.7h1.3v2.4H335l-0.1-0.3
				c-0.1,0.1-0.2,0.2-0.3,0.3c-0.1,0.1-0.3,0.1-0.4,0.1c-0.2,0-0.4,0-0.5-0.1s-0.3-0.2-0.4-0.3c-0.1-0.1-0.1-0.3-0.2-0.4
				c0-0.2,0-0.4,0-0.7v-1.3c0-0.4,0-0.7,0.1-0.9s0.2-0.4,0.4-0.5c0.2-0.2,0.5-0.2,0.8-0.2c0.3,0,0.6,0.1,0.8,0.2
				c0.2,0.1,0.4,0.3,0.4,0.5s0.1,0.5,0.1,0.8V116.7z"/>
			<path class="st43" d="M336.1,115h0.8c0.5,0,0.9,0,1.1,0.1s0.3,0.1,0.5,0.3c0.1,0.2,0.2,0.4,0.2,0.8c0,0.3,0,0.6-0.1,0.7
				c-0.1,0.1-0.3,0.2-0.5,0.2c0.2,0.1,0.4,0.1,0.5,0.2c0.1,0.1,0.1,0.2,0.1,0.3c0,0.1,0,0.3,0,0.7v1.2h-1.1V118c0-0.2,0-0.4-0.1-0.4
				c0-0.1-0.1-0.1-0.3-0.1v2h-1.2V115z M337.3,115.8v1c0.1,0,0.2,0,0.3-0.1c0.1,0,0.1-0.2,0.1-0.3v-0.2c0-0.1,0-0.2-0.1-0.3
				C337.5,115.8,337.4,115.8,337.3,115.8z"/>
			<path class="st43" d="M341.8,117.6c0,0.4,0,0.8,0,0.9c0,0.2-0.1,0.4-0.2,0.5s-0.3,0.3-0.4,0.4c-0.2,0.1-0.4,0.1-0.7,0.1
				c-0.2,0-0.4,0-0.6-0.1c-0.2-0.1-0.3-0.2-0.5-0.3c-0.1-0.2-0.2-0.3-0.2-0.5c0-0.2,0-0.5,0-1v-0.8c0-0.4,0-0.8,0-0.9
				c0-0.2,0.1-0.4,0.2-0.5s0.3-0.3,0.4-0.4c0.2-0.1,0.4-0.1,0.7-0.1c0.2,0,0.5,0,0.6,0.1c0.2,0.1,0.3,0.2,0.5,0.3
				c0.1,0.2,0.2,0.3,0.2,0.5c0,0.2,0,0.5,0,1V117.6z M340.6,116.2c0-0.2,0-0.3,0-0.4s-0.1-0.1-0.1-0.1c-0.1,0-0.1,0-0.1,0.1
				c0,0,0,0.2,0,0.4v2.1c0,0.3,0,0.4,0,0.5c0,0.1,0.1,0.1,0.1,0.1c0.1,0,0.1,0,0.2-0.1s0-0.2,0-0.5V116.2z"/>
			<path class="st43" d="M344.8,115v3c0,0.3,0,0.6,0,0.7c0,0.1-0.1,0.3-0.2,0.4c-0.1,0.1-0.2,0.3-0.4,0.3c-0.2,0.1-0.4,0.1-0.6,0.1
				c-0.3,0-0.5,0-0.7-0.1c-0.2-0.1-0.4-0.2-0.5-0.3c-0.1-0.1-0.2-0.3-0.2-0.4c0-0.2,0-0.5,0-1V115h1.2v3.3c0,0.2,0,0.3,0,0.4
				s0.1,0.1,0.1,0.1c0.1,0,0.1,0,0.1-0.1c0-0.1,0-0.2,0-0.4V115H344.8z"/>
			<path class="st43" d="M347.8,115v4.4h-1l-0.6-2v2h-1V115h1l0.6,2v-2H347.8z"/>
			<path class="st43" d="M348.3,115h0.9c0.6,0,0.9,0,1.1,0.1c0.2,0.1,0.3,0.1,0.4,0.3c0.1,0.1,0.2,0.2,0.2,0.4c0,0.1,0,0.4,0,0.8
				v1.5c0,0.4,0,0.7-0.1,0.8c0,0.1-0.1,0.2-0.2,0.3c-0.1,0.1-0.2,0.1-0.3,0.2s-0.3,0-0.6,0h-1.5V115z M349.5,115.8v2.9
				c0.2,0,0.3,0,0.3-0.1c0-0.1,0.1-0.2,0.1-0.5v-1.7c0-0.2,0-0.3,0-0.4c0-0.1,0-0.1-0.1-0.1C349.7,115.8,349.6,115.8,349.5,115.8z"
				/>
		</g>

    <animateTransform attributeName="transform"
      type="translate"
      values="0 -15;0 0"
      begin="2"
      dur="0.2"
      repeatCount="1"
      fill="freeze"
      calcMode="spline"
      keySplines="0.5 0 1 1"
      />

    <animate attributeName="opacity"
      from="0"
      to="0"
      begin="2"
      dur="0.5"
      repeatCount="1"
      fill="freeze"
      values="0;1"
      calcMode="spline"
      keySplines="0.5 0 0.5 1"
      />
	</g>
	<g id="Label_12_" opacity="0">
		<ellipse class="st46" cx="356.9" cy="226" rx="6.4" ry="3.9"/>
		<path class="st81" d="M368.4,193.9h-23.1c-1.4,0-2.6,1.2-2.6,2.6V217c0,1.4,1.2,2.6,2.6,2.6h5.1l6.4,6.4l6.4-6.4h5.1
			c1.4,0,2.6-1.2,2.6-2.6v-20.6C371,195,369.8,193.9,368.4,193.9z"/>
		<g>
			<path class="st43" d="M351.2,197.9v9.8h-2.5v-4.1h-0.8v4.1h-2.5v-9.8h2.5v3.5h0.8v-3.5H351.2z"/>
			<path class="st43" d="M354.7,197.9v9.8h-2.5v-9.8H354.7z"/>
			<path class="st43" d="M361.6,201.5H359v-0.9c0-0.6,0-0.9-0.1-1s-0.2-0.2-0.3-0.2c-0.2,0-0.3,0.1-0.3,0.2
				c-0.1,0.1-0.1,0.4-0.1,0.9v4.7c0,0.4,0,0.7,0.1,0.9c0.1,0.1,0.2,0.2,0.3,0.2c0.2,0,0.3-0.1,0.4-0.2c0.1-0.2,0.1-0.5,0.1-0.9v-1.2
				h-0.5v-1.5h3v5.2H360l-0.2-0.7c-0.2,0.3-0.4,0.5-0.7,0.7c-0.3,0.2-0.6,0.2-0.9,0.2c-0.4,0-0.8-0.1-1.2-0.3
				c-0.4-0.2-0.7-0.5-0.8-0.8c-0.2-0.3-0.3-0.6-0.4-1c0-0.3-0.1-0.8-0.1-1.5v-2.9c0-0.9,0.1-1.6,0.2-2c0.1-0.4,0.4-0.8,0.9-1.2
				c0.5-0.4,1.1-0.5,1.8-0.5c0.7,0,1.4,0.2,1.9,0.5c0.5,0.3,0.8,0.7,1,1.1c0.1,0.4,0.2,1,0.2,1.8V201.5z"/>
			<path class="st43" d="M368.4,197.9v9.8h-2.5v-4.1h-0.8v4.1h-2.5v-9.8h2.5v3.5h0.8v-3.5H368.4z"/>
			<path class="st43" d="M348.7,212.7h-1.5v-0.5c0-0.3,0-0.5,0-0.6c0-0.1-0.1-0.1-0.2-0.1c-0.1,0-0.2,0-0.2,0.1c0,0.1,0,0.3,0,0.5
				v2.7c0,0.3,0,0.4,0,0.5c0,0.1,0.1,0.1,0.2,0.1c0.1,0,0.2,0,0.2-0.1c0-0.1,0.1-0.3,0.1-0.5v-0.7H347v-0.9h1.7v3.1h-0.9l-0.1-0.4
				c-0.1,0.2-0.2,0.3-0.4,0.4c-0.2,0.1-0.3,0.1-0.5,0.1c-0.2,0-0.5-0.1-0.7-0.2c-0.2-0.1-0.4-0.3-0.5-0.4c-0.1-0.2-0.2-0.4-0.2-0.6
				c0-0.2,0-0.5,0-0.9v-1.7c0-0.5,0-0.9,0.1-1.2s0.2-0.5,0.5-0.7c0.3-0.2,0.6-0.3,1.1-0.3c0.4,0,0.8,0.1,1.1,0.3
				c0.3,0.2,0.5,0.4,0.6,0.6c0.1,0.2,0.1,0.6,0.1,1.1V212.7z"/>
			<path class="st43" d="M349.3,210.6h1c0.7,0,1.2,0,1.4,0.1c0.2,0.1,0.4,0.2,0.6,0.4c0.2,0.2,0.2,0.6,0.2,1.1
				c0,0.4-0.1,0.7-0.2,0.9c-0.1,0.2-0.3,0.2-0.7,0.3c0.3,0.1,0.5,0.2,0.6,0.3c0.1,0.1,0.2,0.2,0.2,0.3c0,0.1,0,0.4,0,0.8v1.5h-1.4
				v-1.9c0-0.3,0-0.5-0.1-0.6c0-0.1-0.2-0.1-0.4-0.1v2.6h-1.5V210.6z M350.8,211.6v1.3c0.2,0,0.3,0,0.3-0.1c0.1,0,0.1-0.2,0.1-0.4
				V212c0-0.2,0-0.3-0.1-0.4C351.1,211.6,351,211.6,350.8,211.6z"/>
			<path class="st43" d="M356.6,214c0,0.6,0,1,0,1.2c0,0.2-0.1,0.5-0.3,0.7c-0.1,0.2-0.3,0.3-0.6,0.5c-0.2,0.1-0.5,0.2-0.8,0.2
				c-0.3,0-0.6,0-0.8-0.1c-0.2-0.1-0.4-0.2-0.6-0.4c-0.1-0.2-0.2-0.4-0.3-0.7c0-0.2,0-0.6,0-1.2v-1c0-0.6,0-1,0-1.2
				c0-0.2,0.1-0.5,0.3-0.7c0.1-0.2,0.3-0.3,0.6-0.5c0.2-0.1,0.5-0.2,0.8-0.2c0.3,0,0.6,0,0.8,0.1c0.2,0.1,0.4,0.2,0.6,0.4
				c0.1,0.2,0.2,0.4,0.3,0.7c0,0.2,0,0.6,0,1.2V214z M355.1,212.1c0-0.3,0-0.4,0-0.5c0-0.1-0.1-0.1-0.2-0.1c-0.1,0-0.1,0-0.2,0.1
				c0,0.1-0.1,0.2-0.1,0.5v2.7c0,0.3,0,0.5,0,0.6c0,0.1,0.1,0.1,0.2,0.1c0.1,0,0.2,0,0.2-0.1c0-0.1,0-0.3,0-0.6V212.1z"/>
			<path class="st43" d="M360.5,210.6v3.8c0,0.4,0,0.7,0,0.9c0,0.2-0.1,0.4-0.2,0.5c-0.1,0.2-0.3,0.3-0.5,0.4
				c-0.2,0.1-0.5,0.1-0.8,0.1c-0.3,0-0.6-0.1-0.9-0.2c-0.3-0.1-0.5-0.3-0.6-0.4c-0.1-0.2-0.2-0.4-0.2-0.6c0-0.2,0-0.6,0-1.3v-3.4
				h1.5v4.3c0,0.2,0,0.4,0,0.5c0,0.1,0.1,0.1,0.2,0.1c0.1,0,0.2,0,0.2-0.1c0-0.1,0-0.3,0-0.5v-4.2H360.5z"/>
			<path class="st43" d="M364.4,210.6v5.7h-1.3l-0.8-2.6v2.6h-1.2v-5.7h1.2l0.8,2.6v-2.6H364.4z"/>
			<path class="st43" d="M365,210.6h1.1c0.7,0,1.2,0,1.5,0.1c0.3,0.1,0.4,0.2,0.6,0.3c0.1,0.1,0.2,0.3,0.2,0.5c0,0.2,0,0.5,0,1.1v2
				c0,0.5,0,0.9-0.1,1c0,0.2-0.1,0.3-0.3,0.4c-0.1,0.1-0.3,0.2-0.4,0.2c-0.2,0-0.4,0.1-0.8,0.1H365V210.6z M366.4,211.6v3.7
				c0.2,0,0.3,0,0.4-0.1c0-0.1,0.1-0.3,0.1-0.7v-2.2c0-0.3,0-0.4,0-0.5c0-0.1-0.1-0.1-0.1-0.2C366.7,211.6,366.6,211.6,366.4,211.6z
				"/>
		</g>

    <animateTransform attributeName="transform"
      type="translate"
      values="0 -15;0 0"
      begin="2.5"
      dur="0.2"
      repeatCount="1"
      fill="freeze"
      calcMode="spline"
      keySplines="0.5 0 1 1"
      />

    <animate attributeName="opacity"
      from="0"
      to="0"
      begin="2.5"
      dur="0.5"
      repeatCount="1"
      fill="freeze"
      values="0;1"
      calcMode="spline"
      keySplines="0.5 0 0.5 1"
      />
	</g>

  <animate attributeName="opacity"
    from="0"
    to="0"
    begin="1.5"
    dur="0.5"
    repeatCount="1"
    fill="freeze"
    values="0;1"
    calcMode="spline"
    keySplines="0.5 0 0.5 1"
    />
</g>
</svg>
