<?xml version="1.0" encoding="utf-8"?>
<!-- Generator: Adobe Illustrator 19.1.0, SVG Export Plug-In . SVG Version: 6.00 Build 0)  -->
<!DOCTYPE svg PUBLIC "-//W3C//DTD SVG 1.1//EN" "http://www.w3.org/Graphics/SVG/1.1/DTD/svg11.dtd">
<svg version="1.1" xmlns="http://www.w3.org/2000/svg" xmlns:xlink="http://www.w3.org/1999/xlink" x="0px" y="0px" width="720px"
	 height="7768px" viewBox="0 0 720 284" style="enable-background:new 0 0 720 284;" xml:space="preserve">
   <script type="text/ecmascript" xlink:href="/assets/javascripts/vendor/smil.user.js"></script>
<style type="text/css">
	.st0{fill:#666666;}
	.st1{fill:#4D4D4D;}
	.st2{fill:#808080;}
	.st3{fill:#707070;}
	.st4{fill:#525252;}
	.st5{fill:none;stroke:#333333;stroke-width:15;stroke-miterlimit:10;}
	.st6{fill:none;stroke:#999999;stroke-width:0.5;stroke-miterlimit:10;}
	.st7{fill:none;stroke:#999999;stroke-width:0.5;stroke-miterlimit:10;stroke-dasharray:1.9994,0.9997;}
	.st8{fill:none;stroke:#737373;stroke-miterlimit:10;}
	.st9{opacity:0.25;fill:#1A1A1A;}
	.st10{fill:#474747;}
	.st11{opacity:0.6;fill:#D4D4D4;}
	.st12{opacity:0.23;}
	.st13{fill:#D4D4D4;}
	.st14{opacity:0.49;}
	.st15{opacity:0.23;fill:#1A1A1A;}
	.st16{fill:#1A1A1A;}
	.st17{opacity:0.25;}
	.st18{fill:#737373;}
	.st19{fill:none;stroke:#737373;stroke-width:0.5;stroke-miterlimit:10;}
	.st20{fill:#404040;}
	.st21{fill:#E6E6E6;}
	.st22{fill:#BABABA;}
	.st23{opacity:0.13;}
	.st24{fill:#999999;}
	.st25{fill:#545454;}
	.st26{fill:#8C8C8C;}
	.st27{fill:#787878;}
	.st28{opacity:0.2;}
	.st29{fill:#C4C4C4;}
	.st30{fill:#9C9C9C;}
	.st31{fill:#B3B3B3;}
	.st32{opacity:0.15;}
	.st33{fill:#2E2E2E;}
	.st34{opacity:0.16;}
	.st35{fill:#7D7D7D;}
	.st36{fill:#383838;}
	.st37{display:none;opacity:0.41;}
	.st38{display:none;opacity:0.47;}
	.st39{display:none;opacity:0.33;}
	.st40{display:none;opacity:0.49;}
	.st41{opacity:0.6;fill:url(#SVGID_1_);}
	.st42{opacity:0.26;}
	.st43{fill:#A63B32;}
	.st44{fill:#3A5789;}
	.st45{fill:#BFC4CD;}
	.st46{opacity:0.1;}
	.st47{opacity:0.3;fill:none;stroke:#000000;stroke-miterlimit:10;}
	.st48{fill:#FFC900;}
	.st49{opacity:0.1;fill:url(#SVGID_2_);}
	.st50{opacity:0.65;}
	.st51{opacity:0.1;fill:url(#SVGID_3_);}
	.st52{opacity:0.1;fill:url(#SVGID_4_);}
	.st53{opacity:0.3;fill:none;stroke:#350000;stroke-miterlimit:10;}
	.st54{opacity:0.17;fill:url(#SVGID_5_);}
	.st55{opacity:0.21;fill:none;stroke:#350000;stroke-miterlimit:10;}
	.st56{opacity:0.15;fill:url(#SVGID_6_);}
	.st57{opacity:0.23;fill:none;stroke:#350000;stroke-miterlimit:10;}
	.st58{opacity:0.3;fill:none;stroke:#4A1B00;stroke-miterlimit:10;}
	.st59{opacity:0.15;fill:url(#SVGID_7_);}
	.st60{opacity:0.18;fill:url(#SVGID_8_);}
	.st61{fill:none;stroke:#520F00;stroke-miterlimit:10;}
	.st62{opacity:0.21;fill:url(#SVGID_9_);}
	.st63{opacity:0.15;fill:url(#_x37_th_wave_1_);}
	.st64{opacity:0.1;fill:url(#_x36_th_wave_1_);}
	.st65{opacity:0.1;fill:url(#_x35_th_wave_1_);}
	.st66{opacity:0.1;fill:url(#_x34_th_wave_1_);}
	.st67{opacity:0.1;fill:url(#_x33_rd_wave_1_);}
	.st68{opacity:0.1;fill:url(#_x32_nd_wave_1_);}
	.st69{opacity:0.1;fill:url(#_x31_st_wave_1_);}
	.st70{fill:#934831;}
	.st71{fill:#994E31;}
	.st72{fill:#9C5133;}
	.st73{fill:#A15533;}
	.st74{fill:#A45834;}
	.st75{fill:#A65B33;}
	.st76{fill:#B16636;}
	.st77{fill:#B96C36;}
	.st78{opacity:0.5;fill:#FFFFFF;}
	.st79{fill:#2E3134;}
	.st80{opacity:0.3;fill:url(#SVGID_10_);}
	.st81{opacity:0.3;fill:url(#SVGID_11_);}
	.st82{opacity:0.3;fill:url(#SVGID_12_);}
	.st83{opacity:0.15;fill:url(#SVGID_13_);}
	.st84{opacity:0.15;fill:url(#SVGID_14_);}
	.st85{opacity:0.3;fill:url(#SVGID_15_);}
	.st86{fill:#72777F;}
	.st87{fill:#6E6E6E;}
	.st88{fill:#FF784C;}
	.st89{fill:#DE470C;}
	.st90{fill:#5B646F;}
	.st91{fill:#283442;}
	.st92{fill:#414B57;}
	.st93{fill:#192534;}
	.st94{opacity:0.3;fill:url(#Backlight_1_);}
	.st95{fill:#E75E39;}
	.st96{opacity:0.5;fill:url(#SVGID_16_);}
	.st97{fill:#35AF30;}
	.st98{opacity:0.5;fill:url(#SVGID_17_);}
	.st99{opacity:0.5;fill:url(#SVGID_18_);}
	.st100{opacity:0.5;fill:url(#SVGID_19_);}
	.st101{opacity:0.4;fill:url(#SVGID_20_);}
	.st102{fill:#BFBFBF;}
	.st103{fill:#636370;}
	.st104{fill:#50505E;}
</style>

<g id="Tsunami_waves">
	<linearGradient id="_x37_th_wave_1_" gradientUnits="userSpaceOnUse" x1="220.2728" y1="156.6908" x2="380.2728" y2="177.6908">
		<stop  offset="0" style="stop-color:#FFFFFF;stop-opacity:0"/>
		<stop  offset="1" style="stop-color:#FFFFFF"/>
	</linearGradient>
	<path id="_x37_th_wave" class="st63" d="M166.9,283.7c0,0,182.1-51.8,182.1-170.6C349,10,166.9,0,166.9,0V283.7z">
  </path>
</g>
<g id="Highgrounds">
	<path class="st77" d="M332,98c-5.6,5.1-6.3,11-3,13s9.2,3.5,9-5S335.3,95,332,98z"/>
	<path class="st77" d="M340,126c-10.9,6.4-17,12.2-4,21s23.5,2.3,21-10S346.8,122,340,126z"/>
	<g id="Label_14_">
		<ellipse class="st46" cx="343" cy="132" rx="5" ry="3"/>
		<path class="st78" d="M352,107h-18c-1.1,0-2,0.9-2,2v16c0,1.1,0.9,2,2,2h4l5,5l5-5h4c1.1,0,2-0.9,2-2v-16
			C354,107.9,353.1,107,352,107z"/>
		<g>
			<path class="st43" d="M338.6,110.2v7.6h-2v-3.2H336v3.2h-2v-7.6h2v2.7h0.6v-2.7H338.6z"/>
			<path class="st43" d="M341.3,110.2v7.6h-2v-7.6H341.3z"/>
			<path class="st43" d="M346.7,113h-2v-0.7c0-0.4,0-0.7-0.1-0.8s-0.1-0.2-0.3-0.2c-0.1,0-0.2,0-0.2,0.1c0,0.1-0.1,0.3-0.1,0.7v3.6
				c0,0.3,0,0.6,0.1,0.7c0,0.1,0.1,0.2,0.3,0.2c0.1,0,0.2-0.1,0.3-0.2c0.1-0.1,0.1-0.4,0.1-0.7v-0.9h-0.4v-1.2h2.3v4.1h-1.2
				l-0.2-0.5c-0.1,0.2-0.3,0.4-0.5,0.5c-0.2,0.1-0.4,0.2-0.7,0.2c-0.3,0-0.6-0.1-0.9-0.2c-0.3-0.2-0.5-0.4-0.7-0.6
				c-0.2-0.2-0.2-0.5-0.3-0.7c0-0.3-0.1-0.7-0.1-1.2v-2.3c0-0.7,0-1.3,0.1-1.6s0.3-0.6,0.7-0.9c0.4-0.3,0.8-0.4,1.4-0.4
				c0.6,0,1.1,0.1,1.4,0.4c0.4,0.2,0.6,0.5,0.7,0.8c0.1,0.3,0.2,0.8,0.2,1.4V113z"/>
			<path class="st43" d="M352,110.2v7.6h-2v-3.2h-0.6v3.2h-2v-7.6h2v2.7h0.6v-2.7H352z"/>
			<path class="st43" d="M336.7,121.7h-1.2v-0.4c0-0.3,0-0.4,0-0.5c0-0.1-0.1-0.1-0.2-0.1c-0.1,0-0.1,0-0.1,0.1s0,0.2,0,0.4v2.1
				c0,0.2,0,0.3,0,0.4c0,0.1,0.1,0.1,0.2,0.1c0.1,0,0.1,0,0.2-0.1c0-0.1,0-0.2,0-0.4v-0.5h-0.2v-0.7h1.3v2.4H336l-0.1-0.3
				c-0.1,0.1-0.2,0.2-0.3,0.3c-0.1,0.1-0.3,0.1-0.4,0.1c-0.2,0-0.4,0-0.5-0.1s-0.3-0.2-0.4-0.3c-0.1-0.1-0.1-0.3-0.2-0.4
				c0-0.2,0-0.4,0-0.7v-1.3c0-0.4,0-0.7,0.1-0.9s0.2-0.4,0.4-0.5c0.2-0.2,0.5-0.2,0.8-0.2c0.3,0,0.6,0.1,0.8,0.2
				c0.2,0.1,0.4,0.3,0.4,0.5s0.1,0.5,0.1,0.8V121.7z"/>
			<path class="st43" d="M337.1,120h0.8c0.5,0,0.9,0,1.1,0.1s0.3,0.1,0.5,0.3c0.1,0.2,0.2,0.4,0.2,0.8c0,0.3,0,0.6-0.1,0.7
				c-0.1,0.1-0.3,0.2-0.5,0.2c0.2,0.1,0.4,0.1,0.5,0.2c0.1,0.1,0.1,0.2,0.1,0.3c0,0.1,0,0.3,0,0.7v1.2h-1.1V123c0-0.2,0-0.4-0.1-0.4
				c0-0.1-0.1-0.1-0.3-0.1v2h-1.2V120z M338.3,120.8v1c0.1,0,0.2,0,0.3-0.1c0.1,0,0.1-0.2,0.1-0.3v-0.2c0-0.1,0-0.2-0.1-0.3
				C338.5,120.8,338.4,120.8,338.3,120.8z"/>
			<path class="st43" d="M342.8,122.6c0,0.4,0,0.8,0,0.9c0,0.2-0.1,0.4-0.2,0.5s-0.3,0.3-0.4,0.4c-0.2,0.1-0.4,0.1-0.7,0.1
				c-0.2,0-0.4,0-0.6-0.1c-0.2-0.1-0.3-0.2-0.5-0.3c-0.1-0.2-0.2-0.3-0.2-0.5c0-0.2,0-0.5,0-1v-0.8c0-0.4,0-0.8,0-0.9
				c0-0.2,0.1-0.4,0.2-0.5s0.3-0.3,0.4-0.4c0.2-0.1,0.4-0.1,0.7-0.1c0.2,0,0.5,0,0.6,0.1c0.2,0.1,0.3,0.2,0.5,0.3
				c0.1,0.2,0.2,0.3,0.2,0.5c0,0.2,0,0.5,0,1V122.6z M341.6,121.2c0-0.2,0-0.3,0-0.4s-0.1-0.1-0.1-0.1c-0.1,0-0.1,0-0.1,0.1
				c0,0,0,0.2,0,0.4v2.1c0,0.3,0,0.4,0,0.5c0,0.1,0.1,0.1,0.1,0.1c0.1,0,0.1,0,0.2-0.1s0-0.2,0-0.5V121.2z"/>
			<path class="st43" d="M345.8,120v3c0,0.3,0,0.6,0,0.7c0,0.1-0.1,0.3-0.2,0.4c-0.1,0.1-0.2,0.3-0.4,0.3c-0.2,0.1-0.4,0.1-0.6,0.1
				c-0.3,0-0.5,0-0.7-0.1c-0.2-0.1-0.4-0.2-0.5-0.3c-0.1-0.1-0.2-0.3-0.2-0.4c0-0.2,0-0.5,0-1V120h1.2v3.3c0,0.2,0,0.3,0,0.4
				s0.1,0.1,0.1,0.1c0.1,0,0.1,0,0.1-0.1c0-0.1,0-0.2,0-0.4V120H345.8z"/>
			<path class="st43" d="M348.8,120v4.4h-1l-0.6-2v2h-1V120h1l0.6,2v-2H348.8z"/>
			<path class="st43" d="M349.3,120h0.9c0.6,0,0.9,0,1.1,0.1c0.2,0.1,0.3,0.1,0.4,0.3c0.1,0.1,0.2,0.2,0.2,0.4c0,0.1,0,0.4,0,0.8
				v1.5c0,0.4,0,0.7-0.1,0.8c0,0.1-0.1,0.2-0.2,0.3c-0.1,0.1-0.2,0.1-0.3,0.2s-0.3,0-0.6,0h-1.5V120z M350.5,120.8v2.9
				c0.2,0,0.3,0,0.3-0.1c0-0.1,0.1-0.2,0.1-0.5v-1.7c0-0.2,0-0.3,0-0.4c0-0.1,0-0.1-0.1-0.1C350.7,120.8,350.6,120.8,350.5,120.8z"
				/>
		</g>
	</g>
	<g id="Label_13_">
		<ellipse class="st46" cx="333.3" cy="101.3" rx="2.9" ry="1.7"/>
		<path class="st78" d="M338.4,87h-10.3c-0.6,0-1.1,0.5-1.1,1.1v9.1c0,0.6,0.5,1.1,1.1,1.1h2.3l2.9,2.9l2.9-2.9h2.3
			c0.6,0,1.1-0.5,1.1-1.1v-9.1C339.6,87.5,339.1,87,338.4,87z"/>
		<g>
			<path class="st43" d="M330.8,88.8v4.3h-1.1v-1.8h-0.3v1.8h-1.1v-4.3h1.1v1.6h0.3v-1.6H330.8z"/>
			<path class="st43" d="M332.3,88.8v4.3h-1.1v-4.3H332.3z"/>
			<path class="st43" d="M335.4,90.4h-1.1V90c0-0.2,0-0.4,0-0.5s-0.1-0.1-0.2-0.1c-0.1,0-0.1,0-0.1,0.1c0,0.1,0,0.2,0,0.4V92
				c0,0.2,0,0.3,0,0.4c0,0.1,0.1,0.1,0.2,0.1c0.1,0,0.1,0,0.2-0.1c0-0.1,0-0.2,0-0.4v-0.5h-0.2v-0.7h1.3v2.3h-0.7l-0.1-0.3
				c-0.1,0.1-0.2,0.2-0.3,0.3c-0.1,0.1-0.3,0.1-0.4,0.1c-0.2,0-0.4,0-0.5-0.1c-0.2-0.1-0.3-0.2-0.4-0.3c-0.1-0.1-0.1-0.3-0.2-0.4
				c0-0.1,0-0.4,0-0.7v-1.3c0-0.4,0-0.7,0.1-0.9s0.2-0.4,0.4-0.5c0.2-0.2,0.5-0.2,0.8-0.2c0.3,0,0.6,0.1,0.8,0.2
				c0.2,0.1,0.4,0.3,0.4,0.5c0.1,0.2,0.1,0.5,0.1,0.8V90.4z"/>
			<path class="st43" d="M338.4,88.8v4.3h-1.1v-1.8h-0.3v1.8h-1.1v-4.3h1.1v1.6h0.3v-1.6H338.4z"/>
			<path class="st43" d="M329.7,95.4H329v-0.2c0-0.1,0-0.2,0-0.3c0,0,0-0.1-0.1-0.1c0,0-0.1,0-0.1,0s0,0.1,0,0.2v1.2
				c0,0.1,0,0.2,0,0.2c0,0,0,0.1,0.1,0.1c0,0,0.1,0,0.1-0.1c0,0,0-0.1,0-0.2V96h-0.1v-0.4h0.8V97h-0.4l-0.1-0.2
				c0,0.1-0.1,0.1-0.2,0.2c-0.1,0-0.1,0.1-0.2,0.1c-0.1,0-0.2,0-0.3-0.1c-0.1-0.1-0.2-0.1-0.2-0.2c-0.1-0.1-0.1-0.2-0.1-0.2
				c0-0.1,0-0.2,0-0.4v-0.8c0-0.2,0-0.4,0-0.5s0.1-0.2,0.2-0.3c0.1-0.1,0.3-0.1,0.5-0.1c0.2,0,0.4,0,0.5,0.1
				c0.1,0.1,0.2,0.2,0.2,0.3s0.1,0.3,0.1,0.5V95.4z"/>
			<path class="st43" d="M329.9,94.5h0.5c0.3,0,0.5,0,0.6,0s0.2,0.1,0.3,0.2c0.1,0.1,0.1,0.3,0.1,0.5c0,0.2,0,0.3-0.1,0.4
				c0,0.1-0.1,0.1-0.3,0.1c0.1,0,0.2,0.1,0.3,0.1c0,0.1,0.1,0.1,0.1,0.1c0,0,0,0.2,0,0.4V97h-0.6v-0.8c0-0.1,0-0.2,0-0.3
				c0,0-0.1,0-0.2,0V97h-0.7V94.5z M330.6,94.9v0.6c0.1,0,0.1,0,0.2,0c0,0,0-0.1,0-0.2v-0.1c0-0.1,0-0.1,0-0.2
				C330.7,94.9,330.7,94.9,330.6,94.9z"/>
			<path class="st43" d="M333.2,95.9c0,0.3,0,0.4,0,0.5c0,0.1,0,0.2-0.1,0.3c-0.1,0.1-0.1,0.2-0.3,0.2c-0.1,0-0.2,0.1-0.4,0.1
				c-0.1,0-0.3,0-0.4-0.1c-0.1,0-0.2-0.1-0.3-0.2c-0.1-0.1-0.1-0.2-0.1-0.3c0-0.1,0-0.3,0-0.5v-0.4c0-0.3,0-0.4,0-0.5
				c0-0.1,0-0.2,0.1-0.3c0.1-0.1,0.1-0.2,0.3-0.2c0.1,0,0.2-0.1,0.4-0.1c0.1,0,0.3,0,0.4,0.1c0.1,0,0.2,0.1,0.3,0.2
				c0.1,0.1,0.1,0.2,0.1,0.3c0,0.1,0,0.3,0,0.5V95.9z M332.5,95.1c0-0.1,0-0.2,0-0.2c0,0,0,0-0.1,0c0,0-0.1,0-0.1,0c0,0,0,0.1,0,0.2
				v1.2c0,0.1,0,0.2,0,0.3c0,0,0,0.1,0.1,0.1c0,0,0.1,0,0.1-0.1c0,0,0-0.1,0-0.3V95.1z"/>
			<path class="st43" d="M334.9,94.5v1.7c0,0.2,0,0.3,0,0.4c0,0.1,0,0.2-0.1,0.2c-0.1,0.1-0.1,0.1-0.2,0.2c-0.1,0-0.2,0.1-0.4,0.1
				c-0.2,0-0.3,0-0.4-0.1c-0.1-0.1-0.2-0.1-0.3-0.2c-0.1-0.1-0.1-0.2-0.1-0.3c0-0.1,0-0.3,0-0.6v-1.5h0.7v1.9c0,0.1,0,0.2,0,0.2
				c0,0,0,0,0.1,0c0,0,0.1,0,0.1-0.1c0,0,0-0.1,0-0.2v-1.9H334.9z"/>
			<path class="st43" d="M336.6,94.5V97h-0.6l-0.3-1.2V97h-0.6v-2.5h0.6l0.4,1.1v-1.1H336.6z"/>
			<path class="st43" d="M336.9,94.5h0.5c0.3,0,0.5,0,0.6,0c0.1,0,0.2,0.1,0.3,0.1c0.1,0.1,0.1,0.1,0.1,0.2c0,0.1,0,0.2,0,0.5v0.9
				c0,0.2,0,0.4,0,0.5c0,0.1-0.1,0.1-0.1,0.2c-0.1,0-0.1,0.1-0.2,0.1c-0.1,0-0.2,0-0.4,0h-0.8V94.5z M337.5,94.9v1.7
				c0.1,0,0.2,0,0.2-0.1c0,0,0-0.1,0-0.3v-1c0-0.1,0-0.2,0-0.2c0,0,0-0.1-0.1-0.1C337.7,94.9,337.6,94.9,337.5,94.9z"/>
		</g>
	</g>
</g>
</svg>
