<?xml version="1.0" encoding="utf-8"?>
<!-- Generator: Adobe Illustrator 19.1.0, SVG Export Plug-In . SVG Version: 6.00 Build 0)  -->
<!DOCTYPE svg PUBLIC "-//W3C//DTD SVG 1.1//EN" "http://www.w3.org/Graphics/SVG/1.1/DTD/svg11.dtd">
<svg version="1.1" xmlns="http://www.w3.org/2000/svg" xmlns:xlink="http://www.w3.org/1999/xlink" x="0px" y="0px" width="720px"
	 height="6649px" viewBox="0 0 720 709.9" style="enable-background:new 0 0 720 709.9;" xml:space="preserve">
<style type="text/css">
	.st0{fill:#666666;}
	.st1{fill:#4D4D4D;}
	.st2{fill:#808080;}
	.st3{fill:#707070;}
	.st4{fill:#525252;}
	.st5{fill:none;stroke:#333333;stroke-width:15;stroke-miterlimit:10;}
	.st6{fill:none;stroke:#999999;stroke-width:0.5;stroke-miterlimit:10;}
	.st7{fill:none;stroke:#999999;stroke-width:0.5;stroke-miterlimit:10;stroke-dasharray:1.9994,0.9997;}
	.st8{fill:none;stroke:#737373;stroke-miterlimit:10;}
	.st9{opacity:0.25;fill:#1A1A1A;}
	.st10{fill:#474747;}
	.st11{opacity:0.6;fill:#D4D4D4;}
	.st12{opacity:0.23;}
	.st13{fill:#D4D4D4;}
	.st14{opacity:0.49;}
	.st15{opacity:0.23;fill:#1A1A1A;}
	.st16{fill:#1A1A1A;}
	.st17{opacity:0.25;}
	.st18{fill:#737373;}
	.st19{fill:none;stroke:#737373;stroke-width:0.5;stroke-miterlimit:10;}
	.st20{fill:#404040;}
	.st21{fill:#E6E6E6;}
	.st22{fill:#BABABA;}
	.st23{opacity:0.13;}
	.st24{fill:#999999;}
	.st25{fill:#545454;}
	.st26{fill:#8C8C8C;}
	.st27{fill:#787878;}
	.st28{opacity:0.2;}
	.st29{fill:#C4C4C4;}
	.st30{fill:#9C9C9C;}
	.st31{fill:#B3B3B3;}
	.st32{opacity:0.15;}
	.st33{fill:#2E2E2E;}
	.st34{opacity:0.16;}
	.st35{fill:#7D7D7D;}
	.st36{fill:#383838;}
	.st37{display:none;opacity:0.41;}
	.st38{display:none;opacity:0.47;}
	.st39{display:none;opacity:0.33;}
	.st40{display:none;opacity:0.49;}
	.st41{opacity:0.6;fill:url(#SVGID_1_);}
	.st42{opacity:0.26;}
	.st43{fill:#A63B32;}
	.st44{fill:#3A5789;}
	.st45{fill:#BFC4CD;}
	.st46{opacity:0.1;}
	.st47{font-family:'Impact';}
	.st48{font-size:14px;}
	.st49{letter-spacing:4;}
	.st50{opacity:0.3;fill:none;stroke:#000000;stroke-miterlimit:10;}
	.st51{fill:#FFC900;}
	.st52{opacity:0.1;fill:url(#SVGID_2_);}
	.st53{opacity:0.65;}
	.st54{opacity:0.1;fill:url(#SVGID_3_);}
	.st55{opacity:0.1;fill:url(#SVGID_4_);}
	.st56{opacity:0.3;fill:none;stroke:#350000;stroke-miterlimit:10;}
	.st57{opacity:0.17;fill:url(#SVGID_5_);}
	.st58{opacity:0.21;fill:none;stroke:#350000;stroke-miterlimit:10;}
	.st59{opacity:0.15;fill:url(#SVGID_6_);}
	.st60{opacity:0.23;fill:none;stroke:#350000;stroke-miterlimit:10;}
	.st61{opacity:0.3;fill:none;stroke:#4A1B00;stroke-miterlimit:10;}
	.st62{opacity:0.15;fill:url(#SVGID_7_);}
	.st63{opacity:0.18;fill:url(#SVGID_8_);}
	.st64{fill:none;stroke:#520F00;stroke-miterlimit:10;}
	.st65{opacity:0.21;fill:url(#SVGID_9_);}
	.st66{opacity:0.1;fill:url(#_x37_th_wave_1_);}
	.st67{opacity:0.1;fill:url(#_x36_th_wave_1_);}
	.st68{opacity:0.1;fill:url(#_x35_th_wave_1_);}
	.st69{opacity:0.1;fill:url(#_x34_th_wave_1_);}
	.st70{opacity:0.1;fill:url(#_x33_rd_wave_1_);}
	.st71{opacity:0.1;fill:url(#_x32_nd_wave_1_);}
	.st72{opacity:0.1;fill:url(#_x31_st_wave_1_);}
	.st73{fill:#934831;}
	.st74{fill:#994E31;}
	.st75{fill:#9C5133;}
	.st76{fill:#A15533;}
	.st77{fill:#A45834;}
	.st78{fill:#A65B33;}
	.st79{fill:#B16636;}
	.st80{fill:#B96C36;}
	.st81{opacity:0.5;fill:#FFFFFF;}
	.st82{fill:#2E3134;}
	.st83{opacity:0.3;fill:url(#SVGID_10_);}
	.st84{opacity:0.3;fill:url(#SVGID_11_);}
	.st85{opacity:0.3;fill:url(#SVGID_12_);}
	.st86{opacity:0.15;fill:url(#SVGID_13_);}
	.st87{opacity:0.15;fill:url(#SVGID_14_);}
	.st88{opacity:0.3;fill:url(#SVGID_15_);}
	.st89{fill:#72777F;}
	.st90{fill:#6E6E6E;}
	.st91{fill:#FF784C;}
	.st92{fill:#DE470C;}
	.st93{fill:#5B646F;}
	.st94{fill:#283442;}
	.st95{fill:#414B57;}
	.st96{fill:#192534;}
	.st97{opacity:0.3;fill:url(#Backlight_1_);}
	.st98{fill:#E75E39;}
	.st99{opacity:0.5;fill:url(#SVGID_16_);}
	.st100{fill:#35AF30;}
	.st101{opacity:0.5;fill:url(#SVGID_17_);}
	.st102{opacity:0.5;fill:url(#SVGID_18_);}
	.st103{opacity:0.5;fill:url(#SVGID_19_);}
	.st104{opacity:0.4;fill:url(#SVGID_20_);}
	.st105{fill:#BFBFBF;}
	.st106{fill:#636370;}
	.st107{fill:#50505E;}
</style>

<g id="Tsunami_waves" opacity="0">

	<linearGradient id="_x35_th_wave_1_" gradientUnits="userSpaceOnUse" x1="200.915" y1="346.1524" x2="300.915" y2="340.1524">
		<stop  offset="0" style="stop-color:#FFFFFF;stop-opacity:0"/>
		<stop  offset="1" style="stop-color:#FFFFFF"/>
	</linearGradient>
	<path id="_x35_th_wave" class="st68" d="M130.2,0.2c97.4,193.9,138,143.2,122.5,322.8c-15.5,179.6,88.4,162.4-34.9,248.4
		S166.3,709.8,166.3,709.8V0.2H218.2z">

    <animate id="animation1" attributeName="d"
      from="M218.2,0.2c97.4,193.9,138,143.2,122.5,322.8c-15.5,179.6,88.4,162.4-34.9,248.4
    S166.3,709.8,166.3,709.8V0.2H218.2"
      to="M218.2,0.2c97.4,193.9,138,143.2,122.5,322.8c-15.5,179.6,88.4,162.4-34.9,248.4
    S166.3,709.8,166.3,709.8V0.2H218.2"
      begin="indefinite"
      dur="4"
      repeatCount="1"
      fill="freeze"
      values="M130.2,0.2c97.4,193.9,138,143.2,122.5,322.8c-15.5,179.6,88.4,162.4-34.9,248.4
    S166.3,709.8,166.3,709.8V0.2H218.2;
      M218.2,0.2c97.4,193.9,138,143.2,122.5,322.8c-15.5,179.6,88.4,162.4-34.9,248.4
    S166.3,709.8,166.3,709.8V0.2H218.2"
      calcMode="spline"
      keySplines="0.5 0 0.5 1"
    />
  </path>

  <animate id="animation2" attributeName="opacity"
    from="0"
    to="0"
    begin="indefinite"
    dur="4"
    repeatCount="1"
    fill="freeze"
    values="0;0.8;1;0.4"
    calcMode="spline"
    keySplines="0.5 0 0.5 1;
                0.5 0 0.5 1;
                0.5 0 0.5 1"
    />
</g>

<g id="Highgrounds" opacity="0">

	<path class="st80" d="M326.2,199.6c-6.5-2.5-13.9,5.2-4,16s5.1,9.6,5,19s18.7,7.1,7-11C328.2,214.2,332.7,202.1,326.2,199.6z"/>
	<path class="st80" d="M329,284c-8.1-0.8-22,7.2-17,24s-9,23.5,2,31s14.8-16.8,19-32S335.8,284.7,329,284z"/>
	<path class="st80" d="M340,459c-11,3.3-2.7,13.7,2,21s9.8-3.2,6-11S344.5,457.7,340,459z"/>
	<path class="st80" d="M306,453c9.5,1.1,11-8.3,17-2s9.3,7.7,12,5s5.5-13.5-6-12c-12.4,1.6-22.7-12.5-28-5S301.8,452.5,306,453z"/>

  <g id="Label_9_" opacity="0">
		<ellipse class="st46" cx="324.2" cy="206.5" rx="5" ry="3"/>
		<path class="st81" d="M333.2,181.5h-18c-1.1,0-2,0.9-2,2v16c0,1.1,0.9,2,2,2h4l5,5l5-5h4c1.1,0,2-0.9,2-2v-16
			C335.2,182.4,334.3,181.5,333.2,181.5z"/>
		<g>
			<path class="st43" d="M319.7,184.7v7.6h-2v-3.2h-0.6v3.2h-2v-7.6h2v2.7h0.6v-2.7H319.7z"/>
			<path class="st43" d="M322.5,184.7v7.6h-2v-7.6H322.5z"/>
			<path class="st43" d="M327.8,187.5h-2v-0.7c0-0.4,0-0.7-0.1-0.8s-0.1-0.2-0.3-0.2c-0.1,0-0.2,0-0.2,0.1c0,0.1-0.1,0.3-0.1,0.7
				v3.6c0,0.3,0,0.6,0.1,0.7c0,0.1,0.1,0.2,0.3,0.2c0.1,0,0.2-0.1,0.3-0.2c0.1-0.1,0.1-0.4,0.1-0.7v-0.9h-0.4v-1.2h2.3v4.1h-1.2
				l-0.2-0.5c-0.1,0.2-0.3,0.4-0.5,0.5c-0.2,0.1-0.4,0.2-0.7,0.2c-0.3,0-0.6-0.1-0.9-0.2c-0.3-0.2-0.5-0.4-0.7-0.6
				c-0.2-0.2-0.2-0.5-0.3-0.7c0-0.3-0.1-0.7-0.1-1.2v-2.3c0-0.7,0-1.3,0.1-1.6s0.3-0.6,0.7-0.9c0.4-0.3,0.8-0.4,1.4-0.4
				c0.6,0,1.1,0.1,1.4,0.4c0.4,0.2,0.6,0.5,0.7,0.8c0.1,0.3,0.2,0.8,0.2,1.4V187.5z"/>
			<path class="st43" d="M333.1,184.7v7.6h-2v-3.2h-0.6v3.2h-2v-7.6h2v2.7h0.6v-2.7H333.1z"/>
			<path class="st43" d="M317.8,196.2h-1.2v-0.4c0-0.3,0-0.4,0-0.5c0-0.1-0.1-0.1-0.2-0.1c-0.1,0-0.1,0-0.1,0.1s0,0.2,0,0.4v2.1
				c0,0.2,0,0.3,0,0.4c0,0.1,0.1,0.1,0.2,0.1c0.1,0,0.1,0,0.2-0.1c0-0.1,0-0.2,0-0.4v-0.5h-0.2v-0.7h1.3v2.4h-0.7l-0.1-0.3
				c-0.1,0.1-0.2,0.2-0.3,0.3c-0.1,0.1-0.3,0.1-0.4,0.1c-0.2,0-0.4,0-0.5-0.1s-0.3-0.2-0.4-0.3c-0.1-0.1-0.1-0.3-0.2-0.4
				c0-0.2,0-0.4,0-0.7v-1.3c0-0.4,0-0.7,0.1-0.9s0.2-0.4,0.4-0.5c0.2-0.2,0.5-0.2,0.8-0.2c0.3,0,0.6,0.1,0.8,0.2
				c0.2,0.1,0.4,0.3,0.4,0.5s0.1,0.5,0.1,0.8V196.2z"/>
			<path class="st43" d="M318.3,194.6h0.8c0.5,0,0.9,0,1.1,0.1s0.3,0.1,0.5,0.3c0.1,0.2,0.2,0.4,0.2,0.8c0,0.3,0,0.6-0.1,0.7
				c-0.1,0.1-0.3,0.2-0.5,0.2c0.2,0.1,0.4,0.1,0.5,0.2c0.1,0.1,0.1,0.2,0.1,0.3c0,0.1,0,0.3,0,0.7v1.2h-1.1v-1.5
				c0-0.2,0-0.4-0.1-0.4c0-0.1-0.1-0.1-0.3-0.1v2h-1.2V194.6z M319.4,195.3v1c0.1,0,0.2,0,0.3-0.1c0.1,0,0.1-0.2,0.1-0.3v-0.2
				c0-0.1,0-0.2-0.1-0.3C319.7,195.4,319.6,195.3,319.4,195.3z"/>
			<path class="st43" d="M323.9,197.2c0,0.4,0,0.8,0,0.9c0,0.2-0.1,0.4-0.2,0.5s-0.3,0.3-0.4,0.4c-0.2,0.1-0.4,0.1-0.7,0.1
				c-0.2,0-0.4,0-0.6-0.1c-0.2-0.1-0.3-0.2-0.5-0.3c-0.1-0.2-0.2-0.3-0.2-0.5c0-0.2,0-0.5,0-1v-0.8c0-0.4,0-0.8,0-0.9
				c0-0.2,0.1-0.4,0.2-0.5s0.3-0.3,0.4-0.4c0.2-0.1,0.4-0.1,0.7-0.1c0.2,0,0.5,0,0.6,0.1c0.2,0.1,0.3,0.2,0.5,0.3
				c0.1,0.2,0.2,0.3,0.2,0.5c0,0.2,0,0.5,0,1V197.2z M322.8,195.7c0-0.2,0-0.3,0-0.4s-0.1-0.1-0.1-0.1c-0.1,0-0.1,0-0.1,0.1
				c0,0,0,0.2,0,0.4v2.1c0,0.3,0,0.4,0,0.5c0,0.1,0.1,0.1,0.1,0.1c0.1,0,0.1,0,0.2-0.1s0-0.2,0-0.5V195.7z"/>
			<path class="st43" d="M327,194.6v3c0,0.3,0,0.6,0,0.7c0,0.1-0.1,0.3-0.2,0.4c-0.1,0.1-0.2,0.3-0.4,0.3c-0.2,0.1-0.4,0.1-0.6,0.1
				c-0.3,0-0.5,0-0.7-0.1c-0.2-0.1-0.4-0.2-0.5-0.3c-0.1-0.1-0.2-0.3-0.2-0.4c0-0.2,0-0.5,0-1v-2.6h1.2v3.3c0,0.2,0,0.3,0,0.4
				s0.1,0.1,0.1,0.1c0.1,0,0.1,0,0.1-0.1c0-0.1,0-0.2,0-0.4v-3.3H327z"/>
			<path class="st43" d="M330,194.6v4.4h-1l-0.6-2v2h-1v-4.4h1l0.6,2v-2H330z"/>
			<path class="st43" d="M330.5,194.6h0.9c0.6,0,0.9,0,1.1,0.1c0.2,0.1,0.3,0.1,0.4,0.3c0.1,0.1,0.2,0.2,0.2,0.4c0,0.1,0,0.4,0,0.8
				v1.5c0,0.4,0,0.7-0.1,0.8c0,0.1-0.1,0.2-0.2,0.3c-0.1,0.1-0.2,0.1-0.3,0.2s-0.3,0-0.6,0h-1.5V194.6z M331.6,195.3v2.9
				c0.2,0,0.3,0,0.3-0.1c0-0.1,0.1-0.2,0.1-0.5v-1.7c0-0.2,0-0.3,0-0.4c0-0.1,0-0.1-0.1-0.1C331.8,195.3,331.7,195.3,331.6,195.3z"
				/>
		</g>

    <animateTransform id="animation3" attributeName="transform"
      type="translate"
      values="0 -15;0 0"
      begin="indefinite"
      dur="0.2"
      repeatCount="1"
      fill="freeze"
      calcMode="spline"
      keySplines="0.5 0 1 1"
      />

    <animate id="animation4" attributeName="opacity"
      from="0"
      to="0"
      begin="indefinite"
      dur="0.5"
      repeatCount="1"
      fill="freeze"
      values="0;1"
      calcMode="spline"
      keySplines="0.5 0 0.5 1"
      />
	</g>

	<g id="Label_8_" opacity="0">
		<ellipse class="st46" cx="323.8" cy="301.2" rx="6.4" ry="3.9"/>
		<path class="st81" d="M335.3,269.1h-23.1c-1.4,0-2.6,1.2-2.6,2.6v20.6c0,1.4,1.2,2.6,2.6,2.6h5.1l6.4,6.4l6.4-6.4h5.1
			c1.4,0,2.6-1.2,2.6-2.6v-20.6C337.9,270.2,336.7,269.1,335.3,269.1z"/>
		<g>
			<path class="st43" d="M318.1,273.1v9.8h-2.5v-4.1h-0.8v4.1h-2.5v-9.8h2.5v3.5h0.8v-3.5H318.1z"/>
			<path class="st43" d="M321.6,273.1v9.8h-2.5v-9.8H321.6z"/>
			<path class="st43" d="M328.5,276.7h-2.5v-0.9c0-0.6,0-0.9-0.1-1s-0.2-0.2-0.3-0.2c-0.2,0-0.3,0.1-0.3,0.2
				c-0.1,0.1-0.1,0.4-0.1,0.9v4.7c0,0.4,0,0.7,0.1,0.9c0.1,0.1,0.2,0.2,0.3,0.2c0.2,0,0.3-0.1,0.4-0.2c0.1-0.2,0.1-0.5,0.1-0.9v-1.2
				h-0.5v-1.5h3v5.2h-1.6l-0.2-0.7c-0.2,0.3-0.4,0.5-0.7,0.7c-0.3,0.2-0.6,0.2-0.9,0.2c-0.4,0-0.8-0.1-1.2-0.3
				c-0.4-0.2-0.7-0.5-0.8-0.8c-0.2-0.3-0.3-0.6-0.4-1c0-0.3-0.1-0.8-0.1-1.5v-2.9c0-0.9,0.1-1.6,0.2-2c0.1-0.4,0.4-0.8,0.9-1.2
				c0.5-0.4,1.1-0.5,1.8-0.5c0.7,0,1.4,0.2,1.9,0.5c0.5,0.3,0.8,0.7,1,1.1c0.1,0.4,0.2,1,0.2,1.8V276.7z"/>
			<path class="st43" d="M335.3,273.1v9.8h-2.5v-4.1H332v4.1h-2.5v-9.8h2.5v3.5h0.8v-3.5H335.3z"/>
			<path class="st43" d="M315.6,287.9h-1.5v-0.5c0-0.3,0-0.5,0-0.6c0-0.1-0.1-0.1-0.2-0.1c-0.1,0-0.2,0-0.2,0.1s0,0.3,0,0.5v2.7
				c0,0.3,0,0.4,0,0.5c0,0.1,0.1,0.1,0.2,0.1c0.1,0,0.2,0,0.2-0.1c0-0.1,0.1-0.3,0.1-0.5v-0.7h-0.3v-0.9h1.7v3.1h-0.9l-0.1-0.4
				c-0.1,0.2-0.2,0.3-0.4,0.4c-0.2,0.1-0.3,0.1-0.5,0.1c-0.2,0-0.5-0.1-0.7-0.2c-0.2-0.1-0.4-0.3-0.5-0.4c-0.1-0.2-0.2-0.4-0.2-0.6
				c0-0.2,0-0.5,0-0.9v-1.7c0-0.5,0-0.9,0.1-1.2s0.2-0.5,0.5-0.7c0.3-0.2,0.6-0.3,1.1-0.3c0.4,0,0.8,0.1,1.1,0.3
				c0.3,0.2,0.5,0.4,0.6,0.6s0.1,0.6,0.1,1.1V287.9z"/>
			<path class="st43" d="M316.2,285.8h1c0.7,0,1.2,0,1.4,0.1s0.4,0.2,0.6,0.4c0.2,0.2,0.2,0.6,0.2,1.1c0,0.4-0.1,0.7-0.2,0.9
				c-0.1,0.2-0.3,0.2-0.7,0.3c0.3,0.1,0.5,0.2,0.6,0.3c0.1,0.1,0.2,0.2,0.2,0.3c0,0.1,0,0.4,0,0.8v1.5h-1.4v-1.9
				c0-0.3,0-0.5-0.1-0.6c0-0.1-0.2-0.1-0.4-0.1v2.6h-1.5V285.8z M317.7,286.8v1.3c0.2,0,0.3,0,0.3-0.1c0.1,0,0.1-0.2,0.1-0.4v-0.3
				c0-0.2,0-0.3-0.1-0.4C318,286.8,317.9,286.8,317.7,286.8z"/>
			<path class="st43" d="M323.5,289.2c0,0.6,0,1,0,1.2c0,0.2-0.1,0.5-0.3,0.7c-0.1,0.2-0.3,0.3-0.6,0.5c-0.2,0.1-0.5,0.2-0.8,0.2
				c-0.3,0-0.6,0-0.8-0.1c-0.2-0.1-0.4-0.2-0.6-0.4c-0.1-0.2-0.2-0.4-0.3-0.7c0-0.2,0-0.6,0-1.2v-1c0-0.6,0-1,0-1.2
				c0-0.2,0.1-0.5,0.3-0.7c0.1-0.2,0.3-0.3,0.6-0.5c0.2-0.1,0.5-0.2,0.8-0.2c0.3,0,0.6,0,0.8,0.1c0.2,0.1,0.4,0.2,0.6,0.4
				c0.1,0.2,0.2,0.4,0.3,0.7c0,0.2,0,0.6,0,1.2V289.2z M322,287.3c0-0.3,0-0.4,0-0.5c0-0.1-0.1-0.1-0.2-0.1c-0.1,0-0.1,0-0.2,0.1
				c0,0.1-0.1,0.2-0.1,0.5v2.7c0,0.3,0,0.5,0,0.6c0,0.1,0.1,0.1,0.2,0.1c0.1,0,0.2,0,0.2-0.1c0-0.1,0-0.3,0-0.6V287.3z"/>
			<path class="st43" d="M327.4,285.8v3.8c0,0.4,0,0.7,0,0.9c0,0.2-0.1,0.4-0.2,0.5c-0.1,0.2-0.3,0.3-0.5,0.4
				c-0.2,0.1-0.5,0.1-0.8,0.1c-0.3,0-0.6-0.1-0.9-0.2c-0.3-0.1-0.5-0.3-0.6-0.4c-0.1-0.2-0.2-0.4-0.2-0.6c0-0.2,0-0.6,0-1.3v-3.4
				h1.5v4.3c0,0.2,0,0.4,0,0.5c0,0.1,0.1,0.1,0.2,0.1c0.1,0,0.2,0,0.2-0.1c0-0.1,0-0.3,0-0.5v-4.2H327.4z"/>
			<path class="st43" d="M331.3,285.8v5.7H330l-0.8-2.6v2.6H328v-5.7h1.2l0.8,2.6v-2.6H331.3z"/>
			<path class="st43" d="M331.9,285.8h1.1c0.7,0,1.2,0,1.5,0.1c0.3,0.1,0.4,0.2,0.6,0.3c0.1,0.1,0.2,0.3,0.2,0.5c0,0.2,0,0.5,0,1.1
				v2c0,0.5,0,0.9-0.1,1c0,0.2-0.1,0.3-0.3,0.4c-0.1,0.1-0.3,0.2-0.4,0.2c-0.2,0-0.4,0.1-0.8,0.1h-1.9V285.8z M333.3,286.8v3.7
				c0.2,0,0.3,0,0.4-0.1c0-0.1,0.1-0.3,0.1-0.7v-2.2c0-0.3,0-0.4,0-0.5c0-0.1-0.1-0.1-0.1-0.2C333.6,286.8,333.5,286.8,333.3,286.8z
				"/>
		</g>

    <animateTransform id="animation5" attributeName="transform"
      type="translate"
      values="0 -15;0 0"
      begin="indefinite"
      dur="0.2"
      repeatCount="1"
      fill="freeze"
      calcMode="spline"
      keySplines="0.5 0 1 1"
      />

    <animate id="animation6" attributeName="opacity"
      from="0"
      to="0"
      begin="indefinite"
      dur="0.5"
      repeatCount="1"
      fill="freeze"
      values="0;1"
      calcMode="spline"
      keySplines="0.5 0 0.5 1"
      />
	</g>
  <g id="Label_10_" opacity="0">
    <ellipse class="st46" cx="307" cy="444" rx="5" ry="3"/>
    <path class="st81" d="M316,419h-18c-1.1,0-2,0.9-2,2v16c0,1.1,0.9,2,2,2h4l5,5l5-5h4c1.1,0,2-0.9,2-2v-16
      C318,419.9,317.1,419,316,419z"/>
    <g>
      <path class="st43" d="M302.6,422.2v7.6h-2v-3.2H300v3.2h-2v-7.6h2v2.7h0.6v-2.7H302.6z"/>
      <path class="st43" d="M305.3,422.2v7.6h-2v-7.6H305.3z"/>
      <path class="st43" d="M310.7,425h-2v-0.7c0-0.4,0-0.7-0.1-0.8s-0.1-0.2-0.3-0.2c-0.1,0-0.2,0-0.2,0.1c0,0.1-0.1,0.3-0.1,0.7v3.6
        c0,0.3,0,0.6,0.1,0.7c0,0.1,0.1,0.2,0.3,0.2c0.1,0,0.2-0.1,0.3-0.2c0.1-0.1,0.1-0.4,0.1-0.7v-0.9h-0.4v-1.2h2.3v4.1h-1.2
        l-0.2-0.5c-0.1,0.2-0.3,0.4-0.5,0.5c-0.2,0.1-0.4,0.2-0.7,0.2c-0.3,0-0.6-0.1-0.9-0.2c-0.3-0.2-0.5-0.4-0.7-0.6
        c-0.2-0.2-0.2-0.5-0.3-0.7c0-0.3-0.1-0.7-0.1-1.2v-2.3c0-0.7,0-1.3,0.1-1.6s0.3-0.6,0.7-0.9c0.4-0.3,0.8-0.4,1.4-0.4
        c0.6,0,1.1,0.1,1.4,0.4c0.4,0.2,0.6,0.5,0.7,0.8c0.1,0.3,0.2,0.8,0.2,1.4V425z"/>
      <path class="st43" d="M316,422.2v7.6h-2v-3.2h-0.6v3.2h-2v-7.6h2v2.7h0.6v-2.7H316z"/>
      <path class="st43" d="M300.7,433.7h-1.2v-0.4c0-0.3,0-0.4,0-0.5c0-0.1-0.1-0.1-0.2-0.1c-0.1,0-0.1,0-0.1,0.1s0,0.2,0,0.4v2.1
        c0,0.2,0,0.3,0,0.4c0,0.1,0.1,0.1,0.2,0.1c0.1,0,0.1,0,0.2-0.1c0-0.1,0-0.2,0-0.4v-0.5h-0.2v-0.7h1.3v2.4H300l-0.1-0.3
        c-0.1,0.1-0.2,0.2-0.3,0.3c-0.1,0.1-0.3,0.1-0.4,0.1c-0.2,0-0.4,0-0.5-0.1s-0.3-0.2-0.4-0.3c-0.1-0.1-0.1-0.3-0.2-0.4
        c0-0.2,0-0.4,0-0.7v-1.3c0-0.4,0-0.7,0.1-0.9s0.2-0.4,0.4-0.5c0.2-0.2,0.5-0.2,0.8-0.2c0.3,0,0.6,0.1,0.8,0.2
        c0.2,0.1,0.4,0.3,0.4,0.5s0.1,0.5,0.1,0.8V433.7z"/>
      <path class="st43" d="M301.1,432h0.8c0.5,0,0.9,0,1.1,0.1s0.3,0.1,0.5,0.3c0.1,0.2,0.2,0.4,0.2,0.8c0,0.3,0,0.6-0.1,0.7
        c-0.1,0.1-0.3,0.2-0.5,0.2c0.2,0.1,0.4,0.1,0.5,0.2c0.1,0.1,0.1,0.2,0.1,0.3c0,0.1,0,0.3,0,0.7v1.2h-1.1V435c0-0.2,0-0.4-0.1-0.4
        c0-0.1-0.1-0.1-0.3-0.1v2h-1.2V432z M302.3,432.8v1c0.1,0,0.2,0,0.3-0.1c0.1,0,0.1-0.2,0.1-0.3v-0.2c0-0.1,0-0.2-0.1-0.3
        C302.5,432.8,302.4,432.8,302.3,432.8z"/>
      <path class="st43" d="M306.8,434.6c0,0.4,0,0.8,0,0.9c0,0.2-0.1,0.4-0.2,0.5s-0.3,0.3-0.4,0.4c-0.2,0.1-0.4,0.1-0.7,0.1
        c-0.2,0-0.4,0-0.6-0.1c-0.2-0.1-0.3-0.2-0.5-0.3c-0.1-0.2-0.2-0.3-0.2-0.5c0-0.2,0-0.5,0-1v-0.8c0-0.4,0-0.8,0-0.9
        c0-0.2,0.1-0.4,0.2-0.5s0.3-0.3,0.4-0.4c0.2-0.1,0.4-0.1,0.7-0.1c0.2,0,0.5,0,0.6,0.1c0.2,0.1,0.3,0.2,0.5,0.3
        c0.1,0.2,0.2,0.3,0.2,0.5c0,0.2,0,0.5,0,1V434.6z M305.6,433.2c0-0.2,0-0.3,0-0.4s-0.1-0.1-0.1-0.1c-0.1,0-0.1,0-0.1,0.1
        c0,0,0,0.2,0,0.4v2.1c0,0.3,0,0.4,0,0.5c0,0.1,0.1,0.1,0.1,0.1c0.1,0,0.1,0,0.2-0.1s0-0.2,0-0.5V433.2z"/>
      <path class="st43" d="M309.8,432v3c0,0.3,0,0.6,0,0.7c0,0.1-0.1,0.3-0.2,0.4c-0.1,0.1-0.2,0.3-0.4,0.3c-0.2,0.1-0.4,0.1-0.6,0.1
        c-0.3,0-0.5,0-0.7-0.1c-0.2-0.1-0.4-0.2-0.5-0.3c-0.1-0.1-0.2-0.3-0.2-0.4c0-0.2,0-0.5,0-1V432h1.2v3.3c0,0.2,0,0.3,0,0.4
        s0.1,0.1,0.1,0.1c0.1,0,0.1,0,0.1-0.1c0-0.1,0-0.2,0-0.4V432H309.8z"/>
      <path class="st43" d="M312.8,432v4.4h-1l-0.6-2v2h-1V432h1l0.6,2v-2H312.8z"/>
      <path class="st43" d="M313.3,432h0.9c0.6,0,0.9,0,1.1,0.1c0.2,0.1,0.3,0.1,0.4,0.3c0.1,0.1,0.2,0.2,0.2,0.4c0,0.1,0,0.4,0,0.8
        v1.5c0,0.4,0,0.7-0.1,0.8c0,0.1-0.1,0.2-0.2,0.3c-0.1,0.1-0.2,0.1-0.3,0.2s-0.3,0-0.6,0h-1.5V432z M314.5,432.8v2.9
        c0.2,0,0.3,0,0.3-0.1c0-0.1,0.1-0.2,0.1-0.5v-1.7c0-0.2,0-0.3,0-0.4c0-0.1,0-0.1-0.1-0.1C314.7,432.8,314.6,432.8,314.5,432.8z"
        />
    </g>

    <animateTransform id="animation7" attributeName="transform"
      type="translate"
      values="0 -15;0 0"
      begin="indefinite"
      dur="0.2"
      repeatCount="1"
      fill="freeze"
      calcMode="spline"
      keySplines="0.5 0 1 1"
      />

    <animate id="animation8" attributeName="opacity"
      from="0"
      to="0"
      begin="indefinite"
      dur="0.5"
      repeatCount="1"
      fill="freeze"
      values="0;1"
      calcMode="spline"
      keySplines="0.5 0 0.5 1"
      />
  </g>
	<g id="Label_7_" opacity="0">
		<ellipse class="st46" cx="340.5" cy="464.2" rx="2.9" ry="1.7"/>
		<path class="st81" d="M345.6,449.9h-10.3c-0.6,0-1.1,0.5-1.1,1.1v9.1c0,0.6,0.5,1.1,1.1,1.1h2.3l2.9,2.9l2.9-2.9h2.3
			c0.6,0,1.1-0.5,1.1-1.1V451C346.8,450.4,346.2,449.9,345.6,449.9z"/>
		<g>
			<path class="st43" d="M337.9,451.7v4.3h-1.1v-1.8h-0.3v1.8h-1.1v-4.3h1.1v1.6h0.3v-1.6H337.9z"/>
			<path class="st43" d="M339.5,451.7v4.3h-1.1v-4.3H339.5z"/>
			<path class="st43" d="M342.6,453.3h-1.1v-0.4c0-0.2,0-0.4,0-0.5s-0.1-0.1-0.2-0.1c-0.1,0-0.1,0-0.1,0.1c0,0.1,0,0.2,0,0.4v2.1
				c0,0.2,0,0.3,0,0.4c0,0.1,0.1,0.1,0.2,0.1c0.1,0,0.1,0,0.2-0.1c0-0.1,0-0.2,0-0.4v-0.5h-0.2v-0.7h1.3v2.3h-0.7l-0.1-0.3
				c-0.1,0.1-0.2,0.2-0.3,0.3c-0.1,0.1-0.3,0.1-0.4,0.1c-0.2,0-0.4,0-0.5-0.1c-0.2-0.1-0.3-0.2-0.4-0.3c-0.1-0.1-0.1-0.3-0.2-0.4
				c0-0.1,0-0.4,0-0.7v-1.3c0-0.4,0-0.7,0.1-0.9s0.2-0.4,0.4-0.5c0.2-0.2,0.5-0.2,0.8-0.2c0.3,0,0.6,0.1,0.8,0.2
				c0.2,0.1,0.4,0.3,0.4,0.5c0.1,0.2,0.1,0.5,0.1,0.8V453.3z"/>
			<path class="st43" d="M345.6,451.7v4.3h-1.1v-1.8h-0.3v1.8H343v-4.3h1.1v1.6h0.3v-1.6H345.6z"/>
			<path class="st43" d="M336.9,458.3h-0.7V458c0-0.1,0-0.2,0-0.3c0,0,0-0.1-0.1-0.1c0,0-0.1,0-0.1,0c0,0,0,0.1,0,0.2v1.2
				c0,0.1,0,0.2,0,0.2c0,0,0,0.1,0.1,0.1c0,0,0.1,0,0.1-0.1c0,0,0-0.1,0-0.2v-0.3h-0.1v-0.4h0.8v1.4h-0.4l-0.1-0.2
				c0,0.1-0.1,0.1-0.2,0.2c-0.1,0-0.1,0.1-0.2,0.1c-0.1,0-0.2,0-0.3-0.1c-0.1-0.1-0.2-0.1-0.2-0.2c-0.1-0.1-0.1-0.2-0.1-0.2
				c0-0.1,0-0.2,0-0.4v-0.8c0-0.2,0-0.4,0-0.5c0-0.1,0.1-0.2,0.2-0.3c0.1-0.1,0.3-0.1,0.5-0.1c0.2,0,0.4,0,0.5,0.1
				c0.1,0.1,0.2,0.2,0.2,0.3s0.1,0.3,0.1,0.5V458.3z"/>
			<path class="st43" d="M337.1,457.3h0.5c0.3,0,0.5,0,0.6,0c0.1,0,0.2,0.1,0.3,0.2c0.1,0.1,0.1,0.3,0.1,0.5c0,0.2,0,0.3-0.1,0.4
				c0,0.1-0.1,0.1-0.3,0.1c0.1,0,0.2,0.1,0.3,0.1c0,0.1,0.1,0.1,0.1,0.1c0,0,0,0.2,0,0.4v0.7H338V459c0-0.1,0-0.2,0-0.3
				c0,0-0.1,0-0.2,0v1.1h-0.7V457.3z M337.8,457.8v0.6c0.1,0,0.1,0,0.2,0c0,0,0-0.1,0-0.2V458c0-0.1,0-0.1,0-0.2
				C337.9,457.8,337.9,457.8,337.8,457.8z"/>
			<path class="st43" d="M340.4,458.8c0,0.3,0,0.4,0,0.5c0,0.1,0,0.2-0.1,0.3c-0.1,0.1-0.1,0.2-0.3,0.2c-0.1,0-0.2,0.1-0.4,0.1
				c-0.1,0-0.3,0-0.4-0.1c-0.1,0-0.2-0.1-0.3-0.2c-0.1-0.1-0.1-0.2-0.1-0.3c0-0.1,0-0.3,0-0.5v-0.4c0-0.3,0-0.4,0-0.5
				c0-0.1,0-0.2,0.1-0.3c0.1-0.1,0.1-0.2,0.3-0.2c0.1,0,0.2-0.1,0.4-0.1c0.1,0,0.3,0,0.4,0.1c0.1,0,0.2,0.1,0.3,0.2
				c0.1,0.1,0.1,0.2,0.1,0.3c0,0.1,0,0.3,0,0.5V458.8z M339.7,458c0-0.1,0-0.2,0-0.2c0,0,0,0-0.1,0c0,0-0.1,0-0.1,0c0,0,0,0.1,0,0.2
				v1.2c0,0.1,0,0.2,0,0.3c0,0,0,0.1,0.1,0.1c0,0,0.1,0,0.1-0.1c0,0,0-0.1,0-0.3V458z"/>
			<path class="st43" d="M342.1,457.3v1.7c0,0.2,0,0.3,0,0.4c0,0.1,0,0.2-0.1,0.2c-0.1,0.1-0.1,0.1-0.2,0.2c-0.1,0-0.2,0.1-0.4,0.1
				c-0.2,0-0.3,0-0.4-0.1c-0.1-0.1-0.2-0.1-0.3-0.2c-0.1-0.1-0.1-0.2-0.1-0.3c0-0.1,0-0.3,0-0.6v-1.5h0.7v1.9c0,0.1,0,0.2,0,0.2
				c0,0,0,0,0.1,0c0,0,0.1,0,0.1-0.1c0,0,0-0.1,0-0.2v-1.9H342.1z"/>
			<path class="st43" d="M343.8,457.3v2.5h-0.6l-0.3-1.2v1.2h-0.6v-2.5h0.6l0.4,1.1v-1.1H343.8z"/>
			<path class="st43" d="M344.1,457.3h0.5c0.3,0,0.5,0,0.6,0c0.1,0,0.2,0.1,0.3,0.1c0.1,0.1,0.1,0.1,0.1,0.2c0,0.1,0,0.2,0,0.5v0.9
				c0,0.2,0,0.4,0,0.5c0,0.1-0.1,0.1-0.1,0.2c-0.1,0-0.1,0.1-0.2,0.1s-0.2,0-0.4,0h-0.8V457.3z M344.7,457.8v1.7
				c0.1,0,0.2,0,0.2-0.1c0,0,0-0.1,0-0.3v-1c0-0.1,0-0.2,0-0.2c0,0,0-0.1-0.1-0.1C344.9,457.8,344.8,457.8,344.7,457.8z"/>
		</g>

    <animateTransform id="animation9" attributeName="transform"
      type="translate"
      values="0 -15;0 0"
      begin="indefinite"
      dur="0.2"
      repeatCount="1"
      fill="freeze"
      calcMode="spline"
      keySplines="0.5 0 1 1"
      />

    <animate id="animation10" attributeName="opacity"
      from="0"
      to="0"
      begin="indefinite"
      dur="0.5"
      repeatCount="1"
      fill="freeze"
      values="0;1"
      calcMode="spline"
      keySplines="0.5 0 0.5 1"
      />
	</g>

  <animate id="animation11" attributeName="opacity"
    from="0"
    to="0"
    begin="indefinite"
    dur="0.5"
    repeatCount="1"
    fill="freeze"
    values="0;1"
    calcMode="spline"
    keySplines="0.5 0 0.5 1"
    />
</g>
</svg>
