<?xml version="1.0" encoding="utf-8"?>
<!-- Generator: Adobe Illustrator 19.1.0, SVG Export Plug-In . SVG Version: 6.00 Build 0)  -->
<!DOCTYPE svg PUBLIC "-//W3C//DTD SVG 1.1//EN" "http://www.w3.org/Graphics/SVG/1.1/DTD/svg11.dtd">
<svg version="1.1" xmlns="http://www.w3.org/2000/svg" xmlns:xlink="http://www.w3.org/1999/xlink" x="0px" y="0px" width="720px"
	 height="3875px" viewBox="0 0 720 612" style="enable-background:new 0 0 720 612;" xml:space="preserve">
<style type="text/css">
	.st0{fill:#666666;}
	.st1{fill:#4D4D4D;}
	.st2{fill:#808080;}
	.st3{fill:#707070;}
	.st4{fill:#525252;}
	.st5{fill:none;stroke:#333333;stroke-width:15;stroke-miterlimit:10;}
	.st6{fill:none;stroke:#999999;stroke-width:0.5;stroke-miterlimit:10;}
	.st7{fill:none;stroke:#999999;stroke-width:0.5;stroke-miterlimit:10;stroke-dasharray:1.9994,0.9997;}
	.st8{fill:none;stroke:#737373;stroke-miterlimit:10;}
	.st9{opacity:0.25;fill:#1A1A1A;}
	.st10{fill:#474747;}
	.st11{opacity:0.6;fill:#D4D4D4;}
	.st12{opacity:0.23;}
	.st13{fill:#D4D4D4;}
	.st14{opacity:0.49;}
	.st15{opacity:0.23;fill:#1A1A1A;}
	.st16{fill:#1A1A1A;}
	.st17{opacity:0.25;}
	.st18{fill:#737373;}
	.st19{fill:none;stroke:#737373;stroke-width:0.5;stroke-miterlimit:10;}
	.st20{fill:#404040;}
	.st21{fill:#E6E6E6;}
	.st22{fill:#BABABA;}
	.st23{opacity:0.13;}
	.st24{fill:#999999;}
	.st25{fill:#545454;}
	.st26{fill:#8C8C8C;}
	.st27{fill:#787878;}
	.st28{opacity:0.2;}
	.st29{fill:#C4C4C4;}
	.st30{fill:#9C9C9C;}
	.st31{fill:#B3B3B3;}
	.st32{opacity:0.15;}
	.st33{fill:#2E2E2E;}
	.st34{opacity:0.16;}
	.st35{fill:#7D7D7D;}
	.st36{fill:#383838;}
	.st37{display:none;opacity:0.41;}
	.st38{display:none;opacity:0.47;}
	.st39{display:none;opacity:0.33;}
	.st40{display:none;opacity:0.49;}
	.st41{opacity:0.6;fill:url(#SVGID_1_);}
	.st42{opacity:0.26;}
	.st43{fill:#A63B32;}
	.st44{fill:#3A5789;}
	.st45{fill:#BFC4CD;}
	.st46{opacity:0.1;}
	.st47{font-family:'Impact';}
	.st48{font-size:14px;}
	.st49{letter-spacing:4;}
	.st50{opacity:0.3;fill:none;stroke:#000000;stroke-miterlimit:10;}
	.st51{fill:#FFC900;}
	.st52{opacity:0.1;fill:url(#SVGID_2_);}
	.st53{opacity:0.65;}
	.st54{opacity:0.1;fill:url(#SVGID_3_);}
	.st55{opacity:0.1;fill:url(#SVGID_4_);}
	.st56{opacity:0.3;fill:none;stroke:#350000;stroke-miterlimit:10;}
	.st57{opacity:0.17;fill:url(#SVGID_5_);}
	.st58{opacity:0.21;fill:none;stroke:#350000;stroke-miterlimit:10;}
	.st59{opacity:0.15;fill:url(#SVGID_6_);}
	.st60{opacity:0.23;fill:none;stroke:#350000;stroke-miterlimit:10;}
	.st61{opacity:0.3;fill:none;stroke:#4A1B00;stroke-miterlimit:10;}
	.st62{opacity:0.15;fill:url(#SVGID_7_);}
	.st63{opacity:0.18;fill:url(#SVGID_8_);}
	.st64{fill:none;stroke:#520F00;stroke-miterlimit:10;}
	.st65{opacity:0.21;fill:url(#SVGID_9_);}
	.st66{opacity:0.1;fill:url(#_x37_th_wave_1_);}
	.st67{opacity:0.1;fill:url(#_x36_th_wave_1_);}
	.st68{opacity:0.1;fill:url(#_x35_th_wave_1_);}
	.st69{opacity:0.1;fill:url(#_x34_th_wave_1_);}
	.st70{opacity:0.1;fill:url(#_x33_rd_wave_1_);}
	.st71{opacity:0.1;fill:url(#_x32_nd_wave_1_);}
	.st72{opacity:0.1;fill:url(#_x31_st_wave_1_);}
	.st73{fill:#934831;}
	.st74{fill:#994E31;}
	.st75{fill:#9C5133;}
	.st76{fill:#A15533;}
	.st77{fill:#A45834;}
	.st78{fill:#A65B33;}
	.st79{fill:#B16636;}
	.st80{fill:#B96C36;}
	.st81{opacity:0.5;fill:#FFFFFF;}
	.st82{fill:#2E3134;}
	.st83{opacity:0.3;fill:url(#SVGID_10_);}
	.st84{opacity:0.3;fill:url(#SVGID_11_);}
	.st85{opacity:0.3;fill:url(#SVGID_12_);}
	.st86{opacity:0.15;fill:url(#SVGID_13_);}
	.st87{opacity:0.15;fill:url(#SVGID_14_);}
	.st88{opacity:0.3;fill:url(#SVGID_15_);}
	.st89{fill:#72777F;}
	.st90{fill:#6E6E6E;}
	.st91{fill:#FF784C;}
	.st92{fill:#DE470C;}
	.st93{fill:#5B646F;}
	.st94{fill:#283442;}
	.st95{fill:#414B57;}
	.st96{fill:#192534;}
	.st97{opacity:0.3;fill:url(#Backlight_1_);}
	.st98{fill:#E75E39;}
	.st99{opacity:0.5;fill:url(#SVGID_16_);}
	.st100{fill:#35AF30;}
	.st101{opacity:0.5;fill:url(#SVGID_17_);}
	.st102{opacity:0.5;fill:url(#SVGID_18_);}
	.st103{opacity:0.5;fill:url(#SVGID_19_);}
	.st104{opacity:0.4;fill:url(#SVGID_20_);}
	.st105{fill:#BFBFBF;}
	.st106{fill:#636370;}
	.st107{fill:#50505E;}
</style>
<g id="Tsunami_waves" opacity="0">
	<linearGradient id="_x31_st_wave_1_" gradientUnits="userSpaceOnUse" x1="321.605" y1="340.2493" x2="437.605" y2="363.5826">
		<stop  offset="0" style="stop-color:#FFFFFF;stop-opacity:0"/>
		<stop  offset="1" style="stop-color:#FFFFFF"/>
	</linearGradient>
	<path id="_x31_st_wave" class="st72" d="M236.3,0.4c0,0,44.3,57.9,115.8,90.4s64.8,81.9,45.5,136.5c-19.3,54.7,4.6,56,13,104.7
		s-51.6,78.1-55,142.1c-3.3,63.9-111.3,41.9-166,137.3H65V0.4H236.3z">

    <animate attributeName="d"
      from="M236.3,0.4c0,0,44.3,57.9,115.8,90.4s64.8,81.9,45.5,136.5c-19.3,54.7,4.6,56,13,104.7s-51.6,78.1-55,142.1c-3.3,63.9-111.3,41.9-166,137.3H65V0.4H236.3z"
      to="M236.3,0.4c0,0,44.3,57.9,115.8,90.4s64.8,81.9,45.5,136.5c-19.3,54.7,4.6,56,13,104.7s-51.6,78.1-55,142.1c-3.3,63.9-111.3,41.9-166,137.3H65V0.4H236.3z"
      begin="0"
      dur="4"
      repeatCount="1"
      fill="freeze"
      values="M236.3,0.4c0,0,44.3,57.9,115.8,90.4s64.8,81.9,45.5,136.5c-19.3,54.7,4.6,56,13,104.7s-51.6,78.1-55,142.1c-3.3,63.9-111.3,41.9-166,137.3H65V0.4H236.3z;
      M335.3,0.4c0,0,44.3,57.9,115.8,90.4s64.8,81.9,45.5,136.5c-19.3,54.7,4.6,56,13,104.7s-51.6,78.1-55,142.1c-3.3,63.9-111.3,41.9-166,137.3H65V0.4H236.3z"
      calcMode="spline"
      keySplines="0.5 0 0.5 1"
    />
  </path>

  <animate attributeName="opacity"
    from="0"
    to="0"
    begin="0"
    dur="4"
    repeatCount="1"
    fill="freeze"
    values="0;0.8;1;0.4"
    calcMode="spline"
    keySplines="0.5 0 0.5 1;
                0.5 0 0.5 1;
                0.5 0 0.5 1"
    />
</g>

<g id="Highgrounds" opacity="0">
	<path class="st73" d="M465.5,353.7c-2.2,13.4-13.3,13.3-7.5,22.3s7.2-4.3,13.2-9S469.3,330.6,465.5,353.7z"/>
	<path class="st73" d="M460,381.4c-5,0.4-9.7,4.3-4.4,9.2S463.2,381.1,460,381.4z"/>

	<g id="Label" opacity="0">
		<ellipse class="st46" cx="466" cy="362" rx="5" ry="3"/>
		<path class="st81" d="M475,337h-18c-1.1,0-2,0.9-2,2v16c0,1.1,0.9,2,2,2h4l5,5l5-5h4c1.1,0,2-0.9,2-2v-16
			C477,337.9,476.1,337,475,337z"/>
		<g>
			<path class="st43" d="M461.6,340.2v7.6h-2v-3.2H459v3.2h-2v-7.6h2v2.7h0.6v-2.7H461.6z"/>
			<path class="st43" d="M464.3,340.2v7.6h-2v-7.6H464.3z"/>
			<path class="st43" d="M469.7,343h-2v-0.7c0-0.4,0-0.7-0.1-0.8s-0.1-0.2-0.3-0.2c-0.1,0-0.2,0-0.2,0.1c0,0.1-0.1,0.3-0.1,0.7v3.6
				c0,0.3,0,0.6,0.1,0.7c0,0.1,0.1,0.2,0.3,0.2c0.1,0,0.2-0.1,0.3-0.2c0.1-0.1,0.1-0.4,0.1-0.7v-0.9h-0.4v-1.2h2.3v4.1h-1.2
				l-0.2-0.5c-0.1,0.2-0.3,0.4-0.5,0.5c-0.2,0.1-0.4,0.2-0.7,0.2c-0.3,0-0.6-0.1-0.9-0.2c-0.3-0.2-0.5-0.4-0.7-0.6
				c-0.2-0.2-0.2-0.5-0.3-0.7c0-0.3-0.1-0.7-0.1-1.2v-2.3c0-0.7,0-1.3,0.1-1.6s0.3-0.6,0.7-0.9c0.4-0.3,0.8-0.4,1.4-0.4
				c0.6,0,1.1,0.1,1.4,0.4c0.4,0.2,0.6,0.5,0.7,0.8c0.1,0.3,0.2,0.8,0.2,1.4V343z"/>
			<path class="st43" d="M475,340.2v7.6h-2v-3.2h-0.6v3.2h-2v-7.6h2v2.7h0.6v-2.7H475z"/>
			<path class="st43" d="M459.7,351.7h-1.2v-0.4c0-0.3,0-0.4,0-0.5c0-0.1-0.1-0.1-0.2-0.1c-0.1,0-0.1,0-0.1,0.1s0,0.2,0,0.4v2.1
				c0,0.2,0,0.3,0,0.4c0,0.1,0.1,0.1,0.2,0.1c0.1,0,0.1,0,0.2-0.1c0-0.1,0-0.2,0-0.4v-0.5h-0.2v-0.7h1.3v2.4H459l-0.1-0.3
				c-0.1,0.1-0.2,0.2-0.3,0.3c-0.1,0.1-0.3,0.1-0.4,0.1c-0.2,0-0.4,0-0.5-0.1s-0.3-0.2-0.4-0.3c-0.1-0.1-0.1-0.3-0.2-0.4
				c0-0.2,0-0.4,0-0.7v-1.3c0-0.4,0-0.7,0.1-0.9s0.2-0.4,0.4-0.5c0.2-0.2,0.5-0.2,0.8-0.2c0.3,0,0.6,0.1,0.8,0.2
				c0.2,0.1,0.4,0.3,0.4,0.5s0.1,0.5,0.1,0.8V351.7z"/>
			<path class="st43" d="M460.1,350h0.8c0.5,0,0.9,0,1.1,0.1s0.3,0.1,0.5,0.3c0.1,0.2,0.2,0.4,0.2,0.8c0,0.3,0,0.6-0.1,0.7
				c-0.1,0.1-0.3,0.2-0.5,0.2c0.2,0.1,0.4,0.1,0.5,0.2c0.1,0.1,0.1,0.2,0.1,0.3c0,0.1,0,0.3,0,0.7v1.2h-1.1V353c0-0.2,0-0.4-0.1-0.4
				c0-0.1-0.1-0.1-0.3-0.1v2h-1.2V350z M461.3,350.8v1c0.1,0,0.2,0,0.3-0.1c0.1,0,0.1-0.2,0.1-0.3v-0.2c0-0.1,0-0.2-0.1-0.3
				C461.5,350.8,461.4,350.8,461.3,350.8z"/>
			<path class="st43" d="M465.8,352.6c0,0.4,0,0.8,0,0.9c0,0.2-0.1,0.4-0.2,0.5s-0.3,0.3-0.4,0.4c-0.2,0.1-0.4,0.1-0.7,0.1
				c-0.2,0-0.4,0-0.6-0.1c-0.2-0.1-0.3-0.2-0.5-0.3c-0.1-0.2-0.2-0.3-0.2-0.5c0-0.2,0-0.5,0-1v-0.8c0-0.4,0-0.8,0-0.9
				c0-0.2,0.1-0.4,0.2-0.5s0.3-0.3,0.4-0.4c0.2-0.1,0.4-0.1,0.7-0.1c0.2,0,0.5,0,0.6,0.1c0.2,0.1,0.3,0.2,0.5,0.3
				c0.1,0.2,0.2,0.3,0.2,0.5c0,0.2,0,0.5,0,1V352.6z M464.6,351.2c0-0.2,0-0.3,0-0.4s-0.1-0.1-0.1-0.1c-0.1,0-0.1,0-0.1,0.1
				c0,0,0,0.2,0,0.4v2.1c0,0.3,0,0.4,0,0.5c0,0.1,0.1,0.1,0.1,0.1c0.1,0,0.1,0,0.2-0.1s0-0.2,0-0.5V351.2z"/>
			<path class="st43" d="M468.8,350v3c0,0.3,0,0.6,0,0.7c0,0.1-0.1,0.3-0.2,0.4c-0.1,0.1-0.2,0.3-0.4,0.3c-0.2,0.1-0.4,0.1-0.6,0.1
				c-0.3,0-0.5,0-0.7-0.1c-0.2-0.1-0.4-0.2-0.5-0.3c-0.1-0.1-0.2-0.3-0.2-0.4c0-0.2,0-0.5,0-1V350h1.2v3.3c0,0.2,0,0.3,0,0.4
				s0.1,0.1,0.1,0.1c0.1,0,0.1,0,0.1-0.1c0-0.1,0-0.2,0-0.4V350H468.8z"/>
			<path class="st43" d="M471.8,350v4.4h-1l-0.6-2v2h-1V350h1l0.6,2v-2H471.8z"/>
			<path class="st43" d="M472.3,350h0.9c0.6,0,0.9,0,1.1,0.1c0.2,0.1,0.3,0.1,0.4,0.3c0.1,0.1,0.2,0.2,0.2,0.4c0,0.1,0,0.4,0,0.8
				v1.5c0,0.4,0,0.7-0.1,0.8c0,0.1-0.1,0.2-0.2,0.3c-0.1,0.1-0.2,0.1-0.3,0.2s-0.3,0-0.6,0h-1.5V350z M473.5,350.8v2.9
				c0.2,0,0.3,0,0.3-0.1c0-0.1,0.1-0.2,0.1-0.5v-1.7c0-0.2,0-0.3,0-0.4c0-0.1,0-0.1-0.1-0.1C473.7,350.8,473.6,350.8,473.5,350.8z"
				/>
		</g>

    <animateTransform attributeName="transform"
      type="translate"
      values="0 -15;0 0"
      begin="1.5"
      dur="0.2"
      repeatCount="1"
      fill="freeze"
      calcMode="spline"
      keySplines="0.5 0 1 1"
      />

    <animate attributeName="opacity"
      from="0"
      to="0"
      begin="1.5"
      dur="0.5"
      repeatCount="1"
      fill="freeze"
      values="0;1"
      calcMode="spline"
      keySplines="0.5 0 0.5 1"
      />
	</g>
	<g id="Label_6_" opacity="0">
		<ellipse class="st46" cx="457.6" cy="386.8" rx="2.9" ry="1.7"/>
		<path class="st81" d="M462.7,372.5h-10.3c-0.6,0-1.1,0.5-1.1,1.1v9.1c0,0.6,0.5,1.1,1.1,1.1h2.3l2.9,2.9l2.9-2.9h2.3
			c0.6,0,1.1-0.5,1.1-1.1v-9.1C463.9,373.1,463.4,372.5,462.7,372.5z"/>
		<g>
			<path class="st43" d="M455,374.3v4.3h-1.1v-1.8h-0.3v1.8h-1.1v-4.3h1.1v1.6h0.3v-1.6H455z"/>
			<path class="st43" d="M456.6,374.3v4.3h-1.1v-4.3H456.6z"/>
			<path class="st43" d="M459.7,375.9h-1.1v-0.4c0-0.2,0-0.4,0-0.5s-0.1-0.1-0.2-0.1c-0.1,0-0.1,0-0.1,0.1c0,0.1,0,0.2,0,0.4v2.1
				c0,0.2,0,0.3,0,0.4c0,0.1,0.1,0.1,0.2,0.1c0.1,0,0.1,0,0.2-0.1c0-0.1,0-0.2,0-0.4V377h-0.2v-0.7h1.3v2.3H459l-0.1-0.3
				c-0.1,0.1-0.2,0.2-0.3,0.3c-0.1,0.1-0.3,0.1-0.4,0.1c-0.2,0-0.4,0-0.5-0.1c-0.2-0.1-0.3-0.2-0.4-0.3c-0.1-0.1-0.1-0.3-0.2-0.4
				c0-0.1,0-0.4,0-0.7v-1.3c0-0.4,0-0.7,0.1-0.9c0-0.2,0.2-0.4,0.4-0.5c0.2-0.2,0.5-0.2,0.8-0.2c0.3,0,0.6,0.1,0.8,0.2
				c0.2,0.1,0.4,0.3,0.4,0.5c0.1,0.2,0.1,0.5,0.1,0.8V375.9z"/>
			<path class="st43" d="M462.7,374.3v4.3h-1.1v-1.8h-0.3v1.8h-1.1v-4.3h1.1v1.6h0.3v-1.6H462.7z"/>
			<path class="st43" d="M454,380.9h-0.7v-0.2c0-0.1,0-0.2,0-0.3c0,0,0-0.1-0.1-0.1c0,0-0.1,0-0.1,0c0,0,0,0.1,0,0.2v1.2
				c0,0.1,0,0.2,0,0.2c0,0,0,0.1,0.1,0.1c0,0,0.1,0,0.1-0.1c0,0,0-0.1,0-0.2v-0.3h-0.1v-0.4h0.8v1.4h-0.4l-0.1-0.2
				c0,0.1-0.1,0.1-0.2,0.2c-0.1,0-0.1,0.1-0.2,0.1c-0.1,0-0.2,0-0.3-0.1c-0.1-0.1-0.2-0.1-0.2-0.2c-0.1-0.1-0.1-0.2-0.1-0.2
				c0-0.1,0-0.2,0-0.4v-0.8c0-0.2,0-0.4,0-0.5c0-0.1,0.1-0.2,0.2-0.3c0.1-0.1,0.3-0.1,0.5-0.1c0.2,0,0.4,0,0.5,0.1
				c0.1,0.1,0.2,0.2,0.2,0.3c0,0.1,0.1,0.3,0.1,0.5V380.9z"/>
			<path class="st43" d="M454.2,380h0.5c0.3,0,0.5,0,0.6,0c0.1,0,0.2,0.1,0.3,0.2c0.1,0.1,0.1,0.3,0.1,0.5c0,0.2,0,0.3-0.1,0.4
				c0,0.1-0.1,0.1-0.3,0.1c0.1,0,0.2,0.1,0.3,0.1c0,0.1,0.1,0.1,0.1,0.1c0,0,0,0.2,0,0.4v0.7h-0.6v-0.8c0-0.1,0-0.2,0-0.3
				c0,0-0.1,0-0.2,0v1.1h-0.7V380z M454.9,380.4v0.6c0.1,0,0.1,0,0.2,0c0,0,0-0.1,0-0.2v-0.1c0-0.1,0-0.1,0-0.2
				C455,380.4,455,380.4,454.9,380.4z"/>
			<path class="st43" d="M457.5,381.5c0,0.3,0,0.4,0,0.5c0,0.1,0,0.2-0.1,0.3c-0.1,0.1-0.1,0.2-0.3,0.2c-0.1,0-0.2,0.1-0.4,0.1
				c-0.1,0-0.3,0-0.4-0.1c-0.1,0-0.2-0.1-0.3-0.2c-0.1-0.1-0.1-0.2-0.1-0.3c0-0.1,0-0.3,0-0.5V381c0-0.3,0-0.4,0-0.5
				c0-0.1,0-0.2,0.1-0.3s0.1-0.2,0.3-0.2c0.1,0,0.2-0.1,0.4-0.1c0.1,0,0.3,0,0.4,0.1c0.1,0,0.2,0.1,0.3,0.2c0.1,0.1,0.1,0.2,0.1,0.3
				c0,0.1,0,0.3,0,0.5V381.5z M456.8,380.6c0-0.1,0-0.2,0-0.2c0,0,0,0-0.1,0c0,0-0.1,0-0.1,0c0,0,0,0.1,0,0.2v1.2c0,0.1,0,0.2,0,0.3
				c0,0,0,0.1,0.1,0.1c0,0,0.1,0,0.1-0.1c0,0,0-0.1,0-0.3V380.6z"/>
			<path class="st43" d="M459.2,380v1.7c0,0.2,0,0.3,0,0.4c0,0.1,0,0.2-0.1,0.2c-0.1,0.1-0.1,0.1-0.2,0.2c-0.1,0-0.2,0.1-0.4,0.1
				c-0.2,0-0.3,0-0.4-0.1c-0.1-0.1-0.2-0.1-0.3-0.2c-0.1-0.1-0.1-0.2-0.1-0.3c0-0.1,0-0.3,0-0.6V380h0.7v1.9c0,0.1,0,0.2,0,0.2
				c0,0,0,0,0.1,0c0,0,0.1,0,0.1-0.1c0,0,0-0.1,0-0.2V380H459.2z"/>
			<path class="st43" d="M460.9,380v2.5h-0.6l-0.3-1.2v1.2h-0.6V380h0.6l0.4,1.1V380H460.9z"/>
			<path class="st43" d="M461.2,380h0.5c0.3,0,0.5,0,0.6,0c0.1,0,0.2,0.1,0.3,0.1c0.1,0.1,0.1,0.1,0.1,0.2c0,0.1,0,0.2,0,0.5v0.9
				c0,0.2,0,0.4,0,0.5c0,0.1-0.1,0.1-0.1,0.2c-0.1,0-0.1,0.1-0.2,0.1s-0.2,0-0.4,0h-0.8V380z M461.8,380.4v1.7c0.1,0,0.2,0,0.2-0.1
				c0,0,0-0.1,0-0.3v-1c0-0.1,0-0.2,0-0.2c0,0,0-0.1-0.1-0.1C462,380.4,461.9,380.4,461.8,380.4z"/>
		</g>

    <animateTransform attributeName="transform"
      type="translate"
      values="0 -15;0 0"
      begin="2"
      dur="0.2"
      repeatCount="1"
      fill="freeze"
      calcMode="spline"
      keySplines="0.5 0 1 1"
      />

    <animate attributeName="opacity"
      from="0"
      to="0"
      begin="2"
      dur="0.5"
      repeatCount="1"
      fill="freeze"
      values="0;1"
      calcMode="spline"
      keySplines="0.5 0 0.5 1"
      />
	</g>

  <animate attributeName="opacity"
    from="0"
    to="0"
    begin="1.5"
    dur="0.5"
    repeatCount="1"
    fill="freeze"
    values="0;1"
    calcMode="spline"
    keySplines="0.5 0 0.5 1"
    />
</g>
</svg>
